<svg id="Layer_1" data-name="Layer 1" xmlns="http://www.w3.org/2000/svg" viewBox="0 0 600 131.02"><defs><style>.cls-1{fill:#231f20;}</style></defs><title>forge-logo</title><g id="logo"><path class="cls-1" d="M146.75,14.05H90.94a8,8,0,0,0-7,4L71.76,39.2a8.06,8.06,0,0,0,7,12.09h55.81a8,8,0,0,0,7-4l12.2-21.12A8.06,8.06,0,0,0,146.75,14.05Z" transform="translate(-6 -14.05)"/><path class="cls-1" d="M119.89,60.57H64.08a8,8,0,0,0-7,4l-11.58,20a8.08,8.08,0,0,0,0,8.07L73.43,141a8.06,8.06,0,0,0,14,0l39.48-68.38A8.06,8.06,0,0,0,119.89,60.57Z" transform="translate(-6 -14.05)"/><path class="cls-1" d="M68.59,26.14a8.06,8.06,0,0,0-7-12.09H14.07a8.06,8.06,0,0,0-7,12.09L27,60.57l3.89,6.74a8.07,8.07,0,0,0,14,0Z" transform="translate(-6 -14.05)"/></g><path class="cls-1" d="M194.64,54.16v-18h13v18h10.67V64.62H207.61V95.38c0,2.93,1.46,3.77,4.71,3.77a28.29,28.29,0,0,0,6-1.05v10.67a84.3,84.3,0,0,1-10.25.84c-9.62,0-13.39-4.81-13.39-12.56V64.62h-7.53V54.16Z" transform="translate(-6 -14.05)"/><path class="cls-1" d="M222.78,117.35a24.17,24.17,0,0,0,5.44.42c4.5,0,7-1.26,8.58-4.29,1.25-2.62,2.09-4.19,2.09-6.38,0-2-1-4.29-1.68-6.49L222.68,54.16h13.07l9,33.48h.2l9.31-33.48h13l-17.15,54.51c-8.29,14.79-13.18,18.88-21,19.76a19.14,19.14,0,0,1-6.27-.41Z" transform="translate(-6 -14.05)"/><rect class="cls-1" x="266.74" y="18.99" width="12.97" height="75.53"/><path class="cls-1" d="M327.05,74.67c-.2-7.53-4.18-11.93-10.46-11.93s-10.25,4.4-10.45,11.93Zm-20.91,8.78c.2,11.3,5.23,15.7,11.29,15.7s8.89-2.73,12.14-6.49L339,98.52c-5,7.74-12.35,11.09-22.8,11.09-14.13,0-23-11-23-28.25s8.89-28.24,23.64-28.24C331,53,339,65,339,78.12v5.33Z" transform="translate(-6 -14.05)"/><path class="cls-1" d="M346.57,108.56V54.16h11.92v9.31h.21c3.14-6.48,7.53-10.14,16.73-10.53v13.7c-2.08.08-2.82.08-3.76.08-6.49,0-12.14,7.42-12.14,8.78v33.06Z" transform="translate(-6 -14.05)"/><path class="cls-1" d="M413.54,64.72v43.93h-13V64.72H393V54.26h7.42V47.57c0-11.71,4.71-15.48,15.38-15.48h8.58V42.55h-3.56c-5.44,0-7.32,1.67-7.32,5.86v5.85h11V64.72Z" transform="translate(-6 -14.05)"/><path class="cls-1" d="M450.67,53.22c14.75,0,23.64,11,23.64,28.24s-8.89,28.24-23.64,28.24S427,98.72,427,81.46,435.92,53.22,450.67,53.22Zm0,10.46c-7.22,0-10.67,5.65-10.67,17.78s3.45,17.78,10.67,17.78,10.67-5.65,10.67-17.78S457.89,63.68,450.67,63.68Z" transform="translate(-6 -14.05)"/><path class="cls-1" d="M480.59,108.65V54.26h11.92v9.31h.21c3.14-6.48,7.53-10.14,15.27-10.35v13.7a15.45,15.45,0,0,0-2.3-.1c-6.48,0-12.13,7.42-12.13,8.78v33.05Z" transform="translate(-6 -14.05)"/><path class="cls-1" d="M558.51,62c-3,0-6.38,0-8.37,1.26a15.91,15.91,0,0,1,2.93,9.62c0,10.25-6.9,17.57-20.5,17.57-5.65,0-10.14.21-10.14,3.35,0,8.79,35.77-3.14,35.77,18.62,0,7.74-7.85,16.11-25.21,16.11-14.64,0-24.27-4.4-24.27-13a9.59,9.59,0,0,1,9.84-10v-.21c-2.52-1.57-8.06-2.93-8.06-8.79,0-5.23,6.07-9.2,8.48-9.94-4.5-3.66-8.06-7.84-8.06-14.43,0-9.52,7.32-18.93,21.44-18.93A21.81,21.81,0,0,1,545.75,58c2.51-3.35,6.59-5,12.76-4.81Zm-37.86,51.88c0,4.19,3.56,6.07,14.43,6.07,8.37,0,11.19-4.18,11.19-6.07,0-2.51-3.87-6.27-16.42-6.27C522.74,107.61,520.65,111.58,520.65,113.88Zm11.61-51c-5.55,0-9.42,4-9.42,9s3.87,9,9.42,9a9,9,0,0,0,0-18Z" transform="translate(-6 -14.05)"/><path class="cls-1" d="M573.16,83.55c.21,11.3,5.23,15.69,11.29,15.69s8.9-2.72,12.14-6.48L606,98.61c-5,7.74-12.34,11.09-22.8,11.09-14.12,0-23-11-23-28.24s8.89-28.24,23.64-28.24c14.22-.11,22.17,11.92,22.17,25v5.33Zm20.92-8.78c-.21-7.54-4.19-11.93-10.46-11.93s-10.25,4.39-10.46,11.93Z" transform="translate(-6 -14.05)"/></svg>