<?xml version="1.0" encoding="utf-8"?>
<!-- Generator: Adobe Illustrator 23.0.3, SVG Export Plug-In . SVG Version: 6.00 Build 0)  -->
<svg version="1.1" id="Layer_1" xmlns="http://www.w3.org/2000/svg" xmlns:xlink="http://www.w3.org/1999/xlink" x="0px" y="0px"
	 viewBox="0 0 360 360" style="enable-background:new 0 0 360 360;" xml:space="preserve">
<style type="text/css">
	.st0{fill-rule:evenodd;clip-rule:evenodd;fill:#D0DBF4;}
	.st1{fill:#D0DBF4;}
	.st2{fill:none;}
	.st3{fill:#FFFFFF;stroke:#586AB1;stroke-width:2;stroke-linecap:round;stroke-linejoin:round;}
	.st4{fill:#EFEFEF;stroke:#586AB1;stroke-width:2;stroke-linecap:round;stroke-linejoin:round;}
	.st5{fill:#586AB1;}
	.st6{clip-path:url(#SVGID_2_);}
	.st7{fill:#FCBF12;}
	.st8{fill:#D1D1D1;}
	.st9{fill:#FFFFFF;}
	.st10{fill:#5CC5CD;}
	.st11{clip-path:url(#SVGID_4_);}
	.st12{clip-path:url(#SVGID_6_);}
	.st13{fill:#EAEAEA;}
	.st14{fill:none;stroke:#D1D1D1;stroke-linecap:round;stroke-linejoin:round;}
</style>
<title>forge-lists-spot hero</title>
<path class="st0" d="M178.2,306.6c70.3,0,127.3-56.9,127.4-127.2c0-70.3-56.9-127.3-127.2-127.4S51,108.9,51,179.2c0,0,0,0,0,0.1
	C51,249.5,108,306.5,178.2,306.6z"/>
<path class="st1" d="M313.6,96.8L313.6,96.8c-0.1,0-0.1,0-0.2,0c-0.1,0-0.2,0-0.3,0c-2.6-0.6-3.7-3-4-4.1c-0.1-1-1-1.8-2.1-1.7
	c-0.8,0.1-1.4,0.6-1.6,1.4v-0.2c0,0-0.9,3.7-4,4.5c-0.1,0-0.3,0-0.4,0.1h-0.2l0,0c-0.7,0.3-1.2,1-1.2,1.8c0,0.8,0.5,1.5,1.3,1.8
	h-0.1c2.9,0.3,4.1,3.1,4.5,4.2c0.2,1,1.1,1.7,2.2,1.6c0.9-0.1,1.5-0.8,1.6-1.7c0.4-1,1.4-3.3,3.7-4h0.1c1,0,1.9-0.8,1.9-1.9
	C314.9,97.8,314.4,97.1,313.6,96.8L313.6,96.8z"/>
<rect x="0.3" y="-0.1" class="st2" width="360" height="360"/>
<path class="st3" d="M110.4,39.5h134.9c6.1,0,11,4.9,11,11v265.6c0,6.1-4.9,11-11,11H110.4c-6.1,0-11-4.9-11-11V50.5
	C99.4,44.4,104.3,39.5,110.4,39.5z"/>
<rect x="107" y="68.8" class="st3" width="141.6" height="210.7"/>
<circle class="st4" cx="177.8" cy="303.7" r="14.9"/>
<circle class="st5" cx="145.4" cy="55.1" r="4.4"/>
<path class="st5" d="M159.8,52.7h52.5c1.3,0,2.4,1.1,2.4,2.4v0c0,1.3-1.1,2.4-2.4,2.4h-52.5c-1.3,0-2.4-1.1-2.4-2.4v0
	C157.4,53.8,158.5,52.7,159.8,52.7z"/>
<circle class="st1" cx="141.8" cy="117.6" r="24"/>
<g>
	<defs>
		<circle id="SVGID_1_" cx="141.7" cy="117.6" r="24.2"/>
	</defs>
	<clipPath id="SVGID_2_">
		<use xlink:href="#SVGID_1_"  style="overflow:visible;"/>
	</clipPath>
	<g class="st6">
		<path class="st7" d="M127.9,136.9l1.1-4.9c0,0-1.6-1.3,4.3-1.2s20.6,0.3,20.6,0.3s1.2,0.8,1.3,1.2s0.8,4.1,0.8,4.1
			s-5.6,5.2-13,5.4s-14.6-3.4-14.6-3.4L127.9,136.9z"/>
		<rect x="134.8" y="125.1" class="st7" width="14.6" height="4.9"/>
		<path class="st5" d="M149.4,130.3h-14.6c-0.2,0-0.4-0.2-0.4-0.3v0v-4.9c0-0.2,0.2-0.3,0.4-0.3h14.6c0.2,0,0.3,0.2,0.3,0.3v4.9
			C149.7,130.2,149.6,130.3,149.4,130.3z M135.1,129.6H149v-4.2h-13.9V129.6z"/>
		<path class="st8" d="M133.3,129h17.4c0.6,0,1,0.4,1,1v0.7c0,0.6-0.4,1-1,1h-17.4c-0.6,0-1-0.4-1-1V130
			C132.3,129.4,132.8,129,133.3,129z"/>
		<path class="st5" d="M151,132.1h-18c-0.6,0-1-0.4-1-1c0,0,0,0,0-0.1v-1.3c0-0.6,0.4-1,1-1h18c0.6,0,1,0.4,1,0.9c0,0,0,0,0,0.1v1.3
			c0,0.6-0.4,1-0.9,1.1C151.1,132.1,151,132.1,151,132.1z M133,129.3c-0.2,0-0.4,0.2-0.4,0.3v0v1.3c0,0.2,0.2,0.4,0.3,0.4h0h18
			c0.2,0,0.4-0.2,0.4-0.3v0v-1.3c0-0.2-0.2-0.4-0.3-0.4h0L133,129.3z"/>
		<path class="st7" d="M139.9,104.6h4.6c5.5,0,10,4.5,10,10v2.6c0,5.5-1.8,10-7.3,10h-10.3c-3.9,0-7-3.1-7-7v-5.6
			C129.8,109.1,134.3,104.6,139.9,104.6L139.9,104.6z"/>
		<path class="st5" d="M147.5,127.6h-10.6c-4,0-7.3-3.3-7.3-7.3v-8.6c0-4,3.3-7.3,7.3-7.3h10.6c4,0,7.3,3.3,7.3,7.3v8.6
			C154.8,124.3,151.5,127.6,147.5,127.6L147.5,127.6z M136.8,105c-3.7,0-6.6,3-6.6,6.6v8.6c0,3.7,3,6.6,6.6,6.6h10.6
			c3.7,0,6.6-3,6.6-6.6v-8.6c0-3.7-3-6.6-6.6-6.6H136.8z"/>
		<path class="st5" d="M154.7,116.9c2.4,0.1,2.3-5.4,2.3-5.4c0.1-8.3-6.5-15.1-14.8-15.2c-0.1,0-0.2,0-0.3,0
			c-8.5,0-15.2,6.3-14.8,14.9c0,0-0.1,4.5,2.7,6c0,0,1.5,0.2,1.7-0.6l0.4-4.4c0,0-0.1-2,1.5-1.7c2.7,0.8,5.6,1.1,8.4,0.9
			c3.3-0.2,6.7-0.8,9.8-1.9c0,0,1.4-0.3,1.4,1.3l0.2,3.5C153.1,114.2,153.1,116.8,154.7,116.9z"/>
		<path class="st5" d="M130.2,117.6c-0.1,0-0.3,0-0.4,0h-0.1c-3-1.6-2.9-6.2-2.9-6.3c-0.2-3.9,1.2-7.7,3.9-10.6
			c6.1-6.1,16-6.2,22.1-0.1c2.9,2.9,4.6,6.9,4.6,11c0,0.2,0.1,3.9-1.4,5.3c-0.4,0.4-0.8,0.5-1.3,0.5l0,0c-2-0.1-2-2.9-2-3l-0.2-3.5
			c0-0.3-0.1-0.6-0.3-0.8c-0.2-0.1-0.4-0.2-0.7-0.1c-3.2,1.1-6.5,1.8-9.9,2c-2.5,0.2-5,0-7.5-0.7c-0.3-0.1-0.6-0.2-1-0.2
			c-0.2-0.1-0.5,0-0.7,0.1c-0.3,0.3-0.4,0.7-0.4,1.2l-0.4,4.4C131.6,117.4,130.7,117.6,130.2,117.6z M129.9,116.8
			c0.4,0,1.1,0,1.2-0.3l0.4-4.3c0-0.6,0.2-1.2,0.6-1.7c0.4-0.3,0.8-0.4,1.3-0.3c0.3,0.1,0.6,0.1,1,0.2c2.4,0.6,4.8,0.8,7.3,0.6
			c3.3-0.2,6.6-0.8,9.7-1.9c0.8-0.2,1.6,0.2,1.8,1c0.1,0.2,0.1,0.4,0,0.6l0.2,3.5c0,0,0,2.2,1.3,2.3l0,0c0.3,0,0.6-0.1,0.8-0.3
			c1-0.9,1.2-3.8,1.1-4.8c-0.1-8.3-6.9-14.9-15.2-14.8c-3.9,0-7.6,1.6-10.4,4.4c-2.6,2.7-3.9,6.4-3.7,10.1
			C127.4,111.2,127.4,115.4,129.9,116.8z"/>
		<path class="st5" d="M140.4,111.7c-1.3,0.7-2.7,1-4.1,0.9c0,0-0.4,0.4,1.1,0.6c1.2,0.1,2.5-0.1,3.6-0.6
			C141.4,112.3,141.1,111.6,140.4,111.7z"/>
		<path class="st5" d="M144.3,111.7c1.2,0.8,2.6,1.2,4,1.3c0,0,0.4,0.4-1.1,0.5c-1.2,0-2.4-0.3-3.5-1
			C143.2,112.2,143.6,111.5,144.3,111.7z"/>
		<circle class="st5" cx="138.9" cy="115.7" r="1.2"/>
		<path class="st5" d="M140.1,117.3c0,0-0.1,0-0.1,0c-0.8-0.3-1.6-0.3-2.4-0.1c-0.2,0-0.4-0.1-0.4-0.2c0,0,0,0,0,0
			c0-0.2,0.1-0.4,0.3-0.4c0.9-0.2,1.9-0.1,2.9,0.2c0.2,0.1,0.3,0.3,0.2,0.5C140.4,117.2,140.3,117.3,140.1,117.3z"/>
		<circle class="st5" cx="145.4" cy="115.7" r="1.2"/>
		<path class="st5" d="M144.2,117.3c-0.2,0-0.3-0.2-0.3-0.4c0-0.1,0.1-0.3,0.2-0.3c0.9-0.3,1.9-0.4,2.9-0.2c0.2,0,0.3,0.2,0.3,0.4
			c0,0.2-0.2,0.3-0.4,0.3c0,0,0,0,0,0c-0.8-0.2-1.6-0.1-2.4,0.1C144.3,117.3,144.2,117.3,144.2,117.3z"/>
		<path class="st9" d="M143.4,119.7c0.7-0.2,1.8-0.7,2.6-0.2s1.5,2.3,1,2.8c-0.5,0.4-1.1,0.4-1.6,0.2c-1.1-0.4-1.4-0.9-2.8-0.8h-1
			c-1.5-0.1-1.7,0.4-2.8,0.8c-0.5,0.3-1.2,0.2-1.6-0.2c-0.5-0.4,0.2-2.3,1-2.8c0.9-0.3,1.8-0.2,2.6,0.2
			C141.6,119.9,142.5,119.9,143.4,119.7z"/>
		<path class="st5" d="M146.1,122.9c-0.3,0-0.6-0.1-0.8-0.2c-0.3-0.1-0.6-0.2-0.9-0.4c-0.5-0.3-1.2-0.5-1.8-0.4h-1
			c-0.6-0.1-1.3,0.1-1.8,0.4c-0.3,0.1-0.6,0.3-0.9,0.4c-0.7,0.3-1.5,0.2-2-0.3c-0.2-0.2-0.3-0.6-0.3-0.9c0.1-0.9,0.6-1.8,1.4-2.4
			c1-0.4,2-0.3,2.9,0.2c0.4,0.1,0.9,0.1,1.3,0.1c0.4,0,0.8,0,1.1-0.2l0,0l0.4-0.1c0.8-0.4,1.7-0.4,2.5-0.1c0.8,0.6,1.2,1.4,1.4,2.4
			c0.1,0.3,0,0.7-0.3,0.9l0,0C146.9,122.8,146.5,122.9,146.1,122.9z M142.9,121.3c0.6,0,1.3,0.2,1.8,0.5c0.3,0.1,0.5,0.3,0.8,0.3
			c0.4,0.2,0.9,0.2,1.3-0.1c0,0,0.1-0.1,0.1-0.4c-0.1-0.7-0.4-1.4-1-1.8c-0.7-0.2-1.4-0.1-2,0.2l-0.4,0.1l0,0
			c-0.9,0.2-1.9,0.2-2.9,0c-0.4-0.2-1.6-0.7-2.4-0.3c-0.6,0.5-0.9,1.1-1,1.8c0,0.2,0,0.3,0.1,0.3c0.4,0.3,0.9,0.3,1.3,0.1
			c0.3-0.1,0.5-0.2,0.8-0.3c0.7-0.4,1.4-0.5,2.2-0.5L142.9,121.3L142.9,121.3z M143.4,119.7L143.4,119.7z"/>
		<path class="st5" d="M146.2,120.1c0,0-0.1,0.4-1.3,0.4c0,0-0.3,0.2,0.1,0.2s1.6,0,1.9,0.9l0.3-0.2l-0.7-1.4L146.2,120.1z"/>
		<path class="st5" d="M138,120.1c0,0,0.1,0.4,1.3,0.4c0,0,0.3,0.2-0.1,0.2s-1.6,0-1.9,0.9l-0.3-0.2l0.7-1.4L138,120.1z"/>
		<path class="st5" d="M127.8,137.9L127.8,137.9c-0.2,0-0.3-0.2-0.3-0.4l0.8-5.2c0.2-1,1.1-1.6,2.1-1.6h1.8c0.2,0,0.3,0.2,0.3,0.4
			c0,0.2-0.2,0.3-0.3,0.3h-1.8c-0.6,0-1.2,0.4-1.4,1l-0.8,5.2C128.2,137.8,128,137.9,127.8,137.9
			C127.8,137.9,127.8,137.9,127.8,137.9z"/>
		<path class="st5" d="M156.2,137.9c-0.2,0-0.3-0.1-0.3-0.3l-0.8-5.3c-0.1-0.6-0.7-1-1.3-1h-1.8c-0.2,0-0.4-0.2-0.4-0.3
			s0.2-0.4,0.3-0.4c0,0,0,0,0,0h1.8c1,0,1.8,0.6,2,1.6l0.9,5.3C156.5,137.7,156.4,137.8,156.2,137.9L156.2,137.9z"/>
		<path class="st5" d="M153.8,133.3H130c-0.2,0-0.4-0.2-0.4-0.3s0.2-0.4,0.3-0.4c0,0,0,0,0,0h23.8c0.2,0,0.4,0.2,0.4,0.3
			S154,133.3,153.8,133.3C153.8,133.3,153.8,133.3,153.8,133.3z"/>
		<path class="st5" d="M124.4,135c-0.1,0-0.2,0-0.2-0.1c-0.1-0.1-0.1-0.4,0-0.5c1.3-1.3,4-1.3,4.1-1.3c0.2,0,0.4,0.1,0.4,0.3
			c0,0.2-0.1,0.4-0.3,0.4c0,0-0.1,0-0.1,0c0,0-2.6,0-3.6,1.1C124.6,135,124.5,135,124.4,135z"/>
		<path class="st5" d="M159.5,135c-0.1,0-0.2,0-0.2-0.1c-1.1-1-3.6-1.1-3.6-1.1c-0.2,0-0.4-0.1-0.4-0.3c0-0.2,0.1-0.4,0.3-0.4
			c0,0,0.1,0,0.1,0c0.1,0,2.9,0,4.1,1.3c0.1,0.1,0.1,0.4,0,0.5C159.7,135,159.6,135,159.5,135L159.5,135z"/>
		<rect x="131.2" y="133.1" class="st8" width="3.6" height="8.4"/>
		<path class="st5" d="M134.9,141.9h-3.6c-0.2,0-0.4-0.2-0.4-0.3v0v-8.4c0-0.2,0.2-0.4,0.3-0.4h0h3.6c0.2,0,0.4,0.2,0.4,0.3v0v8.4
			C135.2,141.7,135.1,141.9,134.9,141.9L134.9,141.9z M131.6,141.2h2.9v-7.7h-2.9V141.2z"/>
		<rect x="150" y="133.1" class="st8" width="3.6" height="8.4"/>
		<path class="st5" d="M153.6,141.9H150c-0.2,0-0.4-0.2-0.4-0.3v0v-8.4c0-0.2,0.2-0.4,0.3-0.4h0h3.6c0.2,0,0.4,0.2,0.4,0.3v0v8.4
			C154,141.7,153.8,141.9,153.6,141.9C153.6,141.9,153.6,141.9,153.6,141.9z M150.3,141.2h2.9v-7.7h-2.9V141.2z"/>
		<path class="st10" d="M135.8,133.5l3.6,7.9c0,0,0.8,0.5,3.8,0.4s2.9-0.8,2.9-0.8l3.6-7.6l-2.9-0.5l-1.9,2.3l-2,2.7l-3.6-3.8
			c-0.7-0.5-1.5-0.9-2.3-1.1C136.4,132.9,136,133.1,135.8,133.5z"/>
		<path class="st5" d="M139.5,142.1c-0.1,0-0.3-0.1-0.3-0.2c-1.7-3.8-3.9-8.7-4-8.8c-0.1-0.2,0-0.4,0.2-0.5c0.2-0.1,0.4,0,0.5,0.2
			c0,0,0,0,0,0c0,0,2.3,5,4,8.8c0.1,0.2,0,0.4-0.2,0.5C139.6,142.1,139.6,142.1,139.5,142.1z"/>
		<path class="st5" d="M142.5,138.1c-0.1,0-0.2-0.1-0.3-0.1c-1.3-1.6-2.7-3.2-4.2-4.6c-0.2,0-0.3-0.2-0.2-0.4c0,0,0,0,0,0
			c0.1-0.2,0.3-0.3,0.4-0.2c0.6,0.1,3.9,4,4.5,4.8c0.1,0.1,0.1,0.4,0,0.5C142.7,138.1,142.6,138.1,142.5,138.1z"/>
		<path class="st5" d="M141.7,142.1c-0.2,0-0.3-0.1-0.4-0.3c-0.4-5.6,5.3-8.8,5.6-9c0.2-0.1,0.4,0,0.5,0.1c0.1,0.2,0.1,0.4-0.1,0.5
			c0,0,0,0,0,0c-0.1,0-5.6,3.1-5.2,8.3C142,141.8,141.9,142,141.7,142.1C141.7,142,141.7,142,141.7,142.1L141.7,142.1z"/>
		<path class="st5" d="M145.7,141.7h-0.1c-0.2-0.1-0.3-0.3-0.2-0.5c0,0,0,0,0,0l4-8.4c0.1-0.2,0.3-0.2,0.5-0.2c0,0,0,0,0,0
			c0.2,0.1,0.3,0.3,0.2,0.4c0,0,0,0,0,0l-4,8.4C146,141.7,145.8,141.7,145.7,141.7z"/>
		<path class="st5" d="M138.2,138.6c-0.1,0-0.2,0-0.3-0.1c-0.1-0.1-0.1-0.4,0.1-0.5l2.6-2.1c0.2-0.1,0.4-0.1,0.5,0.1
			c0.1,0.1,0.1,0.3,0,0.4l-2.6,2.1C138.3,138.5,138.3,138.6,138.2,138.6z"/>
		<path class="st5" d="M147,138.7c-0.1,0-0.2,0-0.2-0.1l-3.1-2.5c-0.2-0.1-0.2-0.3-0.1-0.5c0.1-0.2,0.3-0.2,0.5-0.1l3.1,2.5
			c0.1,0.1,0.2,0.4,0,0.5C147.2,138.7,147.1,138.7,147,138.7z"/>
		<path class="st1" d="M138.8,109.7c-3.4,0-6.8-0.7-10-2.1c-0.2-0.1-0.3-0.3-0.2-0.5c0.1-0.1,0.3-0.2,0.4-0.1
			c6.6,2.9,14.2,2.7,20.6-0.6l0.2-0.1c0.7-0.4,1.5-0.4,2.3-0.1c0.7,0.4,1.1,1.1,1.2,1.9c0,0.2-0.1,0.4-0.3,0.4c0,0,0,0,0,0
			c-0.2,0-0.4-0.1-0.4-0.3c0,0,0,0,0,0c-0.1-0.6-0.4-1.1-0.9-1.4c-0.5-0.2-1.1-0.2-1.6,0.1l-0.2,0
			C146.5,108.7,142.7,109.6,138.8,109.7z"/>
		<path class="st1" d="M143.8,107.7c-7.3,0-10.8-3.2-10.9-3.4c-0.1-0.1-0.1-0.4,0-0.5c0.1-0.1,0.4-0.1,0.5,0c0,0,5.2,4.8,15.9,2.6
			c0.2,0,0.4,0.1,0.4,0.3c0,0,0,0,0,0c0,0.2-0.1,0.4-0.3,0.4c0,0,0,0,0,0C147.5,107.5,145.6,107.7,143.8,107.7z"/>
	</g>
</g>
<path class="st1" d="M141.7,142.1c-13.6,0-24.6-11-24.6-24.5s11-24.6,24.5-24.6c13.6,0,24.6,11,24.6,24.5c0,0,0,0,0,0
	C166.2,131.1,155.3,142.1,141.7,142.1z M141.7,93.7c-13.2,0-23.9,10.7-23.9,23.8s10.7,23.9,23.8,23.9c13.2,0,23.9-10.7,23.9-23.8
	c0,0,0,0,0,0C165.5,104.4,154.9,93.7,141.7,93.7z"/>
<ellipse transform="matrix(9.853757e-02 -0.9951 0.9951 9.853757e-02 -115.2323 359.3339)" class="st1" cx="140.7" cy="243.3" rx="24.1" ry="24.1"/>
<g>
	<defs>
		<circle id="SVGID_3_" cx="140.8" cy="243.1" r="24.2"/>
	</defs>
	<clipPath id="SVGID_4_">
		<use xlink:href="#SVGID_3_"  style="overflow:visible;"/>
	</clipPath>
	<g class="st11">
		<path class="st7" d="M127,267.5v-25.9c0-7.6,6.2-13.8,13.8-13.8l0,0c7.6,0,13.8,6.2,13.8,13.8v25.9"/>
		<path class="st5" d="M154.5,267.9c-0.2,0-0.3-0.1-0.4-0.3c0,0,0,0,0,0v-25.9c0-7.4-6-13.4-13.4-13.4c-7.4,0-13.4,6-13.4,13.4v25.9
			c0,0.2-0.1,0.4-0.3,0.4c-0.2,0-0.4-0.1-0.4-0.3c0,0,0-0.1,0-0.1v-25.9c0-7.8,6.3-14.1,14.1-14.1s14.1,6.3,14.1,14.1v25.9
			C154.9,267.7,154.7,267.9,154.5,267.9C154.5,267.9,154.5,267.9,154.5,267.9z"/>
		<path class="st5" d="M146.6,231.1L146.6,231.1c-0.3,0-0.4-0.2-0.3-0.4c0,0,0,0,0,0c0.7-2.1,2.6-3.5,4.8-3.5c0.2,0,0.4,0.2,0.4,0.3
			v0c0,0.2-0.2,0.4-0.3,0.4h0c-1.9,0-3.5,1.2-4.1,3C146.9,231,146.8,231.1,146.6,231.1z"/>
		<path class="st5" d="M148.7,232c0,0-0.1,0-0.1,0c-0.2-0.1-0.2-0.3-0.2-0.5c1.4-1.9,3.9-2.8,6.2-2.3c0.2,0,0.3,0.2,0.3,0.4
			c0,0.2-0.2,0.3-0.4,0.3c0,0-0.1,0-0.1,0c-2-0.5-4.1,0.3-5.4,1.9C149,231.9,148.9,232,148.7,232z"/>
		<path class="st5" d="M154.4,232.7c-0.1,0-0.1,0-0.2,0c-1.2-0.7-2.7-0.7-3.8,0c-0.2,0.1-0.4,0.1-0.5-0.1c0,0,0,0,0,0
			c-0.1-0.2-0.1-0.4,0.1-0.5c1.4-0.9,3.2-0.9,4.6,0c0.2,0.1,0.2,0.3,0.1,0.5C154.6,232.7,154.5,232.7,154.4,232.7L154.4,232.7z"/>
		<path class="st5" d="M140.1,229.9c-0.2,0-0.3-0.2-0.4-0.4c0,0-0.2-3-2.6-3.8c-0.2-0.1-0.3-0.3-0.2-0.5c0.1-0.1,0.2-0.2,0.4-0.2
			c2.8,0.9,3,4.4,3,4.4C140.4,229.7,140.3,229.8,140.1,229.9z"/>
		<path class="st5" d="M141.9,229.4c-0.1,0-0.1,0-0.2-0.1c-0.1-0.1-0.2-0.2-0.1-0.4c0-0.1,0-0.1,0-0.2c-0.6-1.9,0.4-4,2.1-4.8
			c0.2-0.1,0.4,0,0.5,0.2c0,0,0,0,0,0c0.1,0.2,0,0.4-0.2,0.5c0,0,0,0,0,0c-1.5,0.7-2.3,2.5-1.8,4.1c0.1,0.3,0.1,0.4,0,0.6
			C142.1,229.4,142,229.5,141.9,229.4z"/>
		<path class="st5" d="M142.7,229.3L142.7,229.3c-0.3,0-0.4-0.2-0.3-0.4v-0.1c0-2.2,0.9-3.5,2.8-4c0.2-0.1,0.4,0.1,0.4,0.2
			c0,0.2-0.1,0.4-0.2,0.4c-1.5,0.4-2.5,1.8-2.3,3.4c0,0.1,0,0.2,0,0.3C143,229.2,142.8,229.3,142.7,229.3z"/>
		<path class="st5" d="M129.9,233.2c-0.1,0-0.1,0-0.2,0c-0.9-0.4-2-0.6-3-0.4c-0.2,0-0.4-0.1-0.4-0.3c0-0.2,0.1-0.4,0.3-0.4
			c0,0,0,0,0,0c1.2-0.2,2.4,0,3.5,0.5c0.2,0.1,0.2,0.3,0.1,0.5C130.1,233.2,130,233.2,129.9,233.2z"/>
		<path class="st5" d="M131.5,233.2c-0.2,0-0.3-0.1-0.3-0.3c-0.4-1.8-2.5-1.9-3.1-2c-0.1,0-0.2,0-0.3,0c-0.2-0.1-0.3-0.3-0.2-0.4
			c0.1-0.2,0.2-0.3,0.4-0.2h0.1c2.1,0.1,3.4,1,3.8,2.5C131.9,233,131.8,233.2,131.5,233.2L131.5,233.2z"/>
		<path class="st5" d="M132.3,231c-0.1,0-0.3-0.1-0.3-0.2c-0.7-1.5-2.7-1.6-3.5-1.6v-0.3l0,0v-0.4c1,0,3.3,0.1,4.2,2
			c0.1,0.2,0,0.4-0.2,0.5c0,0,0,0,0,0L132.3,231z"/>
		<path class="st5" d="M134.9,231.1c-0.2,0-0.3-0.1-0.3-0.3c-0.5-2.2-2.7-3-3.9-3.2h-0.1c-0.2,0-0.3-0.2-0.3-0.4c0,0,0,0,0,0
			c0-0.2,0.2-0.3,0.4-0.3l-0.1,0.3l0.1-0.3c1.1,0.2,3.8,1.1,4.4,3.8C135.3,230.9,135.2,231.1,134.9,231.1L134.9,231.1z"/>
		<path class="st5" d="M136.7,229.1c-0.2,0-0.3-0.1-0.4-0.3c-0.3-1.6-1.3-3-2.9-3.6c-0.1,0-0.3-0.1-0.3-0.2c-0.1-0.2,0-0.4,0.2-0.4
			c0,0,0,0,0,0c0.3-0.1,0.8,0.2,1.2,0.5c1.3,0.8,2.2,2.2,2.5,3.8C137.1,228.9,136.9,229.1,136.7,229.1L136.7,229.1z"/>
		<path class="st5" d="M145.3,229.4L145.3,229.4c-0.2,0-0.3-0.2-0.3-0.4c0,0,0,0,0,0c0-0.2,0.4-4.1,3.6-4.6c0.2,0,0.4,0.1,0.4,0.3
			c0,0.2-0.1,0.4-0.3,0.4c0,0,0,0,0,0c-2.6,0.5-3,4-3,4C145.6,229.3,145.5,229.5,145.3,229.4z"/>
		<path class="st5" d="M152.6,239.1h1.5c0.6,0,1,0.4,1,1v1.2c0,0.6-0.4,1-1,1h-1.5c-0.6,0-1-0.4-1-1v-1.2
			C151.6,239.6,152.1,239.1,152.6,239.1z"/>
		<path class="st5" d="M127.4,239.1h1c0.6,0,1,0.4,1,1v1.2c0,0.6-0.4,1-1,1h-1c-0.6,0-1-0.4-1-1v-1.2
			C126.4,239.6,126.8,239.1,127.4,239.1z"/>
		<path class="st10" d="M133.8,259.4H148c0.6,0,1,0.4,1,1v10.2c0,0.6-0.4,1-1,1h-14.1c-0.6,0-1-0.4-1-1v-10.2
			C132.8,259.8,133.3,259.4,133.8,259.4z"/>
		<path class="st5" d="M148.3,272h-14.7c-0.6,0-1-0.4-1-1c0,0,0,0,0-0.1v-10.9c0-0.6,0.4-1,0.9-1c0,0,0,0,0.1,0h14.7
			c0.6,0,1,0.4,1,1c0,0,0,0,0,0.1V271C149.3,271.6,148.8,272,148.3,272z M133.5,259.8c-0.2,0-0.4,0.2-0.4,0.4l0,0V271
			c0,0.2,0.2,0.4,0.3,0.4h0h14.7c0.2,0,0.4-0.2,0.4-0.4l0,0v-10.9c0-0.2-0.2-0.4-0.3-0.4h0H133.5z"/>
		<circle class="st8" cx="134.9" cy="240.3" r="5.8"/>
		<path class="st5" d="M134.9,246.4c-3.4,0-6.2-2.8-6.2-6.2c0-3.4,2.8-6.2,6.2-6.2s6.2,2.8,6.2,6.2c0,0,0,0,0,0
			C141.1,243.7,138.3,246.4,134.9,246.4z M134.9,234.8c-3,0-5.5,2.5-5.5,5.5c0,3,2.5,5.5,5.5,5.5c3,0,5.5-2.5,5.5-5.5c0,0,0,0,0,0
			C140.4,237.2,137.9,234.8,134.9,234.8z"/>
		<path class="st8" d="M140.7,241.7c0.8,3.1,4,5,7.1,4.2c3.1-0.8,5-4,4.2-7.1s-4-5-7.1-4.2c-2.1,0.5-3.7,2.1-4.2,4.2V241.7z"/>
		<path class="st5" d="M146.4,246.4c-2.8,0-5.3-1.9-6-4.7c0,0,0-0.1,0-0.1v-2.9c0,0,0-0.1,0-0.1c0.9-3.3,4.2-5.3,7.5-4.4
			c3.3,0.9,5.3,4.2,4.4,7.5C151.6,244.5,149.2,246.4,146.4,246.4L146.4,246.4z M141.1,241.6c0.8,2.9,3.8,4.7,6.7,3.9
			c2.9-0.8,4.7-3.8,3.9-6.7c-0.8-2.9-3.8-4.7-6.7-3.9c-1.9,0.5-3.4,2-3.9,3.9V241.6z"/>
		<circle class="st9" cx="134.9" cy="240.3" r="4.1"/>
		<path class="st5" d="M135,244.8c-2.5,0-4.5-2-4.5-4.5s2-4.5,4.5-4.5c2.5,0,4.5,2,4.5,4.5C139.5,242.8,137.5,244.8,135,244.8
			L135,244.8z M135,236.5c-2.1,0-3.8,1.7-3.8,3.8s1.7,3.8,3.8,3.8s3.8-1.7,3.8-3.8l0,0C138.8,238.2,137.1,236.5,135,236.5z"/>
		<circle class="st9" cx="146.4" cy="240.3" r="4.1"/>
		<path class="st5" d="M146.4,244.8c-2.5,0-4.5-2-4.5-4.5s2-4.5,4.5-4.5c2.5,0,4.5,2,4.5,4.5C150.9,242.8,148.8,244.8,146.4,244.8
			L146.4,244.8z M146.4,236.5c-2.1,0-3.8,1.7-3.8,3.8c0,2.1,1.7,3.8,3.8,3.8c2.1,0,3.8-1.7,3.8-3.8c0,0,0,0,0,0
			C150.2,238.2,148.5,236.5,146.4,236.5z"/>
		<path class="st10" d="M126.4,255.1c0.1,1.2,0.8,2.2,1.9,2.5l7.9,3.1c0,0,0.7,0.2,0.5,0.7l-0.5,1.3c0,0-0.1,0.6-0.9,0.2l-7.9-3.4
			C127.4,259.6,125.7,258.8,126.4,255.1z"/>
		<path class="st5" d="M135.8,263.4c-0.2,0-0.4,0-0.6-0.1l-7.9-3.4c-0.1,0-1.9-0.9-1.3-4.8c0-0.2,0.2-0.3,0.4-0.3
			c0.2,0,0.3,0.2,0.3,0.4c0.1,1,0.7,1.9,1.7,2.2l7.9,3.1c0.3,0.1,0.5,0.3,0.7,0.5c0.1,0.2,0.1,0.4,0,0.6l-0.5,1.3
			c0,0.2-0.2,0.4-0.4,0.5C136.1,263.4,136,263.4,135.8,263.4z M126.6,256.8c0,2,1,2.5,1,2.5l7.9,3.4c0.1,0.1,0.2,0.1,0.4,0.1
			c0,0,0-0.1,0-0.1l0.5-1.3c-0.1-0.1-0.2-0.2-0.3-0.2l-8-3.1C127.5,257.7,127,257.3,126.6,256.8z M126.7,255.1L126.7,255.1z"/>
		<circle class="st5" cx="135.2" cy="261.6" r="0.5"/>
		<path class="st5" d="M134.4,255.2c1.7-1.7,4.1-2.7,6.6-2.5c4.1,0.2,5.5,2.7,5.5,2.7s0.1,0.4-0.7,0.3s-7.4-0.8-11.3,0.4
			C134.6,256.1,133.9,255.8,134.4,255.2z"/>
		<path class="st5" d="M134.6,256.5c0,0-0.1,0-0.1,0c-0.2-0.1-0.4-0.3-0.5-0.6c-0.1-0.3,0-0.6,0.3-0.9l0,0c1.8-1.8,4.3-2.8,6.9-2.6
			c4.3,0.2,5.7,2.8,5.8,2.9v0.1c0.1,0.2,0,0.4-0.1,0.5c-0.3,0.3-0.7,0.3-1,0.2C145.6,256.1,138.6,255.2,134.6,256.5L134.6,256.5z
			 M134.7,255.4c-0.1,0.1-0.1,0.2-0.1,0.3c0,0,0,0,0,0.1c4.2-1.3,11.2-0.4,11.2-0.4h0.2c-0.4-0.6-1.8-2.2-5.1-2.4
			C138.6,252.9,136.4,253.8,134.7,255.4L134.7,255.4z"/>
		<g>
			<defs>
				<path id="SVGID_5_" d="M134.4,255.2c1.7-1.7,4.1-2.7,6.6-2.5c4.1,0.2,5.5,2.7,5.5,2.7s0.1,0.4-0.7,0.3s-7.4-0.8-11.3,0.4
					C134.6,256.1,133.9,255.8,134.4,255.2z"/>
			</defs>
			<clipPath id="SVGID_6_">
				<use xlink:href="#SVGID_5_"  style="overflow:visible;"/>
			</clipPath>
			<g class="st12">
				<path class="st9" d="M138,252h1.1c0.6,0,1,0.4,1,1v0.7c0,0.6-0.4,1-1,1H138c-0.6,0-1-0.4-1-1V253C137,252.5,137.5,252,138,252z"
					/>
				<path class="st9" d="M141.9,252h1.2c0.6,0,1,0.4,1,1v0.7c0,0.6-0.4,1-1,1h-1.2c-0.6,0-1-0.4-1-1V253
					C140.9,252.5,141.3,252,141.9,252z"/>
			</g>
		</g>
		<path class="st5" d="M134.6,256.5c0,0-0.1,0-0.1,0c-0.2-0.1-0.4-0.3-0.5-0.6c-0.1-0.3,0-0.6,0.3-0.9l0,0c1.8-1.8,4.3-2.8,6.9-2.6
			c4.3,0.2,5.7,2.8,5.8,2.9v0.1c0.1,0.2,0,0.4-0.1,0.5c-0.3,0.3-0.7,0.3-1,0.2C145.6,256.1,138.6,255.2,134.6,256.5L134.6,256.5z
			 M134.7,255.4c-0.1,0.1-0.1,0.2-0.1,0.3c0,0,0,0,0,0.1c4.2-1.3,11.2-0.4,11.2-0.4h0.2c-0.4-0.6-1.8-2.2-5.1-2.4
			C138.6,252.9,136.4,253.8,134.7,255.4L134.7,255.4z"/>
		<path class="st10" d="M155.2,255.1c-0.1,1.2-0.8,2.2-1.9,2.5l-7.9,3.1c0,0-0.7,0.2-0.5,0.7l0.5,1.3c0,0,0.1,0.6,0.9,0.2l7.9-3.4
			C154.2,259.6,155.8,258.8,155.2,255.1z"/>
		<path class="st5" d="M145.8,263.4c-0.1,0-0.3,0-0.4-0.1c-0.2-0.1-0.3-0.3-0.4-0.5l-0.5-1.3c-0.1-0.2-0.1-0.4,0-0.6
			c0.2-0.3,0.4-0.5,0.7-0.5l7.9-3.1c1-0.3,1.6-1.2,1.7-2.2c0-0.2,0.1-0.3,0.3-0.4c0.2,0,0.3,0.1,0.4,0.3c0.7,3.9-1.2,4.8-1.2,4.8
			l-7.9,3.4C146.1,263.4,145.9,263.4,145.8,263.4z M155,256.8c-0.4,0.6-1,1-1.6,1.2l-7.9,3.1c-0.1,0-0.3,0.1-0.3,0.2l0.5,1.4
			c0,0,0,0.1,0,0.1s0.2,0,0.4,0l7.9-3.4C154,259.2,155,258.8,155,256.8L155,256.8z"/>
		<circle class="st5" cx="146.3" cy="261.6" r="0.5"/>
		<circle class="st10" cx="134.9" cy="240.4" r="2.1"/>
		<path class="st5" d="M134.9,242.8c-1.3,0-2.4-1.1-2.4-2.4c0-1.3,1.1-2.4,2.4-2.4c1.3,0,2.4,1.1,2.4,2.4S136.2,242.8,134.9,242.8
			L134.9,242.8z M134.9,238.6c-0.9,0-1.7,0.8-1.7,1.7c0,0.9,0.8,1.7,1.7,1.7c0.9,0,1.7-0.8,1.7-1.7c0,0,0,0,0,0
			C136.6,239.4,135.9,238.7,134.9,238.6C134.9,238.7,134.9,238.6,134.9,238.6z"/>
		<circle class="st5" cx="134.9" cy="240.4" r="0.9"/>
		<circle class="st9" cx="134.6" cy="239.7" r="0.5"/>
		<circle class="st10" cx="146.4" cy="240.4" r="2.1"/>
		<path class="st5" d="M146.4,242.8c-1.3,0-2.4-1.1-2.4-2.4c0-1.3,1.1-2.4,2.4-2.4c1.3,0,2.4,1.1,2.4,2.4S147.7,242.8,146.4,242.8
			L146.4,242.8z M146.4,238.6c-0.9,0-1.7,0.8-1.7,1.7c0,0.9,0.8,1.7,1.7,1.7c0.9,0,1.7-0.8,1.7-1.7c0,0,0,0,0,0
			C148.1,239.4,147.3,238.7,146.4,238.6z"/>
		<circle class="st5" cx="146.4" cy="240.4" r="0.9"/>
		<circle class="st9" cx="146" cy="239.7" r="0.5"/>
	</g>
</g>
<path class="st1" d="M140.8,267.6c-13.6,0-24.5-11-24.5-24.5c0-13.6,11-24.5,24.5-24.5s24.5,11,24.5,24.5l0,0
	C165.3,256.6,154.3,267.6,140.8,267.6z M140.8,219.2c-13.2,0-23.9,10.7-23.9,23.8s10.7,23.9,23.8,23.9s23.9-10.7,23.9-23.8
	c0,0,0,0,0,0C164.6,229.9,154,219.3,140.8,219.2L140.8,219.2z"/>
<circle class="st1" cx="140.6" cy="180.6" r="23.9"/>
<path class="st7" d="M129,180.2c-1.9-1.5-3.4-3.4-4.5-5.6c0,0-0.5-0.9,0.7-1.4l3.5-1.6c0.4-0.2,0.7-0.6,0.7-1c0-0.8-0.2-5.2-0.2-5.2
	s-0.1-0.7,0.9-0.7c1.8,0,3.5,0.1,5.2,0.4c0.4,0,0.7-0.2,0.9-0.5c0.3-0.4,3-3.3,3.6-3.8c0.4-0.3,0.9-0.2,1.3,0.1c0,0,1.7,1.8,2.9,3.2
	c0,0,0.9,1.1,1.9,0.6c1.6-0.7,3.3-1.2,5-1.5c0.6,0,1.2,0.4,1.2,1.1c0,0,0.4,3.1,0.5,4.4c0,0-0.1,1.3,0.6,1.3
	c1.5,0.3,2.9,0.8,4.4,1.3c0.6,0.3,0.9,1,0.7,1.6c-0.6,1.4-1.3,2.7-2.1,4c0,0-0.5,0.8,0.1,1.3l2.9,2.7c0,0,1,0.9,0.4,1.6
	s-3.3,2.8-3.3,2.8c-0.4,0.3-0.6,0.8-0.4,1.3c0.3,0.9,1.5,3,1.2,3.6s-0.9,0.6-2.1,0.6l-2.5,0.1c-0.4,0-0.7,0.3-0.7,0.7
	c0,0.7,0.2,2.3-0.4,2.4s-3.4-0.6-4.2-1.7c0,0,0,3.8,0.1,4.4c0,0,4.8,2.5,5.8,4.3c-3.8,2.7-8.4,4-13,3.8c-2.3-0.2-4.6-0.5-6.8-1.2
	l2.2-5l1.2-2.7l-0.1-2.4c-1-0.1-1.7-1-1.6-2c0,0-4.5-0.2-6.8-2.3c-0.5-0.6-0.4-1.4,0.2-1.9c0,0,0.1-0.1,0.1-0.1
	c1.3-0.8,2.7-3.1,2.6-4.6L129,180.2z"/>
<path class="st5" d="M141,205.2h-0.9c-2.3-0.2-4.7-0.6-6.9-1.2c-0.1,0-0.2-0.1-0.2-0.2c0-0.1,0-0.2,0-0.3l3.4-7.6v-2.1
	c-0.9-0.2-1.6-1-1.6-2c-1.1-0.1-4.7-0.5-6.6-2.4c-0.3-0.4-0.5-0.9-0.4-1.5c0.1-0.5,0.4-0.9,0.8-1.1c1.4-1,2.2-2.5,2.5-4.2l-2.1-2.2
	c-1.9-1.5-3.5-3.5-4.6-5.7c-0.2-0.3-0.2-0.7-0.1-1c0.2-0.4,0.5-0.7,0.9-0.8l3.5-1.6c0.3-0.1,0.5-0.4,0.5-0.7c0-0.7-0.2-5.2-0.2-5.2
	c0-0.2,0.1-0.5,0.2-0.7c0.3-0.3,0.6-0.4,1-0.4c1.8,0,3.5,0.1,5.2,0.4c0.2,0,0.5-0.2,0.6-0.3c0.3-0.4,3.1-3.4,3.7-3.9
	c0.5-0.4,1.3-0.4,1.7,0.1c0,0,1.7,1.8,2.9,3.2c0,0,0.8,0.9,1.6,0.6c1.6-0.7,3.3-1.2,5.1-1.5c0.8,0,1.5,0.6,1.6,1.4
	c0,0.1,0.4,3.2,0.5,4.4c0,0.3,0,0.6,0.1,0.9c0,0,0.1,0.1,0.2,0.1c1.5,0.3,3,0.8,4.5,1.3c0.8,0.3,1.2,1.2,1,2.1
	c-0.6,1.4-1.3,2.8-2.1,4.1c0,0.1-0.4,0.6,0,0.9l2.9,2.7c0.4,0.4,1,1.4,0.4,2.1s-3.3,2.7-3.4,2.8c-0.3,0.2-0.4,0.6-0.3,0.9
	c0.1,0.3,0.3,0.7,0.4,1c0.6,1.3,1,2.3,0.8,2.9c-0.4,0.8-1.1,0.8-2.1,0.8H155l-2.5,0.1c-0.2,0-0.4,0.2-0.3,0.4c0,0,0,0,0,0v0.2
	c0.1,1,0.1,2.4-0.7,2.5c-1.4-0.1-2.7-0.5-3.9-1.3c0,1.3,0,2.9,0.1,3.5c0.9,0.5,4.8,2.7,5.8,4.3c0.1,0.1,0.1,0.3-0.1,0.4
	C149.8,203.9,145.4,205.3,141,205.2z M133.8,203.7c2.1,0.5,4.2,0.9,6.4,1c4.5,0.2,9-1.1,12.8-3.5c-1.4-1.8-5.7-4.1-5.7-4.1
	c-0.1-0.1-0.2-0.1-0.2-0.2c-0.1-0.7-0.1-4.1-0.1-4.5c0-0.2,0.2-0.3,0.4-0.3c0.1,0,0.2,0,0.3,0.1c0.8,0.9,3.4,1.6,3.9,1.6
	c0.2-0.6,0.2-1.2,0.1-1.8v-0.2c0-0.6,0.4-1.1,1-1.1l2.5-0.1h0.2c1,0,1.4-0.1,1.5-0.4s-0.5-1.6-0.8-2.3c-0.2-0.4-0.4-0.8-0.4-1.1
	c-0.2-0.6,0-1.3,0.6-1.7l0,0c0,0,2.7-2.1,3.3-2.7c0.4-0.4-0.3-1.1-0.4-1.1l-2.9-2.6c-0.5-0.5-0.5-1.2-0.2-1.8c0.7-1.3,1.4-2.6,2-3.9
	c0.1-0.5-0.1-1-0.6-1.2c-1.4-0.5-2.8-0.9-4.2-1.2c-0.3,0-0.5-0.1-0.7-0.3c-0.3-0.4-0.4-0.9-0.3-1.4c0-1.2-0.4-4.3-0.4-4.3
	c0-0.4-0.4-0.8-0.9-0.8c-1.7,0.3-3.3,0.8-4.8,1.5c-0.9,0.3-1.8,0-2.4-0.7c-1.2-1.4-2.9-3.1-2.9-3.2c-0.2-0.2-0.5-0.3-0.8-0.1
	c-0.6,0.5-3.3,3.4-3.5,3.8c-0.3,0.4-0.7,0.6-1.2,0.6h-0.1c-1.7-0.3-3.4-0.4-5.1-0.4c-0.2,0-0.4,0-0.5,0.2c0,0-0.1,0.1-0.1,0.2
	c0,0.2,0.2,4.5,0.2,5.3c0,0.6-0.4,1.1-0.9,1.4l-3.5,1.6c-0.2,0.1-0.4,0.2-0.5,0.4c-0.1,0.1-0.1,0.3,0,0.4c1.1,2.1,2.6,4,4.4,5.5l0,0
	l2.2,2.3c0.1,0.1,0.1,0.1,0.1,0.2c0.1,1.7-1.4,4.1-2.8,4.9c-0.2,0.1-0.4,0.4-0.5,0.6c0,0.3,0.1,0.6,0.3,0.9c2.1,2,6.5,2.2,6.5,2.2
	c0.1,0,0.2,0,0.2,0.1c0.1,0.1,0.1,0.2,0.1,0.3c-0.1,0.8,0.5,1.6,1.3,1.7c0,0,0,0,0,0c0.2,0,0.3,0.2,0.3,0.3l0.1,2.4c0,0,0,0.1,0,0.1
	l-1.2,2.7L133.8,203.7z"/>
<path class="st5" d="M136.9,191.9c-1.6,0-2.8-0.1-2.9-0.1c-0.2,0-0.3-0.2-0.3-0.4c0-0.2,0.2-0.3,0.4-0.3c0,0,0,0,0,0
	c0.1,0,8,0.6,11-1.4c0.1-0.1,0.4-0.1,0.5,0.1c0,0,0,0,0,0c0.1,0.2,0.1,0.4-0.1,0.5c0,0,0,0,0,0C143.4,191.6,139.6,191.9,136.9,191.9
	z"/>
<path class="st5" d="M145.6,191.5L145.6,191.5c-0.3,0-0.4-0.2-0.3-0.4c0,0,0,0,0,0c0.2-0.7-0.1-1.5-0.8-1.9
	c-0.2-0.1-0.2-0.3-0.1-0.5c0.1-0.2,0.3-0.2,0.5-0.2c0,0,0,0,0,0c1,0.5,1.5,1.6,1.2,2.7C145.9,191.4,145.8,191.5,145.6,191.5z"/>
<circle class="st9" cx="133.1" cy="180.8" r="4.4"/>
<path class="st5" d="M133.1,185.5c-2.6,0-4.8-2.1-4.7-4.8c0-2.6,2.1-4.7,4.8-4.7s4.8,2.1,4.8,4.8c0,0,0,0,0,0
	C137.8,183.4,135.7,185.5,133.1,185.5z M133.1,176.7c-2.2,0-4,1.8-3.9,4.1c0,2.2,1.8,4,4.1,3.9c2.2,0,3.9-1.8,3.9-3.9
	C137.1,178.5,135.3,176.7,133.1,176.7L133.1,176.7z"/>
<circle class="st9" cx="141.8" cy="180.8" r="4.5"/>
<path class="st5" d="M141.8,185.7c-2.7,0-4.9-2.2-4.9-4.8c0-2.7,2.2-4.9,4.8-4.9c2.7,0,4.9,2.2,4.9,4.9c0,0,0,0,0,0
	C146.6,183.5,144.4,185.6,141.8,185.7z M141.8,176.7c-2.3,0-4.2,1.9-4.2,4.2c0,2.3,1.9,4.2,4.2,4.2c2.3,0,4.2-1.9,4.2-4.2
	C145.9,178.5,144.1,176.7,141.8,176.7C141.8,176.6,141.8,176.6,141.8,176.7L141.8,176.7z"/>
<circle class="st5" cx="132" cy="181.2" r="0.7"/>
<circle class="st5" cx="142.3" cy="181.2" r="0.7"/>
<path class="st7" d="M138,183.5c-0.3,0.1-3.5-0.1-3.5-0.1s-2.4-0.2-2.3,2s3.9,1.9,5.2,1.2"/>
<path class="st5" d="M134.8,187.5c-0.7,0-1.4-0.1-2.1-0.5c-0.6-0.3-1-0.9-1-1.6c-0.1-0.6,0.2-1.3,0.6-1.7c0.6-0.5,1.3-0.7,2.1-0.6
	c1.3,0.1,3.2,0.2,3.4,0.1c0.2,0,0.4,0.1,0.4,0.3c0,0.2-0.1,0.4-0.3,0.4c0,0,0,0,0,0c-0.3,0.1-2.6-0.1-3.6-0.1
	c-0.5-0.1-1.1,0.1-1.5,0.4c-0.3,0.3-0.5,0.8-0.4,1.2c0,0.4,0.2,0.8,0.6,1.1c1.3,0.5,2.8,0.5,4.1-0.1c0.2-0.1,0.4-0.1,0.5,0.1
	c0.1,0.2,0.1,0.4-0.1,0.5c0,0,0,0,0,0C136.6,187.3,135.7,187.5,134.8,187.5z"/>
<path class="st5" d="M128.4,181.1L128.4,181.1l-1.7-0.2c-0.2,0-0.3-0.2-0.3-0.4c0-0.2,0.2-0.3,0.4-0.3c0,0,0,0,0,0l1.6,0.2
	c0.2,0,0.3,0.2,0.3,0.4C128.8,181,128.6,181.1,128.4,181.1C128.4,181.1,128.4,181.1,128.4,181.1z"/>
<path class="st5" d="M129.5,178.4c-0.1,0-0.2,0-0.3-0.1l-1.2-1.4c-0.1-0.2-0.1-0.4,0.1-0.5c0.1-0.1,0.3-0.1,0.4,0l1.2,1.4
	c0.1,0.2,0.1,0.4-0.1,0.5C129.7,178.3,129.6,178.4,129.5,178.4L129.5,178.4z"/>
<path class="st5" d="M131.9,176.5L131.9,176.5c-0.2,0-0.3-0.2-0.3-0.4l0.1-1.4c0-0.2,0.2-0.3,0.4-0.3c0,0,0,0,0,0
	c0.2,0,0.3,0.2,0.3,0.4c0,0,0,0,0,0v1.4C132.3,176.4,132.2,176.5,131.9,176.5C132,176.5,131.9,176.5,131.9,176.5z"/>
<path class="st5" d="M135.4,177.3c-0.1,0-0.1,0-0.2-0.1c-0.2-0.1-0.2-0.3-0.1-0.5c0,0,0,0,0,0c0.1-0.1,0.1-0.2,0.1-0.4
	c0.1-0.5,0.4-0.9,0.7-1.3c0.2-0.1,0.4-0.1,0.5,0.1c0.1,0.1,0.1,0.4-0.1,0.5c0,0,0,0,0,0c-0.2,0.3-0.4,0.6-0.5,1
	c-0.1,0.2-0.1,0.4-0.2,0.5C135.6,177.3,135.5,177.3,135.4,177.3z"/>
<path class="st5" d="M139.5,176.8c0,0-0.1,0-0.1,0c-0.7-0.3-1-1.7-1-2c0-0.2,0.1-0.4,0.3-0.4c0.2,0,0.3,0.1,0.3,0.3
	c0.1,0.6,0.3,1.4,0.6,1.5c0.2,0.1,0.3,0.3,0.2,0.5C139.7,176.7,139.6,176.8,139.5,176.8z"/>
<path class="st5" d="M142.6,176.7h-0.1c-0.2-0.1-0.3-0.3-0.2-0.4c0.1-0.4,0.6-1.8,1.1-2.1c0.2-0.1,0.4-0.1,0.5,0.1c0,0,0,0,0,0
	c0.1,0.2,0,0.4-0.1,0.5c-0.4,0.5-0.7,1.1-0.8,1.7C142.9,176.6,142.7,176.7,142.6,176.7z"/>
<path class="st5" d="M145.4,178.6c-0.1,0-0.1,0-0.2,0c-0.2-0.1-0.2-0.3-0.1-0.5c0.4-0.8,1.1-1.4,2-1.7c0.2,0,0.4,0.1,0.4,0.3
	s-0.1,0.4-0.3,0.4c-0.7,0.1-1.3,1-1.5,1.3C145.6,178.5,145.5,178.6,145.4,178.6z"/>
<path class="st5" d="M146.5,181.3c-0.2,0-0.3-0.1-0.4-0.3c0-0.2,0.1-0.4,0.3-0.4c0.7-0.1,1.5-0.1,2.2-0.1c0.2,0,0.3,0.2,0.3,0.4
	c0,0.2-0.2,0.3-0.4,0.3C147.9,181.2,147.2,181.2,146.5,181.3L146.5,181.3z"/>
<path class="st5" d="M149.1,190.9c-0.3,0-0.7,0-1-0.1c-0.7-0.2-1.4-0.6-1.6-1.1c0-0.2,0.1-0.4,0.3-0.4c0.2,0,0.3,0.1,0.4,0.2
	c0.3,0.4,0.8,0.6,1.2,0.7c0.7,0.2,1.4,0,1.9-0.4c0.6-0.6,0.9-1.4,0.7-2.2c-0.1-0.7-0.5-1.2-1.1-1.5c-0.6-0.3-1.4-0.2-1.9,0.3
	c-0.1,0.1-0.4,0.2-0.5,0c-0.1-0.1-0.2-0.4,0-0.5c0.7-0.7,1.8-0.9,2.7-0.5c0.8,0.4,1.4,1.2,1.5,2.1c0.2,1.1-0.1,2.1-0.9,2.9
	C150.4,190.6,149.8,190.9,149.1,190.9z"/>
<path class="st5" d="M148.2,189.3L148.2,189.3c-0.2,0-0.4-0.2-0.4-0.3c0,0,0,0,0,0c0-1.2,0.9-2.1,2.1-2.1c0.2,0,0.4,0.1,0.4,0.3
	c0,0.2-0.1,0.4-0.3,0.4c0,0,0,0,0,0c-0.8,0-1.4,0.7-1.4,1.5C148.6,189.2,148.4,189.3,148.2,189.3z"/>
<path class="st5" d="M149.6,189.1L149.6,189.1c-0.3,0-0.4-0.2-0.3-0.4c0-0.2,0-0.4-0.1-0.5c-0.1-0.1-0.2-0.2-0.4-0.2
	c-0.2,0-0.3-0.2-0.3-0.4c0-0.2,0.2-0.3,0.4-0.3c0,0,0,0,0.1,0c0.3,0.1,0.6,0.2,0.9,0.5c0.2,0.3,0.3,0.7,0.2,1
	C150,189,149.8,189.1,149.6,189.1z"/>
<path class="st5" d="M147.2,194c-0.2,0-0.3-0.2-0.4-0.3c-0.1-1.2,0-2.5,0.5-3.6c0.1-0.2,0.3-0.2,0.5-0.1c0,0,0,0,0,0
	c0.2,0.1,0.2,0.3,0.1,0.5c-0.4,1-0.6,2.2-0.4,3.3C147.6,193.8,147.5,194,147.2,194L147.2,194z"/>
<circle class="st9" cx="136" cy="197.2" r="1.5"/>
<path class="st5" d="M136,199.1c-1,0-1.8-0.8-1.8-1.8s0.8-1.8,1.8-1.8s1.8,0.8,1.8,1.8l0,0C137.8,198.2,137,199,136,199.1z
	 M136,196.1c-0.6,0-1.1,0.5-1.1,1.1s0.5,1.1,1.1,1.1s1.1-0.5,1.1-1.1c0,0,0,0,0,0C137.1,196.6,136.6,196.1,136,196.1L136,196.1z"/>
<circle class="st9" cx="137.7" cy="197.8" r="1.5"/>
<path class="st5" d="M137.7,199.6c-1,0-1.8-0.8-1.8-1.8s0.8-1.8,1.8-1.8s1.8,0.8,1.8,1.8l0,0C139.6,198.8,138.7,199.6,137.7,199.6z
	 M137.7,196.7c-0.6,0-1.1,0.5-1.1,1.1s0.5,1.1,1.1,1.1c0.6,0,1.1-0.5,1.1-1.1C138.9,197.1,138.4,196.6,137.7,196.7
	C137.7,196.6,137.7,196.6,137.7,196.7L137.7,196.7z"/>
<circle class="st9" cx="141" cy="198.1" r="1.5"/>
<path class="st5" d="M141,199.9c-1,0-1.8-0.8-1.8-1.8s0.8-1.8,1.8-1.8s1.8,0.8,1.8,1.8l0,0C142.8,199.1,142,199.9,141,199.9z
	 M141,197c-0.6,0-1.1,0.5-1.1,1.1s0.5,1.1,1.1,1.1s1.1-0.5,1.1-1.1C142.1,197.5,141.6,197,141,197L141,197z"/>
<circle class="st9" cx="144.2" cy="198" r="1.5"/>
<path class="st5" d="M144.2,199.8c-1,0-1.8-0.8-1.8-1.8s0.8-1.8,1.8-1.8s1.8,0.8,1.8,1.8c0,0,0,0,0,0
	C146,199,145.2,199.8,144.2,199.8z M144.2,196.9c-0.6,0-1.1,0.5-1.1,1.1s0.5,1.1,1.1,1.1s1.1-0.5,1.1-1.1S144.8,196.9,144.2,196.9
	L144.2,196.9z"/>
<circle class="st9" cx="146.9" cy="196.8" r="1.5"/>
<path class="st5" d="M146.9,198.6c-1,0-1.8-0.8-1.8-1.8s0.8-1.8,1.8-1.8s1.8,0.8,1.8,1.8l0,0C148.7,197.8,147.9,198.6,146.9,198.6z
	 M146.9,195.7c-0.6,0-1.1,0.5-1.1,1.1s0.5,1.1,1.1,1.1s1.1-0.5,1.1-1.1C148,196.2,147.5,195.7,146.9,195.7L146.9,195.7L146.9,195.7z
	"/>
<path class="st5" d="M146.9,204.3c-0.1,0-0.2,0-0.2-0.1c-2-1.6-6.3-2.3-12.2-2.1h-0.3c-0.2,0-0.3-0.2-0.3-0.4c0-0.2,0.2-0.3,0.3-0.3
	h0.2c3.5-0.2,9.9-0.1,12.7,2.2c0.1,0.1,0.2,0.3,0.1,0.5c0,0,0,0,0,0C147.1,204.3,147,204.3,146.9,204.3z"/>
<path class="st5" d="M146.6,204.1c-0.1,0-0.2,0-0.2-0.1l-2.5-2c-0.2-0.1-0.2-0.3-0.1-0.5c0.1-0.2,0.3-0.2,0.5-0.1c0,0,0,0,0.1,0
	l2.5,2c0.1,0.1,0.2,0.3,0.1,0.5C146.8,204,146.7,204.1,146.6,204.1z"/>
<path class="st1" d="M140.6,205.3c-13.5,0-24.5-11-24.5-24.5s11-24.5,24.5-24.5s24.5,11,24.5,24.5c0,0,0,0,0,0
	C165.1,194.3,154.1,205.3,140.6,205.3z M140.6,157c-13.1,0-23.8,10.6-23.8,23.8c0,13.1,10.6,23.8,23.8,23.8s23.8-10.6,23.8-23.8
	c0,0,0,0,0,0C164.4,167.7,153.8,157,140.6,157L140.6,157z"/>
<path class="st8" d="M178.9,102.7h53.2c2.4,0,4.4,2,4.4,4.4l0,0c0,2.4-2,4.4-4.4,4.4h-53.2c-2.4,0-4.4-2-4.4-4.4l0,0
	C174.4,104.6,176.4,102.7,178.9,102.7z"/>
<path class="st13" d="M176.8,117.6h57.6c1.3,0,2.3,1,2.3,2.3v0c0,1.3-1,2.3-2.3,2.3h-57.6c-1.3,0-2.3-1-2.3-2.3v0
	C174.4,118.6,175.5,117.6,176.8,117.6z"/>
<path class="st13" d="M176.8,127.3H211c1.3,0,2.3,1,2.3,2.3l0,0c0,1.3-1,2.3-2.3,2.3h-34.3c-1.3,0-2.3-1-2.3-2.3l0,0
	C174.4,128.3,175.5,127.3,176.8,127.3z"/>
<path class="st8" d="M178.9,167h53.2c2.4,0,4.4,2,4.4,4.4l0,0c0,2.4-2,4.4-4.4,4.4h-53.2c-2.4,0-4.4-2-4.4-4.4l0,0
	C174.4,169,176.4,167,178.9,167z"/>
<path class="st13" d="M176.8,181.9h57.6c1.3,0,2.3,1,2.3,2.3l0,0c0,1.3-1,2.3-2.3,2.3h-57.6c-1.3,0-2.3-1-2.3-2.3l0,0
	C174.4,183,175.5,181.9,176.8,181.9z"/>
<path class="st13" d="M176.8,191.7H211c1.3,0,2.3,1,2.3,2.3l0,0c0,1.3-1,2.3-2.3,2.3h-34.3c-1.3,0-2.3-1-2.3-2.3l0,0
	C174.4,192.7,175.5,191.7,176.8,191.7z"/>
<path class="st8" d="M178.9,229.2h53.2c2.4,0,4.4,2,4.4,4.4l0,0c0,2.4-2,4.4-4.4,4.4h-53.2c-2.4,0-4.4-2-4.4-4.4l0,0
	C174.4,231.2,176.4,229.2,178.9,229.2z"/>
<path class="st13" d="M176.8,244.1h57.6c1.3,0,2.3,1,2.3,2.3l0,0c0,1.3-1,2.3-2.3,2.3h-57.6c-1.3,0-2.3-1-2.3-2.3l0,0
	C174.4,245.2,175.5,244.1,176.8,244.1z"/>
<path class="st13" d="M176.8,253.9H211c1.3,0,2.3,1,2.3,2.3v0c0,1.3-1,2.3-2.3,2.3h-34.3c-1.3,0-2.3-1-2.3-2.3v0
	C174.4,254.9,175.5,253.9,176.8,253.9z"/>
<line class="st14" x1="116.7" y1="148.3" x2="239" y2="148.3"/>
<line class="st14" x1="116.7" y1="212.2" x2="239" y2="212.2"/>
<path class="st7" d="M294.2,63.8L294.2,63.8H294c-0.1,0-0.3-0.1-0.5-0.1c-3.9-0.8-5.7-4.6-6.2-6.2c-0.2-1.6-1.6-2.7-3.2-2.5
	c-1.2,0.1-2.1,1-2.4,2.1v-0.3c0,0-1.3,5.7-6.1,7c-0.2,0-0.4,0.1-0.6,0.1l-0.4,0.1h0.1c-1.5,0.6-2.2,2.3-1.5,3.8
	c0.3,0.8,1,1.4,1.8,1.6h-0.1c4.5,0.5,6.4,4.7,6.9,6.4c0.3,1.6,1.8,2.6,3.3,2.4c1.3-0.2,2.3-1.3,2.4-2.6c0.5-1.6,2.1-5.1,5.7-6.1h0.2
	c1.6,0,2.9-1.3,2.9-2.9C296.1,65.3,295.4,64.2,294.2,63.8L294.2,63.8z"/>
<path class="st7" d="M341.3,194.1L341.3,194.1h-0.2l-0.4-0.1c-3.3-0.7-4.7-3.8-5.2-5.2c-0.1-1.3-1.3-2.3-2.6-2.1
	c-1,0.1-1.8,0.8-2,1.7v-0.2c0,0-1.1,4.8-5.1,5.8c-0.2,0-0.3,0-0.5,0.1l-0.3,0.1h0c-1.2,0.5-1.8,1.9-1.3,3.1c0.3,0.6,0.8,1.1,1.5,1.4
	h-0.1c3.7,0.4,5.3,3.9,5.8,5.3c0.2,1.3,1.4,2.2,2.8,2c1.1-0.2,1.9-1.1,2-2.2c0.4-1.3,1.8-4.2,4.7-5.1h0.1c1.3,0,2.4-1.1,2.4-2.4
	C342.9,195.4,342.3,194.5,341.3,194.1L341.3,194.1z"/>
<path class="st1" d="M291.9,283.9L291.9,283.9c-0.1,0-0.1,0-0.2,0c-0.1,0-0.2-0.1-0.3-0.1c-2.7-0.6-3.9-3.2-4.2-4.3
	c-0.1-1-1-1.7-2-1.7c-0.9,0-1.7,0.6-1.9,1.4v-0.2c0,0-0.9,3.9-4.2,4.8c-0.1,0-0.3,0-0.4,0.1h-0.2l0,0c-1,0.4-1.5,1.6-1,2.6
	c0.2,0.5,0.6,0.9,1.1,1.1h-0.1c3.1,0.4,4.3,3.3,4.7,4.4c0.2,1.1,1.3,1.8,2.4,1.6c0.8-0.2,1.5-0.8,1.6-1.7c0.4-1.1,1.5-3.5,3.9-4.2
	h0.1c1.1,0,2-0.9,1.9-2.1C293.1,284.9,292.6,284.2,291.9,283.9L291.9,283.9z"/>
<rect x="108.1" y="69.8" class="st10" width="139.5" height="9.2"/>
<path class="st1" d="M36.8,258.5L36.8,258.5c0.1,0,0.1,0,0.2,0c0.1,0,0.2,0,0.3,0c2.6,0.6,3.7,3,4,4.1c0.1,1,1,1.8,2.1,1.7
	c0.8-0.1,1.4-0.6,1.6-1.4v0.2c0,0,0.9-3.7,4-4.5c0.1,0,0.3,0,0.4-0.1l0.2,0l0,0c0.7-0.3,1.2-1,1.2-1.8c0-0.8-0.5-1.5-1.3-1.8h0.1
	c-2.9-0.3-4.1-3.1-4.5-4.2c-0.2-1-1.1-1.7-2.2-1.6c-0.9,0.1-1.5,0.8-1.6,1.7c-0.4,1-1.4,3.3-3.7,4h-0.1c-1,0-1.9,0.8-1.9,1.9
	C35.5,257.5,36,258.2,36.8,258.5L36.8,258.5z"/>
<path class="st7" d="M63.3,290.3L63.3,290.3l0.2,0c0.1,0,0.3,0.1,0.4,0.1c3.8,0.8,5.4,4.4,6,6c0.2,1.5,1.6,2.6,3.1,2.4
	c1.1-0.1,2-0.9,2.3-2v0.2c0,0,1.3-5.5,5.9-6.7c0.2,0,0.4,0,0.6-0.1l0.3-0.1h-0.1c1-0.4,1.7-1.5,1.7-2.6c0-1.2-0.8-2.3-1.9-2.6H82
	c-4.3-0.5-6.1-4.5-6.7-6.1c-0.3-1.5-1.7-2.5-3.2-2.3c-1.2,0.2-2.2,1.2-2.3,2.5c-0.5,1.5-2,4.9-5.5,5.9h-0.2c-1.5,0-2.8,1.2-2.8,2.8
	C61.4,288.9,62.2,290,63.3,290.3L63.3,290.3z"/>
<path class="st7" d="M44.2,98.7L44.2,98.7h0.2l0.4,0.1c3.3,0.7,4.7,3.8,5.2,5.2c0.1,1.3,1.3,2.3,2.6,2.1c1-0.1,1.8-0.8,2-1.7v0.2
	c0,0,1.1-4.8,5.1-5.8c0.2,0,0.4,0,0.5-0.1h0.3l0,0c1.2-0.5,1.8-1.9,1.3-3.2c-0.3-0.6-0.8-1.1-1.5-1.3h0.1c-3.7-0.4-5.3-3.9-5.8-5.3
	c-0.2-1.3-1.4-2.2-2.8-2c-1.1,0.2-1.9,1.1-2,2.2c-0.5,1.3-1.8,4.2-4.7,5.1H45c-1.3,0-2.4,1.1-2.4,2.4C42.6,97.5,43.2,98.4,44.2,98.7
	L44.2,98.7z"/>
<path class="st1" d="M67.9,69.2L67.9,69.2H68c0.1,0,0.2,0.1,0.3,0.1c2.7,0.6,3.9,3.2,4.2,4.3c0.2,1.1,1.2,1.8,2.3,1.7
	c0.7-0.1,1.3-0.6,1.6-1.3v0.2c0,0,0.9-3.9,4.2-4.8c0.1,0,0.3,0,0.4-0.1h0.2l0,0c0.7-0.3,1.2-1,1.2-1.8c0-0.9-0.6-1.6-1.4-1.9h0.1
	c-3.1-0.4-4.3-3.3-4.7-4.4c-0.2-1.1-1.3-1.8-2.4-1.5c-0.8,0.2-1.4,0.8-1.5,1.7c-0.4,1.1-1.5,3.5-3.9,4.2h-0.1c-1.1,0-2,0.9-1.9,2.1
	C66.7,68.3,67.2,69,67.9,69.2L67.9,69.2z"/>
</svg>
