<svg id="Layer_1" data-name="Layer 1" xmlns="http://www.w3.org/2000/svg" viewBox="0 0 360 360"><defs><style>.cls-1,.cls-7{fill:none;}.cls-2,.cls-4{fill:#d0dbf4;}.cls-2,.cls-9{fill-rule:evenodd;}.cls-3,.cls-8{fill:#fcbf12;}.cls-5,.cls-9{fill:#586ab1;}.cls-6{fill:#5cc5cd;}.cls-7,.cls-8{stroke:#586ab1;stroke-width:2px;}.cls-7{stroke-linecap:round;stroke-linejoin:round;}.cls-8{stroke-miterlimit:10;}</style></defs><title>branding-spot hero</title><rect class="cls-1" x="0.34" y="-0.09" width="360" height="360"/><path class="cls-2" d="M178.25,306.56A127.31,127.31,0,1,0,51,179.25,127.31,127.31,0,0,0,178.25,306.56Z"/><path class="cls-3" d="M273.18,50l0,0L273,50a3.4,3.4,0,0,0-.46-.09c-3.93-.82-5.65-4.59-6.22-6.21a2.88,2.88,0,0,0-5.63-.43l0-.25s-1.31,5.71-6.12,7a3.24,3.24,0,0,0-.62.12l-.35.07.06,0a2.89,2.89,0,0,0,.23,5.41l-.1,0c4.48.5,6.36,4.71,6.93,6.39a2.89,2.89,0,0,0,5.73-.23c.54-1.57,2.12-5.07,5.68-6.11h.16a2.89,2.89,0,0,0,.95-5.62Z"/><path class="cls-4" d="M53.88,289.87h0l.2,0a2.38,2.38,0,0,0,.37.06c3.2.68,4.6,3.74,5.06,5a2.34,2.34,0,0,0,4.58.35l0,.21s1.06-4.65,5-5.66a2.88,2.88,0,0,0,.51-.1l.28-.05,0,0a2.35,2.35,0,0,0-.19-4.4l.09,0c-3.64-.41-5.17-3.83-5.64-5.2a2.34,2.34,0,0,0-4.65.19c-.44,1.28-1.72,4.12-4.62,5h-.13a2.36,2.36,0,0,0-.77,4.58Z"/><path class="cls-4" d="M67.58,59h0a1,1,0,0,1,.17,0,1.7,1.7,0,0,0,.31.06c2.7.59,3.86,3.18,4.24,4.3a2,2,0,0,0,3.87.32l0,.17s.93-3.92,4.24-4.75a2,2,0,0,0,.43-.08l.24,0h0a2,2,0,0,0-.13-3.72l.08,0c-3.08-.36-4.35-3.26-4.74-4.42A2,2,0,0,0,72.3,51c-.38,1.08-1.48,3.48-3.93,4.18h-.11A2,2,0,0,0,67.58,59Z"/><path class="cls-4" d="M287.28,83.1h0l.17,0a1.8,1.8,0,0,0,.32.06c2.69.59,3.86,3.18,4.24,4.3a2,2,0,0,0,3.86.32l0,.18s.92-3.92,4.23-4.76a2,2,0,0,0,.43-.08l.24,0,0,0a2,2,0,0,0-.13-3.71l.07,0c-3.08-.36-4.35-3.26-4.74-4.42a2,2,0,0,0-3.93.13c-.38,1.08-1.48,3.47-3.93,4.17H288a2,2,0,0,0-.67,3.86Z"/><path class="cls-4" d="M157.72,30.71h0a1,1,0,0,1,.17,0,1.55,1.55,0,0,0,.31.06c2.69.59,3.86,3.18,4.24,4.29a2,2,0,0,0,3.86.33l0,.17s.93-3.92,4.23-4.75a1.93,1.93,0,0,0,.43-.08l.24-.05h0A2,2,0,0,0,171,27l.07,0c-3.07-.36-4.34-3.26-4.73-4.42a2,2,0,0,0-3.94.13c-.37,1.08-1.47,3.48-3.92,4.18h-.12a2,2,0,0,0-2,2A2,2,0,0,0,157.72,30.71Z"/><path class="cls-3" d="M295.57,288.29h0l.21,0,.38.07c3.26.68,4.69,3.81,5.16,5.16a2.4,2.4,0,0,0,4.68.36l0,.21s1.08-4.75,5.08-5.79a2.28,2.28,0,0,0,.52-.1l.29-.05-.05,0a2.41,2.41,0,0,0-.19-4.5l.08,0c-3.72-.42-5.28-3.92-5.76-5.32a2.4,2.4,0,0,0-4.76.2c-.45,1.3-1.76,4.21-4.72,5.08h-.13a2.41,2.41,0,0,0-.79,4.68Z"/><path class="cls-5" d="M141.8,84.75l5.77-4.09s12.28,9.49,29,9.21,32.93-9.77,32.93-9.77l4.74,4.19S203.94,110,180.5,109.68,141.8,84.75,141.8,84.75Z"/><path class="cls-3" d="M141.8,84.75s6.32,24.93,38.7,24.93,35.16-25.11,35.16-25.11l-6.14-4.47s-3.91,20.65-28.74,21.77c0,0-24,3.9-33.21-21.21Z"/><path class="cls-3" d="M122.08,164.38s-23.82,3-32-5.86l-1.86,7.91s11,7.44,34,5Z"/><path class="cls-6" d="M141.8,84.75s-11,2.33-18.23,6.51-13.68,7.54-13.68,7.54a27,27,0,0,0-10.32,15.9l-9.21,43.54s8.09,9.49,31.53,5.86L121.33,270A218.31,218.31,0,0,0,183,277.77c33.21-.83,52.74-6.41,52.74-6.41l-1.11-107.82s23.44,4.19,32.93-5l-9.21-44.93s-2.24-11.72-11.17-15.35L233.52,91s-9.49-4.46-12.28-5-5.58-1.39-5.58-1.39-5.3,24.55-34,25.11S144.4,92.75,141.8,84.75Z"/><path class="cls-3" d="M235.57,164.38s23.81,3,32-5.86l1.86,7.91s-11,7.44-34.05,5Z"/><path class="cls-7" d="M122.25,171.91c-24.18,3-34.52-5.41-34.52-5.41s8.7-38.7,11.3-51,10.42-16.75,10.42-16.75,3.87-2.27,10.79-5.58C129,89,133.41,87.63,139.59,85a29.26,29.26,0,0,0,8.19-4.84S159.31,90.59,179,89.84c0,0,16.75,1.49,30.89-9.67A72.75,72.75,0,0,0,218.1,85C224,88.1,235,92.1,237.45,93.19a85.23,85.23,0,0,1,10.79,5.58s7.81,4.47,10.42,16.75,11.3,51,11.3,51-10.69,7.93-34.87,4.95"/><path class="cls-7" d="M89.51,158.43s6.92,9,32.59,6"/><path class="cls-7" d="M244.21,109.27c3.22-7.5,2.36-11,2.36-11"/><path class="cls-7" d="M110.94,98.31a25.8,25.8,0,0,0,5,15.63,42.69,42.69,0,0,1,2.57,3.82c3.37,5.68,4,10.52,4.32,19.71.37,11.16-2,133.49-2,133.49s54.6,16.37,116,0c0,0-2.38-122.33-2-133.49a41.5,41.5,0,0,1,4-17.22"/><path class="cls-7" d="M268,157.77s-7.54,9.21-32.43,6.49"/><path class="cls-7" d="M147.78,80.17s3.72,21.58,28.65,22.33c29.38.87,33.49-22.33,33.49-22.33"/><path class="cls-7" d="M141.82,84.26s4.84,26.05,38.33,25.68c31.25-.35,35.53-25.68,35.53-25.68"/><polygon class="cls-8" points="221.51 274.33 211.46 275.82 211.46 256.22 221.51 256.22 221.51 274.33"/><circle class="cls-8" cx="179.46" cy="165.53" r="32.65"/><path class="cls-5" d="M149,79.91s29.4,17.68,59.54,0c0,0-18.79,16.38-27.72,16.93s-31.45-12.46-31.45-13S149,79.91,149,79.91Z"/><path class="cls-9" d="M164.57,159.72a3.62,3.62,0,1,0-3.62,3.62,3.63,3.63,0,0,0,3.62-3.62"/><path class="cls-9" d="M170.74,166a3.63,3.63,0,1,0-3.63,3.63,3.63,3.63,0,0,0,3.63-3.63"/><path class="cls-9" d="M176.87,172.11a3.62,3.62,0,1,0-3.62,3.63,3.62,3.62,0,0,0,3.62-3.63"/><path class="cls-9" d="M176.87,184.39a3.62,3.62,0,1,0-3.62,3.63,3.62,3.62,0,0,0,3.62-3.63"/><path class="cls-9" d="M183.11,178.25a3.63,3.63,0,1,0-3.63,3.63,3.62,3.62,0,0,0,3.63-3.63"/><path class="cls-9" d="M189.29,172.11a3.62,3.62,0,1,0-3.62,3.63,3.62,3.62,0,0,0,3.62-3.63"/><path class="cls-9" d="M201.6,172a3.63,3.63,0,1,0-3.63,3.63A3.63,3.63,0,0,0,201.6,172"/><path class="cls-9" d="M195.41,165.9a3.63,3.63,0,1,0-3.62,3.63,3.62,3.62,0,0,0,3.62-3.63"/><path class="cls-9" d="M189.27,159.72a3.63,3.63,0,1,0-3.62,3.62,3.63,3.63,0,0,0,3.62-3.62"/><path class="cls-9" d="M176.87,159.72a3.62,3.62,0,1,0-3.62,3.62,3.63,3.63,0,0,0,3.62-3.62"/><path class="cls-9" d="M183.11,153.58a3.63,3.63,0,1,0-3.63,3.62,3.63,3.63,0,0,0,3.63-3.62"/><path class="cls-9" d="M189.25,147.44a3.63,3.63,0,1,0-3.63,3.62,3.63,3.63,0,0,0,3.63-3.62"/><line class="cls-7" x1="132.11" y1="151.82" x2="130.25" y2="245.87"/><line class="cls-7" x1="130.16" y1="253.68" x2="130.16" y2="261.4"/><path class="cls-3" d="M46,245.38l.05,0-.25,0a3.26,3.26,0,0,0-.45-.09c-3.93-.83-5.66-4.59-6.22-6.21a2.88,2.88,0,0,0-5.63-.43l0-.26s-1.31,5.72-6.12,7a3.09,3.09,0,0,0-.62.12l-.35.07.06,0a2.89,2.89,0,0,0,.23,5.41l-.11,0c4.48.5,6.36,4.71,6.94,6.39a2.89,2.89,0,0,0,5.73-.23c.54-1.57,2.11-5.07,5.68-6.12h.16a2.89,2.89,0,0,0,.94-5.62Z"/><path class="cls-4" d="M267.14,306.17h0l.16,0a1.8,1.8,0,0,0,.32.06c2.69.59,3.86,3.18,4.24,4.3a2,2,0,0,0,3.86.32l0,.18s.93-3.92,4.23-4.76a2,2,0,0,0,.43-.08l.24,0,0,0a2,2,0,0,0-.13-3.71l.07,0c-3.07-.36-4.35-3.26-4.73-4.42a2,2,0,0,0-3.94.13c-.38,1.08-1.47,3.47-3.93,4.17h-.11a2,2,0,0,0-.67,3.86Z"/><path class="cls-3" d="M38.08,91.69l0,0,.26,0a2,2,0,0,0,.49.09c4.19.89,6,4.9,6.62,6.62a3.07,3.07,0,0,0,6,.46l0,.27s1.4-6.09,6.52-7.42a2.86,2.86,0,0,0,.66-.13l.37-.07-.07,0a3.09,3.09,0,0,0,1.88-2.86,3.05,3.05,0,0,0-2.12-2.9l.12-.05c-4.78-.52-6.78-5-7.39-6.8a3.07,3.07,0,0,0-6.1.24c-.58,1.68-2.26,5.41-6.05,6.52h-.17a3.08,3.08,0,0,0-1,6Z"/></svg>