<svg xmlns="http://www.w3.org/2000/svg" viewBox="0 0 360 360"><defs><style>.cls-1{isolation:isolate;}.cls-2,.cls-3{fill:#d0dbf4;}.cls-2{fill-rule:evenodd;}.cls-11,.cls-4{fill:none;}.cls-5{fill:#fcbf12;}.cls-6{opacity:0.52;}.cls-24,.cls-6,.cls-8{mix-blend-mode:multiply;}.cls-12,.cls-7,.cls-8{fill:#d1d1d1;}.cls-10,.cls-9{fill:#fff;}.cls-10,.cls-11,.cls-12{stroke:#586ab1;stroke-linecap:round;stroke-linejoin:round;stroke-width:2px;}.cls-13{fill:#c98f00;}.cls-14{fill:#ffd576;}.cls-15{fill:#f9e7bb;}.cls-16{fill:#586ab1;}.cls-17{fill:#6c85d3;}.cls-18{fill:#87a6f4;}.cls-19{fill:#c0d5ff;}.cls-20{fill:#3facaf;}.cls-21{fill:#5cc5cd;}.cls-22{fill:#69dfe2;}.cls-23{fill:#aefdff;}.cls-24{opacity:0.59;}.cls-25{fill:#e8eaea;}</style></defs><title>colors-spot hero</title><g class="cls-1"><g id="Layer_1" data-name="Layer 1"><path class="cls-2" d="M178.25,306.56A127.31,127.31,0,1,0,51,179.25,127.31,127.31,0,0,0,178.25,306.56Z" transform="translate(-0.34 0.09)"/><path class="cls-3" d="M313.56,96.84h0a.76.76,0,0,1-.16,0,1.57,1.57,0,0,0-.3,0c-2.57-.56-3.68-3-4-4.1a1.88,1.88,0,0,0-3.68-.3l0-.17s-.88,3.73-4,4.53a1.76,1.76,0,0,0-.41.07l-.23,0h0a1.93,1.93,0,0,0-1.17,1.75,1.89,1.89,0,0,0,1.3,1.79l-.08,0c2.93.34,4.14,3.1,4.51,4.21a1.89,1.89,0,0,0,3.75-.13c.36-1,1.41-3.31,3.74-4h.11a1.89,1.89,0,0,0,.64-3.68Z" transform="translate(-0.34 0.09)"/><rect class="cls-4" width="360" height="360"/><path class="cls-5" d="M294.22,63.8l0,0-.25,0a2.39,2.39,0,0,0-.45-.09c-3.93-.83-5.66-4.59-6.22-6.21a2.88,2.88,0,0,0-5.63-.43l0-.26s-1.31,5.72-6.12,7a3.09,3.09,0,0,0-.62.12l-.35.07.06,0a2.89,2.89,0,0,0,.23,5.41l-.11,0c4.48.5,6.36,4.71,6.94,6.39a2.89,2.89,0,0,0,5.73-.23c.54-1.57,2.11-5.07,5.68-6.12h.16a2.89,2.89,0,0,0,.94-5.62Z" transform="translate(-0.34 0.09)"/><path class="cls-5" d="M321.22,252.2l0,0a1.38,1.38,0,0,1-.2,0,1.69,1.69,0,0,0-.38-.07c-3.27-.69-4.7-3.82-5.17-5.17a2.4,2.4,0,0,0-4.68-.35l0-.22s-1.09,4.76-5.09,5.79a3,3,0,0,0-.52.1c-.1,0-.19.05-.29.06l.06,0a2.4,2.4,0,0,0,.19,4.49l-.09,0c3.72.41,5.28,3.91,5.76,5.31a2.4,2.4,0,0,0,4.76-.19c.45-1.31,1.76-4.22,4.72-5.09h.14a2.4,2.4,0,0,0,.78-4.67Z" transform="translate(-0.34 0.09)"/><path class="cls-3" d="M291.92,283.93h0a1,1,0,0,0-.17,0,1.55,1.55,0,0,0-.31-.06c-2.69-.59-3.86-3.18-4.24-4.3a2,2,0,0,0-2-1.74,2,2,0,0,0-1.91,1.42l0-.18s-.93,3.92-4.23,4.76a1.93,1.93,0,0,0-.43.08l-.24,0,0,0a2,2,0,0,0,.13,3.71l-.07,0c3.07.36,4.34,3.26,4.73,4.42a2,2,0,0,0,3.94-.13c.37-1.08,1.47-3.47,3.92-4.17h.11a2,2,0,0,0,.68-3.86Z" transform="translate(-0.34 0.09)"/><path class="cls-3" d="M92.24,313.21h0l.16,0,.3.06c2.57.56,3.68,3,4,4.09a1.89,1.89,0,0,0,3.68.31l0,.16s.89-3.73,4-4.52a1.77,1.77,0,0,0,.4-.08l.23,0,0,0a1.89,1.89,0,0,0-.12-3.54l.07,0c-2.93-.35-4.14-3.11-4.51-4.21a1.89,1.89,0,0,0-3.75.12,6.11,6.11,0,0,1-3.74,4h-.11a1.89,1.89,0,0,0-.64,3.67Z" transform="translate(-0.34 0.09)"/><path class="cls-5" d="M123.84,325.51l0,0,.24,0a2.14,2.14,0,0,0,.44.08c3.78.8,5.44,4.42,6,6a2.77,2.77,0,0,0,5.41.41l0,.25s1.26-5.5,5.89-6.7a3.19,3.19,0,0,0,.6-.12l.33-.06-.06,0a2.78,2.78,0,0,0-.22-5.21l.1,0c-4.31-.48-6.11-4.53-6.67-6.15a2.78,2.78,0,0,0-5.51.22c-.52,1.51-2,4.88-5.46,5.88h-.16a2.78,2.78,0,0,0-.9,5.41Z" transform="translate(-0.34 0.09)"/><path class="cls-5" d="M128.71,32h0l.21,0a2.2,2.2,0,0,0,.37.07c3.27.69,4.7,3.82,5.17,5.17a2.4,2.4,0,0,0,4.68.35l0,.21s1.08-4.75,5.08-5.79a2.27,2.27,0,0,0,.52-.09c.1,0,.19-.05.29-.06l-.06,0a2.4,2.4,0,0,0-.19-4.5l.09,0c-3.72-.41-5.28-3.91-5.76-5.31a2.4,2.4,0,0,0-4.76.19c-.45,1.31-1.76,4.22-4.72,5.08h-.14a2.4,2.4,0,0,0-.78,4.67Z" transform="translate(-0.34 0.09)"/><path class="cls-3" d="M98.53,45.75h0l.17,0,.31.05c2.7.59,3.86,3.19,4.24,4.3a2,2,0,0,0,3.87.32l0,.18s.93-3.92,4.24-4.76a1.56,1.56,0,0,0,.43-.08l.24,0,0,0a2,2,0,0,0-.13-3.71l.08,0c-3.08-.36-4.35-3.26-4.74-4.42a2,2,0,0,0-3.93.13c-.38,1.08-1.48,3.47-3.93,4.17h-.11a2,2,0,0,0-2,2A2,2,0,0,0,98.53,45.75Z" transform="translate(-0.34 0.09)"/><g class="cls-6"><path class="cls-7" d="M95.07,228.45,258,159.54a2.11,2.11,0,0,1,2.74,1.12l25.64,60.62a2.09,2.09,0,0,1-1.11,2.74l-162.95,68.9" transform="translate(-0.34 0.09)"/><path class="cls-7" d="M122.47,292.87A35,35,0,0,1,95.2,228.39" transform="translate(-0.34 0.09)"/><line class="cls-7" x1="116.52" y1="219.53" x2="143.63" y2="283.65"/><circle class="cls-7" cx="104.46" cy="262.42" r="8.31"/><rect class="cls-7" x="114.73" y="225.01" width="68.07" height="37.63" transform="translate(315.05 11.93) rotate(67.08)"/><rect class="cls-7" x="150.73" y="209.79" width="68.07" height="37.63" transform="translate(323.01 -30.52) rotate(67.08)"/><rect class="cls-7" x="186.73" y="194.56" width="68.07" height="37.63" transform="translate(330.97 -72.97) rotate(67.08)"/><rect class="cls-7" x="222.28" y="179.53" width="68.07" height="37.63" transform="translate(338.83 -114.9) rotate(67.08)"/><line class="cls-7" x1="152.65" y1="204.13" x2="179.84" y2="268.42"/><line class="cls-7" x1="188.47" y1="188.98" x2="215.66" y2="253.28"/><line class="cls-7" x1="224.65" y1="173.68" x2="251.84" y2="237.98"/><path class="cls-7" d="M95.07,228.45,258,159.54a2.11,2.11,0,0,1,2.74,1.12l25.64,60.62a2.09,2.09,0,0,1-1.11,2.74l-162.95,68.9" transform="translate(-0.34 0.09)"/><path class="cls-7" d="M80.52,241.84,179.88,95.46a2.1,2.1,0,0,1,2.9-.56l54.46,37a2.11,2.11,0,0,1,.56,2.91L138.44,281.15" transform="translate(-0.34 0.09)"/><path class="cls-7" d="M138.53,281A35,35,0,0,1,80.6,241.72" transform="translate(-0.34 0.09)"/><line class="cls-7" x1="93.58" y1="222.53" x2="151.18" y2="261.62"/><circle class="cls-7" cx="106.76" cy="265.08" r="8.31"/><rect class="cls-7" x="99.92" y="206.76" width="68.07" height="37.63" transform="translate(149.46 -36.21) rotate(34.17)"/><rect class="cls-7" x="121.87" y="174.42" width="68.07" height="37.63" transform="translate(135.09 -54.12) rotate(34.17)"/><rect class="cls-7" x="143.82" y="142.08" width="68.07" height="37.63" transform="translate(120.71 -72.03) rotate(34.17)"/><rect class="cls-7" x="165.5" y="110.14" width="68.07" height="37.63" transform="translate(106.52 -89.72) rotate(34.17)"/><line class="cls-7" x1="115.55" y1="189.96" x2="173.31" y2="229.17"/><line class="cls-7" x1="137.39" y1="157.78" x2="195.15" y2="196.99"/><line class="cls-7" x1="159.45" y1="125.28" x2="217.21" y2="164.49"/><path class="cls-7" d="M80.52,241.84,179.88,95.46a2.1,2.1,0,0,1,2.9-.56l54.46,37a2.11,2.11,0,0,1,.56,2.91L138.44,281.15" transform="translate(-0.34 0.09)"/><path class="cls-8" d="M150.45,261.64,162.62,123l-13.73,17.78s-12.54,139.41-11.3,138,4.48-4.95,4.48-4.95Z" transform="translate(-0.34 0.09)"/><path class="cls-7" d="M73.45,258.76,88.61,82.5a2.1,2.1,0,0,1,2.26-1.91l65.58,5.64a2.1,2.1,0,0,1,1.91,2.26L143.2,264.76" transform="translate(-0.34 0.09)"/><path class="cls-7" d="M143.21,264.61a35,35,0,1,1-69.74-6" transform="translate(-0.34 0.09)"/><line class="cls-7" x1="75.32" y1="235.37" x2="144.68" y2="241.33"/><circle class="cls-7" cx="107.62" cy="266.06" r="8.31"/><rect class="cls-7" x="78.09" y="199.64" width="68.07" height="37.63" transform="translate(18.78 -8.72) rotate(4.91)"/><rect class="cls-7" x="81.44" y="160.7" width="68.07" height="37.63" transform="translate(15.46 -9.15) rotate(4.91)"/><rect class="cls-7" x="84.79" y="121.76" width="68.07" height="37.63" transform="translate(12.14 -9.58) rotate(4.91)"/><rect class="cls-7" x="88.09" y="83.3" width="68.07" height="37.63" transform="translate(8.85 -10) rotate(4.91)"/><line class="cls-7" x1="78.58" y1="196.23" x2="148.13" y2="202.21"/><line class="cls-7" x1="81.91" y1="157.48" x2="151.46" y2="163.46"/><line class="cls-7" x1="85.27" y1="118.34" x2="154.83" y2="124.32"/><path class="cls-7" d="M73.45,258.76,88.61,82.5a2.1,2.1,0,0,1,2.26-1.91l65.58,5.64a2.1,2.1,0,0,1,1.91,2.26L143.2,264.76" transform="translate(-0.34 0.09)"/></g><path class="cls-9" d="M85.6,224.22l162.83-69.16a2.09,2.09,0,0,1,2.74,1.11l25.74,60.58a2.1,2.1,0,0,1-1.11,2.74L113,288.65" transform="translate(-0.34 0.09)"/><path class="cls-10" d="M113.1,288.59a35,35,0,1,1-27.37-64.43" transform="translate(-0.34 0.09)"/><line class="cls-11" x1="107.03" y1="215.27" x2="134.24" y2="279.34"/><circle class="cls-12" cx="95.04" cy="258.17" r="8.31"/><rect class="cls-13" x="105.28" y="220.7" width="68.07" height="37.63" transform="translate(304.96 17.73) rotate(66.99)"/><rect class="cls-5" x="141.26" y="205.42" width="68.07" height="37.63" transform="translate(312.81 -24.69) rotate(66.99)"/><rect class="cls-14" x="177.23" y="190.14" width="68.07" height="37.63" transform="translate(320.66 -67.1) rotate(66.99)"/><rect class="cls-15" x="212.76" y="175.05" width="68.07" height="37.63" transform="translate(328.41 -109) rotate(66.99)"/><line class="cls-11" x1="143.14" y1="199.81" x2="170.43" y2="264.06"/><line class="cls-11" x1="178.94" y1="184.6" x2="206.23" y2="248.86"/><line class="cls-11" x1="215.09" y1="169.25" x2="242.38" y2="233.5"/><path class="cls-11" d="M85.6,224.22l162.83-69.16a2.09,2.09,0,0,1,2.74,1.11l25.74,60.58a2.1,2.1,0,0,1-1.11,2.74L113,288.65" transform="translate(-0.34 0.09)"/><path class="cls-8" d="M135.31,278.19l71.35-104.38-14.59,1.46S112.15,286.69,113.9,286.1a3.67,3.67,0,0,1,3.21.59Z" transform="translate(-0.34 0.09)"/><path class="cls-9" d="M71.07,237.63,170.2,91.1a2.09,2.09,0,0,1,2.9-.56l54.52,36.88a2.1,2.1,0,0,1,.56,2.9L129.05,276.86" transform="translate(-0.34 0.09)"/><path class="cls-10" d="M129.14,276.74a35,35,0,0,1-58-39.23" transform="translate(-0.34 0.09)"/><line class="cls-11" x1="84.1" y1="218.3" x2="141.76" y2="257.3"/><circle class="cls-12" cx="97.35" cy="260.83" r="8.31"/><rect class="cls-16" x="90.44" y="202.47" width="68.07" height="37.63" transform="translate(145.02 -31.66) rotate(34.08)"/><rect class="cls-17" x="112.34" y="170.09" width="68.07" height="37.63" transform="translate(130.64 -49.49) rotate(34.08)"/><rect class="cls-18" x="134.24" y="137.72" width="68.07" height="37.63" transform="translate(116.26 -67.32) rotate(34.08)"/><rect class="cls-19" x="155.87" y="105.75" width="68.07" height="37.63" transform="translate(102.06 -84.93) rotate(34.08)"/><line class="cls-11" x1="106.01" y1="185.7" x2="163.84" y2="224.81"/><line class="cls-11" x1="127.8" y1="153.49" x2="185.63" y2="192.6"/><line class="cls-11" x1="149.81" y1="120.95" x2="207.64" y2="160.07"/><path class="cls-11" d="M71.07,237.63,170.2,91.1a2.09,2.09,0,0,1,2.9-.56l54.52,36.88a2.1,2.1,0,0,1,.56,2.9L129.05,276.86" transform="translate(-0.34 0.09)"/><path class="cls-8" d="M141,257.33l12-138.65-13.71,17.79S127,275.91,128.19,274.54s4.48-5,4.48-5Z" transform="translate(-0.34 0.09)"/><path class="cls-9" d="M64,254.56,78.91,78.28a2.09,2.09,0,0,1,2.26-1.91l65.59,5.54a2.1,2.1,0,0,1,1.91,2.26L133.79,260.45" transform="translate(-0.34 0.09)"/><path class="cls-10" d="M133.8,260.31A35,35,0,0,1,64,254.42" transform="translate(-0.34 0.09)"/><line class="cls-11" x1="65.86" y1="231.17" x2="135.23" y2="237.03"/><circle class="cls-12" cx="98.21" cy="261.81" r="8.31"/><rect class="cls-20" x="68.6" y="195.38" width="68.07" height="37.63" transform="translate(18.04 -7.79) rotate(4.82)"/><rect class="cls-21" x="71.89" y="156.44" width="68.07" height="37.63" transform="translate(14.77 -8.2) rotate(4.82)"/><rect class="cls-22" x="75.18" y="117.49" width="68.07" height="37.63" transform="translate(11.51 -8.62) rotate(4.82)"/><rect class="cls-23" x="78.42" y="79.03" width="68.07" height="37.63" transform="translate(8.28 -9.03) rotate(4.82)"/><line class="cls-11" x1="69.05" y1="192.02" x2="138.62" y2="197.89"/><line class="cls-11" x1="72.32" y1="153.27" x2="141.89" y2="159.14"/><line class="cls-11" x1="75.63" y1="114.13" x2="145.19" y2="120"/><path class="cls-11" d="M64,254.56,78.91,78.28a2.09,2.09,0,0,1,2.26-1.91l65.59,5.54a2.1,2.1,0,0,1,1.91,2.26L133.79,260.45" transform="translate(-0.34 0.09)"/><path class="cls-3" d="M32.3,148.85h0l-.17,0a1.65,1.65,0,0,0-.32-.06c-2.69-.59-3.86-3.18-4.24-4.3a2,2,0,0,0-3.86-.32l0-.18s-.92,3.92-4.23,4.76a2,2,0,0,0-.43.08l-.24,0,0,0a2,2,0,0,0-1.22,1.83A2,2,0,0,0,19,152.56l-.08,0c3.08.36,4.35,3.27,4.74,4.42a2,2,0,0,0,3.93-.13c.38-1.08,1.48-3.47,3.93-4.17h.11a2,2,0,0,0,.67-3.86Z" transform="translate(-0.34 0.09)"/><g class="cls-24"><polygon class="cls-7" points="266.65 125.86 264.7 111.34 241.09 66.74 228.27 73.53 251.87 118.13 263.83 127.38 266.65 125.86"/><path class="cls-7" d="M242.38,64.26,227.1,35.4a9.23,9.23,0,0,0-12.44-3.83h0A9.23,9.23,0,0,0,210.83,44L226.1,72.88Z" transform="translate(-0.34 0.09)"/><rect class="cls-7" x="219.95" y="65.35" width="28.28" height="5.86" rx="2.6" transform="translate(-5.09 117.52) rotate(-27.89)"/><line class="cls-7" x1="232.42" y1="70.6" x2="250.28" y2="104.65"/><line class="cls-7" x1="252.09" y1="108.42" x2="253.4" y2="110.93"/></g><polygon class="cls-25" points="262.39 125.93 260.44 111.41 236.84 66.81 224.01 73.6 247.62 118.2 259.58 127.44 262.39 125.93"/><path class="cls-16" d="M238.12,64.33,222.85,35.47a9.24,9.24,0,0,0-12.45-3.83h0a9.23,9.23,0,0,0-3.83,12.45L221.84,73Z" transform="translate(-0.34 0.09)"/><rect class="cls-16" x="215.69" y="65.42" width="28.28" height="5.86" rx="2.6" transform="translate(-5.62 115.54) rotate(-27.89)"/><path class="cls-3" d="M238.93,98.87c.74-.19,11-6,11-6l9.86,18.42,2,13.86L260,126.31l-11.44-9Z" transform="translate(-0.34 0.09)"/><polygon class="cls-11" points="262.39 125.93 260.44 111.41 236.84 66.81 224.01 73.6 247.62 118.2 259.58 127.44 262.39 125.93"/></g></g></svg>