<svg id="Layer_1" data-name="Layer 1" xmlns="http://www.w3.org/2000/svg" viewBox="0 0 360 360"><defs><style>.cls-1,.cls-2{fill:#d0dbf4;}.cls-1{fill-rule:evenodd;}.cls-3,.cls-7{fill:none;}.cls-4,.cls-5{fill:#fcbf12;}.cls-5,.cls-6,.cls-7{stroke:#586ab1;stroke-width:2px;}.cls-5,.cls-6{stroke-miterlimit:10;}.cls-6{fill:#5cc5cd;}.cls-7{stroke-linecap:round;stroke-linejoin:round;}</style></defs><title>data viz-spot hero</title><path class="cls-1" d="M178.25,306.56A127.31,127.31,0,1,0,51,179.25,127.31,127.31,0,0,0,178.25,306.56Z"/><path class="cls-2" d="M313.56,96.84h0a.76.76,0,0,1-.16,0,1.57,1.57,0,0,0-.3,0c-2.57-.56-3.68-3-4-4.1a1.88,1.88,0,0,0-3.68-.3l0-.17s-.88,3.73-4,4.53a1.76,1.76,0,0,0-.41.07l-.23,0h0a1.93,1.93,0,0,0-1.17,1.75,1.89,1.89,0,0,0,1.3,1.79l-.08,0c2.93.34,4.14,3.1,4.51,4.21a1.89,1.89,0,0,0,3.75-.13c.36-1,1.41-3.31,3.74-4h.11a1.89,1.89,0,0,0,.64-3.68Z"/><rect class="cls-3" x="0.34" y="-0.09" width="360" height="360"/><path class="cls-4" d="M294.22,63.8l0,0-.25,0a2.39,2.39,0,0,0-.45-.09c-3.93-.83-5.66-4.59-6.22-6.21a2.88,2.88,0,0,0-5.63-.43l0-.26s-1.31,5.72-6.12,7a3.09,3.09,0,0,0-.62.12l-.35.07.06,0a2.89,2.89,0,0,0,.23,5.41l-.11,0c4.48.5,6.36,4.71,6.94,6.39a2.89,2.89,0,0,0,5.73-.23c.54-1.57,2.11-5.07,5.68-6.12h.16a2.89,2.89,0,0,0,.94-5.62Z"/><path class="cls-4" d="M46.62,111.55l0,0a1.33,1.33,0,0,1-.21,0,1.59,1.59,0,0,0-.38-.07c-3.26-.69-4.7-3.82-5.17-5.17a2.4,2.4,0,0,0-4.68-.35l0-.22s-1.09,4.75-5.08,5.79a2.82,2.82,0,0,0-.52.1c-.1,0-.19,0-.29.06l.05,0a2.43,2.43,0,0,0-1.47,2.23,2.41,2.41,0,0,0,1.66,2.26l-.09,0c3.73.41,5.29,3.91,5.77,5.31a2.4,2.4,0,0,0,4.76-.19c.45-1.31,1.76-4.22,4.72-5.09h.13a2.4,2.4,0,0,0,.79-4.67Z"/><path class="cls-2" d="M329.59,227h0l-.17,0a1.65,1.65,0,0,0-.32-.06c-2.69-.59-3.86-3.18-4.24-4.3a2,2,0,0,0-3.86-.32l0-.18s-.92,3.92-4.23,4.76a2,2,0,0,0-.43.08l-.24,0,0,0a2,2,0,0,0,.14,3.71l-.08,0c3.08.36,4.35,3.26,4.74,4.42a2,2,0,0,0,3.93-.13c.38-1.08,1.48-3.47,3.93-4.17h.11a2,2,0,0,0,.67-3.86Z"/><path class="cls-4" d="M128.71,32h0l.21,0a2.2,2.2,0,0,0,.37.07c3.27.69,4.7,3.82,5.17,5.17a2.4,2.4,0,0,0,4.68.35l0,.21s1.08-4.75,5.08-5.79a2.27,2.27,0,0,0,.52-.09c.1,0,.19-.05.29-.06l-.06,0a2.4,2.4,0,0,0-.19-4.5l.09,0c-3.72-.41-5.28-3.91-5.76-5.31a2.4,2.4,0,0,0-4.76.19c-.45,1.31-1.76,4.22-4.72,5.08h-.14a2.4,2.4,0,0,0-.78,4.67Z"/><path class="cls-2" d="M98.53,45.75h0l.17,0,.31.05c2.7.59,3.86,3.19,4.24,4.3a2,2,0,0,0,3.87.32l0,.18s.93-3.92,4.24-4.76a1.56,1.56,0,0,0,.43-.08l.24,0,0,0a2,2,0,0,0-.13-3.71l.08,0c-3.08-.36-4.35-3.26-4.74-4.42a2,2,0,0,0-3.93.13c-.38,1.08-1.48,3.47-3.93,4.17h-.11a2,2,0,0,0-2,2A2,2,0,0,0,98.53,45.75Z"/><path class="cls-2" d="M43.55,234.54h0l-.17,0a1.55,1.55,0,0,0-.31-.06c-2.69-.59-3.86-3.18-4.24-4.3a2,2,0,0,0-2-1.74A2,2,0,0,0,35,229.82l0-.18s-.93,3.92-4.23,4.76a1.93,1.93,0,0,0-.43.08l-.24,0,0,0a2,2,0,0,0-1.22,1.83,2,2,0,0,0,1.35,1.88l-.07,0c3.07.36,4.34,3.27,4.73,4.42a2,2,0,0,0,3.94-.13c.37-1.08,1.47-3.47,3.92-4.17h.11a2,2,0,0,0,.68-3.86Z"/><rect class="cls-5" x="73.36" y="164.87" width="11.53" height="6.7" rx="1"/><rect class="cls-5" x="89.83" y="164.87" width="11.53" height="6.7" rx="1"/><rect class="cls-5" x="69.78" y="241.7" width="35.16" height="35.16" rx="1"/><rect class="cls-6" x="69.78" y="205.98" width="35.16" height="35.16" rx="1"/><rect class="cls-5" x="69.78" y="170.63" width="35.16" height="35.16" rx="1"/><rect class="cls-6" x="118.99" y="129.89" width="11.53" height="6.7" rx="1"/><rect class="cls-6" x="135.45" y="129.89" width="11.53" height="6.7" rx="1"/><rect class="cls-6" x="115.41" y="206.73" width="35.16" height="35.16" rx="1"/><rect class="cls-5" x="115.41" y="171.01" width="35.16" height="35.16" rx="1"/><rect class="cls-6" x="115.41" y="135.66" width="35.16" height="35.16" rx="1"/><rect class="cls-5" x="115.41" y="241.7" width="35.16" height="35.16" rx="1"/><rect class="cls-6" x="255.71" y="200.59" width="11.53" height="6.7" rx="1"/><rect class="cls-6" x="272.18" y="200.59" width="11.53" height="6.7" rx="1"/><rect class="cls-5" x="252.13" y="241.7" width="35.16" height="35.16" rx="1"/><rect class="cls-6" x="252.13" y="206.36" width="35.16" height="35.16" rx="1"/><rect class="cls-5" x="210.25" y="235.94" width="11.53" height="6.7" rx="1"/><rect class="cls-5" x="226.71" y="235.94" width="11.53" height="6.7" rx="1"/><rect class="cls-5" x="206.66" y="241.7" width="35.16" height="35.16" rx="1"/><rect class="cls-6" x="165.45" y="94.54" width="11.53" height="6.7" rx="1"/><rect class="cls-6" x="181.92" y="94.54" width="11.53" height="6.7" rx="1"/><rect class="cls-6" x="161.87" y="171.38" width="35.16" height="35.16" rx="1"/><rect class="cls-5" x="161.87" y="135.66" width="35.16" height="35.16" rx="1"/><rect class="cls-6" x="161.87" y="100.31" width="35.16" height="35.16" rx="1"/><rect class="cls-5" x="161.87" y="206.36" width="35.16" height="35.16" rx="1"/><rect class="cls-6" x="161.87" y="241.7" width="35.16" height="35.16" rx="1"/><line class="cls-7" x1="53.32" y1="276.87" x2="303.48" y2="276.87"/></svg>