<svg xmlns="http://www.w3.org/2000/svg" viewBox="0 0 360 360"><defs><style>.cls-1{isolation:isolate;}.cls-2,.cls-3{fill:#d0dbf4;}.cls-2{fill-rule:evenodd;}.cls-11,.cls-4{fill:#fcbf12;}.cls-10,.cls-5{fill:none;}.cls-6{fill:#fff;}.cls-10,.cls-11,.cls-6,.cls-7,.cls-9{stroke:#586ab1;stroke-width:2px;}.cls-10,.cls-6,.cls-7,.cls-9{stroke-linecap:round;stroke-linejoin:round;}.cls-7{fill:#5cc5cd;}.cls-8{fill:#d1d1d1;opacity:0.52;}.cls-11,.cls-8{mix-blend-mode:multiply;}.cls-9{fill:#efefef;}.cls-10{stroke-dasharray:6;}.cls-11{stroke-miterlimit:10;}</style></defs><title>emoty state-spot hero</title><g class="cls-1"><g id="Layer_1" data-name="Layer 1"><path class="cls-2" d="M178.25,312.56A127.31,127.31,0,1,0,51,185.25,127.31,127.31,0,0,0,178.25,312.56Z"/><path class="cls-3" d="M317.85,109.82h0l-.15,0-.28-.06c-2.45-.61-3.44-3-3.76-4A1.81,1.81,0,0,0,312,104a1.79,1.79,0,0,0-1.77,1.25l0-.16s-1,3.54-4,4.22l-.39.06-.22,0,0,0a1.83,1.83,0,0,0-1.17,1.64,1.82,1.82,0,0,0,1.19,1.75l-.07,0c2.8.42,3.88,3.1,4.2,4.16a1.81,1.81,0,0,0,3.59,0,5.87,5.87,0,0,1,3.69-3.71h.11a1.81,1.81,0,0,0,.71-3.5Z"/><path class="cls-4" d="M117.73,42.06h0l-.23,0a2.71,2.71,0,0,0-.41-.09c-3.6-.89-5.06-4.42-5.53-5.93a2.66,2.66,0,0,0-5.17-.58l0-.24s-1.39,5.22-5.86,6.22a2.8,2.8,0,0,0-.58.09l-.32.05,0,0a2.66,2.66,0,0,0,0,5l-.1,0c4.11.61,5.7,4.55,6.18,6.12a2.66,2.66,0,0,0,5.28,0c.55-1.43,2.11-4.61,5.43-5.45h.15a2.67,2.67,0,0,0,1.06-5.15Z"/><path class="cls-4" d="M294.34,79.8l0,0a1.38,1.38,0,0,1-.2,0,2.7,2.7,0,0,0-.39-.08c-3.31-.71-4.76-3.89-5.23-5.26A2.43,2.43,0,0,0,283.8,74l0-.21s-1.12,4.82-5.18,5.86a3.1,3.1,0,0,0-.53.1l-.29.06.05,0a2.43,2.43,0,0,0,.18,4.56l-.09,0c3.78.43,5.36,4,5.84,5.41a2.43,2.43,0,0,0,4.83-.18c.46-1.32,1.8-4.27,4.81-5.15h.14a2.44,2.44,0,0,0,.82-4.74Z"/><path class="cls-3" d="M105.26,311.24h0l-.23,0a2.13,2.13,0,0,0-.44-.07c-3.72-.71-5.41-4.23-6-5.75a2.72,2.72,0,0,0-5.32-.29l0-.24s-1.13,5.41-5.64,6.68a2.71,2.71,0,0,0-.58.12,2.17,2.17,0,0,1-.33.07l.06,0a2.75,2.75,0,0,0-1.62,2.57,2.72,2.72,0,0,0,1.94,2.53l-.1,0c4.23.39,6.08,4.32,6.66,5.9a2.72,2.72,0,0,0,5.4-.32c.48-1.5,1.9-4.83,5.24-5.88h.15a2.73,2.73,0,0,0,.79-5.33Z"/><path class="cls-3" d="M256.46,312.37l0,0,.17,0a1.19,1.19,0,0,0,.32,0c2.73.52,4,3.1,4.4,4.22a2,2,0,0,0,3.9.21l0,.18s.83-4,4.14-4.92a1.57,1.57,0,0,0,.43-.09l.24-.05H270a2,2,0,0,0-.24-3.75l.08,0c-3.11-.27-4.47-3.16-4.9-4.32a2,2,0,0,0-4,.24c-.35,1.1-1.39,3.55-3.84,4.32H257a2,2,0,0,0-.58,3.9Z"/><path class="cls-4" d="M48.82,261.68l0,0-.21,0-.39-.07c-3.32-.7-4.77-3.87-5.25-5.24a2.43,2.43,0,0,0-4.75-.36l0-.22s-1.11,4.83-5.17,5.88a3.1,3.1,0,0,0-.53.1c-.1,0-.19.05-.29.06l0,0a2.44,2.44,0,0,0,.2,4.57l-.09,0c3.78.42,5.37,4,5.85,5.4a2.44,2.44,0,0,0,4.84-.2c.45-1.33,1.78-4.28,4.79-5.16H48a2.44,2.44,0,0,0,.8-4.75Z"/><path class="cls-4" d="M243,322.82l0,0-.27,0a2.56,2.56,0,0,0-.48-.1c-4.19-.9-6-4.92-6.61-6.65a3.08,3.08,0,0,0-6-.49l0-.27s-1.42,6.09-6.56,7.4a2.86,2.86,0,0,0-.66.13l-.38.07.07,0a3.09,3.09,0,0,0,.22,5.78l-.11,0c4.78.55,6.76,5.05,7.37,6.85a3.08,3.08,0,0,0,6.11-.22c.59-1.68,2.28-5.4,6.09-6.5H242a3.09,3.09,0,0,0,1-6Z"/><path class="cls-3" d="M328.07,222.82h0l-.21,0a1.78,1.78,0,0,0-.39-.07c-3.36-.74-4.82-4-5.29-5.36a2.47,2.47,0,0,0-4.82-.4l0-.22s-1.16,4.88-5.28,5.93a1.91,1.91,0,0,0-.54.1l-.3.05.06,0a2.48,2.48,0,0,0,.16,4.64l-.09,0c3.83.45,5.42,4.07,5.9,5.52a2.47,2.47,0,0,0,4.91-.17c.47-1.34,1.84-4.33,4.9-5.21h.14a2.48,2.48,0,0,0,.84-4.81Z"/><rect class="cls-5" x="0.34" y="-0.09" width="360" height="360"/><rect class="cls-6" x="72.13" y="137.14" width="147.49" height="146.87" rx="1"/><rect class="cls-6" x="219.62" y="137.14" width="53.26" height="146.87" rx="1" transform="translate(492.51 421.14) rotate(180)"/><rect class="cls-7" x="114" y="202.76" width="58.75" height="16.53" rx="1"/><rect class="cls-7" x="232.75" y="202.76" width="28.85" height="16.53" rx="1"/><rect class="cls-8" x="73.09" y="136.38" width="198.56" height="58.78"/><path class="cls-9" d="M204.82,183.39H48.3a1.69,1.69,0,0,1-1.68-1.68l25.43-44.77a1.69,1.69,0,0,1,1.68-1.68H219.19a1.68,1.68,0,0,1,1.68,1.68L206.5,181.71A1.69,1.69,0,0,1,204.82,183.39Z"/><path class="cls-9" d="M297.32,185.26H239.85a1.68,1.68,0,0,1-1.68-1.68l-17.3-46.64a1.69,1.69,0,0,1,1.68-1.68h55.57a1.68,1.68,0,0,1,1.68,1.68L299,183.58A1.69,1.69,0,0,1,297.32,185.26Z"/><path class="cls-8" d="M72.88,281.09l146.4-9,53-20.16V284H75A2.34,2.34,0,0,1,72.88,281.09Z"/><path class="cls-10" d="M189.79,123.54s-1.27-14.57,8.87-18.37c8.07-3,15.84.64,21.54,4.44s17.87,14.68,30.4,4.43c13.94-11.4-7.6-36.11-7.6-36.11s-18.37-21.53.63-34.2"/><path class="cls-10" d="M149,123s-3.35-38.51-30.14-42.41-54.14,25.67-63.63-5"/><ellipse class="cls-7" cx="255.91" cy="30.52" rx="8.78" ry="5.23" transform="translate(37.18 166.82) rotate(-38.73)"/><path class="cls-6" d="M261.19,23.63,250.92,22s-6.24-.39-6.57,3.7c-.41,5.13,4.72,4.93,4.72,4.93Z"/><path class="cls-6" d="M263.5,26.25l-.32,10.39s-.78,6.2-4.86,5.75c-5.12-.56-4-5.56-4-5.56Z"/><ellipse class="cls-7" cx="52.02" cy="57.81" rx="4.85" ry="8.14" transform="translate(-8.63 9.13) rotate(-9.27)"/><path class="cls-6" d="M52.67,49.79,60.76,55s4.54,3.6,2.23,6.62c-2.9,3.79-6.31.47-6.31.47Z"/><path class="cls-6" d="M49.45,50.16l-6.23,7.36s-3.31,4.76-.22,7c3.87,2.79,6.17-1.38,6.17-1.38Z"/><rect class="cls-11" x="206.53" y="252.47" width="27.35" height="12.28" rx="1"/><path class="cls-11" d="M72.58,252.47H84a1,1,0,0,1,1,1v10.28a1,1,0,0,1-1,1H72.58"/><path class="cls-10" d="M116.11,126.33c1.3-10.6,8-22.92,30-21.21,19.17,1.49,30.33-15.35,29.77-31.25"/><ellipse class="cls-7" cx="176.95" cy="60.19" rx="8.14" ry="4.85" transform="translate(106.98 233.51) rotate(-86.8)"/><path class="cls-6" d="M179.31,52.5l6.77,6.86s3.66,4.5.75,7c-3.65,3.08-6.26-.91-6.26-.91Z"/><path class="cls-6" d="M176.09,52.17,168.42,58s-4.27,3.93-1.73,6.77c3.18,3.56,6.33,0,6.33,0Z"/></g></g></svg>