<svg id="Layer_1" data-name="Layer 1" xmlns="http://www.w3.org/2000/svg" viewBox="0 0 360 360"><defs><style>.cls-1,.cls-9{fill:none;}.cls-2,.cls-3{fill:#d0dbf4;}.cls-2{fill-rule:evenodd;}.cls-4,.cls-7{fill:#fcbf12;}.cls-5{fill:#fff;}.cls-5,.cls-6,.cls-7,.cls-9{stroke:#586ab1;stroke-linecap:round;stroke-linejoin:round;stroke-width:2px;}.cls-6,.cls-8{fill:#5cc5cd;}</style></defs><title>FAQs-spot hero</title><rect class="cls-1" x="0.34" y="-0.09" width="360" height="360"/><path class="cls-2" d="M178.25,306.56A127.31,127.31,0,1,0,51,179.25,127.31,127.31,0,0,0,178.25,306.56Z"/><path class="cls-3" d="M44.25,254.33l0,0a1.08,1.08,0,0,1-.19,0,2.29,2.29,0,0,0-.36-.07c-3.08-.66-4.42-3.63-4.86-4.9a2.26,2.26,0,0,0-4.42-.36l0-.2s-1.05,4.49-4.82,5.45a4,4,0,0,0-.5.09l-.27.05.05,0a2.28,2.28,0,0,0-1.39,2.1A2.26,2.26,0,0,0,29,258.61l-.08,0c3.51.41,5,3.72,5.42,5a2.27,2.27,0,0,0,4.5-.16c.43-1.23,1.68-4,4.48-4.78h.12a2.28,2.28,0,0,0,2.28-2.28A2.25,2.25,0,0,0,44.25,254.33Z"/><path class="cls-4" d="M53.71,88.39l0,0-.27,0a2.66,2.66,0,0,0-.49-.1c-4.24-.91-6.09-5-6.69-6.74A3.11,3.11,0,0,0,40.23,81l0-.27s-1.44,6.17-6.63,7.49a3,3,0,0,0-.68.13l-.38.07.07,0a3.13,3.13,0,0,0,.22,5.85l-.11,0c4.83.56,6.84,5.11,7.46,6.93a3.12,3.12,0,0,0,6.19-.22c.58-1.7,2.3-5.47,6.15-6.58h.18a3.12,3.12,0,0,0,1.05-6.07Z"/><path class="cls-3" d="M75.24,58.89h0a.76.76,0,0,1-.16,0l-.3-.05c-2.55-.55-3.66-3-4-4.06a1.87,1.87,0,0,0-3.66-.29l0-.17s-.87,3.71-4,4.51a1.77,1.77,0,0,0-.4.08l-.23,0h0a1.88,1.88,0,0,0,.13,3.52l-.07,0c2.91.34,4.12,3.08,4.49,4.18a1.87,1.87,0,0,0,3.72-.14,6.07,6.07,0,0,1,3.71-4h.11a1.88,1.88,0,0,0,.63-3.65Z"/><path class="cls-3" d="M158.14,23h0L158,23l-.29-.05c-2.55-.55-3.66-3-4-4.06a1.87,1.87,0,0,0-3.65-.29l0-.17s-.86,3.71-4,4.51a1.86,1.86,0,0,0-.41.08l-.22,0,0,0a1.87,1.87,0,0,0,.13,3.51l-.07,0c2.91.33,4.12,3.07,4.49,4.17a1.87,1.87,0,0,0,3.72-.14c.36-1,1.39-3.29,3.71-4h.1a1.88,1.88,0,0,0,.63-3.66Z"/><path class="cls-4" d="M71.79,287.73l0,0a1.83,1.83,0,0,1-.25-.06,3.74,3.74,0,0,0-.48-.12c-4.08-1.11-5.66-5.17-6.15-6.9a3,3,0,0,0-5.89-.8l0-.27s-1.73,5.93-6.86,6.95a3,3,0,0,0-.66.08l-.37.05.07,0a3,3,0,0,0-.09,5.7l-.12,0c4.68.8,6.4,5.34,6.9,7.14a3,3,0,0,0,6,.11c.66-1.62,2.53-5.2,6.34-6.08h.17a3,3,0,0,0,1.33-5.85Z"/><path class="cls-3" d="M150.15,325h0l-.19,0a2.25,2.25,0,0,0-.36-.06c-3.08-.67-4.43-3.63-4.86-4.9a2.26,2.26,0,0,0-4.42-.36l0-.2s-1.05,4.48-4.83,5.45a2,2,0,0,0-.49.09l-.27.05,0,0a2.27,2.27,0,0,0,.16,4.25l-.09,0c3.52.4,5,3.72,5.43,5a2.27,2.27,0,0,0,4.5-.16c.42-1.24,1.67-4,4.47-4.78h.13a2.27,2.27,0,0,0,.76-4.42Z"/><path class="cls-5" d="M214.84,112.86h91.7A10.54,10.54,0,0,0,317,102.35V41.83a10.53,10.53,0,0,0-10.5-10.5h-91.7a10.52,10.52,0,0,0-10.5,10.5v53l-23.48,22.06Z"/><path class="cls-5" d="M256.11,138.52h51.31a10.52,10.52,0,0,1,10.5,10.5v60.53a10.53,10.53,0,0,1-10.5,10.5h-91.7a10.53,10.53,0,0,1-10.5-10.5V189.23L182.91,180l22.31-9V149a10.52,10.52,0,0,1,10.5-10.5h40.39Z"/><rect class="cls-6" x="14.78" y="151.99" width="14.26" height="61.41"/><path class="cls-5" d="M214.84,245.71h91.7a10.53,10.53,0,0,1,10.5,10.5v60.53a10.54,10.54,0,0,1-10.5,10.5h-91.7a10.53,10.53,0,0,1-10.5-10.5V263.79l-23.48-22.07Z"/><path class="cls-6" d="M102.43,212.78s2.86,25.27,19.55,43.86c0,0,8.58,9.06,19.54,7.15s16.21-7.15,16.21-7.15l-16.21-39.09s-12.51,3.75-15.61-5.31l-.59-2"/><rect class="cls-7" x="147.49" y="214.46" width="11.44" height="42.22" rx="3" transform="translate(-76.28 73.39) rotate(-21.71)"/><path class="cls-6" d="M102.43,142.91s2.86-25.27,19.55-43.86c0,0,8.58-9.06,19.54-7.15s16.21,7.15,16.21,7.15l-16.21,39.09s-12.51-3.75-15.61,5.3"/><rect class="cls-7" x="147.49" y="99.01" width="11.44" height="42.22" rx="3" transform="translate(55.3 -48.16) rotate(21.71)"/><path class="cls-5" d="M61.55,206.55s5.37,6.08,11.8,7.86H113.4V150.06L61,159.26"/><path class="cls-8" d="M102.72,153.31s-3.92,34.94-.29,59.47l1.4,3.6,21.77-1.68L123,207.31l-1.26-51.49Z"/><path class="cls-9" d="M102.43,142.91s-5.27,34.9.22,70.89l.62,3.7"/><path class="cls-5" d="M62.27,158.64c1.07,0,17.16-12.51,25-14.66a17.31,17.31,0,0,1,7.15-1.07h29.67s8.23,5,9.3,13.23v6.43H106.25a21.67,21.67,0,0,1-3.94,10c-3.57,5-13.94,11.8-13.94,11.8"/><rect class="cls-5" x="108.76" y="171.03" width="35.87" height="12.68" rx="4.47"/><rect class="cls-5" x="109.15" y="184.17" width="35.87" height="12.68" rx="4.47"/><rect class="cls-5" x="117.21" y="157.57" width="27.42" height="12.68" rx="4.47"/><rect class="cls-5" x="112.86" y="197.38" width="25.39" height="12.68" rx="4.47"/><rect class="cls-5" x="25.2" y="148.15" width="37.66" height="69.12" rx="4"/><circle class="cls-7" cx="43" cy="202.43" r="6.14"/><path class="cls-6" d="M254.42,80.05a23.79,23.79,0,0,1,1.21-8.45,13.29,13.29,0,0,1,3.92-5.37,25.78,25.78,0,0,0,4.13-4.16,6.79,6.79,0,0,0,1.41-4.16q0-5.53-4.77-5.53A4.4,4.4,0,0,0,256.77,54a6.82,6.82,0,0,0-1.43,4.36H243Q243,51,247.57,46.93t12.75-4.08q8.18,0,12.67,3.77t4.49,10.74a12.64,12.64,0,0,1-1.21,5.54A18.62,18.62,0,0,1,272.38,68l-4.21,3.92a10,10,0,0,0-2.5,3.54,14.15,14.15,0,0,0-.77,4.6Zm-1.5,11.14a5.67,5.67,0,0,1,2-4.45,7.76,7.76,0,0,1,9.79,0,6,6,0,0,1,0,8.91,7.76,7.76,0,0,1-9.79,0A5.69,5.69,0,0,1,252.92,91.19Z"/><path class="cls-6" d="M254.42,188.89a23.75,23.75,0,0,1,1.21-8.45,13.16,13.16,0,0,1,3.92-5.37,26.19,26.19,0,0,0,4.13-4.16,6.81,6.81,0,0,0,1.41-4.16q0-5.53-4.77-5.54a4.4,4.4,0,0,0-3.55,1.62,6.8,6.8,0,0,0-1.43,4.36H243q.08-7.33,4.62-11.42t12.75-4.09q8.18,0,12.67,3.78t4.49,10.74a12.57,12.57,0,0,1-1.21,5.53,18.8,18.8,0,0,1-3.89,5.1l-4.21,3.92a10,10,0,0,0-2.5,3.54,14.15,14.15,0,0,0-.77,4.6ZM252.92,200a5.67,5.67,0,0,1,2-4.45,7.76,7.76,0,0,1,9.79,0,6,6,0,0,1,0,8.9,7.76,7.76,0,0,1-9.79,0A5.67,5.67,0,0,1,252.92,200Z"/><path class="cls-6" d="M254.42,298.56a23.79,23.79,0,0,1,1.21-8.45,13.29,13.29,0,0,1,3.92-5.37,25.78,25.78,0,0,0,4.13-4.16,6.79,6.79,0,0,0,1.41-4.16q0-5.54-4.77-5.53a4.4,4.4,0,0,0-3.55,1.61,6.84,6.84,0,0,0-1.43,4.36H243q.08-7.33,4.62-11.42t12.75-4.08q8.18,0,12.67,3.77t4.49,10.74a12.61,12.61,0,0,1-1.21,5.54,18.62,18.62,0,0,1-3.89,5.09l-4.21,3.92a10,10,0,0,0-2.5,3.54,14.15,14.15,0,0,0-.77,4.6Zm-1.5,11.14a5.68,5.68,0,0,1,2-4.45,7.76,7.76,0,0,1,9.79,0,6,6,0,0,1,0,8.91,7.76,7.76,0,0,1-9.79,0A5.69,5.69,0,0,1,252.92,309.7Z"/></svg>