<svg id="Layer_1" data-name="Layer 1" xmlns="http://www.w3.org/2000/svg" viewBox="0 0 360 360"><defs><style>.cls-1,.cls-2{fill:#d0dbf4;}.cls-1{fill-rule:evenodd;}.cls-11,.cls-3{fill:#fcbf12;}.cls-4,.cls-7{fill:#fff;}.cls-11,.cls-4,.cls-5,.cls-8,.cls-9{stroke:#586ab1;stroke-linecap:round;stroke-linejoin:round;stroke-width:2px;}.cls-5{fill:#d1d1d1;}.cls-6{fill:#586ab1;}.cls-12,.cls-8{fill:none;}.cls-10,.cls-9{fill:#5cc5cd;}</style></defs><title>forge-getting started-spot hero</title><path class="cls-1" d="M178.25,312.56A127.31,127.31,0,1,0,51,185.25,127.31,127.31,0,0,0,178.25,312.56Z"/><path class="cls-2" d="M144.72,36.4h0l-.16,0-.28-.06c-2.44-.6-3.44-3-3.75-4a1.81,1.81,0,0,0-3.52-.39l0-.16s-1,3.55-4,4.22a2.57,2.57,0,0,0-.4.06l-.22,0h0a1.82,1.82,0,0,0-1.16,1.64,1.79,1.79,0,0,0,1.18,1.75l-.06,0c2.79.41,3.87,3.09,4.2,4.15a1.81,1.81,0,0,0,3.59,0,5.81,5.81,0,0,1,3.69-3.7h.1a1.82,1.82,0,0,0,1.87-1.76A1.8,1.8,0,0,0,144.72,36.4Z"/><path class="cls-3" d="M126.7,70.29l.06,0a2.82,2.82,0,0,1-.31-.07,5.41,5.41,0,0,0-.58-.12c-5-1.23-7-6.1-7.62-8.18a3.66,3.66,0,0,0-7.13-.8l0-.33S109.15,68,103,69.34a4.18,4.18,0,0,0-.8.13c-.15,0-.29,0-.45.06l.08,0a3.67,3.67,0,0,0,.05,6.88l-.14,0c5.67.83,7.87,6.27,8.53,8.44a3.67,3.67,0,0,0,7.28,0c.76-2,2.92-6.35,7.49-7.51h.21a3.68,3.68,0,0,0,1.46-7.11Z"/><path class="cls-3" d="M255.27,44.08l0,0a1.38,1.38,0,0,1-.2,0,2.7,2.7,0,0,0-.39-.08c-3.31-.71-4.76-3.89-5.23-5.26a2.43,2.43,0,0,0-4.75-.38l0-.21s-1.12,4.82-5.18,5.86a3.1,3.1,0,0,0-.53.1l-.29.06.05,0a2.43,2.43,0,0,0,.18,4.56l-.09,0c3.78.43,5.36,4,5.84,5.41A2.43,2.43,0,0,0,249.5,54c.46-1.32,1.8-4.27,4.81-5.15h.14a2.44,2.44,0,0,0,.82-4.74Z"/><path class="cls-2" d="M97.44,304.55l0,0-.23,0a3,3,0,0,0-.43-.07c-3.72-.71-5.42-4.23-6-5.74a2.72,2.72,0,0,0-5.32-.3l0-.24s-1.13,5.41-5.64,6.68a2.3,2.3,0,0,0-.59.13l-.33.07.07,0a2.72,2.72,0,0,0,.31,5.09l-.1,0c4.24.39,6.09,4.33,6.67,5.9a2.72,2.72,0,0,0,5.39-.32c.48-1.5,1.9-4.83,5.24-5.88h.16a2.73,2.73,0,0,0,.78-5.32Z"/><path class="cls-4" d="M52.73,256.08V110.93a8.5,8.5,0,0,1,8.48-8.48H294.5a8.5,8.5,0,0,1,8.48,8.48V256.08"/><polyline class="cls-5" points="60.77 253.17 60.77 118.18 294.94 118.18 294.94 257.11"/><rect class="cls-6" x="60.5" y="118" width="234.7" height="14.24"/><path class="cls-7" d="M51.15,254.79s1.94-5.13,6.22-7,6.4-.21,6.4-.21S68,237.48,75,234.49s15.54,0,15.54,0,4.66-20.51,20.77-25,28.35,5.77,30.87,12.6c0,0,10.48-4.06,14.75,3.21,0,0,11.07-8.55,10.49-41.88l.52-9.28,20.09.37-.23,8.91s0,35,10.68,41.66c0,0,6.8-7.9,14.56-2.77,0,0,9.84-17,28.54-13.46,21.69,4.08,24.68,25.87,24.68,25.87s17.76-7.47,26.5,12.61c0,0,11.07-2.78,12.82,7.69l-96.84.79L197.61,266.7l-24.56-.27Z"/><path class="cls-8" d="M63.86,247.57a8.48,8.48,0,0,0-3.58-.79,9.24,9.24,0,0,0-8.49,6.14l-.64,1.87"/><path class="cls-8" d="M150,230c20.09-4.46,17.85-47.9,17.85-47.9v-7.76"/><path class="cls-8" d="M206.62,230c-20.08-4.46-17.85-47.9-17.85-47.9v-8.64"/><path class="cls-8" d="M139.71,225.73a10.55,10.55,0,0,1,17.76-.29"/><path class="cls-8" d="M90.54,239.34c0-17.27,12.83-31.27,28.65-31.27,10,0,18.85,5.62,24,14.14"/><path class="cls-8" d="M63.61,249.16c2.16-9.36,9.93-16.29,19.18-16.29a18.4,18.4,0,0,1,8.07,1.87"/><path class="cls-8" d="M217.05,225.73a10.56,10.56,0,0,0-17.84-.18"/><path class="cls-8" d="M266.21,239.34c0-17.27-12.82-31.27-28.64-31.27-10,0-18.85,5.62-24,14.14"/><path class="cls-8" d="M293.15,249.16c-2.16-9.36-9.93-16.29-19.18-16.29a18.4,18.4,0,0,0-8.07,1.87"/><path class="cls-8" d="M292.9,247.57a8.48,8.48,0,0,1,3.58-.79,9.23,9.23,0,0,1,8.48,6.14l.65,2.11"/><path class="cls-8" d="M140.82,241.54c-1.17.11-2.38.18-3.64.21"/><path class="cls-8" d="M174.2,203.72s-.1,31.62-29.06,37.21"/><path class="cls-8" d="M216.42,240.54c1.17.11,2.38.18,3.64.21"/><path class="cls-8" d="M183,202.72s.1,31.62,29.06,37.21"/><path class="cls-9" d="M198.17,124.4s20.92,12.83,20.42,24v25.32a3.08,3.08,0,0,1-2.79,2.94c-2.77.33-3.8-3.45-3.8-3.45l-4.06-15.13s-1.92-6.41-8.81-6.73"/><path class="cls-9" d="M158.59,124.4s-20.93,12.83-20.42,24v25.32a3.08,3.08,0,0,0,2.79,2.94c2.76.33,3.79-3.45,3.79-3.45l4.06-15.13s1.93-6.41,8.82-6.73"/><path class="cls-7" d="M183.15,49.73a101,101,0,0,1,14.27,21c11.27,21.66,21.2,57.89-4.79,98.42H164.74c-41.86-65.3,9.48-119.44,9.48-119.44S178.5,44.9,183.15,49.73Z"/><path class="cls-10" d="M162.16,67.5s8.93-15.07,11-17.4,5.67-3.9,8.74-1.48,13.4,17.86,13.4,17.86l1.77,3.44s-6.66-5-18.4-4.35S160,70.76,160,70.76Z"/><path class="cls-2" d="M205.9,140.84c-6.1-2.19-15.85-5.39-27.55-5.39a65.8,65.8,0,0,0-26.73,5.39s6.08,19.29,13.24,28.78h27.91a132.67,132.67,0,0,0,12.43-26Z"/><path class="cls-8" d="M183.15,49.73a101,101,0,0,1,14.27,21c11.27,21.66,21.2,57.89-4.79,98.42H164.74c-41.86-65.3,9.48-119.44,9.48-119.44S178.5,44.9,183.15,49.73Z"/><path class="cls-8" d="M159.3,72c2.22-3.68,10-6.4,19.35-6.4,8.21,0,15.26,2.12,18.33,5.15a6,6,0,0,1,1.22,1.63"/><circle class="cls-11" cx="178.49" cy="96.8" r="13.66"/><circle class="cls-5" cx="178.49" cy="96.8" r="8.74"/><path class="cls-5" d="M190.77,173.45H166.86a1,1,0,0,1-1-1l-1-2.83c0-.55-.55-1,0-1h27.86c.55,0,.05.45.05,1l-1,2.83A1,1,0,0,1,190.77,173.45Z"/><path class="cls-8" d="M154.44,83.36c3.95-6.28,13.26-10.7,24.11-10.7a38.33,38.33,0,0,1,7.77.79,35.07,35.07,0,0,1,6.84,2.19c4.14,2,7.49,4.55,9.47,7.68"/><path class="cls-8" d="M151.4,140c6.08-3.22,15.81-5.3,26.77-5.3,11.51,0,21.65,2.29,27.66,5.78"/><path class="cls-9" d="M178.43,176.84h0c-1.62,0-2.94-1.92-2.94-4.26l-3.4-42.05c0-2.35,3.19-5.58,6.34-5.58h0c3.16,0,6.34,3.23,6.34,5.58l-3.39,42.05C181.38,174.92,180.05,176.84,178.43,176.84Z"/><path class="cls-5" d="M313.47,274.68H50.2l-7.1-.1c-7.4-.3-6.41-9.17-6.41-9.17v-9.67h120.2l9.8,8.42,25.3.06,9.07-8.48H318.89v9.37S320.57,274.68,313.47,274.68Z"/><path class="cls-2" d="M266.36,302.22h0l.16,0,.28,0c2.48.47,3.6,2.8,4,3.81a1.81,1.81,0,0,0,3.53.2l0,.16s.74-3.6,3.74-4.45a1.8,1.8,0,0,0,.39-.08l.22-.05h0a1.84,1.84,0,0,0,1.07-1.7,1.82,1.82,0,0,0-1.29-1.69l.07,0c-2.81-.26-4.05-2.87-4.43-3.92a1.81,1.81,0,0,0-3.59.22,5.79,5.79,0,0,1-3.47,3.91h-.1a1.82,1.82,0,0,0-.52,3.54Z"/><path class="cls-3" d="M34.31,195.67h0l-.21,0a1.59,1.59,0,0,0-.38-.07c-3.32-.7-4.77-3.88-5.25-5.25a2.44,2.44,0,0,0-4.76-.36l0-.22s-1.1,4.83-5.16,5.89a1.84,1.84,0,0,0-.53.1l-.29,0,.05,0a2.44,2.44,0,0,0,.19,4.57l-.09,0c3.78.42,5.37,4,5.86,5.4a2.43,2.43,0,0,0,4.83-.2c.46-1.32,1.79-4.28,4.8-5.16h.13a2.44,2.44,0,0,0,.8-4.75Z"/><path class="cls-3" d="M233.2,301.72l.05,0-.3-.05a3.47,3.47,0,0,0-.56-.11c-4.86-1-7-5.71-7.66-7.71a3.56,3.56,0,0,0-6.95-.56l-.05-.32s-1.65,7.06-7.6,8.58a4,4,0,0,0-.77.14l-.43.08.08,0a3.57,3.57,0,0,0,.25,6.69l-.13,0c5.53.64,7.83,5.85,8.54,7.94a3.57,3.57,0,0,0,7.08-.26c.67-1.94,2.64-6.26,7.05-7.53h.2a3.58,3.58,0,0,0,1.2-6.95Z"/><path class="cls-2" d="M338.81,170.66h0l-.21,0a2.7,2.7,0,0,0-.39-.08c-3.36-.73-4.82-4-5.29-5.36a2.47,2.47,0,0,0-4.82-.4l0-.22s-1.16,4.89-5.28,5.93a3,3,0,0,0-.54.1l-.3.06.06,0a2.47,2.47,0,0,0,.16,4.63l-.09,0c3.83.45,5.42,4.07,5.9,5.51a2.47,2.47,0,0,0,4.91-.16c.47-1.35,1.84-4.34,4.9-5.21H338a2.48,2.48,0,0,0,.84-4.81Z"/><rect class="cls-12" x="0.34" y="-0.09" width="360" height="360"/></svg>