<svg xmlns="http://www.w3.org/2000/svg" viewBox="0 0 360 360"><defs><style>.cls-1{isolation:isolate;}.cls-18,.cls-2,.cls-3{fill:#d0dbf4;}.cls-2{fill-rule:evenodd;}.cls-4,.cls-6{fill:#fcbf12;}.cls-16,.cls-5{fill:none;}.cls-10,.cls-11,.cls-14,.cls-15,.cls-16,.cls-18,.cls-6,.cls-7{stroke:#586ab1;stroke-width:2px;}.cls-14,.cls-15,.cls-16,.cls-6,.cls-7{stroke-linecap:round;stroke-linejoin:round;}.cls-11,.cls-7{fill:#fff;}.cls-8{fill:#586ab1;}.cls-10,.cls-14,.cls-17,.cls-9{fill:#d1d1d1;}.cls-10,.cls-11,.cls-18{stroke-miterlimit:10;}.cls-12,.cls-17{mix-blend-mode:multiply;}.cls-13{fill:#e5e5e5;}.cls-15{fill:#5cc5cd;}.cls-17{opacity:0.5;}</style></defs><title>forms-spot hero</title><g class="cls-1"><g id="Layer_1" data-name="Layer 1"><path class="cls-2" d="M178.25,312.56A127.31,127.31,0,1,0,51,185.25,127.31,127.31,0,0,0,178.25,312.56Z"/><path class="cls-3" d="M317.85,109.82h0l-.15,0-.28-.06c-2.45-.61-3.44-3-3.76-4A1.81,1.81,0,0,0,312,104a1.79,1.79,0,0,0-1.77,1.25l0-.16s-1,3.54-4,4.22l-.39.06-.22,0,0,0a1.83,1.83,0,0,0-1.17,1.64,1.82,1.82,0,0,0,1.19,1.75l-.07,0c2.8.42,3.88,3.1,4.2,4.16a1.81,1.81,0,0,0,3.59,0,5.87,5.87,0,0,1,3.69-3.71h.11a1.81,1.81,0,0,0,.71-3.5Z"/><path class="cls-4" d="M62.29,93h0l-.23,0a1.87,1.87,0,0,0-.41-.09c-3.6-.9-5.06-4.42-5.53-5.93A2.66,2.66,0,0,0,51,86.3l0-.23s-1.39,5.22-5.86,6.21a2.8,2.8,0,0,0-.58.09l-.32,0,0,0a2.66,2.66,0,0,0,0,5l-.1,0c4.11.61,5.7,4.55,6.18,6.12a2.66,2.66,0,0,0,5.28,0c.55-1.43,2.11-4.6,5.43-5.44h.15A2.67,2.67,0,0,0,62.29,93Z"/><path class="cls-4" d="M294.34,79.8l0,0a1.38,1.38,0,0,1-.2,0,2.7,2.7,0,0,0-.39-.08c-3.31-.71-4.76-3.89-5.23-5.26A2.43,2.43,0,0,0,283.8,74l0-.21s-1.12,4.82-5.18,5.86a3.1,3.1,0,0,0-.53.1l-.29.06.05,0a2.43,2.43,0,0,0,.18,4.56l-.09,0c3.78.43,5.36,4,5.84,5.41a2.43,2.43,0,0,0,4.83-.18c.46-1.32,1.8-4.27,4.81-5.15h.14a2.44,2.44,0,0,0,.82-4.74Z"/><path class="cls-4" d="M67.24,279.26l0,0a1.38,1.38,0,0,1-.2,0,1.78,1.78,0,0,0-.39-.07c-3.32-.7-4.77-3.88-5.25-5.25a2.43,2.43,0,0,0-4.75-.36l0-.22s-1.1,4.83-5.16,5.88a3.1,3.1,0,0,0-.53.1c-.1,0-.19,0-.29.06l.05,0a2.44,2.44,0,0,0,.2,4.57l-.1,0c3.79.42,5.37,4,5.86,5.4a2.44,2.44,0,0,0,4.84-.2c.45-1.33,1.78-4.28,4.79-5.16h.14a2.44,2.44,0,0,0,.8-4.75Z"/><path class="cls-4" d="M328.07,222.82h0l-.21,0a1.78,1.78,0,0,0-.39-.07c-3.36-.74-4.82-4-5.29-5.36a2.47,2.47,0,0,0-4.82-.4l0-.22s-1.16,4.88-5.28,5.93a1.91,1.91,0,0,0-.54.1l-.3.05.06,0a2.48,2.48,0,0,0,.16,4.64l-.09,0c3.83.45,5.42,4.07,5.9,5.52a2.47,2.47,0,0,0,4.91-.17c.47-1.34,1.84-4.33,4.9-5.21h.14a2.48,2.48,0,0,0,.84-4.81Z"/><rect class="cls-5" x="0.34" y="-0.09" width="360" height="360"/><path class="cls-3" d="M39.9,134.93h0l-.15,0a1.36,1.36,0,0,0-.29-.06c-2.44-.61-3.43-3-3.75-4a1.81,1.81,0,0,0-3.52-.4l0-.16s-.94,3.55-4,4.23a1.23,1.23,0,0,0-.39.06l-.22,0,0,0a1.81,1.81,0,0,0,0,3.39l-.07,0c2.79.41,3.87,3.09,4.2,4.16a1.81,1.81,0,0,0,3.59,0,5.83,5.83,0,0,1,3.69-3.7h.1a1.81,1.81,0,0,0,.72-3.5Z"/><rect class="cls-6" x="92.58" y="62.68" width="174.14" height="236.93" rx="5"/><rect class="cls-7" x="106.34" y="80.05" width="146.63" height="203.32" rx="1"/><rect class="cls-8" x="151.52" y="103.3" width="89.75" height="5.77" rx="0.91"/><rect class="cls-8" x="151.52" y="113.59" width="89.75" height="5.77" rx="0.91"/><rect class="cls-9" x="136.89" y="58.68" width="76.88" height="6.7"/><circle class="cls-9" cx="180.96" cy="55.95" r="13.66"/><path class="cls-10" d="M230,55.17H196.84a17.06,17.06,0,0,0-34.08-.07v.07h-33.1a3.25,3.25,0,0,0-3.49,2.91V84.2H233.45V58.08C233.45,56.48,231.87,55.17,230,55.17Z"/><rect class="cls-10" x="122.18" y="259.08" width="118.33" height="10.05" rx="1"/><rect class="cls-10" x="122.18" y="219.87" width="118.33" height="10.05" rx="1"/><rect class="cls-10" x="122.18" y="239.47" width="118.33" height="10.05" rx="1"/><rect class="cls-8" x="121.99" y="207.37" width="40.79" height="5.54" rx="0.91"/><circle class="cls-11" cx="179.72" cy="54.17" r="6.84"/><g class="cls-12"><polygon class="cls-13" points="80.19 246.06 70.85 237.73 72.06 234.57 89.81 240.46 83.92 249.51 80.19 246.06"/><rect class="cls-13" x="193.43" y="304.28" width="5.3" height="12.99" rx="1" transform="translate(563.44 302.32) rotate(120.93)"/><rect class="cls-13" x="133.12" y="212.44" width="10.69" height="127.63" rx="2" transform="translate(446.59 299.47) rotate(120.93)"/><path class="cls-13" d="M191.6,300.71l1.33-2.21-1.43-1.29a223.2,223.2,0,0,0-30.78-19.58l-.88,1.47a3.62,3.62,0,0,1,1.44,2.29l2,1.51,2.65-.56s14.56,8.73,17.46,12l-.5.84a6.48,6.48,0,0,0-5.93,3.17c-2,3.53,1.82,8,1.82,8l7.1,4.25.44-.73s-4.21-3-2.95-6.5S191.51,300.66,191.6,300.71Z"/><line class="cls-13" x1="167.78" y1="287.87" x2="162.53" y2="296.63"/><line class="cls-13" x1="107.71" y1="251.99" x2="102.56" y2="260.57"/><line class="cls-13" x1="103.21" y1="249.3" x2="98.07" y2="257.88"/><line class="cls-13" x1="98.72" y1="246.6" x2="93.58" y2="255.19"/><line class="cls-13" x1="94.22" y1="243.91" x2="89.08" y2="252.5"/><polyline class="cls-13" points="86.73 239.45 72.06 234.57 70.39 237.36 81.61 247.99"/><path class="cls-13" d="M67.68,233.84h0a.86.86,0,0,1,1.18-.3l2.61.62c.33-.11,0,1.37-.29,1.78h0c-.24.41-1,1.05-1.43.81L68,235A.86.86,0,0,1,67.68,233.84Z"/></g><polygon class="cls-9" points="79.03 239.11 69.69 230.78 70.9 227.62 88.66 233.5 82.76 242.56 79.03 239.11"/><rect class="cls-14" x="192.27" y="297.33" width="5.3" height="12.99" rx="1" transform="translate(555.72 292.79) rotate(120.93)"/><rect class="cls-15" x="131.96" y="205.48" width="10.69" height="127.63" rx="2" transform="translate(438.88 289.94) rotate(120.93)"/><path class="cls-8" d="M190.44,293.76l1.33-2.21-1.43-1.29a223.2,223.2,0,0,0-30.78-19.58l-.88,1.47a3.62,3.62,0,0,1,1.44,2.29l2,1.51,2.65-.56s14.56,8.73,17.46,12l-.5.84a6.46,6.46,0,0,0-5.93,3.17c-2,3.53,1.82,8,1.82,8l7.1,4.25.45-.74s-4.22-2.95-3-6.49S190.35,293.71,190.44,293.76Z"/><line class="cls-16" x1="166.62" y1="280.91" x2="161.37" y2="289.68"/><line class="cls-16" x1="106.55" y1="245.04" x2="101.41" y2="253.62"/><line class="cls-16" x1="102.05" y1="242.35" x2="96.91" y2="250.93"/><line class="cls-16" x1="97.56" y1="239.65" x2="92.42" y2="248.24"/><line class="cls-16" x1="93.07" y1="236.96" x2="87.92" y2="245.54"/><polyline class="cls-16" points="85.57 232.5 70.9 227.62 69.23 230.41 80.45 241.04"/><path class="cls-8" d="M66.52,226.89h0a.85.85,0,0,1,1.18-.3l2.61.62c.33-.11,0,1.37-.29,1.78h0c-.24.4-1,1-1.43.8l-1.78-1.72A.86.86,0,0,1,66.52,226.89Z"/><rect class="cls-17" x="127.27" y="71.61" width="104.93" height="11.44"/><rect class="cls-18" x="121.92" y="101.48" width="18.58" height="18.58" rx="1"/><path class="cls-15" d="M130.06,120.08s.18,1.67,1.68,1.67h3.16s5.21-16.37,11.72-19.91c0,0-.18-2.79-2.42-2.23s-10.41,8.65-11.67,12.7c0,0-3.58-4.79-5.4-5.58a2.17,2.17,0,0,0-2.41.23c-1.12.74-1.35,1.77-1,2.33C123.74,109.29,128.86,115.8,130.06,120.08Z"/><rect class="cls-10" x="122.18" y="164.12" width="118.33" height="10.05" rx="1"/><rect class="cls-10" x="121.95" y="182.98" width="55.72" height="10.05" rx="1"/><rect class="cls-10" x="185.02" y="182.98" width="55.72" height="10.05" rx="1"/><rect class="cls-8" x="121.99" y="151.63" width="40.79" height="5.54" rx="0.91"/><path class="cls-3" d="M122.49,323.39h0l-.15,0-.28-.07c-2.44-.6-3.44-3-3.76-4a1.8,1.8,0,0,0-3.51-.39l0-.16s-1,3.55-4,4.22a2.63,2.63,0,0,0-.39.06l-.22,0h0a1.81,1.81,0,0,0,0,3.4l-.07,0c2.8.41,3.88,3.09,4.2,4.16a1.81,1.81,0,0,0,3.59,0,5.85,5.85,0,0,1,3.7-3.7h.1a1.81,1.81,0,0,0,.72-3.5Z"/><path class="cls-3" d="M254.23,318.74h0l-.15,0a1.4,1.4,0,0,0-.28-.06c-2.45-.61-3.44-3-3.76-4a1.8,1.8,0,0,0-3.51-.4l0-.16s-.95,3.55-4,4.23a1.27,1.27,0,0,0-.39.06l-.22,0,0,0a1.81,1.81,0,0,0,0,3.39l-.07,0c2.79.41,3.88,3.09,4.2,4.16a1.81,1.81,0,0,0,3.59,0,5.83,5.83,0,0,1,3.69-3.7h.11a1.81,1.81,0,0,0,.71-3.5Z"/><line class="cls-16" x1="122.44" y1="136.56" x2="240.76" y2="136.56"/></g></g></svg>