<svg xmlns="http://www.w3.org/2000/svg" xmlns:xlink="http://www.w3.org/1999/xlink" viewBox="0 0 360 360"><defs><style>.cls-1,.cls-13{fill:none;}.cls-2,.cls-7{fill:#5cc5cd;}.cls-3{isolation:isolate;}.cls-4,.cls-6{fill:#d0dbf4;}.cls-4{fill-rule:evenodd;}.cls-5{fill:#fcbf12;}.cls-7,.cls-8,.cls-9{stroke:#586ab1;stroke-linecap:round;stroke-linejoin:round;}.cls-11,.cls-13,.cls-14,.cls-7,.cls-8,.cls-9{stroke-width:2px;}.cls-8{fill:#586ab1;}.cls-11,.cls-17,.cls-9{fill:#fff;}.cls-10,.cls-14{fill:#d1d1d1;}.cls-11,.cls-13,.cls-14{stroke:#586ab2;stroke-miterlimit:10;}.cls-12{clip-path:url(#clip-path);}.cls-15{opacity:0.41;mix-blend-mode:multiply;}.cls-16{clip-path:url(#clip-path-2);}</style><clipPath id="clip-path"><circle class="cls-1" cx="145.31" cy="53.14" r="30.59" transform="translate(-9.32 58.41) rotate(-22.04)"/></clipPath><clipPath id="clip-path-2"><path class="cls-1" d="M245.83,227.62c-14.68,5.86-38.48,9.67-65.35,9.67-27.87,0-52.44-4.1-66.95-10.34l-1.14-14.39s33.86-6.69,65.67-7,67.67,7,67.67,7Z"/></clipPath></defs><title>inconography-spot hero</title><g class="cls-3"><g id="Layer_1" data-name="Layer 1"><path class="cls-4" d="M178.25,306.56A127.31,127.31,0,1,0,51,179.25,127.31,127.31,0,0,0,178.25,306.56Z"/><path class="cls-5" d="M273.18,50l0,0L273,50a3.4,3.4,0,0,0-.46-.09c-3.93-.82-5.65-4.59-6.22-6.21a2.88,2.88,0,0,0-5.63-.43l0-.25s-1.31,5.71-6.12,7a3.24,3.24,0,0,0-.62.12l-.35.07.06,0a2.89,2.89,0,0,0,.23,5.41l-.1,0c4.48.5,6.36,4.71,6.93,6.39a2.89,2.89,0,0,0,5.73-.23c.54-1.57,2.12-5.07,5.68-6.11h.16a2.89,2.89,0,0,0,.95-5.62Z"/><path class="cls-6" d="M295.7,286.09l0,0a.78.78,0,0,1-.21,0,2.66,2.66,0,0,0-.39-.07c-3.4-.74-4.87-4-5.35-5.41a2.49,2.49,0,0,0-2.47-2.2,2.52,2.52,0,0,0-2.4,1.79l0-.22s-1.17,4.94-5.33,6a2.35,2.35,0,0,0-.54.1l-.31.06.06,0a2.5,2.5,0,0,0,.17,4.68l-.1,0c3.88.46,5.48,4.11,6,5.57a2.49,2.49,0,0,0,4.95-.16c.48-1.36,1.86-4.38,4.95-5.26h.14a2.5,2.5,0,0,0,.85-4.86Z"/><path class="cls-6" d="M23.46,241.7h0a.9.9,0,0,0,.16,0l.3.06c2.56.56,3.67,3,4,4.09a1.88,1.88,0,0,0,1.86,1.66,1.91,1.91,0,0,0,1.82-1.35l0,.17s.88-3.74,4-4.53a1.75,1.75,0,0,0,.41-.08l.23,0,0,0a1.88,1.88,0,0,0-.13-3.53l.07,0c-2.92-.35-4.13-3.11-4.5-4.21a1.89,1.89,0,0,0-3.75.12,6.11,6.11,0,0,1-3.74,4H24.1a1.89,1.89,0,0,0-.64,3.67Z"/><path class="cls-5" d="M42.41,285.23l0,0,.24,0a2.14,2.14,0,0,0,.44.08c3.78.8,5.44,4.42,6,6a2.78,2.78,0,0,0,5.42.41l0,.25s1.25-5.5,5.88-6.7a2.9,2.9,0,0,0,.6-.12,3.43,3.43,0,0,1,.34-.06l-.07,0A2.78,2.78,0,0,0,61,279.9l.11,0c-4.31-.48-6.12-4.53-6.68-6.15a2.78,2.78,0,0,0-5.51.22c-.51,1.51-2,4.88-5.46,5.88h-.15a2.78,2.78,0,0,0-.91,5.41Z"/><path class="cls-5" d="M25.76,123.84l0,0,.2,0a2.5,2.5,0,0,0,.38.06c3.27.69,4.7,3.82,5.17,5.17a2.4,2.4,0,0,0,4.68.36l0,.21s1.09-4.75,5.09-5.79a3,3,0,0,0,.52-.1l.29-.06-.06,0a2.4,2.4,0,0,0-.19-4.49l.09,0c-3.72-.42-5.29-3.92-5.77-5.32a2.4,2.4,0,0,0-4.76.19c-.44,1.31-1.75,4.22-4.71,5.09h-.14a2.4,2.4,0,0,0-.78,4.67Z"/><path class="cls-6" d="M49.44,90.83h0l.17,0a1.7,1.7,0,0,0,.31.06c2.7.59,3.86,3.18,4.24,4.3a2,2,0,0,0,3.87.32l0,.18S59,91.81,62.26,91a2,2,0,0,0,.43-.08l.24,0,0,0a2,2,0,0,0-.13-3.71l.08,0c-3.08-.36-4.35-3.26-4.74-4.42a2,2,0,0,0-3.93.13c-.38,1.08-1.48,3.47-3.93,4.17h-.11a2,2,0,0,0-.68,3.86Z"/><path class="cls-7" d="M112.39,212.56s2.61,54-5.58,96.75c0,0-4.84,11.53,12.65,17.49,0,0,56.45,21.21,119.2,0,17.5-5.92,12.65-17.49,12.65-17.49-8.18-42.79-5.58-96.75-5.58-96.75"/><path class="cls-8" d="M245.83,227.62c-14.68,5.86-38.48,9.67-65.35,9.67-27.87,0-52.44-4.1-66.95-10.34l-1.14-14.39s33.86-6.69,65.67-7,67.67,7,67.67,7Z"/><rect class="cls-8" x="209.32" y="100.66" width="144" height="13.4" rx="3" transform="translate(-16.76 149.97) rotate(-29.02)"/><path class="cls-9" d="M250.12,132.33l-25.88,14.36a3,3,0,0,1-4.08-1.17l-3.59-6.46a3,3,0,0,1,1.17-4.08l25.88-14.37"/><circle class="cls-10" cx="145.31" cy="53.14" r="30.59" transform="translate(-9.32 58.41) rotate(-22.04)"/><circle class="cls-11" cx="142.67" cy="48.04" r="11.49"/><g class="cls-12"><circle class="cls-11" cx="155.16" cy="77.97" r="17.97" transform="translate(-17.92 63.92) rotate(-22.04)"/></g><circle class="cls-13" cx="145.31" cy="53.14" r="30.59" transform="translate(-9.32 58.41) rotate(-22.04)"/><path class="cls-7" d="M184.74,153.4s57,.75,89.23,32.75c0,0,7.42,7.81,5.56,16.74S268,217.4,252.08,213.31s-49.52-6.94-59.93-7.44a253,253,0,0,0-26.53,0c-10.38.74-44,3.35-59.93,7.44s-25.59-1.49-27.45-10.42,5.57-16.74,5.57-16.74c32.27-32,89.23-32.75,89.23-32.75Z"/><ellipse class="cls-8" cx="179.93" cy="180.75" rx="53.02" ry="9.12"/><path class="cls-14" d="M194.68,189.65c4.27-.16,7.62-12.56,7.62-20.34a31,31,0,1,0-55.6,18.81S166.2,190.7,194.68,189.65Z"/><g class="cls-15"><path class="cls-2" d="M118.92,69.37a37.3,37.3,0,0,1,32.27,13.75"/><path class="cls-10" d="M150.72,82.56a37.25,37.25,0,0,0-31.8-13.19s3.33,6.92,8.54,10.08c0,0,8.56,5.39,21.21,3.91l2.52-.24"/></g><g class="cls-16"><rect class="cls-17" x="143.39" y="205.4" width="11.16" height="34.23"/><rect class="cls-17" x="160.76" y="205.4" width="5.59" height="34.23"/></g><circle class="cls-10" cx="119.94" cy="106.53" r="30.59" transform="matrix(0.43, -0.9, 0.9, 0.43, -27.69, 169.32)"/><circle class="cls-13" cx="119.94" cy="106.53" r="30.59" transform="matrix(0.43, -0.9, 0.9, 0.43, -27.69, 169.32)"/><polygon class="cls-11" points="112.76 118.12 115.41 108 122.16 109.77 119.51 119.89 127.94 122.1 131.48 108.61 136.54 109.93 123.65 90.33 102.8 101.09 107.86 102.42 104.33 115.91 112.76 118.12"/><path class="cls-17" d="M228.54,106.8h0l-.18,0-.33-.07c-2.86-.62-4.1-3.38-4.5-4.56a2.11,2.11,0,0,0-4.11-.34l0-.19s-1,4.16-4.5,5.05a1.63,1.63,0,0,0-.45.09l-.26,0,.05,0a2.11,2.11,0,0,0,.14,4l-.08,0c3.26.39,4.61,3.47,5,4.7a2.1,2.1,0,0,0,4.17-.14c.4-1.15,1.57-3.69,4.17-4.43h.12a2.11,2.11,0,0,0,.72-4.1Z"/><path class="cls-17" d="M236.86,79.8h0l-.12,0-.21,0a4.29,4.29,0,0,1-2.91-3,1.36,1.36,0,0,0-2.66-.22v-.12s-.64,2.69-2.91,3.26a1.36,1.36,0,0,0-.29.06l-.17,0h0a1.36,1.36,0,0,0,.09,2.55l0,0c2.11.24,3,2.23,3.25,3a1.36,1.36,0,0,0,2.7-.09,4.41,4.41,0,0,1,2.69-2.87h.08a1.36,1.36,0,0,0,.46-2.65Z"/><g class="cls-15"><path class="cls-2" d="M138.49,132.08a37.15,37.15,0,0,1-3.43-12.76"/><path class="cls-2" d="M193.88,146.61a37.35,37.35,0,0,1-44.46-.94"/><path class="cls-2" d="M135.06,119.32"/><path class="cls-2" d="M175.48,153.35"/><path class="cls-10" d="M150.72,100.66,146.54,89a37.43,37.43,0,0,0-8.09,43,54.64,54.64,0,0,0,6.68-6.41C147.55,122.61,150.72,100.66,150.72,100.66Z"/><path class="cls-10" d="M194,146.55a37.36,37.36,0,0,1-44.46-.81s6.6-6.38,14.23-9.18,19,.56,19,.56Z"/></g><circle class="cls-10" cx="171.86" cy="115.16" r="30.59" transform="translate(-9.23 15.15) rotate(-4.91)"/><circle class="cls-13" cx="171.86" cy="115.16" r="30.59" transform="translate(-9.23 15.15) rotate(-4.91)"/><path class="cls-11" d="M179.51,107.58l-17.91,5-1-3.58,17.91-5Zm2,7.16-17.91,5-1-3.59,17.91-5Zm-3.38,8.66-12.53,3.5-1-3.58,12.53-3.5ZM167.56,99.33a1.86,1.86,0,1,1-1.29,2.29A1.86,1.86,0,0,1,167.56,99.33Zm12.54-3.5-7.49,2.09a5.56,5.56,0,0,0-10.1,2.82L155,102.82a3.74,3.74,0,0,0-2.58,4.59l7,25.07a3.73,3.73,0,0,0,4.58,2.58l25.08-7a3.73,3.73,0,0,0,2.58-4.58l-7-25.08A3.73,3.73,0,0,0,180.1,95.83Z"/><path class="cls-11" d="M171.32,176.23a6.16,6.16,0,1,1,6.16-6.16A6.16,6.16,0,0,1,171.32,176.23Zm13.08-4.43a14,14,0,0,0,.12-1.73,13.66,13.66,0,0,0-.12-1.72l3.71-2.91a.87.87,0,0,0,.21-1.12l-3.52-6.09a.88.88,0,0,0-1.07-.39l-4.38,1.76a13,13,0,0,0-3-1.72l-.66-4.67a.87.87,0,0,0-.87-.73h-7a.87.87,0,0,0-.87.73l-.67,4.67a13.93,13.93,0,0,0-3,1.72l-4.38-1.76a.85.85,0,0,0-1.07.39l-3.52,6.09a.85.85,0,0,0,.21,1.12l3.71,2.91a13.93,13.93,0,0,0-.12,1.72,14.23,14.23,0,0,0,.12,1.73l-3.71,2.9a.89.89,0,0,0-.21,1.13l3.52,6.08a.88.88,0,0,0,1.07.39l4.38-1.76a12.81,12.81,0,0,0,3,1.73l.67,4.66a.87.87,0,0,0,.87.74h7a.87.87,0,0,0,.87-.74l.66-4.66a13.4,13.4,0,0,0,3-1.73l4.38,1.76a.85.85,0,0,0,1.07-.39l3.52-6.08a.89.89,0,0,0-.21-1.13Z"/><path class="cls-17" d="M268.66,153.84h0l-.09,0-.18,0a3.52,3.52,0,0,1-2.37-2.4,1.11,1.11,0,0,0-2.16-.18v-.1a3.77,3.77,0,0,1-2.37,2.66l-.24,0-.13,0h0a1.1,1.1,0,0,0-.68,1,1.11,1.11,0,0,0,.76,1l0,0a3.42,3.42,0,0,1,2.64,2.47,1.11,1.11,0,0,0,2.2-.07,3.55,3.55,0,0,1,2.19-2.34h.07a1.11,1.11,0,0,0,.37-2.15Z"/><path class="cls-5" d="M302.87,257.17h0l.21,0a2.32,2.32,0,0,0,.38.07c3.26.69,4.7,3.82,5.17,5.16a2.39,2.39,0,0,0,4.68.36l0,.21s1.09-4.75,5.08-5.79a1.84,1.84,0,0,0,.52-.1l.29-.05-.05,0a2.41,2.41,0,0,0-.19-4.5l.09,0c-3.73-.41-5.29-3.91-5.77-5.31a2.4,2.4,0,0,0-4.76.19c-.45,1.31-1.76,4.22-4.72,5.08h-.13a2.41,2.41,0,0,0-.79,4.68Z"/></g></g></svg>