<svg id="Layer_1" data-name="Layer 1" xmlns="http://www.w3.org/2000/svg" viewBox="0 0 360 360"><defs><style>.cls-1,.cls-4{fill:#d0dbf4;}.cls-1,.cls-12{fill-rule:evenodd;}.cls-12,.cls-14,.cls-2,.cls-8{fill:#5cc5cd;}.cls-15,.cls-3{fill:#fcbf12;}.cls-11,.cls-13,.cls-5{fill:#d1d1d1;}.cls-12,.cls-13,.cls-14,.cls-15,.cls-5,.cls-6,.cls-8{stroke:#586ab1;}.cls-12,.cls-14,.cls-5,.cls-6,.cls-8{stroke-linecap:round;stroke-linejoin:round;}.cls-12,.cls-5,.cls-6,.cls-8{stroke-width:2px;}.cls-6{fill:none;}.cls-7,.cls-9{fill:#586ab1;}.cls-7{opacity:0.76;}.cls-10{fill:#fff;}.cls-13,.cls-15{stroke-miterlimit:10;}.cls-13,.cls-14,.cls-15{stroke-width:1.25px;}</style></defs><title>mapping-spot hero</title><path class="cls-1" d="M178.13,306.63A127.36,127.36,0,1,0,50.77,179.27,127.37,127.37,0,0,0,178.13,306.63Z"/><path class="cls-2" d="M43.71,304.4l11.55-39.73s8.54-8.08,15.47-6.93,13.17,11.09,13.4,13.4c0,0-3.24,3.46-3.47,6.7s-2.54,11.55-2.54,11.55L77.66,297l-3,7.62Z"/><path class="cls-3" d="M44,122.57l0,0-.24,0a3.54,3.54,0,0,0-.45-.08c-3.88-.84-5.57-4.56-6.12-6.17a2.85,2.85,0,0,0-5.56-.44l0-.26s-1.32,5.65-6.07,6.86a3.24,3.24,0,0,0-.62.12c-.11,0-.22,0-.34.06l.06,0a2.86,2.86,0,0,0,.2,5.35l-.1,0c4.42.51,6.26,4.68,6.82,6.34a2.85,2.85,0,0,0,5.66-.2c.54-1.55,2.11-5,5.64-6h.16a2.86,2.86,0,0,0,1-5.55Z"/><path class="cls-3" d="M334.85,120.83h0l-.18,0-.32,0c-2.75-.6-3.95-3.25-4.34-4.38a2,2,0,0,0-3.95-.32l0-.18s-.94,4-4.31,4.87a2.14,2.14,0,0,0-.44.08l-.25,0h.05a2,2,0,0,0,.14,3.8l-.07,0c3.14.36,4.45,3.32,4.85,4.5a2,2,0,0,0,4-.14c.38-1.1,1.5-3.56,4-4.28h.11a2,2,0,0,0,.68-3.94Z"/><path class="cls-4" d="M310.46,93.93h0l-.15,0-.27,0c-2.33-.5-3.35-2.74-3.68-3.71a1.71,1.71,0,0,0-3.34-.27l0-.15s-.79,3.39-3.65,4.13a1.51,1.51,0,0,0-.37.06l-.21,0,0,0a1.71,1.71,0,0,0,.12,3.21l-.06,0c2.66.3,3.77,2.81,4.1,3.81a1.72,1.72,0,0,0,3.41-.12,5.53,5.53,0,0,1,3.39-3.62h.1a1.72,1.72,0,0,0,.57-3.34Z"/><path class="cls-4" d="M60.81,88.31h0l-.15,0-.27,0c-2.33-.5-3.35-2.74-3.68-3.71A1.71,1.71,0,0,0,55,83a1.73,1.73,0,0,0-1.65,1.23l0-.15s-.79,3.39-3.65,4.12a2.2,2.2,0,0,0-.37.07l-.21,0,0,0a1.71,1.71,0,0,0,.12,3.21l-.06,0c2.66.3,3.76,2.81,4.1,3.81a1.72,1.72,0,0,0,3.41-.12,5.53,5.53,0,0,1,3.39-3.62h.09a1.72,1.72,0,0,0,.58-3.34Z"/><path class="cls-3" d="M123.7,41.9h0l-.18,0a3,3,0,0,0-.32-.06c-2.75-.59-3.95-3.24-4.34-4.38a2,2,0,0,0-4-.31l0-.18s-.94,4-4.31,4.87a2.14,2.14,0,0,0-.44.08l-.25,0,0,0a2,2,0,0,0,.14,3.8l-.07,0c3.14.36,4.45,3.32,4.85,4.5a2,2,0,0,0,4-.14c.38-1.11,1.5-3.56,4-4.28H123a2,2,0,0,0,.68-3.94Z"/><path class="cls-5" d="M262,308.28s.62-7.63,2.15-8.11a9.24,9.24,0,0,0,3.22-2.6s2.52-3.73,6.28-2.63,7.37,4.73,7.37,4.73l1.38,1.83,4,6.4Z"/><path class="cls-5" d="M279.57,307.63s-.44-4.53.88-5.58l5.25-4.18s7.67-7.67,11.83-7.32,6.56,4.18,7.22,4.18,4.6-.69,7.88,1a22.16,22.16,0,0,1,5.69,4.53l2,7"/><path class="cls-6" d="M282.57,300.55h7.5a10.13,10.13,0,0,1,3.07.77c1.25.61,6.47,2,8.41.61"/><path class="cls-5" d="M323.48,307.79s-2.05-4.16-1.71-6.16a48.93,48.93,0,0,1,1.71-5.85s3.63-3.7,6.47-3.39,6.93,5.23,8,5.54A4.45,4.45,0,0,1,341,302.4a21.23,21.23,0,0,1-.34,5.08"/><path class="cls-6" d="M304.73,302.09s.34-.46,2-.23"/><path class="cls-3" d="M239.34,46.15a34.62,34.62,0,0,0-18.5,2.47c.32,0,.63.06.95.11a31.57,31.57,0,0,1-3.29,62.83,34.83,34.83,0,1,0,20.84-65.41Z"/><path class="cls-3" d="M56,262.71s20.71-34.64,29.49-46.65c0,0,25.4-20,50.12-25.76,0,0,33.1,7.51,50.65,25.52,0,0,31.49,48.89,30.57,48.43s-18.33-17-27.33,3.08l-.23,4.85s5.92,31.87,5.23,31.64-120.33,0-120.33,0l2.16-6.93,1.61-9.7s2.62-9.81,5.62-14.66l-.07-2.89s-3.7-11.32-11.55-12S56,262.71,56,262.71Z"/><path class="cls-7" d="M135.4,225.87S103.84,221.71,96.45,261l-4,28.64s-.92.92,3.47,1.38,24.94,3,40.42,3.24,39.49-2.08,39.49-2.08,4.39,0,3.93-3.93-7.57-52.42-21-57.74C145,225.06,135.4,225.87,135.4,225.87Z"/><path class="cls-7" d="M121.54,208.93c1.85-.46,19.71-3.69,29.1-.46,0,0-9.54-6.31-13.39-6.31S124,207.55,124,207.55Z"/><path class="cls-2" d="M190.14,267.44s2.39-9.08,10.08-9.23,17.25,6,18.79,10.16,11.24,34.8,11.24,34.8l-33.11,1.07s-2,1.24-2.15-2.31-5.7-30.64-5.7-30.64Z"/><path class="cls-6" d="M195.77,304.65l34-.71L218,265.81c-7.52-15-30.38-48.55-30.38-48.55-20.68-20-50.43-26.94-50.43-26.94a2.83,2.83,0,0,0-1.26,0s-29.76,6.89-50.43,26.94c0,0-22.87,33.52-30.39,48.55l-12,39.05,34.21-.21Z"/><path class="cls-6" d="M136.5,190.92s-15.13,5.13-29.86,24.21l-4.77,8.61s-.21,1.1,2.14,0,25.87-7.24,41.09-4.37c7.44,1.4,14.72,6.5,20.81,17.14,6.38,11.13,11.44,28.32,14,53.71,0,0-21,9-87.77,1l3.11-22.16s3-39.15,30.92-43.28c0,0,27.8-4.65,39.56,10.25"/><path class="cls-6" d="M136.25,190.32s16.19,4,31,23.39l4.8,8.77"/><path class="cls-6" d="M83.42,269.67S79.87,259,71.72,258.19s-16.6,7.62-16.6,7.62"/><path class="cls-6" d="M217.9,265.81s-8.46-8.46-16.6-7.62-11.7,11.48-11.7,11.48"/><path class="cls-8" d="M136,195.65s9.71,6.26,15.45,13.36c0,0-9.39-6-14.93-7.2h-1.25c-5.53,1.15-14.93,7.2-14.93,7.2,5.74-7.1,15.45-13.36,15.45-13.36Z"/><path class="cls-6" d="M173.12,224.18s15.13,32.67,16,46c0,0,5.22,22.63,5.85,34.74"/><path class="cls-6" d="M111.21,221.71s-7.12,5.78-7.82,7.17-1.39,4.6-3.06,5.43L99.5,237s-3.21,12.81-5.29,17.26a129.23,129.23,0,0,0-4.6,12.53A35.81,35.81,0,0,1,87.52,272a76.25,76.25,0,0,1-1.94,11.83c-1.68,7.1-4.6,18.8-7,20.75"/><path class="cls-6" d="M101.55,223.25l-3.45,9.81s-14,11.44-14.33,38.7c0,0-3.45,4.53-4.57,8A54,54,0,0,0,77,295.31c.09,2.79-.84,4.59-1.39,6.68a10,10,0,0,0-.51,2.41"/><path class="cls-9" d="M97,234.41s2.35.52,2.82,1.78l.47-1.88.42-.24a5.82,5.82,0,0,0-3-1.72A6,6,0,0,0,97,234.41Z"/><path class="cls-9" d="M83.51,273.15s2.76,0,3.54,1.07l.57-1.89L88,272a7,7,0,0,0-3.77-1A3.72,3.72,0,0,0,83.51,273.15Z"/><line class="cls-6" x1="98.14" y1="223.79" x2="29.56" y2="307.9"/><path class="cls-9" d="M80.29,224.7s-4.34-.12-4.69,2.11l3,.7Z"/><line class="cls-6" x1="76.14" y1="225.56" x2="19.79" y2="308.09"/><line class="cls-6" x1="174.99" y1="223.72" x2="248.55" y2="307.63"/><path class="cls-9" d="M192.86,224.15s3-.08,3.25,1.46l-2.11.49Z"/><line class="cls-6" x1="195.83" y1="225.61" x2="257.21" y2="307.86"/><path class="cls-9" d="M102.87,221.72s-5.68-.15-6.14,2.77l4,.92Z"/><path class="cls-9" d="M170.22,221.76s5.7-.16,6.16,2.77l-4,.92Z"/><path class="cls-6" d="M91.87,291.92l-.35,3s-.76,2.86,1.73,3.69c3.47,1.16,14.67,1.74,18.78-.52,0,0,14.59,3.06,23.37,3.06,10.28,0,21.83-2.94,21.83-2.94l2.51.36s16.43,2.12,20.88-1.79a6.71,6.71,0,0,0-.73-6.65"/><path class="cls-9" d="M111.89,293.32c0,.17-1.17,3.42-.22,4.55l1.24.06s-.15-3.87.8-4.55Z"/><path class="cls-9" d="M158,293.62c0,.17,1.12,3.42.21,4.56l-1.19.06s.14-3.88-.77-4.57Z"/><path class="cls-9" d="M77.57,304.81,76.94,308s-.41.68.47.84,1.94-.84,1.94-.84l2.45-3Z"/><path class="cls-9" d="M194.78,304.81l.62,3.18s.42.68-.47.84S193,308,193,308l-2.45-3Z"/><path class="cls-9" d="M42.46,304.81,41.84,308s-.42.68.47.84,1.93-.84,1.93-.84l2.45-3Z"/><path class="cls-9" d="M230.46,304.81l.63,3.18s.41.68-.47.84-1.94-.84-1.94-.84l-2.45-3Z"/><path class="cls-10" d="M249.82,188.84h0l-.1,0a.47.47,0,0,0-.17,0,3.51,3.51,0,0,1-2.37-2.39,1.1,1.1,0,0,0-2.15-.17l0-.1a3.74,3.74,0,0,1-2.35,2.65,1,1,0,0,0-.24.05l-.13,0h0a1.11,1.11,0,0,0,.07,2.07l0,0A3.4,3.4,0,0,1,245,193.4a1.1,1.1,0,0,0,2.19-.08,3.54,3.54,0,0,1,2.18-2.33h.06a1.11,1.11,0,0,0,.37-2.15Z"/><path class="cls-10" d="M267.68,156.82h0l-.1,0-.17,0a3.51,3.51,0,0,1-2.37-2.39,1.1,1.1,0,0,0-2.15-.17v-.1a3.75,3.75,0,0,1-2.35,2.66.86.86,0,0,0-.24,0l-.14,0h0a1.12,1.12,0,0,0-.68,1,1.09,1.09,0,0,0,.76,1l0,0a3.41,3.41,0,0,1,2.65,2.45,1.1,1.1,0,0,0,2.19-.07,3.52,3.52,0,0,1,2.18-2.33h.06a1.11,1.11,0,0,0,.37-2.15Z"/><path class="cls-10" d="M204.45,181.43h-.06l-.12,0a2.54,2.54,0,0,1-1.72-1.72.79.79,0,0,0-1.55-.13v-.07a2.71,2.71,0,0,1-1.7,1.92l-.18,0-.09,0h0a.8.8,0,0,0-.5.74.79.79,0,0,0,.55.75h0a2.45,2.45,0,0,1,1.91,1.78.8.8,0,0,0,1.59-.06,2.57,2.57,0,0,1,1.57-1.68h.05a.8.8,0,0,0,.27-1.56Z"/><path class="cls-10" d="M204,150.7H204l-.13,0a2.56,2.56,0,0,1-1.71-1.73.8.8,0,0,0-1.56-.13v-.07a2.68,2.68,0,0,1-1.7,1.92l-.17,0-.09,0h0a.8.8,0,0,0,.06,1.5h0a2.46,2.46,0,0,1,1.91,1.77.81.81,0,0,0,.79.68.8.8,0,0,0,.79-.73,2.61,2.61,0,0,1,1.58-1.69h.05a.8.8,0,0,0,.8-.8A.79.79,0,0,0,204,150.7Z"/><path class="cls-10" d="M180.39,128.45h-.06l-.12,0a2.52,2.52,0,0,1-1.71-1.73.81.81,0,0,0-.8-.7.79.79,0,0,0-.76.57v-.07a2.71,2.71,0,0,1-1.7,1.92l-.17,0H175a.8.8,0,0,0-.49.74.81.81,0,0,0,.54.76h0a2.48,2.48,0,0,1,1.92,1.77.8.8,0,0,0,.78.68.8.8,0,0,0,.8-.73,2.58,2.58,0,0,1,1.58-1.69h0a.8.8,0,0,0,.8-.8A.79.79,0,0,0,180.39,128.45Z"/><path class="cls-10" d="M161.3,110.28h-.06l-.12,0a2.56,2.56,0,0,1-1.72-1.73.79.79,0,0,0-1.55-.12v-.07a2.7,2.7,0,0,1-1.7,1.91l-.18,0h-.08a.82.82,0,0,0-.49.74.81.81,0,0,0,.55.76h0a2.46,2.46,0,0,1,1.91,1.77.8.8,0,0,0,1.59,0,2.58,2.58,0,0,1,1.57-1.69H161a.8.8,0,0,0,.8-.8A.79.79,0,0,0,161.3,110.28Z"/><path class="cls-10" d="M124.65,109.05h-.05l-.13,0a2.52,2.52,0,0,1-1.71-1.73.81.81,0,0,0-.79-.7.8.8,0,0,0-.77.57v-.07a2.71,2.71,0,0,1-1.7,1.92l-.17,0-.1,0h0a.8.8,0,0,0,.06,1.5h0a2.48,2.48,0,0,1,1.91,1.77.8.8,0,0,0,1.58,0,2.56,2.56,0,0,1,1.58-1.69h0a.8.8,0,0,0,.27-1.55Z"/><path class="cls-11" d="M303.9,285s-5.18-3.73-3-7.63,4-7.75,1.07-11.91-4.62-7.95-1.77-12.6,3.51-10.5,2.22-12-.33-6.61,3.29-5.84c2.25.48,5.7,2.52,4.52,10.51s-6.9,8.7-5.8,13.47,5.2,9.29,1.89,14-3.53,7.49-2.43,9.48S304.36,284.94,303.9,285Z"/><path class="cls-11" d="M289.75,287.09s3-2.14,1.7-4.37-2.28-4.45-.61-6.84,2.65-4.56,1-7.23-2-6-1.28-6.89.19-3.79-1.88-3.35c-1.3.27-3.28,1.45-2.6,6s4,5,3.33,7.73-3,5.33-1.09,8,2,4.3,1.4,5.44S289.48,287.07,289.75,287.09Z"/><path class="cls-11" d="M316.85,287.09s-3-2.14-1.7-4.37,2.28-4.45.61-6.84-2.65-4.56-1-7.23,2-6,1.28-6.89-.19-3.79,1.88-3.35c1.3.27,3.28,1.45,2.6,6s-4,5-3.33,7.73,3,5.33,1.09,8-2,4.3-1.4,5.44S317.12,287.07,316.85,287.09Z"/><path class="cls-12" d="M32.39,308.09S25,293,25.93,276.37c0,0-5.24,15.4,2.15,31.42"/><path class="cls-12" d="M24.31,307.4s-6-8.78-7.16-17.55c0,0-1.85,9.24,3,17.09"/><path class="cls-12" d="M235.33,307.79s-2.46-14.48,2.77-21.1c0,0,3.24,10.62-.31,20.94"/><path class="cls-12" d="M242.11,307.86s2.77-15.93,13.62-19.4c0,0-9.24,8.78-9,19.17"/><path class="cls-12" d="M35.32,307.94S36.24,293,33,285.3c0,0,7.54,6.47,5.23,22.64"/><line class="cls-6" x1="7.34" y1="308.12" x2="345.18" y2="308.12"/><path class="cls-4" d="M38.38,214h0l-.14,0-.27-.05c-2.34-.5-3.35-2.74-3.68-3.71A1.72,1.72,0,0,0,31,210l0-.15s-.79,3.39-3.65,4.12a2.32,2.32,0,0,0-.38.07l-.2,0,0,0a1.71,1.71,0,0,0,.13,3.21l-.07,0c2.66.3,3.77,2.81,4.11,3.81a1.72,1.72,0,0,0,1.7,1.45,1.7,1.7,0,0,0,1.7-1.57,5.55,5.55,0,0,1,3.39-3.62h.1a1.72,1.72,0,0,0,.58-3.34Z"/><path class="cls-4" d="M332.19,201.46h0l-.15,0-.27,0c-2.33-.5-3.35-2.74-3.68-3.71a1.71,1.71,0,0,0-3.34-.27l0-.15s-.79,3.4-3.65,4.13a1.51,1.51,0,0,0-.37.07l-.21,0,0,0a1.72,1.72,0,0,0-1.06,1.59,1.71,1.71,0,0,0,1.18,1.62l-.06,0c2.66.3,3.77,2.81,4.1,3.82a1.72,1.72,0,0,0,3.41-.13,5.53,5.53,0,0,1,3.39-3.62h.1a1.72,1.72,0,0,0,.57-3.34Z"/><path class="cls-13" d="M133.92,232.8a2.37,2.37,0,0,1,4.73,0s0,.06,0,.09h2.58a4.89,4.89,0,1,0-9.77,0h2.49S133.92,232.83,133.92,232.8Z"/><path class="cls-13" d="M141.16,236.15s6-.4,6.89,5.23l1.88,19.42s1,5.93-6.54,5.85l.16-2.78s3.87-.18,3.62-2.65l-1.88-19.5s-.34-2.48-3.49-2.48Z"/><path class="cls-13" d="M131.54,236.15s-6-.4-6.89,5.23l-1.87,19.42s-1,5.93,6.53,5.85l-.16-2.78s-3.87-.18-3.62-2.65l1.88-19.5s.34-2.48,3.49-2.48Z"/><rect class="cls-14" x="131.76" y="235.05" width="9.2" height="9.48"/><rect class="cls-13" x="133.21" y="259.69" width="6.56" height="2.73"/><path class="cls-15" d="M139.1,244.79s3.2,2.3,3.83,8.17-1.53,7.16-5.11,7.41H135c-3.57-.25-5.74-1.53-5.11-7.41s3.84-8.17,3.84-8.17Z"/><rect class="cls-14" x="130.23" y="232.7" width="12.26" height="3.02" rx="0.58"/><rect class="cls-14" x="130.23" y="242.73" width="12.26" height="2.82" rx="0.58"/><rect class="cls-14" x="128.95" y="262.03" width="15.07" height="5.37" rx="1.57"/><rect class="cls-14" x="126.65" y="266.89" width="19.67" height="3.15" rx="0.56"/><rect class="cls-9" x="134.61" y="223.22" width="3.12" height="4.62"/></svg>