<svg xmlns="http://www.w3.org/2000/svg" viewBox="0 0 360 360"><defs><style>.cls-1{isolation:isolate;}.cls-12,.cls-2,.cls-21{fill:none;}.cls-3,.cls-5{fill:#d0dbf4;}.cls-3{fill-rule:evenodd;}.cls-4{fill:#fcbf12;}.cls-6,.cls-8{mix-blend-mode:multiply;}.cls-7,.cls-8{fill:#e5e5e5;}.cls-11,.cls-20,.cls-9{fill:#fff;}.cls-10,.cls-14{fill:#d1d1d1;}.cls-10,.cls-11,.cls-12,.cls-16,.cls-17,.cls-19,.cls-21{stroke:#586ab1;stroke-width:2px;}.cls-10,.cls-11,.cls-12,.cls-16,.cls-17,.cls-19{stroke-linecap:round;stroke-linejoin:round;}.cls-13,.cls-19{fill:#586ab1;}.cls-15,.cls-16{fill:#5cc5cd;}.cls-17{fill:#f7f7f7;}.cls-18{fill:#6d6c6c;}.cls-20{font-size:15.24px;font-family:DDCHardware-Regular, DDC Hardware;letter-spacing:-0.02em;}.cls-21{stroke-miterlimit:10;}</style></defs><title>onboarding-spot hero</title><g class="cls-1"><g id="Layer_1" data-name="Layer 1"><rect class="cls-2" x="0.34" y="-0.09" width="360" height="360"/><path class="cls-3" d="M199.44,308.8A123.58,123.58,0,1,0,75.86,185.23,123.58,123.58,0,0,0,199.44,308.8Z"/><path class="cls-4" d="M348.82,132.43h.05l-.25,0a2.33,2.33,0,0,0-.46-.08c-3.94-.85-5.66-4.64-6.22-6.27a2.89,2.89,0,0,0-5.65-.46l0-.26s-1.34,5.74-6.18,7a2.68,2.68,0,0,0-.63.11l-.35.07.07,0a2.91,2.91,0,0,0,.2,5.44l-.1,0c4.49.52,6.37,4.76,6.94,6.45a2.9,2.9,0,0,0,5.75-.2c.55-1.59,2.15-5.09,5.73-6.13h.17a2.91,2.91,0,0,0,1-5.65Z"/><path class="cls-4" d="M329.62,249.29h0l-.17,0a1.88,1.88,0,0,0-.34,0c-2.86-.31-4.37-2.87-4.89-4a2.07,2.07,0,0,0-4.05.1l-.05-.18s-.52,4.18-3.86,5.42a2.83,2.83,0,0,0-.44.13l-.25.08h0a2.08,2.08,0,0,0,.56,3.85l-.07,0c3.23,0,4.88,2.9,5.42,4.06a2.07,2.07,0,0,0,4.07-.58c.27-1.16,1.14-3.78,3.61-4.78h.12a2.08,2.08,0,0,0,.26-4.09Z"/><path class="cls-5" d="M350.84,175.17l0,0h-.15l-.28,0c-2.43-.26-3.7-2.43-4.15-3.38a1.75,1.75,0,0,0-3.43.09l0-.15s-.44,3.54-3.27,4.59a1.58,1.58,0,0,0-.37.11l-.21.06h0a1.76,1.76,0,0,0,.47,3.26l-.06,0c2.74,0,4.14,2.46,4.59,3.44a1.76,1.76,0,0,0,3.45-.49,5.66,5.66,0,0,1,3.06-4.05h.1a1.76,1.76,0,0,0,.23-3.46Z"/><path class="cls-5" d="M133.06,55.85h0l-.15,0-.28-.05c-2.39-.51-3.42-2.81-3.76-3.79a1.76,1.76,0,0,0-3.43-.28l0-.16s-.81,3.48-3.74,4.22a2.32,2.32,0,0,0-.38.07.78.78,0,0,1-.21,0l0,0a1.76,1.76,0,0,0,.12,3.29l-.06,0c2.72.32,3.85,2.88,4.2,3.91A1.75,1.75,0,0,0,128.9,63a5.68,5.68,0,0,1,3.47-3.7h.1a1.76,1.76,0,0,0,.59-3.42Z"/><g class="cls-6"><circle class="cls-7" cx="260.5" cy="97.44" r="10.69"/><path class="cls-7" d="M260.52,109a11.53,11.53,0,1,1,5.52-1.41A11.55,11.55,0,0,1,260.52,109Zm0-21.38a9.84,9.84,0,1,0,8.65,5.12h0a9.87,9.87,0,0,0-8.65-5.12Z"/><circle class="cls-7" cx="260.5" cy="97.44" r="5.35"/><path class="cls-7" d="M260.51,103.42a6.16,6.16,0,0,1-1.69-.24,6,6,0,0,1-1.19-11,6,6,0,0,1,8.12,2.38h0a6,6,0,0,1-2.38,8.12A6,6,0,0,1,260.51,103.42Zm0-10.69a4.71,4.71,0,0,0-4.12,7,4.71,4.71,0,1,0,8.26-4.52h0A4.71,4.71,0,0,0,260.49,92.73Z"/><circle class="cls-7" cx="273.36" cy="120.93" r="10.69"/><path class="cls-7" d="M273.38,132.47a11.54,11.54,0,1,1,5.52-1.42A11.53,11.53,0,0,1,273.38,132.47Zm0-21.39a9.86,9.86,0,0,0-8.63,14.58A9.84,9.84,0,1,0,282,116.21a9.76,9.76,0,0,0-5.87-4.73A10.14,10.14,0,0,0,273.35,111.08Z"/><circle class="cls-7" cx="273.36" cy="120.93" r="5.35"/><path class="cls-7" d="M273.37,126.91a6.11,6.11,0,0,1-1.69-.24,6,6,0,1,1,6.92-8.61h0a6,6,0,0,1-2.37,8.12A5.91,5.91,0,0,1,273.37,126.91Zm0-10.69a4.71,4.71,0,0,0-4.12,7,4.71,4.71,0,0,0,6.39,1.87,4.71,4.71,0,0,0,1.87-6.39h0a4.71,4.71,0,0,0-4.14-2.45Z"/><circle class="cls-7" cx="301.72" cy="105.41" r="10.69"/><path class="cls-7" d="M301.74,117a11.58,11.58,0,0,1-10.14-6,11.53,11.53,0,1,1,10.14,6Zm0-21.38a9.83,9.83,0,1,0,8.66,5.11A9.84,9.84,0,0,0,301.7,95.57Z"/><circle class="cls-7" cx="301.72" cy="105.41" r="5.35"/><path class="cls-7" d="M301.73,111.39a6,6,0,1,1,5.24-8.85h0a6,6,0,0,1-5.24,8.85Zm0-10.69a4.72,4.72,0,0,0-4.52,3.39,4.71,4.71,0,0,0,6.78,5.45,4.71,4.71,0,0,0,1.87-6.39h0a4.63,4.63,0,0,0-2.81-2.26A4.58,4.58,0,0,0,301.72,100.7Z"/><circle class="cls-7" cx="288.94" cy="82.06" r="10.69"/><path class="cls-7" d="M289,93.59a11.55,11.55,0,0,1-10.14-6,11.55,11.55,0,1,1,10.14,6Zm0-21.38a9.84,9.84,0,1,0,8.65,5.12h0a9.87,9.87,0,0,0-8.65-5.12Z"/><circle class="cls-7" cx="288.94" cy="82.06" r="5.35"/><path class="cls-7" d="M289,88a6,6,0,1,1,5.24-8.84h0a6,6,0,0,1-2.38,8.11A5.91,5.91,0,0,1,289,88Zm0-10.69a4.71,4.71,0,1,0,4.14,2.45h0a4.79,4.79,0,0,0-4.14-2.45Z"/><path class="cls-7" d="M234.19,165.26a5.31,5.31,0,0,1-4.65-2.75l-28-51.21a5.3,5.3,0,0,1,2.11-7.18l85.15-46.6a5.31,5.31,0,0,1,7.18,2.1l28,51.21a5.29,5.29,0,0,1-2.1,7.18l-85.15,46.6A5.24,5.24,0,0,1,234.19,165.26ZM291.3,59a3.06,3.06,0,0,0-1.51.39L204.63,106a3.18,3.18,0,0,0-1.26,4.31l28,51.2a3.19,3.19,0,0,0,4.32,1.26l85.15-46.6h0a3.08,3.08,0,0,0,1.51-1.89,3.18,3.18,0,0,0-.25-2.42l-28-51.2A3.18,3.18,0,0,0,291.3,59Z"/><path class="cls-7" d="M268.33,146.72a1.05,1.05,0,0,1-.93-.55L235.47,87.81a1.05,1.05,0,1,1,1.85-1l31.94,58.35a1.07,1.07,0,0,1-.42,1.44A1.2,1.2,0,0,1,268.33,146.72Z"/><path class="cls-7" d="M297.14,131a1.08,1.08,0,0,1-.93-.55L264.28,72.05a1.06,1.06,0,1,1,1.86-1l31.93,58.35a1.07,1.07,0,0,1-.42,1.44A1,1,0,0,1,297.14,131Z"/><path class="cls-7" d="M223.26,149.76a1.06,1.06,0,0,1-.51-2L259,128a1.06,1.06,0,0,1,1,1.86l-36.2,19.74A1,1,0,0,1,223.26,149.76Z"/><rect class="cls-7" x="294.55" y="96.78" width="4.88" height="2.41" transform="translate(604.56 41.37) rotate(151.31)"/><rect class="cls-7" x="293.05" y="98.89" width="2.3" height="1.26" transform="translate(600.05 45.58) rotate(151.31)"/><rect class="cls-7" x="281.69" y="73.29" width="4.88" height="2.41" transform="translate(569.14 3.45) rotate(151.31)"/><rect class="cls-7" x="280.19" y="75.39" width="2.3" height="1.26" transform="translate(564.64 7.65) rotate(151.31)"/><rect class="cls-7" x="245.04" y="103.49" width="4.88" height="2.41" transform="translate(-19.88 131.66) rotate(-28.69)"/><rect class="cls-7" x="249.12" y="102.54" width="2.3" height="1.26" transform="translate(-18.8 132.82) rotate(-28.69)"/><rect class="cls-7" x="257.72" y="127.02" width="4.88" height="2.41" transform="translate(-29.62 140.64) rotate(-28.69)"/><rect class="cls-7" x="261.8" y="126.07" width="2.3" height="1.26" transform="translate(-28.54 141.79) rotate(-28.69)"/><rect class="cls-7" x="284.44" y="112.4" width="4.88" height="2.41" transform="translate(593.08 75.54) rotate(151.31)"/><rect class="cls-7" x="282.94" y="114.5" width="2.3" height="1.26" transform="translate(588.58 79.75) rotate(151.31)"/><rect class="cls-7" x="271.59" y="88.91" width="4.88" height="2.41" transform="translate(557.67 37.61) rotate(151.31)"/><rect class="cls-7" x="270.09" y="91.01" width="2.3" height="1.26" transform="translate(553.17 41.82) rotate(151.31)"/><path class="cls-7" d="M222.39,103.21l-6.25,2.28s-6.09,2.21-4.52,8.37a9.7,9.7,0,0,0,6.91,7.26s2.59.67,5.15-2,13.88-7.38,13.88-7.38,2.86-1.77,1.4-4.7-5.19-8.64-5.19-8.64-1.43-2.4-3.75-.23S222.39,103.21,222.39,103.21Z"/><path class="cls-7" d="M219.38,122.19a5.78,5.78,0,0,1-.71,0c-3.65-.45-6.17-4.23-6.28-4.39l0,0-.8-1.43c-.11-.23-2-4.36-.49-7.71a6.44,6.44,0,0,1,4.38-3.45c5.81-1.66,11.27-5.62,13.9-7.51.52-.38.93-.68,1.23-.88a2.49,2.49,0,0,1,2.19-.41,3.17,3.17,0,0,1,1.77,1.74l5.37,9.61a3.16,3.16,0,0,1,.56,2.42,2.51,2.51,0,0,1-1.5,1.65c-.32.15-.8.35-1.39.59-3,1.24-9.22,3.82-13.68,7.91A6.66,6.66,0,0,1,219.38,122.19Zm-5.56-5.35c.19.29,2.32,3.29,5.06,3.62a4.77,4.77,0,0,0,3.88-1.48c4.68-4.29,11.09-7,14.18-8.22.56-.24,1-.42,1.32-.57a.93.93,0,0,0,.57-.52,1.63,1.63,0,0,0-.31-1,.53.53,0,0,1-.06-.1L233,98.83a1,1,0,0,1,0-.1,1.58,1.58,0,0,0-.73-.81.93.93,0,0,0-.74.21c-.29.19-.69.48-1.18.84-2.7,2-8.33,6-14.43,7.77a4.79,4.79,0,0,0-3.29,2.52c-1.2,2.63.43,6.2.44,6.24Z"/><path class="cls-7" d="M227.78,113.65a2.74,2.74,0,0,1-.87-.14,2.27,2.27,0,0,1-1.3-1.11l-1-1.7-.5-1-1.18-2.12a2.25,2.25,0,0,1-.24-1.64,3.85,3.85,0,0,1,2-2.32l4.72-2.81a17.11,17.11,0,0,1,3.62-3.2.63.63,0,0,1,.85.29.65.65,0,0,1-.29.85,16.28,16.28,0,0,0-3.29,3l-.15.13-4.81,2.86a2.73,2.73,0,0,0-1.39,1.51,1.05,1.05,0,0,0,.08.7l2.72,4.86a1,1,0,0,0,.61.5,2.78,2.78,0,0,0,2-.41l5-2.59.19-.07a16.39,16.39,0,0,0,4.25-1.24.63.63,0,1,1,.68,1.07,17.47,17.47,0,0,1-4.62,1.41L229.92,113A4.7,4.7,0,0,1,227.78,113.65Z"/><path class="cls-7" d="M217,121.15a.62.62,0,0,1-.51-.26.63.63,0,0,1,.14-.89l10.27-7.45a.63.63,0,1,1,.74,1L217.35,121A.63.63,0,0,1,217,121.15Z"/><path class="cls-7" d="M211.64,111.6a.64.64,0,0,1-.24-1.23l11.73-4.84a.63.63,0,0,1,.48,1.17l-11.73,4.85A.69.69,0,0,1,211.64,111.6Z"/><path class="cls-7" d="M232,120.35l-6.25,2.28s-6.09,2.2-4.52,8.36a9.7,9.7,0,0,0,6.91,7.26s2.59.67,5.15-2,13.88-7.37,13.88-7.37,2.86-1.78,1.4-4.71-5.19-8.64-5.19-8.64-1.43-2.4-3.75-.22S232,120.35,232,120.35Z"/><path class="cls-7" d="M229,139.32a5.74,5.74,0,0,1-.71,0c-3.65-.46-6.17-4.24-6.28-4.4l0,0-.8-1.43c-.11-.23-2-4.36-.49-7.7a6.42,6.42,0,0,1,4.38-3.46c5.81-1.66,11.27-5.62,13.9-7.51.52-.38.93-.68,1.23-.88a2.52,2.52,0,0,1,2.19-.41,3.11,3.11,0,0,1,1.76,1.74l5.38,9.62a3.12,3.12,0,0,1,.56,2.41,2.51,2.51,0,0,1-1.5,1.65c-.32.15-.8.35-1.39.59-3,1.24-9.22,3.83-13.68,7.91A6.66,6.66,0,0,1,229,139.32ZM223.39,134c.2.29,2.32,3.29,5.06,3.63a4.81,4.81,0,0,0,3.88-1.49c4.68-4.28,11.09-6.94,14.18-8.22.56-.24,1-.42,1.32-.57s.51-.32.56-.52a1.52,1.52,0,0,0-.31-1,.26.26,0,0,1-.05-.09L242.6,116s0-.07,0-.11-.36-.69-.73-.8a.92.92,0,0,0-.74.2c-.29.19-.68.48-1.18.84-2.7,2-8.33,6-14.43,7.77a4.79,4.79,0,0,0-3.29,2.52c-1.2,2.63.43,6.2.44,6.24Z"/><path class="cls-7" d="M237.35,130.78a2.74,2.74,0,0,1-.87-.14,2.27,2.27,0,0,1-1.3-1.11l-1-1.7-.5-1-1.18-2.12a2.25,2.25,0,0,1-.24-1.64,3.82,3.82,0,0,1,2-2.32L239,118a17.11,17.11,0,0,1,3.62-3.2.64.64,0,0,1,.56,1.14,16.59,16.59,0,0,0-3.29,3l-.15.13-4.81,2.87a2.76,2.76,0,0,0-1.39,1.47,1,1,0,0,0,.09.74l2.71,4.85a1,1,0,0,0,.61.5,2.78,2.78,0,0,0,2-.41l5-2.59a.6.6,0,0,1,.19-.06,16.82,16.82,0,0,0,4.25-1.25.63.63,0,0,1,.88.2.63.63,0,0,1-.2.87,17.1,17.1,0,0,1-4.62,1.41l-4.87,2.55A4.67,4.67,0,0,1,237.35,130.78Z"/><path class="cls-7" d="M226.55,138.28a.63.63,0,0,1-.37-1.14l10.27-7.46a.63.63,0,0,1,.74,1l-10.27,7.45A.63.63,0,0,1,226.55,138.28Z"/><path class="cls-7" d="M221.21,128.73a.63.63,0,0,1-.25-1.22l11.73-4.85a.64.64,0,0,1,.49,1.18l-11.73,4.84A.69.69,0,0,1,221.21,128.73Z"/><rect class="cls-7" x="238.01" y="99.32" width="4.88" height="2.41" transform="translate(499.65 73.27) rotate(151.31)"/><rect class="cls-7" x="236.51" y="101.42" width="2.3" height="1.26" transform="translate(495.15 77.47) rotate(151.31)"/><rect class="cls-7" x="247.4" y="116.78" width="4.88" height="2.41" transform="translate(525.65 101.54) rotate(151.31)"/><rect class="cls-7" x="245.9" y="118.88" width="2.3" height="1.26" transform="translate(521.15 105.75) rotate(151.31)"/><rect class="cls-7" x="206.48" y="117.41" width="4.88" height="2.41" transform="translate(-31.29 114.86) rotate(-28.69)"/><rect class="cls-7" x="210.56" y="116.46" width="2.3" height="1.26" transform="translate(-30.22 116.01) rotate(-28.69)"/><rect class="cls-7" x="215.84" y="134.68" width="4.88" height="2.41" transform="translate(-38.44 121.47) rotate(-28.69)"/><rect class="cls-7" x="219.92" y="133.73" width="2.3" height="1.26" transform="translate(-37.36 122.62) rotate(-28.69)"/><path class="cls-7" d="M238.46,158.3a6.8,6.8,0,1,1,6.81-6.79A6.82,6.82,0,0,1,238.46,158.3Zm0-11.9a5.11,5.11,0,1,0,5.12,5.11A5.11,5.11,0,0,0,238.46,146.4Z"/><path class="cls-7" d="M238.46,153.42a1.92,1.92,0,1,1,1.91-1.91A1.92,1.92,0,0,1,238.46,153.42Zm0-3a1.07,1.07,0,1,0,1.07,1.07A1.07,1.07,0,0,0,238.46,150.44Z"/><polygon class="cls-7" points="234.87 146.82 237.11 150.77 238.29 149.97 235.46 146.4 234.87 146.82"/><polygon class="cls-7" points="236.41 156.94 238.49 152.9 237.18 152.35 235.74 156.68 236.41 156.94"/><polygon class="cls-7" points="244.11 150.09 239.6 150.65 239.89 152.05 244.28 150.8 244.11 150.09"/><rect class="cls-7" x="227.1" y="155.47" width="4.88" height="2.41" transform="translate(-47.04 129.43) rotate(-28.69)"/><rect class="cls-7" x="231.18" y="154.52" width="2.3" height="1.26" transform="translate(-45.96 130.58) rotate(-28.69)"/><rect class="cls-7" x="249.77" y="138.32" width="9.69" height="8.55" rx="1" transform="translate(-37.18 146.41) rotate(-30)"/><path class="cls-7" d="M252.87,149a1.48,1.48,0,0,1-1.28-.74l-3.43-5.94a1.48,1.48,0,0,1,.54-2l6.93-4a1.46,1.46,0,0,1,1.12-.15,1.52,1.52,0,0,1,.9.69l3.43,5.94a1.49,1.49,0,0,1-.55,2l-6.92,4A1.52,1.52,0,0,1,252.87,149Zm3.49-11.63-.1,0-6.92,4a.21.21,0,0,0-.08.29l3.43,5.93a.21.21,0,0,0,.29.08l6.92-4h0a.27.27,0,0,0,.1-.13.25.25,0,0,0,0-.16l-3.43-5.93a.22.22,0,0,0-.13-.1Z"/><rect class="cls-7" x="259.67" y="136.78" width="4.88" height="2.41" transform="translate(558.29 133.2) rotate(151.31)"/><rect class="cls-7" x="258.17" y="138.88" width="2.3" height="1.26" transform="translate(553.78 137.4) rotate(151.31)"/></g><path class="cls-4" d="M101.72,69.79h0l-.24,0a3.25,3.25,0,0,0-.45-.08c-3.81-.82-5.47-4.49-6-6.06a2.8,2.8,0,0,0-5.47-.44l0-.25s-1.3,5.54-6,6.74a2.36,2.36,0,0,0-.6.11c-.12,0-.22,0-.34.06l.06,0a2.8,2.8,0,0,0,.2,5.25l-.1,0c4.35.5,6.15,4.6,6.71,6.24a2.8,2.8,0,0,0,5.56-.2c.53-1.53,2.08-4.92,5.54-5.92h.16a2.81,2.81,0,0,0,.94-5.46Z"/><g class="cls-6"><path class="cls-7" d="M257.39,261.43l7.87,38.15s.95,7,.38,8.07c0,0-.19,3.58,1.78,4.61l29.13-7s1.08-2.19-1.72-5.81l-24.94-88-1.07,0s-12.75,5-19.78,4.31l-.27,1.57Z"/><path class="cls-7" d="M248.49,216.18,258.08,263s-1,3,12.91-.11c0,0,9.33-2.46,11.75-4.48l-13-47.6A46.1,46.1,0,0,1,248.49,216.18Z"/><ellipse class="cls-7" cx="258.83" cy="212.71" rx="11.02" ry="1.9" transform="translate(-42.42 66.12) rotate(-13.47)"/><path class="cls-7" d="M245.5,194.83l1.74,16.22.31,1.62c.24,1,5.15.68,11-.71s10.34-3.34,10.1-4.34l-.39-1-6-15.79"/><ellipse class="cls-7" cx="253.76" cy="192.86" rx="8.49" ry="1.46" transform="translate(-37.93 64.4) rotate(-13.47)"/><path class="cls-7" d="M248.11,215.28l17.15,84.3s1.1,5.37.38,8.07a10,10,0,0,0,1.69,5.42l29.4-7a10,10,0,0,0-1-5.6c-1.86-2.08-3.32-7.36-3.32-7.36l-22.89-82.93"/><line class="cls-7" x1="269.82" y1="306.45" x2="292.24" y2="301.09"/><path class="cls-7" d="M282.67,257.61c.3,1.28-5,3.64-11.82,5.27s-12.62,1.93-12.92.66"/><ellipse class="cls-7" cx="267.21" cy="248.08" rx="9.15" ry="6.78" transform="translate(-50.43 69.05) rotate(-13.47)"/></g><rect class="cls-8" x="81.42" y="136.76" width="127.48" height="170.97" rx="5" transform="translate(-62.55 56.95) rotate(-18.34)"/><path class="cls-9" d="M260.78,254.66l7.87,38.15s1,7,.38,8.06c0,0-.19,3.58,1.77,4.62l29.14-7s1.08-2.19-1.72-5.81l-24.94-88-1.07,0s-12.76,5-19.79,4.31l-.27,1.56Z"/><path class="cls-4" d="M251.88,209.41l9.59,46.77s-1,3,12.91-.1c0,0,9.33-2.46,11.74-4.49l-13-47.59A46.1,46.1,0,0,1,251.88,209.41Z"/><ellipse class="cls-10" cx="262.22" cy="205.94" rx="11.02" ry="1.9" transform="translate(-40.75 66.73) rotate(-13.47)"/><path class="cls-11" d="M248.89,188.06l1.74,16.21.3,1.62c.24,1,5.16.69,11-.7s10.34-3.34,10.1-4.34l-.39-1-6-15.79"/><ellipse class="cls-10" cx="257.15" cy="186.08" rx="8.49" ry="1.46" transform="translate(-36.26 65) rotate(-13.47)"/><path class="cls-12" d="M251.5,208.5l17.15,84.31s1.09,5.37.38,8.06a9.92,9.92,0,0,0,1.69,5.43l29.4-7a10,10,0,0,0-1-5.6c-1.85-2.08-3.31-7.37-3.31-7.37L273,203.37"/><line class="cls-12" x1="273.21" y1="299.68" x2="295.63" y2="294.31"/><path class="cls-12" d="M286.05,250.84c.31,1.27-5,3.63-11.81,5.27s-12.62,1.93-12.92.65"/><ellipse class="cls-11" cx="270.6" cy="241.31" rx="9.15" ry="6.78" transform="translate(-48.76 69.65) rotate(-13.47)"/><rect class="cls-11" x="84.81" y="129.99" width="127.48" height="170.97" rx="5" transform="translate(-60.24 57.67) rotate(-18.34)"/><g class="cls-6"><circle class="cls-7" cx="273.72" cy="165.31" r="10.61"/><path class="cls-7" d="M278.2,159.27v2.58l-5.26,9.5h-3.53l5.46-9.41h-5.64v-2.67Z"/><circle class="cls-7" cx="289.78" cy="166.59" r="10.61"/><path class="cls-7" d="M297.24,165.61l-1.85,1.8-10.49,2.82-2.45-2.54L293,165.07l-3.92-4,1.92-1.85Z"/></g><circle class="cls-11" cx="275.41" cy="161.92" r="10.61"/><path class="cls-13" d="M279.89,155.88v2.58l-5.26,9.5H271.1l5.46-9.41h-5.63v-2.67Z"/><circle class="cls-11" cx="291.48" cy="163.2" r="10.61"/><path class="cls-13" d="M298.94,162.23,297.08,164l-10.49,2.82-2.45-2.53,10.57-2.62-3.92-4.06,1.92-1.85Z"/><path class="cls-4" d="M256.29,44.54h0l-.18,0a1.72,1.72,0,0,0-.33,0c-2.86-.31-4.37-2.87-4.89-4a2.07,2.07,0,0,0-4,.1l-.05-.18s-.52,4.18-3.86,5.42a2.83,2.83,0,0,0-.44.13l-.25.08h0a2.08,2.08,0,0,0,.56,3.85l-.07,0c3.23,0,4.88,2.9,5.42,4.07a2.07,2.07,0,0,0,4.07-.59c.27-1.16,1.14-3.77,3.61-4.78H256a2.08,2.08,0,0,0,.26-4.09Z"/><path class="cls-14" d="M226.32,274.61,120,309.86c-1.9.63-2.5-.66-3.34-3.18L68.67,162a4.78,4.78,0,0,1,2.93-6.07l104.72-34.71c2.45-.81,3.1-.34,3.94,2.18L229,270.46C229.85,273,228.77,273.8,226.32,274.61Z"/><rect class="cls-13" x="192.49" y="192.79" width="4.31" height="2.41" transform="matrix(-0.95, 0.31, -0.31, -0.95, 440.12, 317.55)"/><rect class="cls-13" x="190.75" y="194.27" width="2.3" height="1.26" transform="translate(435.04 320.17) rotate(161.81)"/><path class="cls-15" d="M135.28,226.51l-14.06-50.26s12.08-8.4,26.46-8.9l17,44.42,1.73,4.9s-6.8-.25-12,1.6-15.8,6-15.8,6Z"/><path class="cls-9" d="M126.82,247.32s3.2-4.78-.93-13.49-1.51-12.56-1.51-12.56l-6.17-2.83s.19,14.61,2.48,21.2S126.82,247.32,126.82,247.32Z"/><rect class="cls-16" x="148.87" y="240.97" width="27.14" height="37.2" rx="5" transform="translate(-72.9 63.66) rotate(-18.19)"/><path class="cls-12" d="M147.68,167.35l17,44.42s2.21,7.11,3.24,11l-30.42,10-2.62-6.85-13.62-49.66S134.13,168.86,147.68,167.35Z"/><path class="cls-15" d="M123.37,242.86s-6.22-12.88-2.51-23.92c0,0-5.07-2.56-7.32-9.78C113.54,209.16,115.92,237.23,123.37,242.86Z"/><path class="cls-12" d="M135.32,227.37a9.09,9.09,0,0,1,3.22-3.05c2-1,20.47-7,20.47-7s5.61-1.47,7.25.48"/><path class="cls-16" d="M101.17,172.18c3.48,4.1,9.25,18.73,12.82,40.93s6.52,28.95,11.44,31.44a11.85,11.85,0,0,1,6.1,6.45c8.68,23.39-1,35.27-1,35.27l-2.92,1c-7.73-1.93-10.44-14-10.44-14,2.13-.7,13.81-5.28,10.13-16.88s-13.83-8-16.45-7.28-2.78-1-2.78-1l-14.66-44.6s-.51-2.2,4.29-6.14,5.45-8,3.61-12.87c0,0-3-11.45-14.84-7.69,0,0-3.75-6.48-.33-9.34s6.53.59,6.53.59S98.93,169.56,101.17,172.18Z"/><path class="cls-12" d="M112.67,206.08s3.54,12.65,11.71,15.19a14.85,14.85,0,0,0,1.51,12.56c3.79,6.11,1.45,11.21.81,11.17"/><path class="cls-12" d="M91.41,167.72s-.54,3.16,2,4.24,5.39-.77,5.39-.77"/><path class="cls-12" d="M105.32,217a15.48,15.48,0,0,1-4.71-6.78,2.65,2.65,0,0,1,.76-2.8c1.35-1.19,2.42-2.1,2.42-2.1s2-1.34,2.9,2.59C107.36,210.8,107.06,216.26,105.32,217Z"/><path class="cls-12" d="M120.2,219.9s-3.18,10.19,3.89,23.6"/><path class="cls-12" d="M115.72,226.72s-6.93,4.27-8.21,6.06l5,15.15"/><path class="cls-12" d="M119.48,248s2.74-3.39,5-4.24"/><path class="cls-12" d="M142.66,179a5.76,5.76,0,0,1,6.19,3.31c1.85,4.12,8,21.79,8,21.79s3.45,7.6-1.43,9L142,217.48s-5.32,1.62-6.53-2.46-5.77-24-6-25.89c-.36-2.62,1-5.94,3.76-7.09C135.64,181,142.66,179,142.66,179Z"/><path class="cls-9" d="M183.63,228.66s-5.4-1.95-7.25-11.42-6.23-11-6.23-11l3.3-5.93S182,212.18,184,218.84,183.63,228.66,183.63,228.66Z"/><path class="cls-9" d="M183.77,223s-2.63-14.06-12.16-20.75c0,0,2.56-5.07.09-12.22C171.7,190.05,186.43,214.07,183.77,223Z"/><path class="cls-16" d="M159.53,153c-.37,5.37,3.65,20.57,13.95,40.56s11.91,27.18,9.42,32.1a11.9,11.9,0,0,0-1.08,8.81c6.88,24,21.7,27.82,21.7,27.82l2.92-1c5.07-6.14.11-17.45.11-17.45-2.13.7-14.25,3.94-18.16-7.59s6.38-14.65,8.92-15.61,1.63-2.49,1.63-2.49l-14.65-44.6s-.89-2.07-7.09-2.39S168.06,168,166.66,163c0,0-4.36-11,7.39-15,0,0-.83-7.44-5.27-7.72s-4.91,4.35-4.91,4.35S159.77,149.57,159.53,153Z"/><path class="cls-12" d="M170.37,187.13S175,199.41,170,206.3a14.86,14.86,0,0,1,6.23,11c.57,7.16,5.48,9.89,6,9.48"/><path class="cls-13" d="M182.77,191.58a15.45,15.45,0,0,0-.22-8.26,2.66,2.66,0,0,0-2.27-1.81l-3.2-.25s-2.39.1-.8,3.81C177.45,187.78,180.92,192,182.77,191.58Z"/><path class="cls-12" d="M180.15,205.56s8.11-.68,10.2,0l5,15.16"/><ellipse class="cls-12" cx="128.52" cy="155.38" rx="13.29" ry="4.1" transform="translate(-42.07 47.87) rotate(-18.19)"/><path class="cls-12" d="M219.29,271.35l-94.11,31.87a4.25,4.25,0,0,1-5.34-2.7L75.3,165A4.26,4.26,0,0,1,78,159.6l93.59-31.35A4.25,4.25,0,0,1,177,131L222,266A4.26,4.26,0,0,1,219.29,271.35Z"/><line class="cls-12" x1="105.41" y1="150.6" x2="152.22" y2="293.08"/><line class="cls-12" x1="144.03" y1="137.92" x2="190.83" y2="280.39"/><line class="cls-12" x1="134.59" y1="239.18" x2="172.76" y2="226.64"/><rect class="cls-13" x="151.58" y="171.79" width="10.16" height="1.89" transform="translate(-46.08 57.52) rotate(-18.19)"/><rect class="cls-13" x="164.38" y="197.39" width="8.39" height="1.89" transform="translate(-53.48 62.52) rotate(-18.19)"/><rect class="cls-13" x="117.24" y="212.87" width="8.39" height="1.89" transform="translate(-60.67 48.58) rotate(-18.19)"/><rect class="cls-13" x="110.46" y="185.29" width="10.16" height="1.89" transform="translate(-52.35 45.36) rotate(-18.19)"/><rect class="cls-13" x="77.67" y="173.45" width="5.73" height="2.41" transform="translate(-50.49 33.86) rotate(-18.19)"/><rect class="cls-13" x="82.81" y="172.9" width="2.3" height="1.26" transform="translate(-49.97 34.87) rotate(-18.19)"/><rect class="cls-13" x="97.68" y="233.59" width="3.6" height="2.41" transform="translate(-68.31 42.78) rotate(-18.19)"/><rect class="cls-13" x="100.75" y="233.38" width="2.3" height="1.26" transform="translate(-67.94 43.49) rotate(-18.19)"/><rect class="cls-13" x="112.9" y="279.47" width="4.31" height="2.41" transform="translate(-81.85 49.93) rotate(-18.19)"/><rect class="cls-13" x="116.65" y="279.14" width="2.3" height="1.26" transform="translate(-81.43 50.74) rotate(-18.19)"/><rect class="cls-13" x="181.05" y="265.68" width="4.88" height="2.41" transform="translate(441.11 463.18) rotate(161.81)"/><rect class="cls-13" x="179.32" y="267.25" width="2.3" height="1.26" transform="translate(435.53 466.06) rotate(161.81)"/><rect class="cls-13" x="172.69" y="240.24" width="4.88" height="2.41" transform="translate(416.87 416.17) rotate(161.81)"/><rect class="cls-13" x="170.96" y="241.81" width="2.3" height="1.26" transform="translate(411.29 419.05) rotate(161.81)"/><rect class="cls-13" x="138.57" y="251.45" width="4.88" height="2.41" transform="translate(-71.81 56.63) rotate(-18.19)"/><rect class="cls-13" x="142.88" y="251.03" width="2.3" height="1.26" transform="translate(-71.35 57.52) rotate(-18.19)"/><rect class="cls-13" x="146.93" y="276.89" width="4.88" height="2.41" transform="translate(-79.33 60.51) rotate(-18.19)"/><rect class="cls-13" x="151.24" y="276.47" width="2.3" height="1.26" transform="translate(-78.87 61.4) rotate(-18.19)"/><line class="cls-12" x1="151.13" y1="267.57" x2="176.05" y2="259.38"/><rect class="cls-13" x="210.29" y="246.52" width="4.31" height="2.41" transform="matrix(-0.95, 0.31, -0.31, -0.95, 491.59, 416.78)"/><rect class="cls-13" x="208.54" y="248" width="2.3" height="1.26" transform="translate(486.51 419.4) rotate(161.81)"/><rect class="cls-13" x="175.26" y="141.25" width="4.31" height="2.41" transform="translate(390.42 222.43) rotate(161.81)"/><rect class="cls-13" x="173.51" y="142.73" width="2.3" height="1.26" transform="translate(385.34 225.05) rotate(161.81)"/><line class="cls-12" x1="109.45" y1="192.13" x2="106.9" y2="194.94"/><path class="cls-8" d="M18.77,270.55l101.6,35.92s7.57,2.6,10.16-5.91l45.61-153.12s3.07-6.38-3.07-8.27L78.55,98.53Z"/><path class="cls-17" d="M169.76,128.54l3.54,17.25-45.84,151.7s-2.12,5.43-8.5,3.07L18.69,269.76l-7.56-13.23Z"/><rect class="cls-11" x="4.6" y="134.95" width="172.02" height="116.26" rx="5" transform="translate(-120.44 223.85) rotate(-73.16)"/><path class="cls-14" d="M138.78,118.79,89.48,281.62,113.9,289s6.86,5.08,8.65-.81l47-155.17s3.18-5.45-2.4-6.65S138.78,118.79,138.78,118.79Z"/><rect class="cls-12" x="4.6" y="134.95" width="172.02" height="116.26" rx="5" transform="translate(-120.44 223.85) rotate(-73.16)"/><path class="cls-18" d="M122.09,215.08,101.16,230s-1.68-9.89,3.26-14.82C110.78,208.82,119.17,213.33,122.09,215.08Z"/><path class="cls-18" d="M116,158.18a15.71,15.71,0,0,1,1.32-8.86c2.18-5.14,6.25-5.13,8.41-5.35,3.06-.31,6.9,3.32,6.9,3.32Z"/><path class="cls-15" d="M87.89,256.7l-2.84-7s-3.41-.1-3.52-1.37,2.76-18.91,6.33-25,7.9-18.35,7.89-21.56a15.53,15.53,0,0,1,5.22-8.7c4.48-3.79,9.85-11.31,10.77-17.2s.59-8.09.59-8.09-.49-4.47-1.67-6.31a25.8,25.8,0,0,1,4.78-19c6.84-9.54,14.35-5.41,14.35-5.41a12.08,12.08,0,0,1,3.54,10.33l-1.66-.63s-7.86-5.83-13.11.48-3.4,13.29,4.19,17.56c0,0,7.71,2.69,7.79,5.87l-8.06,43.55a6.09,6.09,0,0,1-1.73-.4c-.53-.28-12-4.26-16.57,2.14s-3.79,15.77-2.08,18.26a78.79,78.79,0,0,0,5.34,6.43l2.14,4.49s-2.83,9.62-5,11.67a4,4,0,0,0-4-2.7,14.41,14.41,0,0,0-10.86,6.1Z"/><path class="cls-13" d="M90.84,104.27,41.47,267.33c-.5.84-7.62-1.81-9.85-2.49l-16.77-5.08A4.24,4.24,0,0,1,12,254.49L59.21,98.63a4.25,4.25,0,0,1,5.28-2.83l16.78,5.08C83.49,101.55,91.25,102.91,90.84,104.27Z"/><path class="cls-15" d="M94.15,256S88,260.55,92,262.38s8-1.16,8-1.16,4.92-3.2,3.87-5.86S95.43,255,94.15,256Z"/><path class="cls-15" d="M100,184.08s-2.91-7.92,1.77-18.48,8.12-10.5,8.12-10.5l1.17,7.14s2-.13,1.92,4.66.41,8-2.16,11.19S100.45,185.45,100,184.08Z"/><path class="cls-12" d="M111.65,164.05c-4-6,.89-16.37.89-16.37,5.66-12.45,14.57-13.12,18.09-9.68s2.48,10.76,2.48,10.76c-.39-1.54-2.59-2.87-2.59-2.87a8,8,0,0,0-7-1.33c-3.44.84-7.89,5.13-7.64,11.15s9,10,11.56,11.23a5.69,5.69,0,0,1,3.13,3.72l-8.4,44.1c-.41-.91-3.89-1.87-3.89-1.87-5.32-2.19-10.82-.9-13.29,2,0,0-5.16,5.27-3.61,15.54a12,12,0,0,0,3.55,6.92c4.38,4.38,4.68,7.76,4.68,7.76s-2.51,9.24-5.79,12.9c-3.49,3.9-8.48,5.56-11.81,4.35-2.77-1-3.93-6-3.93-6s-4.39-2.52-5.48-4.56-1.85-7.43,2.35-20.42,10.52-23,10.91-29c0,0,.16-4.9,5.14-9.24s13.38-16,11.59-27.49Z"/><path class="cls-12" d="M88.05,256.37S83.8,239,95,206"/><path class="cls-12" d="M112.15,174.54c-.25,6.07-11.63,8.92-16.29,13.85s-4.21,8.33-4.21,8.33l4.18,5.62"/><path class="cls-12" d="M109.34,182.46c-.35,2.47-2.71,9.28-10,25a65.17,65.17,0,0,0-6.06,30.16,11.55,11.55,0,0,0,5.26,8.13s2.72,1.15,3.42-3.13c0,0,.32-3.86-1.86-5.18,0,0-4.18-2.33-6.58-.08"/><path class="cls-12" d="M116.55,202.47l-3.58-.09s-2.94-.1-2.65-2.54,2.85-7.3,4.14-8.1,3.09.89,3.63,3.52C118.58,197.65,119.19,202.28,116.55,202.47Z"/><line class="cls-12" x1="110.88" y1="198.63" x2="118.41" y2="199.12"/><line class="cls-12" x1="112.38" y1="194.82" x2="117.67" y2="195.19"/><path class="cls-12" d="M99.7,184.2s-2.27-4.25-.39-12.1,8.06-15.19,10.7-17.36"/><path class="cls-12" d="M81.87,249.55s2.08-.56,3.18.17c0,0,1.48,4.47,2.46,5"/><path class="cls-12" d="M98.36,254.31s2.06-6.74.14-8.57"/><path class="cls-12" d="M110.25,180.76s4.71-3.13,12.33-1.12l2.76-13.72"/><path class="cls-12" d="M112.8,164.17s3.43-3.06,6.37-2.3"/><circle class="cls-19" cx="113.43" cy="228.8" r="11.76"/><circle class="cls-10" cx="113.43" cy="228.8" r="6.66"/><ellipse class="cls-19" cx="127.27" cy="155.95" rx="8.88" ry="10.22" transform="translate(-58.87 232.56) rotate(-73.16)"/><ellipse class="cls-10" cx="127.25" cy="156.22" rx="4.54" ry="5.43" transform="translate(-59.14 232.74) rotate(-73.16)"/><path class="cls-12" d="M137.38,158a9.16,9.16,0,0,1-.41,2.9,9.41,9.41,0,0,1-8.08,6.65"/><path class="cls-12" d="M90.1,260.72s-.67-1.39,2.54-3.79a15.58,15.58,0,0,1,9.31-2.62,2.51,2.51,0,0,1,2,3.48"/><rect class="cls-4" x="6.34" y="235.65" width="50.57" height="4.07" transform="translate(-205.03 199.08) rotate(-73.16)"/><rect class="cls-15" x="12.13" y="237.4" width="50.57" height="4.07" transform="translate(-202.59 205.86) rotate(-73.16)"/><text class="cls-20" transform="translate(47.89 211.77) rotate(-73.16)">MODEL KIT</text><path class="cls-11" d="M122.14,173.16a5.92,5.92,0,0,1,4.31,7.62,7.07,7.07,0,0,1-8.06,4.9,6,6,0,0,1-4.31-7.7A6.91,6.91,0,0,1,122.14,173.16Z"/><path class="cls-13" d="M117.53,175.94l1.51.35,4.61,4.36-.62,2.07-4.53-4.45-1,3.34-1.56-.35Z"/><line class="cls-12" x1="122.01" y1="214.93" x2="117.87" y2="218.29"/><path class="cls-4" d="M98.72,245.12s-4.11-2.73-4.8-7.25c0,0,1.39-1.89,5.42-.09,0,0,2.16.74,2,4.67C101.3,242.45,101,246,98.72,245.12Z"/><path class="cls-4" d="M86.56,254.66a16.59,16.59,0,0,1-2-4.5,3,3,0,0,0-2-.09S82.61,252.32,86.56,254.66Z"/><path class="cls-12" d="M120.61,238.33a13.85,13.85,0,0,1-11.83,3.58"/><path class="cls-19" d="M101.28,184.34a18.91,18.91,0,0,1,2.94-8.49c4.5-6.29,8.43-6.22,8.43-6.22s-.12,5.4-1.38,7.4S106.72,181.75,101.28,184.34Z"/><line class="cls-12" x1="120.85" y1="290.64" x2="123.45" y2="300.33"/><circle class="cls-19" cx="261.35" cy="94.05" r="10.69"/><circle class="cls-10" cx="261.35" cy="94.05" r="5.35"/><circle class="cls-19" cx="274.21" cy="117.54" r="10.69"/><circle class="cls-10" cx="274.21" cy="117.54" r="5.35"/><circle class="cls-19" cx="302.57" cy="102.02" r="10.69"/><circle class="cls-10" cx="302.57" cy="102.02" r="5.35"/><circle class="cls-19" cx="289.79" cy="78.67" r="10.69"/><circle class="cls-10" cx="289.79" cy="78.67" r="5.35"/><rect class="cls-12" x="210.82" y="74.26" width="105.54" height="66.84" rx="5" transform="translate(-19.33 139.76) rotate(-28.69)"/><line class="cls-12" x1="237.24" y1="83.92" x2="269.18" y2="142.27"/><line class="cls-12" x1="266.05" y1="68.15" x2="297.99" y2="126.5"/><line class="cls-12" x1="224.11" y1="145.32" x2="260.31" y2="125.57"/><rect class="cls-13" x="295.39" y="93.4" width="4.88" height="2.41" transform="translate(604.52 34.61) rotate(151.31)"/><rect class="cls-13" x="293.89" y="95.5" width="2.3" height="1.26" transform="translate(600.02 38.82) rotate(151.31)"/><rect class="cls-13" x="282.54" y="69.9" width="4.88" height="2.41" transform="translate(569.11 -3.32) rotate(151.31)"/><rect class="cls-13" x="281.04" y="72.01" width="2.3" height="1.26" transform="translate(564.6 0.89) rotate(151.31)"/><rect class="cls-13" x="245.89" y="100.11" width="4.88" height="2.41" transform="translate(-18.15 131.66) rotate(-28.69)"/><rect class="cls-13" x="249.97" y="99.16" width="2.3" height="1.26" transform="translate(-17.07 132.81) rotate(-28.69)"/><rect class="cls-13" x="258.57" y="123.64" width="4.88" height="2.41" transform="translate(-27.89 140.63) rotate(-28.69)"/><rect class="cls-13" x="262.64" y="122.69" width="2.3" height="1.26" transform="translate(-26.81 141.78) rotate(-28.69)"/><rect class="cls-13" x="285.29" y="109.01" width="4.88" height="2.41" transform="translate(593.05 68.78) rotate(151.31)"/><rect class="cls-13" x="283.79" y="111.12" width="2.3" height="1.26" transform="translate(588.54 72.98) rotate(151.31)"/><rect class="cls-13" x="272.43" y="85.52" width="4.88" height="2.41" transform="translate(557.64 30.85) rotate(151.31)"/><rect class="cls-13" x="270.93" y="87.62" width="2.3" height="1.26" transform="translate(553.13 35.05) rotate(151.31)"/><path class="cls-14" d="M223.24,99.83,217,102.11s-6.1,2.2-4.52,8.37a9.72,9.72,0,0,0,6.91,7.26s2.59.66,5.15-2,13.88-7.38,13.88-7.38,2.86-1.78,1.4-4.71S234.62,95,234.62,95s-1.44-2.4-3.75-.22S223.24,99.83,223.24,99.83Z"/><path class="cls-12" d="M213.94,113.9s4.8,7.29,10.24,2.32,13.28-7.72,15.29-8.65.57-2.84.57-2.84l-1.79-3.2-1.53-2.73L234.62,95s-.88-2.22-2.72-1-8.29,6.47-15.38,8.5-3.38,9.93-3.38,9.93Z"/><path class="cls-12" d="M239.92,105.16a18,18,0,0,1-4.49,1.33l-5,2.59c-2.65,1.4-3.43-.33-3.43-.33L226,107l-.49-.94-1.19-2.13s-1.06-1.57,1.51-3.1L230.66,98a17.87,17.87,0,0,1,3.49-3.12"/><line class="cls-12" x1="228.1" y1="109.67" x2="217.83" y2="117.13"/><line class="cls-12" x1="224.21" y1="102.73" x2="212.48" y2="107.57"/><path class="cls-14" d="M232.81,117l-6.25,2.28s-6.1,2.2-4.52,8.37a9.72,9.72,0,0,0,6.91,7.26s2.59.66,5.15-2S248,125.51,248,125.51s2.86-1.78,1.4-4.71-5.19-8.64-5.19-8.64-1.44-2.4-3.75-.22S232.81,117,232.81,117Z"/><path class="cls-12" d="M223.51,131s4.8,7.29,10.24,2.32S247,125.63,249,124.7s.57-2.84.57-2.84l-1.79-3.2-1.53-2.73-2.1-3.77s-.88-2.22-2.72-1-8.29,6.47-15.38,8.5-3.38,9.93-3.38,9.93Z"/><path class="cls-12" d="M249.49,122.29a18,18,0,0,1-4.49,1.33s-2.31,1.2-5,2.6-3.43-.34-3.43-.34l-1-1.76-.49-.93-1.19-2.13s-1.06-1.58,1.51-3.11l4.81-2.86a18.16,18.16,0,0,1,3.49-3.13"/><line class="cls-12" x1="237.67" y1="126.81" x2="227.4" y2="134.26"/><line class="cls-12" x1="233.78" y1="119.86" x2="222.05" y2="124.71"/><rect class="cls-13" x="238.86" y="95.93" width="4.88" height="2.41" transform="translate(499.61 66.5) rotate(151.31)"/><rect class="cls-13" x="237.36" y="98.03" width="2.3" height="1.26" transform="translate(495.11 70.71) rotate(151.31)"/><rect class="cls-13" x="248.25" y="113.39" width="4.88" height="2.41" transform="translate(525.62 94.78) rotate(151.31)"/><rect class="cls-13" x="246.75" y="115.49" width="2.3" height="1.26" transform="translate(521.11 98.98) rotate(151.31)"/><rect class="cls-13" x="207.33" y="114.02" width="4.88" height="2.41" transform="translate(-29.56 114.85) rotate(-28.69)"/><rect class="cls-13" x="211.41" y="113.07" width="2.3" height="1.26" transform="translate(-28.49 116) rotate(-28.69)"/><rect class="cls-13" x="216.68" y="131.29" width="4.88" height="2.41" transform="translate(-36.71 121.46) rotate(-28.69)"/><rect class="cls-13" x="220.76" y="130.34" width="2.3" height="1.26" transform="translate(-35.63 122.61) rotate(-28.69)"/><ellipse class="cls-21" cx="239.3" cy="148.12" rx="5.97" ry="5.95"/><circle class="cls-21" cx="239.3" cy="148.12" r="1.49"/><polygon class="cls-13" points="235.72 143.44 237.96 147.38 239.14 146.59 236.31 143.01 235.72 143.44"/><polygon class="cls-13" points="237.26 153.55 239.34 149.51 238.02 148.96 236.58 153.29 237.26 153.55"/><polygon class="cls-13" points="244.96 146.71 240.45 147.26 240.74 148.66 245.12 147.41 244.96 146.71"/><rect class="cls-13" x="227.95" y="152.08" width="4.88" height="2.41" transform="translate(-45.31 129.42) rotate(-28.69)"/><rect class="cls-13" x="232.03" y="151.13" width="2.3" height="1.26" transform="translate(-44.23 130.57) rotate(-28.69)"/><rect class="cls-10" x="250.62" y="134.93" width="9.69" height="8.55" rx="1" transform="translate(-35.38 146.38) rotate(-30)"/><rect class="cls-13" x="260.52" y="133.39" width="4.88" height="2.41" transform="translate(558.25 126.43) rotate(151.31)"/><rect class="cls-13" x="259.02" y="135.49" width="2.3" height="1.26" transform="translate(553.75 130.64) rotate(151.31)"/></g></g></svg>