<svg xmlns="http://www.w3.org/2000/svg" xmlns:xlink="http://www.w3.org/1999/xlink" viewBox="0 0 360 360"><defs><style>.cls-1,.cls-10,.cls-18,.cls-21,.cls-5{fill:none;}.cls-2{isolation:isolate;}.cls-11,.cls-17,.cls-3{fill:#fcbf12;}.cls-14,.cls-17,.cls-18,.cls-19,.cls-21,.cls-3,.cls-5,.cls-6,.cls-7,.cls-8{stroke:#586ab1;}.cls-10,.cls-14,.cls-18,.cls-19,.cls-21,.cls-3,.cls-5,.cls-6,.cls-7,.cls-8{stroke-linecap:round;stroke-linejoin:round;}.cls-14,.cls-17,.cls-19,.cls-21,.cls-3,.cls-6,.cls-7,.cls-8{stroke-width:2px;}.cls-12,.cls-4{fill:#d0dbf4;}.cls-4{fill-rule:evenodd;}.cls-5{stroke-width:3px;}.cls-6{fill:#fff;}.cls-13,.cls-15,.cls-7{fill:#d1d1d1;}.cls-8{fill:#efefef;}.cls-19,.cls-9{fill:#586ab1;}.cls-10{stroke:#d1d1d1;}.cls-13{mix-blend-mode:multiply;}.cls-14{fill:#5cc5cd;}.cls-16{fill:#eaeaea;}.cls-17{stroke-miterlimit:10;}.cls-18{stroke-width:5px;}.cls-20{clip-path:url(#clip-path);}</style><clipPath id="clip-path"><circle class="cls-1" cx="194.33" cy="228.98" r="16.64"/></clipPath></defs><title>overview-spot hero</title><g class="cls-2"><g id="Layer_1" data-name="Layer 1"><rect class="cls-3" x="172.3" y="25.31" width="44.28" height="14.51"/><path class="cls-4" d="M178.25,306.56A127.31,127.31,0,1,0,51,179.25,127.31,127.31,0,0,0,178.25,306.56Z"/><line class="cls-5" x1="251.19" y1="57.47" x2="85.97" y2="321.4"/><rect class="cls-6" x="76.39" y="39.5" width="156.87" height="287.57" rx="11"/><rect class="cls-7" x="84.04" y="68.8" width="141.57" height="210.69"/><circle class="cls-8" cx="154.83" cy="303.69" r="14.85"/><circle class="cls-9" cx="122.35" cy="55.08" r="4.38"/><rect class="cls-9" x="134.42" y="52.69" width="57.27" height="4.77" rx="2.39"/><line class="cls-10" x1="93.65" y1="148.26" x2="215.96" y2="148.26"/><line class="cls-10" x1="93.65" y1="212.25" x2="215.96" y2="212.25"/><path class="cls-11" d="M323.78,114l.05,0-.25,0a3.4,3.4,0,0,0-.46-.09c-3.93-.82-5.65-4.59-6.21-6.21a2.89,2.89,0,0,0-5.64-.43l0-.25s-1.31,5.71-6.12,7a3.19,3.19,0,0,0-.63.12l-.35.07.07,0a2.89,2.89,0,0,0,.23,5.41l-.11,0c4.48.5,6.36,4.71,6.94,6.39a2.89,2.89,0,0,0,5.73-.23c.53-1.57,2.11-5.07,5.67-6.12h.17a2.89,2.89,0,0,0,.94-5.62Z"/><path class="cls-12" d="M300.73,280.51l0,0-.22,0a2.66,2.66,0,0,0-.39-.07c-3.4-.74-4.87-4-5.34-5.42a2.5,2.5,0,0,0-4.87-.4l0-.22s-1.16,4.94-5.33,6a2.35,2.35,0,0,0-.54.1l-.3.05.05,0a2.51,2.51,0,0,0,.17,4.69l-.09,0c3.87.46,5.47,4.11,6,5.57a2.5,2.5,0,0,0,5-.16c.47-1.36,1.86-4.38,4.94-5.26h.14a2.5,2.5,0,0,0,.86-4.86Z"/><rect class="cls-9" x="85.07" y="69.79" width="139.55" height="9.17"/><path class="cls-12" d="M23.46,241.7h0a.9.9,0,0,0,.16,0l.3.06c2.56.56,3.67,3,4,4.09a1.88,1.88,0,0,0,1.86,1.66,1.91,1.91,0,0,0,1.82-1.35l0,.17s.88-3.74,4-4.53a1.75,1.75,0,0,0,.41-.08l.23,0,0,0a1.88,1.88,0,0,0-.13-3.53l.07,0c-2.92-.35-4.13-3.11-4.5-4.21a1.89,1.89,0,0,0-3.75.12,6.11,6.11,0,0,1-3.74,4H24.1a1.89,1.89,0,0,0-.64,3.67Z"/><polygon class="cls-13" points="100.34 157.24 89.48 327.07 100.34 342.68 105.02 342.33 103.34 154.24 100.34 157.24"/><rect class="cls-6" x="91.44" y="89.24" width="125.33" height="75.17" rx="3"/><polygon class="cls-13" points="150.97 150.15 140.95 327.07 151.9 344.38 156 344.01 151.9 154.24 150.97 150.15"/><path class="cls-11" d="M42.41,285.23l0,0,.24,0a2.14,2.14,0,0,0,.44.08c3.78.8,5.44,4.42,6,6a2.78,2.78,0,0,0,5.42.41l0,.25s1.25-5.5,5.88-6.7a2.9,2.9,0,0,0,.6-.12,3.43,3.43,0,0,1,.34-.06l-.07,0A2.78,2.78,0,0,0,61,279.9l.11,0c-4.31-.48-6.12-4.53-6.68-6.15a2.78,2.78,0,0,0-5.51.22c-.51,1.51-2,4.88-5.46,5.88h-.15a2.78,2.78,0,0,0-.91,5.41Z"/><rect class="cls-14" x="102.66" y="170.76" width="53.87" height="9.27"/><rect class="cls-14" x="102.66" y="204.07" width="53.87" height="9.27"/><rect class="cls-14" x="102.66" y="237.37" width="53.87" height="9.27"/><rect class="cls-14" x="102.66" y="270.67" width="53.87" height="9.27"/><rect class="cls-14" x="102.66" y="303.98" width="53.87" height="9.27"/><rect class="cls-14" x="100.34" y="147.02" width="9.85" height="198.67" rx="3"/><rect class="cls-14" x="151.89" y="147.02" width="9.85" height="198.67" rx="3"/><path class="cls-11" d="M25.76,123.84l0,0,.2,0a2.5,2.5,0,0,0,.38.06c3.27.69,4.7,3.82,5.17,5.17a2.4,2.4,0,0,0,4.68.36l0,.21s1.09-4.75,5.09-5.79a3,3,0,0,0,.52-.1l.29-.06-.06,0a2.4,2.4,0,0,0-.19-4.49l.09,0c-3.72-.42-5.29-3.92-5.77-5.32a2.4,2.4,0,0,0-4.76.19c-.44,1.31-1.75,4.22-4.71,5.09h-.14a2.4,2.4,0,0,0-.78,4.67Z"/><path class="cls-12" d="M49.44,90.83h0l.17,0a1.7,1.7,0,0,0,.31.06c2.7.59,3.86,3.18,4.24,4.3a2,2,0,0,0,3.87.32l0,.18S59,91.81,62.26,91a2,2,0,0,0,.43-.08l.24,0,0,0a2,2,0,0,0-.13-3.71l.08,0c-3.08-.36-4.35-3.26-4.74-4.42a2,2,0,0,0-3.93.13c-.38,1.08-1.48,3.47-3.93,4.17h-.11a2,2,0,0,0-.68,3.86Z"/><path class="cls-13" d="M252.13,311.36c0,17.41-6.11,31.53-23.53,31.53s-29.54-9.12-29.54-26.53a31.54,31.54,0,0,1,31.54-31.54C248,284.82,252.13,293.94,252.13,311.36Z"/><rect class="cls-15" x="108.73" y="103.49" width="90.78" height="8.84" rx="4.42"/><rect class="cls-16" x="108.73" y="122.42" width="90.99" height="4.6" rx="2.3"/><rect class="cls-16" x="108.73" y="136.14" width="56.83" height="4.6" rx="2.3"/><circle class="cls-17" cx="238.27" cy="311.57" r="31.53"/><path class="cls-9" d="M240,297.55v12.39h11.92v3.16H240v12.5h-3.38V313.1H224.67v-3.16h11.91V297.55Z"/><path class="cls-18" d="M261.23,186.21a5.62,5.62,0,1,0,5.61-5.62V175"/><line class="cls-5" x1="266.97" y1="82.82" x2="252.34" y2="144.59"/><line class="cls-5" x1="283.27" y1="71.47" x2="283.19" y2="146.98"/><circle class="cls-7" cx="267.14" cy="64.9" r="17.81"/><path class="cls-14" d="M274.71,28.93V65.45a7.8,7.8,0,0,1-7.57,8h0a7.79,7.79,0,0,1-7.57-8V28.93"/><circle class="cls-19" cx="267.14" cy="64.65" r="2.17"/><rect class="cls-3" x="160.49" y="20.65" width="138.74" height="8.51" rx="3"/><circle class="cls-7" cx="267.1" cy="141.87" r="17.81"/><rect class="cls-14" x="259.92" y="133.81" width="14.36" height="42.04" rx="7.18"/><circle class="cls-19" cx="267.1" cy="142.12" r="2.17"/><path class="cls-7" d="M264.39,199.84v-9.48a2.74,2.74,0,0,1,2.4-3h1a2.74,2.74,0,0,1,2.4,3v9.48"/><rect class="cls-6" x="169.73" y="200.27" width="171.91" height="53.62" rx="3"/><rect class="cls-15" x="223.62" y="219.16" width="105.01" height="6" rx="3"/><rect class="cls-15" x="223.95" y="233.51" width="105.01" height="6" rx="3"/><circle class="cls-12" cx="194.35" cy="229.03" r="16.53"/><g class="cls-20"><circle class="cls-9" cx="194.85" cy="246.29" r="12.14"/><circle class="cls-9" cx="194.64" cy="224.98" r="7.5"/></g><path class="cls-12" d="M188.82,244.94a16.88,16.88,0,1,1,21.46-10.45A16.91,16.91,0,0,1,188.82,244.94Zm10.85-31.46a16.4,16.4,0,1,0,10.16,20.85A16.42,16.42,0,0,0,199.67,213.48Z"/><circle class="cls-21" cx="194.49" cy="229.2" r="16.46"/></g></g></svg>