<svg id="Layer_1" data-name="Layer 1" xmlns="http://www.w3.org/2000/svg" viewBox="0 0 360 360"><defs><style>.cls-1,.cls-10,.cls-6,.cls-9{fill:none;}.cls-2,.cls-36{fill:#d0dbf4;}.cls-13,.cls-2,.cls-28,.cls-4,.cls-7,.cls-8,.cls-9{fill-rule:evenodd;}.cls-11,.cls-29,.cls-3,.cls-30,.cls-8{fill:#fff;}.cls-3{opacity:0.35;}.cls-12,.cls-14,.cls-15,.cls-16,.cls-17,.cls-18,.cls-19,.cls-20,.cls-21,.cls-22,.cls-23,.cls-24,.cls-25,.cls-26,.cls-31,.cls-4{fill:#586ab1;}.cls-32,.cls-5,.cls-7{fill:#d1d1d1;}.cls-10,.cls-27,.cls-28,.cls-29,.cls-33,.cls-5,.cls-6,.cls-7,.cls-8,.cls-9{stroke:#586ab1;stroke-width:2px;}.cls-27,.cls-28,.cls-29,.cls-33,.cls-5,.cls-6,.cls-7,.cls-8{stroke-miterlimit:10;}.cls-10,.cls-9{stroke-linecap:round;stroke-linejoin:round;}.cls-12{font-size:15.89px;letter-spacing:-0.05em;}.cls-12,.cls-14,.cls-15,.cls-16,.cls-17,.cls-18,.cls-19,.cls-20,.cls-21,.cls-22,.cls-23,.cls-24,.cls-25,.cls-26{font-family:Effra-Heavy, Effra;font-weight:800;}.cls-13,.cls-27,.cls-34{fill:#5cc5cd;}.cls-14{font-size:5.28px;letter-spacing:-0.05em;}.cls-15{font-size:15.89px;letter-spacing:-0.05em;}.cls-16{font-size:5.28px;letter-spacing:-0.05em;}.cls-17{font-size:15.89px;letter-spacing:-0.05em;}.cls-18{font-size:5.28px;letter-spacing:-0.05em;}.cls-19{font-size:15.89px;letter-spacing:-0.05em;}.cls-20{font-size:5.28px;letter-spacing:-0.05em;}.cls-21{font-size:15.89px;letter-spacing:-0.05em;}.cls-22{font-size:5.28px;letter-spacing:-0.05em;}.cls-23{font-size:15.89px;letter-spacing:-0.05em;}.cls-24{font-size:5.28px;letter-spacing:-0.05em;}.cls-25{font-size:15.89px;letter-spacing:-0.05em;}.cls-26{font-size:5.28px;letter-spacing:-0.05em;}.cls-28,.cls-33,.cls-35{fill:#fcbf12;}.cls-30{opacity:0.1;}</style></defs><title>release schedule-spot hero</title><rect class="cls-1" x="0.34" y="-0.09" width="360" height="360"/><path class="cls-2" d="M178.25,306.56A127.31,127.31,0,1,0,51,179.25,127.31,127.31,0,0,0,178.25,306.56Z"/><rect class="cls-3" x="230.34" y="68.45" width="16.11" height="135.96"/><rect class="cls-3" x="106.16" y="68.45" width="16.11" height="135.96"/><polygon class="cls-4" points="129.17 186.4 104.89 204.41 247.33 204.41 228.61 185.9 129.17 186.4"/><rect class="cls-5" x="120.58" y="70.56" width="111.73" height="122.06"/><line class="cls-6" x1="120.33" y1="192.21" x2="106.58" y2="201.92"/><line class="cls-6" x1="233.11" y1="192.21" x2="246.86" y2="201.92"/><path class="cls-7" d="M174.61,93.77V73c0-.53.82-1,1.82-1h0c1,0,1.83.44,1.83,1V93.77Z"/><path class="cls-4" d="M180.79,99.07h-8.08a.16.16,0,0,1-.13-.06.26.26,0,0,1-.08-.19V93.94a.25.25,0,0,1,.1-.21.15.15,0,0,1,.11,0h8.08a.16.16,0,0,1,.13.06.24.24,0,0,1,.08.19v4.88a.24.24,0,0,1-.06.17A.18.18,0,0,1,180.79,99.07Z"/><path class="cls-8" d="M169.72,125.41l-6.4-3s-2.44-1.09-3.95.51a16.66,16.66,0,0,0-5.3,10.26,15.38,15.38,0,0,0,2.77,10.68s2.08,2.49-.92,3.79c-1.94.84-3.11-1.18-3.11-1.18-9-13.37.1-24,2.94-27.17,3.28-3.7,6.73-2,6.73-2l9.51,3.53"/><path class="cls-8" d="M181.41,125.32l7.91-2.94s2.35-1,3.87.59a16.84,16.84,0,0,1,5.22,10.26,15.42,15.42,0,0,1-2.78,10.68,2.61,2.61,0,0,0,1.62,3.2,1.59,1.59,0,0,0,2.18-.59c9-13.37-.17-24.4-3.36-27.26a6.43,6.43,0,0,0-6.31-1.68l-9.51,3.28"/><polyline class="cls-9" points="178.97 100.84 171.44 100.84 166.27 118.51"/><polyline class="cls-9" points="178.76 100.84 181.03 100.84 186.21 118.51"/><line class="cls-10" x1="174.97" y1="111.69" x2="174.97" y2="122.17"/><line class="cls-10" x1="178.26" y1="111.69" x2="178.26" y2="122.17"/><path class="cls-4" d="M173.4,111.75v-10a.28.28,0,0,1,.07-.17.39.39,0,0,1,.24-.09h6.06a.34.34,0,0,1,.27.13.21.21,0,0,1,.05.13v10a.21.21,0,0,1-.08.16.31.31,0,0,1-.24.1h-6.06a.35.35,0,0,1-.21-.07A.26.26,0,0,1,173.4,111.75Z"/><path class="cls-7" d="M182.19,125.78H170a.27.27,0,0,1-.2-.07.27.27,0,0,1-.11-.22v-5.6a.31.31,0,0,1,.15-.25.38.38,0,0,1,.16,0h12.16a.32.32,0,0,1,.2.07.27.27,0,0,1,.11.22v5.6a.28.28,0,0,1-.08.2A.32.32,0,0,1,182.19,125.78Z"/><path class="cls-8" d="M177.75,124.67c2.19-1.65,3.16-.58,3.16-.58,5.8,7.15,4.79,17.82,4.12,21.1-.6,2.92,1.18,3.12,1.18,3.12,3,1,3.45-1.56,3.45-1.56,3.7-19.46-6.31-28.49-9.43-28.16a11.15,11.15,0,0,0-5,2.3l.08,3.65Z"/><rect class="cls-11" x="149.01" y="185.27" width="30.36" height="31.3" transform="translate(385.83 335.83) rotate(160.59)"/><text class="cls-12" transform="translate(168.61 187.35) rotate(160.59)">21</text><path class="cls-13" d="M162.2,209.43l-9.34,3.3,2.29,6.55a.81.81,0,0,0,1.12.52l11.87-4.18,2.47-.87,11.88-4.16a.83.83,0,0,0,.54-1.13l-2.29-6.56-9.34,3.29Z"/><rect class="cls-6" x="148.71" y="185.29" width="31.41" height="31.63" rx="1" transform="translate(386.33 336.12) rotate(160.59)"/><text class="cls-14" transform="translate(171.1 199.22) rotate(160.59)">TUES</text><rect class="cls-5" x="175.81" y="209.98" width="3.53" height="6.8" rx="0.98" transform="translate(414.89 357.44) rotate(161.03)"/><rect class="cls-5" x="159.95" y="215.35" width="3.53" height="6.8" rx="0.98" transform="translate(385.78 373.04) rotate(161.03)"/><rect class="cls-11" x="210.81" y="174.37" width="30.36" height="31.3" transform="translate(451.81 380.23) rotate(-179.95)"/><text class="cls-15" transform="matrix(-1, 0, 0, -1, 234.84, 178.68)">25</text><path class="cls-13" d="M221.27,197.39h-9.9l0,6.94a.82.82,0,0,0,.89.87h15.2l12.59,0a.83.83,0,0,0,.88-.89l0-6.95H221.27Z"/><rect class="cls-6" x="210.43" y="174.45" width="31.41" height="31.63" rx="1" transform="translate(452.11 380.74) rotate(-179.95)"/><text class="cls-16" transform="matrix(-1, 0, 0, -1, 230.21, 190.96)">FRI</text><rect class="cls-5" x="232.69" y="202.84" width="3.53" height="6.8" rx="0.98" transform="translate(467.14 414.47) rotate(-179.51)"/><rect class="cls-5" x="215.95" y="202.61" width="3.53" height="6.8" rx="0.98" transform="matrix(-1, -0.01, 0.01, -1, 433.65, 413.88)"/><rect class="cls-11" x="201.83" y="149.85" width="30.36" height="31.3" transform="translate(-43.68 246.26) rotate(-54.54)"/><text class="cls-17" transform="translate(221.11 179.1) rotate(-54.54)">05</text><path class="cls-13" d="M213.74,157.38l5.74-8.07-5.64-4a.82.82,0,0,0-1.22.22l-7.3,10.25-1.52,2.14-7.32,10.24a.82.82,0,0,0,.21,1.23l5.65,4,5.74-8.07Z"/><rect class="cls-6" x="201.02" y="149.66" width="31.41" height="31.63" rx="1" transform="translate(-43.78 246.02) rotate(-54.54)"/><text class="cls-18" transform="translate(212.79 170.13) rotate(-54.54)">MON</text><rect class="cls-5" x="197.12" y="159.6" width="3.53" height="6.8" rx="0.98" transform="translate(-49.77 228.54) rotate(-54.1)"/><rect class="cls-5" x="207" y="146.08" width="3.53" height="6.8" rx="0.98" transform="translate(-34.73 230.96) rotate(-54.1)"/><rect class="cls-11" x="195.19" y="176.2" width="30.36" height="31.3" transform="translate(-56.83 93.54) rotate(-22.17)"/><text class="cls-19" transform="translate(206.53 205.57) rotate(-22.17)">30</text><path class="cls-13" d="M212,183.24l9.17-3.74-2.6-6.44a.82.82,0,0,0-1.15-.46l-11.65,4.75-2.43,1-11.67,4.72a.84.84,0,0,0-.48,1.16l2.6,6.43,9.18-3.73Z"/><rect class="cls-6" x="194.43" y="175.85" width="31.41" height="31.63" rx="1" transform="translate(-56.78 93.44) rotate(-22.17)"/><text class="cls-20" transform="translate(204.26 193.55) rotate(-22.17)">WED</text><rect class="cls-5" x="194.63" y="176.63" width="3.53" height="6.8" rx="0.98" transform="translate(-52.69 85.48) rotate(-21.72)"/><rect class="cls-5" x="210.22" y="170.51" width="3.53" height="6.8" rx="0.98" transform="translate(-49.32 90.82) rotate(-21.72)"/><rect class="cls-11" x="209.93" y="168.92" width="30.36" height="31.3" transform="translate(325.29 457.88) rotate(-149.48)"/><text class="cls-21" transform="matrix(-0.86, -0.51, 0.51, -0.86, 238.47, 179.24)">25</text><path class="cls-13" d="M217.31,188.53l-8.53-5-3.55,6a.81.81,0,0,0,.33,1.19l10.84,6.39,2.26,1.33,10.83,6.42a.83.83,0,0,0,1.21-.32l3.54-6-8.53-5Z"/><rect class="cls-6" x="209.41" y="169.04" width="31.41" height="31.63" rx="1" transform="translate(325.14 458.43) rotate(-149.48)"/><text class="cls-22" transform="matrix(-0.86, -0.51, 0.51, -0.86, 228.26, 187.47)">FRI</text><rect class="cls-5" x="222.42" y="199.44" width="3.53" height="6.8" rx="0.98" transform="translate(312.06 492.11) rotate(-149.04)"/><rect class="cls-5" x="208.1" y="190.75" width="3.53" height="6.8" rx="0.98" transform="translate(289.94 468.61) rotate(-149.04)"/><rect class="cls-11" x="112.9" y="171.94" width="30.36" height="31.3" transform="translate(-42.72 37.85) rotate(-14.44)"/><text class="cls-23" transform="translate(122.42 200.82) rotate(-14.44)">25</text><path class="cls-13" d="M130.8,179.27l9.6-2.47-1.72-6.73a.81.81,0,0,0-1.07-.61l-12.19,3.14-2.53.65-12.2,3.11a.83.83,0,0,0-.64,1.08l1.72,6.73,9.59-2.47Z"/><rect class="cls-6" x="112.17" y="171.56" width="31.41" height="31.63" rx="1" transform="translate(-42.68 37.8) rotate(-14.44)"/><text class="cls-24" transform="translate(123.81 187.79) rotate(-14.44)">FRI</text><rect class="cls-5" x="114.06" y="170.6" width="3.53" height="6.8" rx="0.98" transform="translate(-38.64 33.18) rotate(-14)"/><rect class="cls-5" x="130.33" y="166.63" width="3.53" height="6.8" rx="0.98" transform="translate(-37.2 37) rotate(-14)"/><rect class="cls-11" x="169.59" y="174.72" width="30.36" height="31.3" transform="translate(218.62 453.5) rotate(-143.19)"/><text class="cls-25" transform="translate(198.49 186.64) rotate(-143.19)">16</text><path class="cls-13" d="M176.58,193.46l-7.93-5.94-4.17,5.55a.81.81,0,0,0,.19,1.22l10.08,7.54,2.09,1.57L186.9,211a.83.83,0,0,0,1.24-.18l4.18-5.55-7.93-5.93Z"/><rect class="cls-6" x="169.04" y="174.85" width="31.41" height="31.63" rx="1" transform="translate(218.39 454.01) rotate(-143.19)"/><text class="cls-26" transform="translate(187.42 193.64) rotate(-143.19)">FRI</text><rect class="cls-5" x="180.08" y="205.03" width="3.53" height="6.8" rx="0.98" transform="translate(200.41 484.42) rotate(-142.75)"/><rect class="cls-5" x="166.8" y="194.83" width="3.53" height="6.8" rx="0.98" transform="translate(182.74 458.06) rotate(-142.75)"/><rect class="cls-27" x="103.09" y="204.4" width="146.05" height="111.32" rx="1"/><rect class="cls-5" x="196.79" y="230.19" width="38.3" height="40.84" rx="1"/><path class="cls-28" d="M125,222.24v-3.43c0-.61.82-1.11,1.81-1.11H152c1,0,1.8.5,1.8,1.11v3.43"/><path class="cls-28" d="M163.1,217.7a5.39,5.39,0,1,1,10.77,0"/><path class="cls-28" d="M161.06,222.24v-3.43a1,1,0,0,1,.93-1.11h13a1,1,0,0,1,.93,1.11v3.43"/><rect class="cls-29" x="118.12" y="222.7" width="67.39" height="75.69" rx="1"/><rect class="cls-5" x="129.94" y="234.51" width="43.58" height="52.16" rx="1"/><rect class="cls-30" x="106.45" y="72.32" width="139.32" height="133.12"/><line class="cls-10" x1="49.75" y1="316.13" x2="304.16" y2="316.13"/><circle class="cls-6" cx="162.9" cy="276.25" r="3.71"/><rect class="cls-31" x="135.98" y="241.46" width="11.36" height="15.65" rx="1"/><rect class="cls-32" x="138.17" y="243.74" width="0.99" height="11.32" rx="0.21"/><rect class="cls-31" x="150.11" y="241.46" width="11.36" height="15.65" rx="1"/><rect class="cls-32" x="152.3" y="243.74" width="0.99" height="11.32" rx="0.21"/><line class="cls-6" x1="246.28" y1="70.8" x2="246.28" y2="203.68"/><line class="cls-6" x1="105.95" y1="203.68" x2="105.95" y2="70.8"/><rect class="cls-5" x="136.72" y="194.98" width="5.4" height="21.71"/><circle class="cls-33" cx="139.42" cy="192.58" r="8.2"/><rect class="cls-29" x="102.83" y="42.95" width="146.15" height="28.59"/><rect class="cls-33" x="100.73" y="39" width="6.72" height="37.08" rx="1"/><rect class="cls-33" x="245.1" y="39" width="6.72" height="37.08" rx="1"/><rect class="cls-34" x="108.42" y="59.6" width="135.66" height="10.98"/><path class="cls-28" d="M100.73,315.63V203.37a1.82,1.82,0,0,1,1.81-1.83h3.1a1.83,1.83,0,0,1,1.81,1.83V315.63Z"/><path class="cls-28" d="M245.6,315.63V203.37a1.83,1.83,0,0,1,1.81-1.83h3.1a1.82,1.82,0,0,1,1.81,1.83V315.63Z"/><path class="cls-35" d="M309.56,84.44l0,0-.2,0-.39-.07c-3.3-.71-4.74-3.88-5.21-5.25a2.42,2.42,0,0,0-4.73-.38l0-.22s-1.12,4.81-5.17,5.84a3.1,3.1,0,0,0-.53.1l-.29.06.05,0a2.43,2.43,0,0,0,.18,4.55l-.09,0c3.77.44,5.33,4,5.81,5.41a2.43,2.43,0,0,0,4.82-.17c.46-1.33,1.8-4.27,4.8-5.13h.14a2.44,2.44,0,0,0,.82-4.73Z"/><path class="cls-36" d="M68.7,278.62h0l-.2,0a2,2,0,0,0-.35-.06c-3.09-.67-4.43-3.63-4.86-4.9a2.26,2.26,0,0,0-4.42-.36l0-.2s-1.05,4.48-4.83,5.45a2,2,0,0,0-.49.09l-.27.05.05,0a2.27,2.27,0,0,0,.16,4.25l-.09,0c3.52.41,5,3.72,5.43,5a2.26,2.26,0,0,0,4.49-.16c.43-1.23,1.68-4,4.48-4.78h.13a2.27,2.27,0,0,0,.76-4.42Z"/><path class="cls-35" d="M290.28,287.65l0,0-.23,0a2.26,2.26,0,0,0-.44-.08c-3.73-.81-5.36-4.4-5.89-5.94a2.74,2.74,0,0,0-5.35-.43l0-.25s-1.27,5.44-5.85,6.61a2.28,2.28,0,0,0-.59.11c-.12,0-.22.05-.34.06l.07,0a2.75,2.75,0,0,0,.19,5.15l-.1,0c4.26.49,6,4.5,6.57,6.11a2.75,2.75,0,0,0,5.45-.2c.52-1.5,2-4.82,5.43-5.8h.15a2.75,2.75,0,0,0,.93-5.34Z"/><path class="cls-35" d="M53.93,92.69l0,0-.26,0a4,4,0,0,0-.5-.09c-4.24-.91-6.08-5-6.68-6.74a3.11,3.11,0,0,0-6.08-.49l0-.27S39,91.19,33.78,92.52a2.94,2.94,0,0,0-.67.13l-.38.07.07,0A3.13,3.13,0,0,0,33,98.59l-.12,0c4.84.56,6.85,5.11,7.47,6.93a3.11,3.11,0,0,0,6.18-.22c.59-1.7,2.31-5.47,6.16-6.58h.17a3.12,3.12,0,0,0,1-6.07Z"/><path class="cls-36" d="M281.25,58.61l0,0-.16,0a1.36,1.36,0,0,0-.29-.06c-2.55-.55-3.66-3-4-4a1.87,1.87,0,0,0-3.66-.3l0-.17s-.86,3.72-4,4.51a1.86,1.86,0,0,0-.41.08l-.22,0,0,0a1.88,1.88,0,0,0,.13,3.51l-.07,0c2.91.33,4.12,3.07,4.49,4.17a1.87,1.87,0,0,0,3.72-.13,6.05,6.05,0,0,1,3.71-4h.1a1.88,1.88,0,0,0,.63-3.65Z"/><path class="cls-36" d="M74.34,67.66h0l-.16,0a1.36,1.36,0,0,0-.29-.06c-2.55-.55-3.66-3-4-4.05a1.87,1.87,0,0,0-3.66-.3l0-.16s-.86,3.71-4,4.51a1.85,1.85,0,0,0-.41.07l-.22,0,0,0a1.88,1.88,0,0,0,.13,3.51l-.07,0c2.91.33,4.12,3.08,4.49,4.17a1.87,1.87,0,0,0,3.72-.13,6.07,6.07,0,0,1,3.71-4h.1a1.88,1.88,0,0,0,.63-3.65Z"/><path class="cls-36" d="M307.45,260.2h0l-.15,0-.3-.05c-2.55-.55-3.66-3-4-4.06a1.87,1.87,0,0,0-3.66-.29l0-.17s-.86,3.71-4,4.51a1.77,1.77,0,0,0-.4.08l-.23,0h0a1.88,1.88,0,0,0,.13,3.52l-.07,0c2.91.34,4.12,3.08,4.49,4.18a1.87,1.87,0,0,0,3.72-.14,6.07,6.07,0,0,1,3.71-4h.11a1.88,1.88,0,0,0,.63-3.65Z"/></svg>