<svg xmlns="http://www.w3.org/2000/svg" viewBox="0 0 360 360"><defs><style>.cls-1{isolation:isolate;}.cls-2{fill:none;}.cls-3,.cls-4{fill:#d0dbf4;}.cls-3{fill-rule:evenodd;}.cls-5,.cls-9{fill:#fcbf12;}.cls-12,.cls-6{fill:#fff;}.cls-10,.cls-6,.cls-8,.cls-9{stroke:#586ab1;stroke-width:2px;}.cls-10,.cls-6,.cls-8{stroke-miterlimit:10;}.cls-7{fill:#586ab1;}.cls-11,.cls-8{fill:#d1d1d1;}.cls-9{stroke-linecap:round;stroke-linejoin:round;}.cls-10{fill:#5cc5cd;}.cls-11{mix-blend-mode:multiply;}</style></defs><title>request component-spot hero</title><g class="cls-1"><g id="Layer_1" data-name="Layer 1"><rect class="cls-2" x="0.34" y="-0.09" width="360" height="360"/><path class="cls-3" d="M178.25,306.56A127.31,127.31,0,1,0,51,179.25,127.31,127.31,0,0,0,178.25,306.56Z"/><path class="cls-4" d="M86.86,299.41l0,0a1.38,1.38,0,0,1-.2,0l-.35-.07c-3.09-.66-4.43-3.62-4.86-4.9a2.26,2.26,0,0,0-4.42-.35l0-.2s-1.05,4.48-4.83,5.44a2.66,2.66,0,0,0-.49.1l-.27.05h0a2.29,2.29,0,0,0-1.4,2.1,2.27,2.27,0,0,0,1.56,2.15l-.09,0c3.52.41,5,3.72,5.43,5a2.26,2.26,0,0,0,4.49-.17c.43-1.23,1.68-4,4.48-4.78h.13a2.27,2.27,0,0,0,.76-4.41Z"/><path class="cls-5" d="M309.53,280.11h0l-.23-.05a3,3,0,0,0-.43-.08c-3.74-.8-5.36-4.39-5.89-5.94a2.75,2.75,0,0,0-5.36-.43l0-.24s-1.26,5.43-5.84,6.6a2.9,2.9,0,0,0-.6.11,3.23,3.23,0,0,1-.33.06l.06,0a2.74,2.74,0,0,0,.2,5.14l-.11,0c4.26.49,6,4.51,6.58,6.11a2.75,2.75,0,0,0,5.45-.19c.52-1.5,2-4.82,5.42-5.8h.16a2.75,2.75,0,0,0,.92-5.35Z"/><path class="cls-5" d="M53.93,92.69l0,0-.26,0a4,4,0,0,0-.5-.09c-4.24-.91-6.08-5-6.68-6.74a3.11,3.11,0,0,0-6.08-.49l0-.27S39,91.19,33.78,92.52a2.94,2.94,0,0,0-.67.13l-.38.07.07,0A3.13,3.13,0,0,0,33,98.59l-.12,0c4.84.56,6.85,5.11,7.47,6.93a3.11,3.11,0,0,0,6.18-.22c.59-1.7,2.31-5.47,6.16-6.58h.17a3.12,3.12,0,0,0,1-6.07Z"/><path class="cls-4" d="M74.34,67.66h0l-.16,0a1.36,1.36,0,0,0-.29-.06c-2.55-.55-3.66-3-4-4.05a1.87,1.87,0,0,0-3.66-.3l0-.16s-.86,3.71-4,4.51a1.85,1.85,0,0,0-.41.07l-.22,0,0,0a1.88,1.88,0,0,0,.13,3.51l-.07,0c2.91.33,4.12,3.08,4.49,4.17a1.87,1.87,0,0,0,3.72-.13,6.07,6.07,0,0,1,3.71-4h.1a1.88,1.88,0,0,0,.63-3.65Z"/><path class="cls-4" d="M324.19,243.46h0l-.16,0a1.59,1.59,0,0,0-.3-.06c-2.55-.55-3.66-3-4-4.05a1.87,1.87,0,0,0-1.86-1.64,1.89,1.89,0,0,0-1.8,1.34l0-.16s-.87,3.71-4,4.51a1.85,1.85,0,0,0-.41.07.93.93,0,0,1-.23,0l0,0a1.88,1.88,0,0,0,.14,3.52l-.07,0c2.91.34,4.12,3.08,4.49,4.17a1.87,1.87,0,0,0,3.72-.13,6.05,6.05,0,0,1,3.7-4h.11a1.88,1.88,0,0,0,.63-3.65Z"/><rect class="cls-6" x="103.47" y="48.11" width="225.6" height="141.4" rx="9"/><g id="yWhjrX"><path class="cls-7" d="M183.44,111.24,177,112.57l-5.72-1.31c3.31-1.28,2.37-4,2.6-6.45a18.76,18.76,0,0,0-2.85-12.16c-1.18-1.87-2-4-3.27-6.4a14.41,14.41,0,0,0-.27,1.75c0,6.43,0,12.86,0,19.29a3.75,3.75,0,0,0,2.83,4l-6.27,1.3-5.66-1.25c3.52-1.62,2.31-4.74,2.46-7.43.09-1.52,0-3.05,0-4.58.07-1.87-.41-3.4-2.35-4.18.9-1.81,2.31-1.43,3.87-1-2-1.11-1.5-2.93-1.53-4.57s0-3.05,0-4.58c0-2.17.32-4.44-3-5.4l6.32-1.36,0-.49c.35.26.67.71,1.05.75,2.65.31,3.19,2.54,4.12,4.41l4.34,8.7c0-3.66.14-6.78-.1-9.87-.06-.8-1.32-1.5-2-2.26l5.51-1.25,6.35,1.33c-3.6,1.1-2.93,3.73-3,6.08,0,1.53.09,3.06,0,4.58a34.9,34.9,0,0,1-.74,3.85,4.06,4.06,0,0,1,1.5-.19,8.55,8.55,0,0,1,2.08,1.12c-2.61,1-2.84,2.82-2.83,4.79s0,4.2,0,6.3S180.31,110.34,183.44,111.24Z"/><path class="cls-7" d="M121.45,112.54l-6.11-1.25c3.46-1.49,2.66-4.36,2.71-6.92,0-2-.06-4,0-5.92.08-1.57-.25-2.79-2-3.23.86-2.06,2.34-1.39,3.88-1.22-2.79-1.29-1.72-3.71-1.85-5.76-.08-1.26,0-2.54,0-3.81.06-2.05-.12-4-2.81-4.94l6.29-1.36c1.13.25,2.63.56,4.12.93,2.51.63,5.22.89,7.48,2,5.9,3,6.13,10.12.57,13.7a37.88,37.88,0,0,1-5,2.3c1.11.28,2.28.52,3.42.88,3.59,1.13,5.3,3.4,5.48,7.14a13.94,13.94,0,0,1,0,1.71c-.12,2,.28,3.67,3,4.35l-6.41,1.44-5.26-1.42c2.61-.61,2-2.35,2-3.85,0-1.14,0-2.29,0-3.43-.15-4.41-1.76-5.73-6.37-5,0,3.14-.17,6.32.1,9.46.09,1.09,1.29,2.09,1.94,3.06Zm5.75-20.69,1.73,2a9.5,9.5,0,0,0,1.15-10.34c-1.2-2.22-3.19-3.37-5.33-3V94.11l.42.23Z"/><path class="cls-7" d="M212.74,145.62c0,3.37-.18,6.49.09,9.57.1,1.12,1.24,2.14,1.91,3.21l-5.45,1.13-5.87-1.28c3.33-1.3,2.7-4,2.74-6.5,0-2,0-3.94,0-5.92,0-1.66.06-3.24-2.12-3.64.93-1.82,2.26-1.49,3.74-1.28-2.63-1.44-1.41-3.81-1.61-5.81a30.35,30.35,0,0,1,0-3.44c0-2.15,0-4.28-3.06-5.19l6.41-1.34,3.93.87a47.06,47.06,0,0,1,6.83,1.58c3.08,1.18,5.26,3.4,5.45,6.94s-1.68,6-4.68,7.69a43.35,43.35,0,0,1-4.39,1.83c1.13.28,2.14.47,3.11.76,4.13,1.22,6,3.67,6,8,0,3.51,0,3.51,2.75,6a18.57,18.57,0,0,0-3.33,0,12.06,12.06,0,0,0-2.44,1l-4.8-1.36c2.42-3.45,1.53-7.29.42-10.89C217.6,145.09,215,145.79,212.74,145.62Zm.06-18.33v15.32c3.59.1,6.17-2.83,6.38-7.13C219.4,130.78,216.91,127.51,212.8,127.29Z"/><path class="cls-7" d="M230.43,78.11c1,.26,2.23.6,3.49.92,2.32.6,4.82.82,6.92,1.86C245,83,245,87.8,241,90.15a35.27,35.27,0,0,1-4.7,1.95,39.33,39.33,0,0,1,4.76,1.66c3.25,1.58,5.32,4.08,5.41,7.89a8.2,8.2,0,0,1-5,8.09c-2.26,1-4.85,1.33-7.29,1.94-1.31.32-2.63.62-4,.93l-5.71-1.32c3.56-1.75,2.16-5,2.38-7.8.11-1.39,0-2.8,0-4.2,0-1.82-.3-3.45-2.36-4.11.88-2,2.31-1.48,3.86-1.11-2-1.07-1.48-2.82-1.5-4.4,0-1.84,0-3.69,0-5.53,0-2.84-.09-3-2.49-4.69Zm3.21,15.41v16.76c4-.23,6.36-3.5,6.32-8.49S237.58,93.68,233.64,93.52Zm-.07-3.3c3.44.09,5.12-1.72,4.94-5.11A4,4,0,0,0,233.57,81Z"/><path class="cls-7" d="M198.26,77.83l6.13,1.79Q209,81,208.4,85a3.94,3.94,0,0,1-5.23,3c-.6-.27-.93-1.13-1.39-1.72l.32-.37a5.51,5.51,0,0,0,2,.32c.88-.19,2.29-.58,2.4-1.11a3.58,3.58,0,0,0-.78-3c-2.22-2-6.52-1.06-8,1.5a9.13,9.13,0,0,0-1.09,2.83,41.41,41.41,0,0,0,.19,17.42,11.88,11.88,0,0,0,2.45,4.64,3.86,3.86,0,0,0,3.05.81c.44-.06,1-1.54,1-2.39.12-3.47-.78-6.45-4.51-8h9.54a62.28,62.28,0,0,1-.06,7.48c-.31,2.51-2.25,3.84-4.57,4.63-1.72.59-3.4,1.29-5.09,1.94-1.27-.66-2.65-1.42-4.06-2.1a7.41,7.41,0,0,1-4-4.61,35.42,35.42,0,0,1-1.35-6.5c-.21-2-.35-3.81-2.6-4.66,1.06-1.8,2.46-1.37,4-.93-2.3-1.45-1.42-3.46-1.15-5.32.63-4.36,2.07-8.15,6.86-9.61A7.24,7.24,0,0,0,198.26,77.83Z"/><path class="cls-7" d="M157.32,141.42l3.35-.93s0-.22-.16-.26c-1.09-.37-2.45-.31-2.89-1.72-.63-2-1.57-4-1.75-6.13-.22-2.68,2.09-4.81,5.44-5.81,1.48-.44,2.93-1,4.33-1.47a29.73,29.73,0,0,0,3.32,1.19c4.39,1.06,6.62,3.51,6.37,7.09-.18,2.58-1.76,4.12-4.14,4a4.24,4.24,0,0,1-3.88-4.39,2.15,2.15,0,0,1,1.34-1.58c.57-.06,1.24.7,1.81,1.17.13.11,0,.54.1.73.52.82,1.1,1.61,1.66,2.42a8.8,8.8,0,0,0,1.42-2.63c.33-2.26-1.11-4.16-3.5-5.07s-5.52-.19-6.88,1.48a4.87,4.87,0,0,0,.11,6c1.66,2,3.72,3.64,5.49,5.55s3.95,3.89,5.26,6.21c3,5.2.81,9.55-5,11a28.81,28.81,0,0,0-3.43,1.26c-1.51-.51-3-1.07-4.56-1.54-3.87-1.18-5.83-3.87-5.26-7.28a3.9,3.9,0,0,1,4.62-3.49,4.53,4.53,0,0,1,3.36,4.71,2,2,0,0,1-1.46,1.29c-.55,0-1.27-.59-1.65-1.12s-.05-1.18-.3-1.65a8.67,8.67,0,0,0-1.39-1.6c-.48.53-1.19,1-1.4,1.61-.82,2.45.52,4.89,3.11,6s5.8.33,7.19-1.51,1.11-4.36-.67-6.69a17,17,0,0,0-9.89-6.08Z"/><path class="cls-7" d="M270.22,105.32v6.16c-3.14.88-6.69-.94-9.56,1.5-3.81-2.61-8.27-.48-12.56-1.75,3-.93,2.62-3.26,2.63-5.42s0-4.58,0-6.87c0-1.69-.4-3.2-2.38-3.75.94-1.89,2.27-1.6,4.23-.68-3-2.91-1.48-6.12-1.79-9-.24-2.29.54-4.87-3.19-6,4.78-1.16,9.16.76,13.08-1.65,2.78,2.31,6.29.65,9.56,1.42v6.42c-.34-.22-.57-.28-.62-.4-1.55-3.94-2.41-4.53-6.64-4.55-5.62,0-5.62,0-5.62,5.56v8.09c2.54.43,4.8.57,6.34-2.09v6.32c-1.41-2.66-3.67-2.55-6.25-2.29,0,4-.09,8,.1,12,0,.62,1.33,1.55,2.14,1.66a26.36,26.36,0,0,0,5.33,0,4.68,4.68,0,0,0,4.26-3.32c.17-.44.32-.91.48-1.36Z"/><path class="cls-7" d="M309.47,145.55c-1.4-2.66-3.67-2.58-6.35-2.26v7.93c0,5.76,0,5.65,5.76,5.8,3.55.09,5.91-1.12,6.61-4.94l.43.23v6.2c-3,.83-6.56-1-9.44,1.43-3.8-2.5-8.16-.58-12.7-2,.35-.09.86-.07,1-.3.63-.87,1.56-1.8,1.62-2.76.21-3.11.1-6.24.08-9.36a3.3,3.3,0,0,0-2.34-3.38c.87-1.91,2.3-1.47,3.85-1-2-1.16-1.46-3-1.49-4.63s0-3.05,0-4.58c0-2.18.29-4.44-2.65-5.42,4.29-1.29,8.67.73,12.59-1.67,2.77,2.28,6.27.59,9.57,1.37v6.41c-.35-.19-.59-.25-.64-.37-1.48-3.88-2.44-4.53-6.65-4.54-5.63,0-5.63,0-5.63,5.57v8.18c2.59.27,4.89.5,6.35-2.17Z"/><path class="cls-7" d="M187.18,141.43c2.48.17,4.83.59,6.28-2.22v6.31a11.3,11.3,0,0,0-2.68-2.11,12.66,12.66,0,0,0-3.57-.3c0,4.14-.11,8.06.11,12,0,.67,1.36,1.67,2.21,1.8a24.34,24.34,0,0,0,5.33,0,4.58,4.58,0,0,0,4.17-3.14,3.38,3.38,0,0,1,.93-1.52v6.24c-3,.84-6.57-1-9.44,1.44-3.82-2.5-8.17-.56-12.7-1.56,3.84-1.78,2.59-5,2.76-7.73.08-1.39,0-2.8,0-4.2,0-1.88-.32-3.56-2.36-4.35.89-2,2.35-1.31,3.84-1-2-1.11-1.46-2.93-1.48-4.57,0-1.46,0-2.93,0-4.39,0-2.23.35-4.58-2.61-5.65,4.2-1.27,8.58.72,12.52-1.65,2.75,2.26,6.24.59,9.56,1.36v6.24l-.4.14c-.18-.45-.37-.9-.53-1.36a4.69,4.69,0,0,0-4.17-3.42,47.55,47.55,0,0,0-5.34-.05,2.21,2.21,0,0,0-2.42,2.2C187.13,133.71,187.18,137.51,187.18,141.43Z"/><path class="cls-7" d="M247,158.22l-6.1,1.34-5.68-1.27c2.79-1.68,1.5-4.1,1.1-6.36-.34-1.94-.8-3.86-1.18-5.79s-1.15-3.37-3.11-4c.72-1.92,2.22-1.34,3.72-1.35-2.81-1-2.26-3.5-2.79-5.5a35.58,35.58,0,0,1-.71-3.56c-.37-2.26-1-4.35-3.48-5.43l5.8-1.15,5.69,1.22c-3.12,1.54-1.71,3.94-1.3,6.1,1,5.24,2.08,10.47,3.18,15.7a21.46,21.46,0,0,0,.93,2.77h.61a33.41,33.41,0,0,0,1.1-3.48c1.17-5.67,2.22-11.36,3.43-17a3.43,3.43,0,0,0-1.7-4l3.44-1.44,3.68,1.62c-4.06.91-3.81,4.14-4.38,6.85-1.39,6.59-2.66,13.21-4,19.82C244.85,155.16,244.15,157.11,247,158.22Z"/><path class="cls-7" d="M281.91,159.88c-1.32-.67-2.78-1.42-4.24-2.15a7.74,7.74,0,0,1-4.1-5,44.08,44.08,0,0,1-1.18-6.55c-.21-1.8-.47-3.43-2.57-4,1-1.91,2.36-1.49,4.24-.71-3.08-2.92-1.33-5.84-.73-8.59a8.37,8.37,0,0,1,5.84-6.51,11.2,11.2,0,0,0,2.43-1.49c2.26.66,4.3,1.23,6.33,1.85,3.34,1,4.72,3.63,3.36,6.41-.87,1.75-2.43,2.1-4.2,2-1.23-.1-1.8-.8-1.77-2.22.7.13,1.34.3,2,.36,1.12.11,2.25.09,2.63-1.27a2.51,2.51,0,0,0-1.32-3.21,5.61,5.61,0,0,0-8.17,3,16.42,16.42,0,0,0-1.05,5c-.08,4.32,0,8.64.24,13a11.59,11.59,0,0,0,1.24,4.17,4.42,4.42,0,0,0,5.21,2.57,4.7,4.7,0,0,0,4-4.23,20.21,20.21,0,0,1,.59-2.18c1.53,1.6,1.08,3,.55,4.34A6.49,6.49,0,0,1,287,158C285.32,158.58,283.62,159.24,281.91,159.88Z"/><path class="cls-7" d="M317.28,105.32v6.16c-3.1.91-6.66-1-9.55,1.49-3.8-2.57-8.23-.52-12.66-1.58,4-1.92,2.64-5.32,2.62-8.15s1.4-6.26-2.26-8.23v-.58l3.38-.77c-1.44-.9-1-2.63-1-4.23s0-3.44,0-5.16c0-2.93-.07-3.07-2.49-4.85l5.77-1.24,6,1.27c-3.47,1.38-2.56,4.21-2.58,6.68-.05,6.87,0,13.74,0,20.62,0,2.64.63,3.26,3.26,3.28.45,0,.89,0,1.34,0,3.75.3,6.95-.31,7.75-5Z"/><path class="cls-7" d="M294.74,105.32v6.17c-3.15.88-6.76-1-9.56,1.49-3.88-2.54-8.27-.53-12.6-1.59,3.88-1.92,2.69-5.29,2.64-8.13S276.53,97,273,95.07c1-1.45,1.08-1.47,3-1.22a32.16,32.16,0,0,1-.64-3.77c-.12-1.78-.07-3.56,0-5.35,0-2.14.15-4.29-3.1-5.18l6.49-1.4,5.84,1.33c-3.33,1.23-2.64,3.89-2.65,6.28q0,10.5,0,21c0,2.66.59,3.22,3.27,3.25.45,0,.89,0,1.34,0,3.74.28,6.95-.31,7.73-5Z"/><path class="cls-7" d="M146.75,94a30,30,0,0,1-.74-3.82,48.76,48.76,0,0,1,0-5.54c.09-2.12-.05-4.08-2.79-5.11l6.1-1.34,6.2,1.34c-3.64,1.09-2.89,3.78-2.91,6.09-.06,7.14,0,14.27,0,21.4,0,1.91.39,3.52,3.07,4.21l-6.45,1.36-5.74-1.29c3.2-1.34,2.5-4,2.53-6.49,0-1.72,0-3.44,0-5.16.06-2-.25-3.69-2.39-4.57A2.3,2.3,0,0,1,146.75,94Z"/><path class="cls-7" d="M267,126.3c-2.37,1.13-2.29,3.18-2.28,5.28q.06,10.69,0,21.38c0,2.15-.11,4.27,2.84,5.25l-6.23,1.34-5.71-1.27c3.75-1.84,2.53-5.21,2.48-8.06s1.37-6.26-2.29-8.21c.91-1.81,2.34-1.28,3.86-.95-2-1.12-1.47-2.93-1.49-4.57s0-3.18,0-4.77c0-2.15.13-4.29-2.43-5.41l5.86-1.16Z"/><path class="cls-7" d="M136.28,141a64,64,0,0,1-.81,6.92,5.41,5.41,0,0,1-1.93,3.11,5.8,5.8,0,0,1-3.79,1c-1.52-.22-1.59-1.88-1.83-3.22a32.26,32.26,0,0,1,0-10.05c.42-3,1.91-4.47,4.62-4.68,2-.15,3,.53,3.34,2.53C136.13,138.19,136.18,139.79,136.28,141Zm-3.36-.51h0a1.92,1.92,0,0,0,0-.76c-.34-.69-.75-1.36-1.13-2-.35.66-.95,1.31-1,2-.12,2.52-.12,5,0,7.56,0,.61.67,1.19,1,1.78.37-.58,1-1.15,1.05-1.74C133,145.05,132.92,142.78,132.92,140.51Z"/><path class="cls-7" d="M141.56,137.43a14.67,14.67,0,0,0,.22,3.41,3,3,0,0,1-1.66,4l-2.08-.7V130.79c.4-.31,1.12-.91,1.9-1.41a2.08,2.08,0,0,1,1.09-.23,8.27,8.27,0,0,0,2,.11,3,3,0,0,1,3.63,1.31,3.62,3.62,0,0,1-.19,4.28c-.37.51-.84.94-1.41,1.57,2.44,1.09,2.48,3.36,2.79,6.06h-3.22a21.31,21.31,0,0,0-.7-4.15C143.78,137.88,142.61,137.8,141.56,137.43Zm-.2-1.61c1.76-.14,3.08-.56,3-2.35,0-.58-.9-1.14-1.38-1.71-.45.43-1.11.78-1.3,1.3A12.72,12.72,0,0,0,141.36,135.82Z"/><path class="cls-7" d="M121.82,155.18c-1.69,1.52-3.1,1.19-4.53,0,.92-4.21,1.33-8.52-.39-13.11l8.79-1.25v3.71c-1-.19-1.65-.35-2.32-.43-1.2-.14-2.2.1-2.27,1.58-.06,1.17,0,2.23,1.74,1.86.29-.07,1.15.83,1.09,1.19-.09.55-.81,1.51-1.12,1.45-2.4-.41-1.72,1.28-1.64,2.38A13.26,13.26,0,0,0,121.82,155.18Z"/><path class="cls-7" d="M130,155.72c.3-.34.38-.51.46-.51,4.26,0,6.67-2.9,9.25-5.69a28.14,28.14,0,0,1,4.66-3.82,4.43,4.43,0,0,1,1.93-.35c-2.27,2.52-4.56,5.1-6.88,7.65-2,2.14-4.2,3.75-7.3,3.43A11.22,11.22,0,0,1,130,155.72Z"/><path class="cls-7" d="M118.29,137c1.51-.2,2.69,0,3.4-.52,1.64-1.16,3-2.7,4.57-4a35.14,35.14,0,0,1,5.19-3.79,8.06,8.06,0,0,1,4.14-.45c-3.73.71-6,3.49-8.57,5.74a41.07,41.07,0,0,1-5.06,4,5,5,0,0,1-3.06.29C118.58,138.19,118.38,137.16,118.29,137Z"/><path class="cls-7" d="M139.86,156.65c1.3-1.86,2.43-3.51,3.59-5.13,1-1.37,1.88-1.75,4.15-1.57C143.86,151.17,144.24,156.31,139.86,156.65Z"/><path class="cls-7" d="M127.16,129c-2.62,1.35-4.06,5.58-8.14,3.34,2,.48,3.16-.92,4.37-2.14C124.4,129.18,125.45,128.15,127.16,129Z"/></g><path class="cls-8" d="M268.24,209.11H227.67v-22h-22.8v22H164.3a1,1,0,0,0-1,1v7.27a1,1,0,0,0,1,1H268.24a1,1,0,0,0,1-1v-7.27A1,1,0,0,0,268.24,209.11Z"/><rect class="cls-7" x="82.85" y="238.42" width="88.08" height="16.18"/><path class="cls-9" d="M161.74,250.16h17.07c3.64,0,6,1.56,7.74,5.15l4.09,8.9c1.44,3.6-.93,6.08-5.56,6.08H68.7c-4.64,0-7-2.48-5.56-6.08l4.08-8.9c1.78-3.59,4.11-5.15,7.74-5.15h86.78Z"/><rect class="cls-9" x="118.74" y="183.32" width="16.3" height="5.75" rx="2.23"/><rect class="cls-9" x="121.02" y="188.81" width="11.74" height="7.19" rx="1"/><path class="cls-9" d="M154.08,239.38H77.74c-3.95,0-2.27-4.59-2.27-4.59a52.94,52.94,0,0,1,102.94-.09s1.49,4.8-2.76,4.8Z"/><rect class="cls-9" x="70.81" y="232.67" width="112.17" height="8.27" rx="3.21"/><rect class="cls-10" x="173.85" y="44.99" width="84.84" height="11.49" rx="1"/><rect class="cls-11" x="205.9" y="193.91" width="20.72" height="3.83"/><rect class="cls-10" x="173.85" y="181.45" width="84.84" height="11.49" rx="1"/><path class="cls-12" d="M120.4,199.08c-18.55,9-22.43,29.3-22.43,29.3H86.81c6.63-19.57,25.28-27.28,33.21-29.73,0,0,.34-.16.46,0S120.4,199.08,120.4,199.08Z"/><path class="cls-4" d="M38.59,226.81h0l-.19,0-.36-.07c-3.08-.66-4.42-3.62-4.86-4.89a2.26,2.26,0,0,0-4.42-.36l0-.2s-1.05,4.48-4.83,5.45a2,2,0,0,0-.49.09l-.27.05.05,0a2.27,2.27,0,0,0,.16,4.25l-.08,0c3.51.4,5,3.71,5.42,5a2.27,2.27,0,0,0,4.5-.16c.43-1.24,1.68-4,4.48-4.79h.12a2.27,2.27,0,0,0,.76-4.41Z"/><path class="cls-5" d="M124.92,318.13l0,0-.21-.05-.4-.1c-3.46-.94-4.8-4.38-5.22-5.85a2.57,2.57,0,0,0-2.42-2.39,2.6,2.6,0,0,0-2.57,1.72l0-.23s-1.46,5-5.8,5.88a2.7,2.7,0,0,0-.57.08l-.31,0,.06,0a2.58,2.58,0,0,0-.08,4.83l-.1,0c4,.67,5.42,4.52,5.85,6.05a2.57,2.57,0,0,0,5.11.09c.56-1.38,2.14-4.41,5.37-5.15h.14a2.57,2.57,0,0,0,1.13-4.95Z"/><path class="cls-4" d="M268.2,309.69h0l-.19,0a1.93,1.93,0,0,0-.36-.06c-3.08-.67-4.42-3.63-4.86-4.9a2.26,2.26,0,0,0-4.42-.36l0-.2s-1,4.49-4.82,5.45a2,2,0,0,0-.49.09l-.28,0,.05,0A2.27,2.27,0,0,0,253,314l-.09,0c3.52.41,5,3.72,5.43,5a2.26,2.26,0,0,0,4.49-.16c.43-1.23,1.68-4,4.48-4.78h.13a2.28,2.28,0,0,0,.76-4.42Z"/></g></g></svg>