<svg xmlns="http://www.w3.org/2000/svg" viewBox="0 0 360 360"><defs><style>.cls-1{isolation:isolate;}.cls-2,.cls-5{fill:#d0dbf4;}.cls-2,.cls-23{fill-rule:evenodd;}.cls-14,.cls-15,.cls-19,.cls-3{fill:none;}.cls-12,.cls-4{fill:#fcbf12;}.cls-11,.cls-6{mix-blend-mode:multiply;}.cls-11,.cls-7{fill:#e5e5e5;}.cls-13,.cls-23,.cls-8{fill:#fff;}.cls-12,.cls-13,.cls-14,.cls-16,.cls-17,.cls-18,.cls-20,.cls-21,.cls-8{stroke:#586ab1;}.cls-14,.cls-15,.cls-17,.cls-18,.cls-19,.cls-20,.cls-21,.cls-8{stroke-linecap:round;stroke-linejoin:round;}.cls-12,.cls-13,.cls-14,.cls-15,.cls-16,.cls-17,.cls-18,.cls-19,.cls-20,.cls-21,.cls-8{stroke-width:2px;}.cls-21,.cls-9{fill:#5cc5cd;}.cls-10,.cls-20{fill:#d1d1d1;}.cls-12,.cls-13,.cls-16{stroke-miterlimit:10;}.cls-15{stroke:#d1d1d1;}.cls-16{fill:#ffcc4d;}.cls-17{fill:#e8e8e8;}.cls-18,.cls-22{fill:#586ab1;}.cls-19{stroke:#d0dbf4;}</style></defs><title>resources-spot hero</title><g class="cls-1"><g id="Layer_1" data-name="Layer 1"><path class="cls-2" d="M178.25,312.56A127.31,127.31,0,1,0,51,185.25,127.31,127.31,0,0,0,178.25,312.56Z"/><rect class="cls-3" x="0.34" y="-0.09" width="360" height="360"/><path class="cls-4" d="M104.46,321.08l.05,0-.27-.05a2.86,2.86,0,0,0-.51-.09c-4.35-.94-6.24-5.12-6.86-6.92a3.19,3.19,0,0,0-6.23-.5l0-.28s-1.47,6.32-6.81,7.69a3.11,3.11,0,0,0-.69.12l-.39.08.08,0a3.21,3.21,0,0,0,.22,6l-.12,0c5,.57,7,5.25,7.66,7.12a3.2,3.2,0,0,0,6.35-.23c.6-1.74,2.36-5.61,6.31-6.75h.18a3.21,3.21,0,0,0,1.08-6.23Z"/><path class="cls-5" d="M34.92,190.55l0,0h-.16a1.62,1.62,0,0,0-.31,0c-2.68-.29-4.09-2.68-4.57-3.73a1.94,1.94,0,0,0-3.79.1l0-.17s-.49,3.9-3.61,5.06a2,2,0,0,0-.41.13,2,2,0,0,1-.23.06l.05,0a1.93,1.93,0,0,0,.52,3.59l-.07,0c3,0,4.56,2.71,5.06,3.8a1.94,1.94,0,0,0,3.81-.55c.25-1.08,1.06-3.53,3.37-4.46l.11,0a1.94,1.94,0,0,0,.25-3.81Z"/><path class="cls-5" d="M97,58.83h0l-.17,0a1.55,1.55,0,0,0-.31-.06c-2.63-.57-3.77-3.1-4.15-4.18a1.93,1.93,0,0,0-3.77-.31l0-.17s-.89,3.83-4.12,4.65a2.07,2.07,0,0,0-.42.08l-.23.05h0A1.94,1.94,0,0,0,84,62.49l-.07,0c3,.34,4.25,3.17,4.63,4.3a1.93,1.93,0,0,0,3.84-.14c.37-1.05,1.43-3.39,3.83-4.08h.1A1.94,1.94,0,0,0,97,58.83Z"/><g class="cls-6"><rect class="cls-7" x="173.62" y="80.79" width="100.27" height="140.18" rx="1" transform="translate(-26.26 49.27) rotate(-11.87)"/><rect class="cls-7" x="161.84" y="83.07" width="98.4" height="14.67" transform="translate(-14.09 45.36) rotate(-11.87)"/><rect class="cls-7" x="172.22" y="106.84" width="62.18" height="2.78" rx="1" transform="translate(-17.92 44.15) rotate(-11.87)"/><rect class="cls-7" x="174.15" y="116.02" width="62.18" height="2.78" rx="1" transform="translate(-19.77 44.74) rotate(-11.87)"/><rect class="cls-7" x="176.08" y="125.2" width="62.18" height="2.78" rx="1" transform="translate(-21.61 45.34) rotate(-11.87)"/><rect class="cls-7" x="179.13" y="138.51" width="84.77" height="2.78" rx="1" transform="translate(-24.05 48.57) rotate(-11.87)"/><rect class="cls-7" x="181.06" y="147.69" width="84.77" height="2.78" rx="1" transform="translate(-25.89 49.16) rotate(-11.87)"/><rect class="cls-7" x="182.99" y="156.87" width="84.77" height="2.78" rx="1" transform="translate(-27.74 49.76) rotate(-11.87)"/><rect class="cls-7" x="188.91" y="175.57" width="82.44" height="2.78" rx="1" transform="translate(-31.49 51.14) rotate(-11.87)"/><rect class="cls-7" x="190.84" y="184.75" width="82.44" height="2.78" rx="1" transform="translate(-33.33 51.73) rotate(-11.87)"/><rect class="cls-7" x="192.77" y="193.93" width="82.44" height="2.78" rx="1" transform="translate(-35.18 52.32) rotate(-11.87)"/><rect class="cls-7" x="242.23" y="97.13" width="15.63" height="21.89" transform="translate(-16.89 53.76) rotate(-11.87)"/></g><path class="cls-4" d="M68.65,78.2l0,0-.26-.05A3.86,3.86,0,0,0,68,78c-4.21-.91-6-5-6.63-6.69a3.09,3.09,0,0,0-6-.48l0-.27S53.82,76.71,48.67,78a3.46,3.46,0,0,0-.67.12c-.13,0-.25.06-.38.07l.07,0A3.09,3.09,0,0,0,47.91,84l-.12,0c4.8.55,6.8,5.07,7.41,6.87a3.09,3.09,0,0,0,6.13-.22c.59-1.68,2.29-5.42,6.11-6.52h.17a3.1,3.1,0,0,0,1-6Z"/><rect class="cls-8" x="168.01" y="77.06" width="100.27" height="140.18" rx="1" transform="translate(-25.61 48.03) rotate(-11.87)"/><rect class="cls-9" x="156.23" y="79.34" width="98.4" height="14.67" transform="translate(-13.44 44.12) rotate(-11.87)"/><rect class="cls-10" x="166.62" y="103.1" width="62.18" height="2.78" rx="1" transform="translate(-17.27 42.92) rotate(-11.87)"/><rect class="cls-10" x="168.55" y="112.28" width="62.18" height="2.78" rx="1" transform="translate(-19.12 43.51) rotate(-11.87)"/><rect class="cls-10" x="170.48" y="121.46" width="62.18" height="2.78" rx="1" transform="translate(-20.96 44.1) rotate(-11.87)"/><rect class="cls-10" x="173.52" y="134.78" width="84.77" height="2.78" rx="1" transform="translate(-23.4 47.34) rotate(-11.87)"/><rect class="cls-10" x="175.45" y="143.96" width="84.77" height="2.78" rx="1" transform="translate(-25.24 47.93) rotate(-11.87)"/><rect class="cls-10" x="177.38" y="153.14" width="84.77" height="2.78" rx="1" transform="matrix(0.98, -0.21, 0.21, 0.98, -27.09, 48.52)"/><rect class="cls-10" x="183.31" y="171.84" width="82.44" height="2.78" rx="1" transform="translate(-30.84 49.9) rotate(-11.87)"/><rect class="cls-10" x="185.24" y="181.02" width="82.44" height="2.78" rx="1" transform="translate(-32.69 50.5) rotate(-11.87)"/><rect class="cls-10" x="187.17" y="190.19" width="82.44" height="2.78" rx="1" transform="translate(-34.53 51.09) rotate(-11.87)"/><rect class="cls-5" x="236.63" y="93.4" width="15.63" height="21.89" transform="translate(-16.24 52.53) rotate(-11.87)"/><path class="cls-4" d="M310.26,89.41l0,0-.23,0a3,3,0,0,0-.42,0c-3.61-.38-5.5-3.61-6.16-5a2.6,2.6,0,0,0-5.1.13l-.06-.22s-.65,5.26-4.86,6.82a2.66,2.66,0,0,0-.55.16l-.31.1h.06a2.61,2.61,0,0,0,.7,4.84l-.09,0c4.07,0,6.15,3.65,6.82,5.11a2.61,2.61,0,0,0,5.13-.73c.34-1.47,1.44-4.76,4.55-6l.14,0a2.61,2.61,0,0,0,.34-5.14Z"/><path class="cls-11" d="M222.47,324.73l-5.69-2.47-4.56,2.47L206.1,322l-5.21,2.74-4.69-2.43-5.39,2.43L186.12,322l-5.56,2.78-4-2.08-4.3,2.08a1.87,1.87,0,0,1-1.87-1.87V236.71a1.87,1.87,0,0,1,1.87-1.87h50.2a1.87,1.87,0,0,1,1.87,1.87v86.15A1.87,1.87,0,0,1,222.47,324.73Z"/><path class="cls-11" d="M159.69,104.45l5.56-3.12a1.87,1.87,0,0,1,2.6.46l17.55,25.14a1.87,1.87,0,0,1-.46,2.6L180,133.65l.27.39,63.51,91a1.87,1.87,0,0,1-.46,2.6l-110.18,76.9a1.87,1.87,0,0,1-2.6-.46L34.87,167a1.87,1.87,0,0,1,.46-2.6L145.5,87.44a1.88,1.88,0,0,1,2.6.47l11.33,16.16Z"/><path class="cls-12" d="M160.67,95.77l5.56-3.13a1.87,1.87,0,0,1,2.6.46l17.55,25.14a1.87,1.87,0,0,1-.47,2.6L181,125l.28.39,63.5,91a1.87,1.87,0,0,1-.46,2.6L134.15,295.84a1.88,1.88,0,0,1-2.6-.47L35.84,158.26a1.87,1.87,0,0,1,.46-2.6l110.18-76.9a1.87,1.87,0,0,1,2.6.46l11.33,16.16Z"/><rect class="cls-13" x="86.26" y="133.79" width="61.49" height="30.22" rx="2" transform="matrix(0.82, -0.57, 0.57, 0.82, -64.16, 93.77)"/><line class="cls-14" x1="48.6" y1="158.94" x2="136.29" y2="284.57"/><rect class="cls-5" x="87.75" y="143.01" width="52.5" height="3.24" rx="1" transform="translate(-61.94 90.24) rotate(-34.58)"/><path class="cls-5" d="M127.15,148,99.37,167.28a.94.94,0,0,1-1.3-.24l-.78-1.13a.94.94,0,0,1,.24-1.3l27.78-19.26a.93.93,0,0,1,1.3.23l.78,1.13A.94.94,0,0,1,127.15,148Z"/><g class="cls-6"><rect class="cls-7" x="193.77" y="126.84" width="130.39" height="61.12" rx="1" transform="translate(-12.79 23.28) rotate(-5.02)"/><path class="cls-7" d="M263.51,165.31l57-44-128.8,11.32,64,33.3S260.1,167.91,263.51,165.31Z"/><line class="cls-7" x1="197.3" y1="192.68" x2="245.2" y2="160.66"/><line class="cls-7" x1="326.1" y1="181.36" x2="273.35" y2="158.18"/></g><path class="cls-8" d="M228.61,318.59l-5.68-2.48-4.56,2.48-6.13-2.74L207,318.59l-4.69-2.44L197,318.59l-4.69-2.78-5.56,2.78-4-2.09-4.3,2.09a1.87,1.87,0,0,1-1.86-1.87V230.56a1.87,1.87,0,0,1,1.86-1.86h50.2a1.87,1.87,0,0,1,1.87,1.86v86.16A1.87,1.87,0,0,1,228.61,318.59Z"/><circle class="cls-5" cx="203.51" cy="242.16" r="7.82"/><rect class="cls-10" x="182.41" y="262.48" width="25.36" height="2.78" rx="1"/><rect class="cls-10" x="213.5" y="262.48" width="11.36" height="2.78" rx="1"/><rect class="cls-10" x="182.41" y="269.69" width="25.36" height="2.78" rx="1"/><rect class="cls-10" x="213.5" y="269.69" width="11.36" height="2.78" rx="1"/><rect class="cls-10" x="182.41" y="276.9" width="25.36" height="2.78" rx="1"/><rect class="cls-10" x="213.5" y="276.9" width="11.36" height="2.78" rx="1"/><line class="cls-15" x1="183.04" y1="287.65" x2="224.73" y2="287.65"/><line class="cls-15" x1="183.04" y1="256.03" x2="224.73" y2="256.03"/><rect class="cls-11" x="268.02" y="234.34" width="58.36" height="55.76" rx="1" transform="translate(-82.06 147.13) rotate(-24.54)"/><rect class="cls-16" x="271.76" y="226.87" width="58.36" height="55.76" rx="1" transform="translate(-78.62 148.01) rotate(-24.54)"/><rect class="cls-17" x="198.1" y="120.6" width="130.39" height="61.12" rx="1" transform="translate(-12.23 23.64) rotate(-5.02)"/><path class="cls-8" d="M267.85,159.06l57-44L196.08,126.39l64,33.3S264.44,161.67,267.85,159.06Z"/><line class="cls-14" x1="201.64" y1="186.44" x2="249.54" y2="154.41"/><line class="cls-14" x1="330.44" y1="175.12" x2="277.68" y2="151.94"/><rect class="cls-11" x="247.4" y="240.07" width="58.36" height="55.76" rx="1" transform="translate(-32.48 38.22) rotate(-7.47)"/><circle class="cls-11" cx="72.55" cy="265.88" r="35.23"/><path class="cls-8" d="M55.68,278.15,43.25,292.69a3.89,3.89,0,0,1-5.48.43l-5-4.24a3.89,3.89,0,0,1-.43-5.48l12.43-14.55"/><circle class="cls-8" cx="71.58" cy="246.92" r="39.19"/><circle class="cls-18" cx="71.58" cy="246.92" r="31.35"/><path class="cls-19" d="M90.07,230a26.18,26.18,0,0,1-4.37,37.29c-.5.39-1,.75-1.54,1.1s-1.25.78-1.89,1.14a26.07,26.07,0,0,1-12.52,3.18"/><path class="cls-19" d="M81.07,222.92a26.55,26.55,0,0,1,4.72,2.92"/><rect class="cls-16" x="251.13" y="232.6" width="58.36" height="55.76" rx="1" transform="matrix(0.99, -0.13, 0.13, 0.99, -31.48, 38.64)"/><g class="cls-6"><polygon class="cls-7" points="193.86 213.23 186.34 206.51 187.31 203.97 201.62 208.71 196.87 216.01 193.86 213.23"/><rect class="cls-7" x="285.11" y="260.14" width="4.27" height="10.47" rx="1" transform="translate(662.53 155.38) rotate(120.93)"/><rect class="cls-7" x="236.51" y="186.13" width="8.61" height="102.85" rx="2" transform="matrix(-0.51, 0.86, -0.86, -0.51, 568.38, 153.09)"/><path class="cls-7" d="M283.64,257.27l1.07-1.78-1.15-1a179.19,179.19,0,0,0-24.8-15.78l-.71,1.19a2.87,2.87,0,0,1,1.15,1.84l1.64,1.21,2.14-.44s11.73,7,14.07,9.7l-.4.68a5.21,5.21,0,0,0-4.78,2.55c-1.61,2.85,1.47,6.42,1.47,6.42l5.72,3.43.35-.6s-3.39-2.38-2.37-5.23S283.57,257.23,283.64,257.27Z"/><line class="cls-7" x1="264.45" y1="246.92" x2="260.22" y2="253.98"/><line class="cls-7" x1="216.04" y1="218.01" x2="211.89" y2="224.93"/><line class="cls-7" x1="212.42" y1="215.84" x2="208.27" y2="222.76"/><line class="cls-7" x1="208.79" y1="213.67" x2="204.65" y2="220.59"/><line class="cls-7" x1="205.17" y1="211.5" x2="201.03" y2="218.42"/><polyline class="cls-7" points="199.13 207.9 187.31 203.97 185.97 206.22 195.01 214.78"/><path class="cls-7" d="M183.78,203.38h0a.69.69,0,0,1,.95-.24l2.11.5c.26-.09,0,1.1-.24,1.43h0c-.19.33-.82.85-1.15.65L184,204.34A.7.7,0,0,1,183.78,203.38Z"/></g><polygon class="cls-10" points="192.93 207.63 185.4 200.91 186.38 198.37 200.69 203.11 195.94 210.41 192.93 207.63"/><rect class="cls-20" x="284.18" y="254.54" width="4.27" height="10.47" rx="1" transform="translate(656.31 147.7) rotate(120.93)"/><rect class="cls-21" x="235.58" y="180.53" width="8.61" height="102.85" rx="2" transform="translate(562.16 145.41) rotate(120.93)"/><path class="cls-22" d="M282.71,251.67l1.07-1.79-1.15-1a179.19,179.19,0,0,0-24.8-15.78l-.72,1.18a3,3,0,0,1,1.16,1.85l1.64,1.21,2.14-.45s11.73,7,14.07,9.71l-.41.67a5.23,5.23,0,0,0-4.78,2.56c-1.6,2.84,1.47,6.42,1.47,6.42l5.72,3.43.36-.6s-3.4-2.38-2.38-5.23S282.64,251.62,282.71,251.67Z"/><line class="cls-14" x1="263.51" y1="241.32" x2="259.28" y2="248.38"/><line class="cls-14" x1="215.1" y1="212.41" x2="210.96" y2="219.32"/><line class="cls-14" x1="211.48" y1="210.24" x2="207.34" y2="217.15"/><line class="cls-14" x1="207.86" y1="208.07" x2="203.72" y2="214.98"/><line class="cls-14" x1="204.24" y1="205.9" x2="200.09" y2="212.81"/><polyline class="cls-14" points="198.2 202.3 186.38 198.37 185.03 200.62 194.07 209.18"/><path class="cls-22" d="M182.85,197.78h0a.69.69,0,0,1,1-.24l2.11.5c.26-.09,0,1.1-.24,1.43h0c-.2.33-.83.85-1.15.65l-1.43-1.39A.69.69,0,0,1,182.85,197.78Z"/><path class="cls-5" d="M346.26,205.86l0,0-.2,0a2.31,2.31,0,0,0-.37,0c-3.21-.34-4.89-3.2-5.47-4.45a2.31,2.31,0,0,0-4.53.11l-.06-.2s-.58,4.67-4.31,6.06a2,2,0,0,0-.49.15l-.27.08h0a2.32,2.32,0,0,0,.62,4.3l-.08,0c3.62,0,5.46,3.24,6.06,4.54a2.31,2.31,0,0,0,4.55-.65c.3-1.3,1.28-4.22,4-5.34l.13,0a2.32,2.32,0,0,0,.3-4.56Z"/><path class="cls-4" d="M279.6,321.89l0,0h-.18a1.84,1.84,0,0,0-.33,0c-2.89-.31-4.4-2.88-4.92-4a2.08,2.08,0,0,0-4.08.11l-.05-.18s-.52,4.2-3.88,5.45a2,2,0,0,0-.44.13l-.25.07h.05a2.09,2.09,0,0,0,.56,3.87l-.07,0c3.25,0,4.91,2.92,5.45,4.08a2.08,2.08,0,0,0,4.09-.58c.28-1.17,1.15-3.8,3.64-4.81h.11a2.11,2.11,0,0,0,1.86-2.31A2.07,2.07,0,0,0,279.6,321.89Z"/><path class="cls-4" d="M203.71,30.05l0,0-.22,0a2.83,2.83,0,0,0-.41,0c-3.5-.37-5.33-3.5-6-4.86a2.52,2.52,0,0,0-4.94.12l-.06-.22s-.63,5.1-4.71,6.62a2.18,2.18,0,0,0-.53.15c-.11,0-.2.07-.3.09l.06,0a2.53,2.53,0,0,0,.67,4.69l-.09,0c3.95,0,6,3.53,6.62,5a2.53,2.53,0,0,0,5-.71c.33-1.42,1.39-4.61,4.4-5.83l.14,0a2.53,2.53,0,0,0,.33-5Z"/><path class="cls-22" d="M211.05,304.49l4.19,1.41v2.35l-6.77-2.76v-2l6.77-2.76V303Z"/><path class="cls-22" d="M222.13,304.47,218,303.05v-2.34l6.73,2.75v2L218,308.26v-2.35Z"/><circle class="cls-22" cx="264.73" cy="157.56" r="9.47"/><path class="cls-23" d="M260.28,156.28a1.05,1.05,0,1,0-1,1.14,1.06,1.06,0,0,0,1-1.14"/><path class="cls-23" d="M262.22,157.92a1,1,0,1,0-1,1.15,1.05,1.05,0,0,0,1-1.15"/><path class="cls-23" d="M264.15,159.53a1,1,0,1,0-.95,1.15,1.05,1.05,0,0,0,.95-1.15"/><path class="cls-23" d="M264.48,163.08a1.05,1.05,0,0,0-1.14-1,1,1,0,1,0,1.14,1"/><path class="cls-23" d="M266.12,161.14a1.05,1.05,0,1,0-1,1.14,1.06,1.06,0,0,0,1-1.14"/><path class="cls-23" d="M267.74,159.21a1,1,0,1,0-2.09.19,1,1,0,1,0,2.09-.19"/><path class="cls-23" d="M271.29,158.86a1.05,1.05,0,0,0-1.14-1,1,1,0,1,0,1.14,1"/><path class="cls-23" d="M269.34,157.25a1,1,0,1,0-.95,1.14,1,1,0,0,0,.95-1.14"/><path class="cls-23" d="M267.41,155.63a1.05,1.05,0,1,0-1,1.14,1.05,1.05,0,0,0,1-1.14"/><path class="cls-23" d="M263.83,156a1.05,1.05,0,1,0-.95,1.14,1.07,1.07,0,0,0,.95-1.14"/><path class="cls-23" d="M265.46,154a1,1,0,1,0-.95,1.14,1,1,0,0,0,.95-1.14"/><path class="cls-23" d="M267.07,152.08a1,1,0,1,0-2.09.2,1.06,1.06,0,0,0,1.14.95,1.05,1.05,0,0,0,.95-1.15"/></g></g></svg>