<svg xmlns="http://www.w3.org/2000/svg" viewBox="0 0 360 360"><defs><style>.cls-1{isolation:isolate;}.cls-2,.cls-4{fill:#d0dbf4;}.cls-2{fill-rule:evenodd;}.cls-10,.cls-15,.cls-3{fill:#fcbf12;}.cls-5{fill:#5cc5cd;}.cls-10,.cls-12,.cls-13,.cls-5,.cls-8,.cls-9{stroke:#586ab1;}.cls-10,.cls-12,.cls-13,.cls-5,.cls-9{stroke-miterlimit:10;}.cls-10,.cls-12,.cls-13,.cls-16,.cls-5,.cls-8,.cls-9{stroke-width:2px;}.cls-6{opacity:0.51;}.cls-7{fill:#449ea0;}.cls-13,.cls-14,.cls-16,.cls-8{fill:none;}.cls-14,.cls-16,.cls-8{stroke-linecap:round;stroke-linejoin:round;}.cls-9{fill:#b4b4b5;}.cls-11,.cls-17{fill:#fff;}.cls-11{opacity:0.49;}.cls-12{fill:#d1d1d1;}.cls-14,.cls-16{stroke:#fff;}.cls-14{stroke-width:5px;}.cls-15{opacity:0.5;mix-blend-mode:multiply;}</style></defs><title>search results-spot hero</title><g class="cls-1"><g id="Layer_1" data-name="Layer 1"><path class="cls-2" d="M178.13,306.63A127.36,127.36,0,1,0,50.77,179.27,127.37,127.37,0,0,0,178.13,306.63Z"/><path class="cls-3" d="M344.15,141.38l.06,0a2.65,2.65,0,0,1-.3-.06,3.78,3.78,0,0,0-.57-.1c-4.88-1-7-5.74-7.69-7.76a3.58,3.58,0,0,0-7-.56l-.05-.32s-1.66,7.1-7.63,8.62a3.37,3.37,0,0,0-.78.15l-.43.08.08,0a3.59,3.59,0,0,0,.25,6.72l-.13.05c5.56.64,7.87,5.88,8.58,8a3.58,3.58,0,0,0,7.11-.25c.68-2,2.66-6.29,7.09-7.57h.2a3.59,3.59,0,0,0,1.2-7Z"/><path class="cls-4" d="M342.94,187.7h0a.76.76,0,0,1-.16,0l-.3,0c-2.58-.56-3.7-3-4.06-4.09a1.89,1.89,0,0,0-3.69-.3l0-.17s-.88,3.75-4,4.55a1.86,1.86,0,0,0-.41.08l-.23,0h0a1.91,1.91,0,0,0-1.16,1.76,1.89,1.89,0,0,0,1.3,1.79l-.08,0c2.94.33,4.16,3.1,4.53,4.21a1.9,1.9,0,0,0,3.76-.14,6.08,6.08,0,0,1,3.73-4h.11a1.9,1.9,0,0,0,.64-3.69Z"/><path class="cls-3" d="M42.45,128.11h0l-.24,0a2,2,0,0,0-.43-.08c-3.69-.8-5.3-4.35-5.83-5.88a2.71,2.71,0,0,0-5.3-.43l0-.24s-1.25,5.38-5.79,6.54a2.29,2.29,0,0,0-.58.11,3.23,3.23,0,0,0-.33.06l.06,0a2.72,2.72,0,0,0,.19,5.1l-.1,0c4.22.49,6,4.46,6.51,6.05a2.72,2.72,0,0,0,5.39-.19c.52-1.48,2-4.77,5.38-5.74h.15a2.73,2.73,0,0,0,.91-5.3Z"/><circle class="cls-5" cx="255.07" cy="98.12" r="57.74"/><g class="cls-6"><circle class="cls-7" cx="224.94" cy="108.57" r="12.1"/><circle class="cls-7" cx="224.76" cy="77.16" r="5.99"/><circle class="cls-7" cx="243.76" cy="88.35" r="8.08"/><circle class="cls-7" cx="254.83" cy="128.69" r="4.55"/><circle class="cls-7" cx="241.17" cy="59.21" r="4.15"/></g><line class="cls-8" x1="63.08" y1="326.15" x2="327.09" y2="326.15"/><path class="cls-3" d="M77,280.66l0,0-.21,0a2.33,2.33,0,0,0-.38-.08c-3.32-.71-4.76-3.89-5.23-5.26a2.43,2.43,0,0,0-4.75-.39l0-.21s-1.13,4.82-5.19,5.86a2.35,2.35,0,0,0-.53.09c-.1,0-.19.05-.29.06l.05,0a2.44,2.44,0,0,0,.17,4.57l-.09,0c3.78.44,5.35,4,5.84,5.42a2.43,2.43,0,0,0,4.83-.17c.46-1.33,1.8-4.28,4.82-5.15h.13a2.44,2.44,0,0,0,.82-4.74Z"/><path class="cls-4" d="M48.41,244.69l0,0-.18,0a2,2,0,0,0-.35-.06c-2.95-.64-4.23-3.48-4.65-4.7a2.17,2.17,0,0,0-4.24-.34l0-.19s-1,4.29-4.62,5.22a1.78,1.78,0,0,0-.47.09l-.27.05h0a2.19,2.19,0,0,0-1.33,2,2.16,2.16,0,0,0,1.49,2.06l-.08,0c3.37.39,4.77,3.57,5.2,4.84a2.17,2.17,0,0,0,4.31-.16c.41-1.18,1.6-3.81,4.29-4.58h.12a2.18,2.18,0,0,0,.73-4.23Z"/><polyline class="cls-9" points="229.91 252.06 229.84 264.66 216.66 264.59 216.76 245.72"/><polyline class="cls-9" points="227.19 270.75 225.82 324.68 219.8 324.66 219.28 270.72"/><polyline class="cls-9" points="212.17 270.72 188.14 324.56 182.12 324.54 204.27 270.69"/><polyline class="cls-9" points="234.34 270.76 257.53 324.78 263.54 324.8 242.25 270.79"/><rect class="cls-10" x="200.56" y="262.77" width="45.52" height="9.96" rx="1" transform="translate(1.44 -1.2) rotate(0.31)"/><path class="cls-11" d="M111.48,163.89s-10.68,4.18-15.32,19.26c0,0-3.25,15-.35,22.92Z"/><polyline class="cls-10" points="302.21 241.44 340.11 254.56 332.63 276.15 294.73 263.03"/><path class="cls-10" d="M204.21,195.86l98.32,34c1.7.59,2.26,3.47,1.25,6.4L298.68,251l-5.89,17c-1,2.93-3.24,4.84-4.94,4.25l-98.32-34"/><path class="cls-12" d="M197.86,188.87l6.49,2.18c1.86.64.75,3.27-.37,6.48l-13.59,39.25c-1.11,3.21-2.08,5.79-3.95,5.15l-6.22-2.13"/><path class="cls-10" d="M176,240.83,97.38,213.68a3.33,3.33,0,0,1-2-4.23l17-49.13a3.33,3.33,0,0,1,4.23-2l78.58,27.15a3.34,3.34,0,0,1,2,4.23l-17,49.13A3.34,3.34,0,0,1,176,240.83Z"/><path class="cls-10" d="M336.81,281l-4.9-1.8a1.46,1.46,0,0,1-.58-1.93l8.15-23.53c.29-.85,1-1.37,1.65-1.16l4.9,1.74a1.46,1.46,0,0,1,.58,1.93l-8.15,23.59C338.16,280.71,337.42,281.23,336.81,281Z"/><path class="cls-13" d="M111.71,162.61l-1.2.64a39.69,39.69,0,0,0-14.7,42.82l.35.64"/><line class="cls-14" x1="117.93" y1="172.37" x2="184.2" y2="195.26"/><line class="cls-14" x1="211.84" y1="210.61" x2="289.23" y2="237.39"/><path class="cls-15" d="M99.84,199.6l82.84,28.73-3.36,9.89a2.41,2.41,0,0,1-2.61,1.75c-.61,0-79.23-27.41-79.23-27.41s-2-.58-.94-3.47C97.54,206.41,99.84,199.6,99.84,199.6Z"/><rect class="cls-9" x="180.07" y="321.29" width="11.14" height="3.62" rx="0.84"/><rect class="cls-9" x="217.15" y="321.29" width="11.14" height="3.62" rx="0.84"/><rect class="cls-9" x="254.35" y="321.29" width="11.14" height="3.62" rx="0.84"/><path class="cls-15" d="M288.27,271.37l-96.9-33.8,4.76-13.74L295,258.3l-3.51,10.14S290.24,271.41,288.27,271.37Z"/><rect class="cls-15" x="296.13" y="260.76" width="37.37" height="7.9" transform="translate(103.28 -88.04) rotate(18.99)"/><rect class="cls-15" x="333.8" y="268.47" width="5.36" height="10.89" transform="matrix(0.95, 0.33, -0.33, 0.95, 107.46, -94.59)"/><path class="cls-4" d="M74.45,68.93h0l-.16,0a1.33,1.33,0,0,0-.3-.06c-2.57-.55-3.69-3-4-4.09a1.89,1.89,0,0,0-3.69-.29l0-.17s-.87,3.74-4,4.55a1.76,1.76,0,0,0-.41.07.93.93,0,0,1-.23,0l0,0a1.9,1.9,0,0,0,.13,3.55l-.07,0c2.94.34,4.16,3.11,4.53,4.21A1.9,1.9,0,0,0,70,76.61a6.11,6.11,0,0,1,3.73-4h.11a1.89,1.89,0,0,0,.63-3.68Z"/><path class="cls-16" d="M158.65,102.2s-40-2.24-70.52,31.13"/><path class="cls-16" d="M163.81,92.1s-49.33-2.41-75.52,40.14"/><path class="cls-16" d="M164,111.94s-49.52-2.07-74.75,19.89"/><polygon class="cls-3" points="165.45 88.17 172.25 96.89 183.28 96.24 177.09 105.4 181.12 115.69 170.5 112.63 161.95 119.65 161.58 108.6 152.27 102.64 162.66 98.87 165.45 88.17"/><path class="cls-17" d="M131.48,255.13l0,0-.22,0a3,3,0,0,0-.43-.08c-3.65-.78-5.23-4.29-5.75-5.8a2.68,2.68,0,0,0-5.23-.42l0-.24s-1.24,5.31-5.71,6.45a2.83,2.83,0,0,0-.58.11,3.23,3.23,0,0,1-.33.06l.06,0a2.69,2.69,0,0,0,.19,5l-.1,0c4.17.48,5.9,4.4,6.43,6a2.68,2.68,0,0,0,5.32-.2c.51-1.46,2-4.7,5.3-5.66h.15a2.69,2.69,0,0,0,.9-5.22Z"/><path class="cls-17" d="M269.13,179.06h0l-.16,0a1.35,1.35,0,0,0-.29-.05c-2.49-.54-3.57-2.93-3.92-4a1.83,1.83,0,0,0-3.58-.29l0-.16s-.85,3.62-3.9,4.4a2.57,2.57,0,0,0-.4.07l-.22.05h0a1.84,1.84,0,0,0-1.12,1.7,1.81,1.81,0,0,0,1.25,1.73l-.07,0c2.85.33,4,3,4.39,4.07a1.83,1.83,0,0,0,3.63-.13,5.91,5.91,0,0,1,3.62-3.86h.11a1.84,1.84,0,0,0,.61-3.57Z"/><path class="cls-17" d="M163.33,272h0l-.14,0-.26-.05c-2.27-.48-3.25-2.66-3.57-3.59a1.67,1.67,0,0,0-3.25-.27l0-.14s-.77,3.29-3.54,4a1.93,1.93,0,0,0-.36.06l-.2,0,0,0a1.66,1.66,0,0,0-1,1.54,1.68,1.68,0,0,0,1.14,1.58l-.06,0c2.58.3,3.65,2.73,4,3.7a1.67,1.67,0,0,0,3.31-.12,5.34,5.34,0,0,1,3.28-3.51h.1a1.67,1.67,0,0,0,.56-3.24Z"/></g></g></svg>