<svg id="Layer_1" data-name="Layer 1" xmlns="http://www.w3.org/2000/svg" viewBox="0 0 360 360"><defs><style>.cls-1,.cls-3{fill:#d0dbf4;}.cls-1{fill-rule:evenodd;}.cls-2{fill:#fcbf12;}.cls-4,.cls-5{fill:#5cc5cd;}.cls-4,.cls-5,.cls-6{stroke:#586ab1;stroke-linejoin:round;stroke-width:2px;}.cls-4{stroke-linecap:round;}.cls-6{fill:#fff;}</style></defs><title>typography-spot hero</title><path class="cls-1" d="M178.25,306.56A127.31,127.31,0,1,0,51,179.25,127.31,127.31,0,0,0,178.25,306.56Z"/><path class="cls-2" d="M273.18,50l0,0L273,50a3.4,3.4,0,0,0-.46-.09c-3.93-.82-5.65-4.59-6.22-6.21a2.88,2.88,0,0,0-5.63-.43l0-.25s-1.31,5.71-6.12,7a3.24,3.24,0,0,0-.62.12l-.35.07.06,0a2.89,2.89,0,0,0,.23,5.41l-.1,0c4.48.5,6.36,4.71,6.93,6.39a2.89,2.89,0,0,0,5.73-.23c.54-1.57,2.12-5.07,5.68-6.11h.16a2.89,2.89,0,0,0,.95-5.62Z"/><path class="cls-3" d="M295.7,286.09l0,0a.78.78,0,0,1-.21,0,2.66,2.66,0,0,0-.39-.07c-3.4-.74-4.87-4-5.35-5.41a2.49,2.49,0,0,0-2.47-2.2,2.52,2.52,0,0,0-2.4,1.79l0-.22s-1.17,4.94-5.33,6a2.35,2.35,0,0,0-.54.1l-.31.06.06,0a2.5,2.5,0,0,0,.17,4.68l-.1,0c3.88.46,5.48,4.11,6,5.57a2.49,2.49,0,0,0,4.95-.16c.48-1.36,1.86-4.38,4.95-5.26h.14a2.5,2.5,0,0,0,.85-4.86Z"/><path class="cls-3" d="M67,299.07l0,0,.2,0a1.51,1.51,0,0,0,.37.07c3.2.68,4.6,3.74,5,5.05a2.34,2.34,0,0,0,4.58.35l0,.21s1.07-4.65,5-5.66a2.77,2.77,0,0,0,.5-.1L83,299l-.06,0a2.35,2.35,0,0,0-.18-4.4l.09,0c-3.65-.41-5.17-3.83-5.64-5.2a2.35,2.35,0,0,0-4.66.19c-.44,1.28-1.72,4.12-4.61,5h-.13a2.36,2.36,0,0,0-2.35,2.37A2.33,2.33,0,0,0,67,299.07Z"/><path class="cls-2" d="M38.31,105.43h0l.2,0,.38.07c3.27.68,4.7,3.81,5.17,5.16a2.4,2.4,0,0,0,4.68.36l0,.21s1.09-4.75,5.08-5.79a2.18,2.18,0,0,0,.52-.1l.29,0-.05,0a2.4,2.4,0,0,0-.19-4.5l.09,0c-3.72-.42-5.29-3.92-5.77-5.32a2.4,2.4,0,0,0-4.76.2c-.44,1.3-1.76,4.21-4.72,5.08H39.1a2.41,2.41,0,0,0-.79,4.68Z"/><path class="cls-3" d="M62,72.41h0a1,1,0,0,0,.17,0,1.55,1.55,0,0,0,.31.06c2.7.59,3.86,3.19,4.24,4.3a2,2,0,0,0,3.87.32l0,.18s.93-3.92,4.24-4.76a2,2,0,0,0,.43-.08l.24,0,0,0a2,2,0,0,0,1.23-1.83,2,2,0,0,0-1.36-1.88l.07,0c-3.07-.36-4.34-3.26-4.73-4.42a2,2,0,0,0-3.93.13c-.38,1.08-1.48,3.47-3.93,4.17h-.11A2,2,0,0,0,62,72.41Z"/><path class="cls-4" d="M114.15,208.17H68.39L48.72,261.68H64.61v4.7H26.71v-4.7H38.35L101.52,91.5h20.31l62.43,170.18h11.39v4.7h-81v-4.7h17.58Zm-43.67-5.49,41.69,0L92.11,143.63Z"/><path class="cls-5" d="M267.12,205.69V186.62c0-31.46-2.72-39.64-12.63-39.64-4.46,0-11.64,2-11.64,9.91a21.85,21.85,0,0,0,1.48,7.19h6.2a28.92,28.92,0,0,1,2,11.14c0,11.65-9.42,19.33-21.8,19.33-15.36,0-21.3-8.43-21.3-20.56,0-20.81,18.08-30.47,51.77-30.47,38.89,0,52,10.9,52,46.82v50.28c0,10.16,3,12.88,7.18,12.88,4.46,0,8.67-4.7,9.91-25.51l3.72.25c-1.24,29.72-10.41,38.14-31.71,38.14-20.07,0-31.21-6.19-34.19-18.33-4,11.89-11.14,18.33-28.48,18.33s-36.67-5.2-36.67-30c0-25,21.56-30.72,57-30.72Zm0,27v-23h-1.73c-10.4,0-15.36,7.43-15.36,22.54v4c0,17.84,1.74,20.32,6.44,20.32S267.12,248.55,267.12,232.69Z"/><path class="cls-3" d="M287.28,83.1h0l.17,0a1.8,1.8,0,0,0,.32.06c2.69.59,3.86,3.18,4.24,4.3a2,2,0,0,0,3.86.32l0,.18s.92-3.92,4.23-4.76a2,2,0,0,0,.43-.08l.24,0,0,0a2,2,0,0,0-.13-3.71l.07,0c-3.08-.36-4.35-3.26-4.74-4.42a2,2,0,0,0-3.93.13c-.38,1.08-1.48,3.47-3.93,4.17H288a2,2,0,0,0-.67,3.86Z"/><path class="cls-3" d="M157.72,30.71h0a1,1,0,0,1,.17,0,1.55,1.55,0,0,0,.31.06c2.69.59,3.86,3.18,4.24,4.29a2,2,0,0,0,3.86.33l0,.17s.93-3.92,4.23-4.75a1.93,1.93,0,0,0,.43-.08l.24-.05h0A2,2,0,0,0,171,27l.07,0c-3.07-.36-4.34-3.26-4.73-4.42a2,2,0,0,0-3.94.13c-.37,1.08-1.47,3.48-3.92,4.18h-.12a2,2,0,0,0-2,2A2,2,0,0,0,157.72,30.71Z"/><path class="cls-2" d="M167.48,330.15h0l.2,0,.38.07c3.27.69,4.7,3.81,5.17,5.16a2.4,2.4,0,0,0,4.68.36l0,.21s1.09-4.75,5.09-5.79a2.28,2.28,0,0,0,.52-.1l.29-.05-.06,0a2.4,2.4,0,0,0-.19-4.5l.09,0c-3.72-.42-5.28-3.92-5.76-5.32a2.4,2.4,0,0,0-4.76.2c-.45,1.3-1.76,4.21-4.72,5.08h-.14a2.41,2.41,0,0,0-.78,4.68Z"/><path class="cls-6" d="M275.46,151.73s4,3.81,4,12.18l.74,68.84s-.93,25.3,27.35,23.91c0,0-7.81-2.23-8.09-18.7V182.15S302.25,154.52,275.46,151.73Z"/><path class="cls-6" d="M239.46,217c.12-.58-23.91-1.35-24.28,19.12s17.16,20.69,26.65,20.51C241.83,256.66,232.76,248.43,239.46,217Z"/><path class="cls-6" d="M233.13,154.61s-14.51,5.4-13.39,19.72,15.07,10.23,15.07,10.23a9.23,9.23,0,0,0,6.88-9.67h-6.88S229.6,170.8,233.13,154.61Z"/><polygon class="cls-6" points="108.9 106.47 100.76 131.63 144.58 258.05 170.81 258.05 115.55 106.52 108.9 106.47"/></svg>