<svg xmlns="http://www.w3.org/2000/svg" viewBox="0 0 264 176"><defs><style>.cls-1{isolation:isolate;}.cls-10,.cls-2,.cls-6{fill:none;}.cls-17,.cls-3{fill:#d0dbf4;}.cls-3{fill-rule:evenodd;}.cls-11,.cls-15,.cls-4{fill:#d1d1d1;}.cls-12,.cls-5,.cls-7{fill:#fff;}.cls-11,.cls-12,.cls-13,.cls-16,.cls-19,.cls-6,.cls-7{stroke:#586ab1;}.cls-10,.cls-11,.cls-13,.cls-16,.cls-6,.cls-7{stroke-linecap:round;stroke-linejoin:round;}.cls-10,.cls-11,.cls-12,.cls-13,.cls-16,.cls-19,.cls-6,.cls-7{stroke-width:1.25px;}.cls-8{fill:#eaeaea;}.cls-16,.cls-9{fill:#5cc5cd;}.cls-10{stroke:#d1d1d1;}.cls-10,.cls-15{mix-blend-mode:multiply;}.cls-12,.cls-19{stroke-miterlimit:10;}.cls-13,.cls-18,.cls-19{fill:#fcbf12;}.cls-14{fill:#586ab1;}</style></defs><title>coming-soon-spot-hero-mobile</title><g class="cls-1"><g id="Layer_1" data-name="Layer 1"><rect class="cls-2" x="0.05" y="-0.13" width="264" height="176"/><path class="cls-3" d="M135.72,163.61A68.63,68.63,0,1,0,67.1,95,68.63,68.63,0,0,0,135.72,163.61Z"/><rect class="cls-4" x="119.9" y="112.17" width="56" height="35.42"/><polygon class="cls-5" points="67.02 106.33 67.02 80.39 119.64 80.39 119.64 105.05 72.8 105.05 67.02 106.33"/><polygon class="cls-4" points="55.12 147.34 55.12 113 119.81 113 119.81 147.47 114.94 147.47 114.94 122.11 61.89 122.11 61.89 147.85 55.12 147.34"/><path class="cls-4" d="M119.81,59.31l-8.46-11.92s-1-1.28.64-1.41h70.1a1.67,1.67,0,0,1,.12,1.41c-.25.9-11.27,15.38-11.27,15.38Z"/><line class="cls-6" x1="55.12" y1="147.34" x2="55.12" y2="113.95"/><rect class="cls-7" x="61.62" y="122.11" width="53.49" height="25.54"/><rect class="cls-7" x="44.39" y="110.32" width="74.5" height="3.02"/><polygon class="cls-8" points="67.08 81.9 120.67 81.9 124.77 58.5 67.21 80.39 67.08 81.9"/><line class="cls-6" x1="44.39" y1="113.34" x2="55.12" y2="115.31"/><polygon class="cls-4" points="59.84 81.73 60.48 80.58 121.99 57 121.99 59.82 62.92 81.99 59.84 81.73"/><polyline class="cls-6" points="44.39 110.32 72.8 105.49 119.5 105.49"/><rect class="cls-5" x="119.9" y="79.44" width="56" height="33.51"/><line class="cls-6" x1="67.06" y1="106.39" x2="67.06" y2="80.32"/><polyline class="cls-7" points="119.65 58.14 58.48 81.11 57.57 78.68 119.39 55.47"/><line class="cls-6" x1="58.63" y1="81.41" x2="66.96" y2="83.22"/><rect class="cls-5" x="108.54" y="64.9" width="1.62" height="16.49"/><line class="cls-6" x1="67.06" y1="81.91" x2="119.55" y2="81.91"/><line class="cls-6" x1="62.12" y1="82.01" x2="119.65" y2="60.55"/><polygon class="cls-5" points="97 81.39 95.38 81.39 95.38 69.69 97 69.09 97 81.39"/><polygon class="cls-5" points="85.13 81.31 83.38 81.31 83.38 74.52 85.13 73.87 85.13 81.31"/><line class="cls-6" x1="83.08" y1="74.46" x2="83.08" y2="81.71"/><line class="cls-6" x1="85.39" y1="73.92" x2="85.39" y2="81.71"/><line class="cls-6" x1="95.27" y1="69.66" x2="95.27" y2="81.71"/><line class="cls-6" x1="97.58" y1="69.12" x2="97.58" y2="81.71"/><rect class="cls-5" x="173.8" y="49.96" width="2.73" height="62.15"/><rect class="cls-7" x="90.48" y="84.78" width="10.28" height="14.05"/><line class="cls-6" x1="90.48" y1="91.66" x2="100.38" y2="91.66"/><rect class="cls-9" x="119.9" y="49.61" width="53.56" height="29.88"/><line class="cls-10" x1="121.86" y1="53.97" x2="173.37" y2="53.97"/><line class="cls-10" x1="121.86" y1="58.09" x2="173.37" y2="58.09"/><line class="cls-10" x1="121.86" y1="62.21" x2="173.37" y2="62.21"/><line class="cls-10" x1="121.86" y1="66.33" x2="173.37" y2="66.33"/><line class="cls-10" x1="121.86" y1="70.46" x2="173.37" y2="70.46"/><line class="cls-10" x1="121.86" y1="74.58" x2="173.37" y2="74.58"/><line class="cls-10" x1="121.86" y1="79.39" x2="173.37" y2="79.39"/><line class="cls-6" x1="108.06" y1="64.82" x2="108.06" y2="81.71"/><line class="cls-6" x1="110.38" y1="64.28" x2="110.38" y2="81.71"/><rect class="cls-5" x="119.68" y="49.44" width="2.43" height="57.51"/><rect class="cls-6" x="119.65" y="49.57" width="56.82" height="98.18"/><polygon class="cls-5" points="111.35 112.33 112.89 112.84 151.08 112.84 131.94 105.83 129.63 105.92 111.35 112.33"/><polyline class="cls-11" points="130.77 105.53 109.26 113.61 108.35 111.19 130.96 102.7"/><polyline class="cls-11" points="131.06 105.41 152.81 113.61 153.72 111.19 131.11 102.7"/><line class="cls-6" x1="122.17" y1="50.08" x2="122.17" y2="105.45"/><line class="cls-6" x1="173.88" y1="49.83" x2="173.88" y2="112.34"/><rect class="cls-7" x="74.62" y="84.78" width="10.28" height="14.05"/><line class="cls-6" x1="74.62" y1="91.66" x2="84.51" y2="91.66"/><rect class="cls-7" x="106.35" y="84.78" width="10.28" height="14.05"/><line class="cls-6" x1="106.35" y1="91.66" x2="116.25" y2="91.66"/><rect class="cls-7" x="129.46" y="57.38" width="7" height="13.2"/><line class="cls-6" x1="129.58" y1="63.98" x2="136.46" y2="63.98"/><rect class="cls-7" x="144.37" y="57.38" width="7" height="13.2"/><line class="cls-6" x1="144.49" y1="63.98" x2="151.37" y2="63.98"/><rect class="cls-7" x="159.28" y="57.38" width="7" height="13.2"/><line class="cls-6" x1="159.4" y1="63.98" x2="166.28" y2="63.98"/><line class="cls-6" x1="111.1" y1="113.01" x2="150.82" y2="113.01"/><rect class="cls-7" x="129.46" y="75.82" width="7" height="19.7"/><line class="cls-6" x1="129.58" y1="85.66" x2="136.46" y2="85.66"/><rect class="cls-7" x="144.37" y="75.82" width="7" height="19.7"/><line class="cls-6" x1="144.49" y1="85.66" x2="151.37" y2="85.66"/><rect class="cls-7" x="159.28" y="75.82" width="7" height="19.7"/><line class="cls-6" x1="159.4" y1="85.66" x2="166.28" y2="85.66"/><rect class="cls-7" x="110.2" y="42.97" width="72.91" height="3.02"/><line class="cls-6" x1="110.13" y1="46.1" x2="117.08" y2="55.77"/><line class="cls-6" x1="146.55" y1="37.08" x2="110.46" y2="42.91"/><line class="cls-6" x1="146.51" y1="37.08" x2="183.18" y2="42.72"/><line class="cls-6" x1="153.6" y1="112.28" x2="176.55" y2="112.28"/><rect class="cls-12" x="124.43" y="123.64" width="15.46" height="24.02"/><line class="cls-6" x1="10.98" y1="147.73" x2="185.71" y2="147.73"/><rect class="cls-13" x="82.33" y="147.6" width="47.35" height="2.83"/><rect class="cls-13" x="79.09" y="150.35" width="47.35" height="2.83"/><rect class="cls-13" x="80.46" y="153.09" width="47.35" height="2.83"/><rect class="cls-13" x="79.16" y="144.73" width="47.35" height="2.83"/><polygon class="cls-14" points="111.35 109.81 119.43 106.82 119.64 105.05 72.8 105.05 48.82 109.8 111.35 109.81"/><polygon class="cls-14" points="113.92 42.4 145.44 37.01 149.03 37.4 180.55 42.52 113.92 42.4"/><line class="cls-6" x1="183.02" y1="46.26" x2="176.54" y2="55.27"/><line class="cls-6" x1="119.55" y1="49.7" x2="110.93" y2="46.37"/><line class="cls-6" x1="176.25" y1="49.64" x2="182.73" y2="46.5"/><polyline class="cls-15" points="62.58 164.38 63.72 101.02 63.88 101.73 65.56 159.57 63.2 164.2"/><polyline class="cls-15" points="73.6 164.38 74.74 101.02 74.91 101.73 76.58 159.57 74.22 164.2"/><rect class="cls-16" x="61.61" y="105.14" width="11.58" height="1.99" transform="translate(0.55 -0.35) rotate(0.29)"/><rect class="cls-16" x="61.57" y="112.29" width="11.58" height="1.99" transform="translate(0.58 -0.35) rotate(0.29)"/><rect class="cls-16" x="61.53" y="119.45" width="11.58" height="1.99" transform="translate(0.62 -0.34) rotate(0.29)"/><rect class="cls-16" x="61.5" y="126.61" width="11.58" height="1.99" transform="translate(0.66 -0.34) rotate(0.29)"/><rect class="cls-16" x="61.46" y="133.77" width="11.58" height="1.99" transform="translate(0.69 -0.34) rotate(0.29)"/><rect class="cls-16" x="61.42" y="141.05" width="11.58" height="1.99" transform="translate(0.73 -0.34) rotate(0.29)"/><rect class="cls-16" x="61.38" y="148.2" width="11.58" height="1.99" transform="translate(0.77 -0.34) rotate(0.29)"/><rect class="cls-16" x="61.35" y="155.36" width="11.58" height="1.99" transform="translate(0.81 -0.34) rotate(0.29)"/><rect class="cls-16" x="60.97" y="100" width="2.12" height="64.13" rx="0.97" transform="translate(0.68 -0.32) rotate(0.29)"/><rect class="cls-16" x="72.05" y="100.06" width="2.12" height="64.13" rx="0.97" transform="translate(0.68 -0.38) rotate(0.3)"/><rect class="cls-13" x="118.99" y="112.97" width="3.46" height="6.24" rx="1"/><rect class="cls-13" x="142.57" y="112.97" width="3.46" height="6.24" rx="1"/><path class="cls-17" d="M76.7,30h.07l.17,0a3.44,3.44,0,0,0,2.33-2.35,1.08,1.08,0,0,1,2.11-.17v-.09a3.66,3.66,0,0,0,2.31,2.6l.23,0,.13,0h0a1.09,1.09,0,0,1,.67,1A1.1,1.1,0,0,1,84,32h0a3.36,3.36,0,0,0-2.59,2.41,1.08,1.08,0,0,1-2.15-.07,3.47,3.47,0,0,0-2.14-2.29h-.06A1.08,1.08,0,0,1,76.7,30Z"/><path class="cls-18" d="M61,48h0l.13,0,.23,0A4.67,4.67,0,0,0,64.5,44.7a1.48,1.48,0,0,1,2.89-.26l0-.13s.71,2.92,3.19,3.52a1.65,1.65,0,0,1,.32.06l.18,0h0A1.49,1.49,0,0,1,72,49.3a1.47,1.47,0,0,1-1,1.41l.06,0c-2.3.29-3.23,2.47-3.51,3.33a1.49,1.49,0,0,1-1.46,1.27A1.47,1.47,0,0,1,64.6,54a4.79,4.79,0,0,0-3-3.1h-.09a1.49,1.49,0,0,1-1.5-1.47A1.47,1.47,0,0,1,61,48Z"/><path class="cls-17" d="M196.32,42.89h0l.08,0,.14,0a2.93,2.93,0,0,0,2-2,.93.93,0,0,1,1.82-.15l0-.08a3.17,3.17,0,0,0,2,2.25l.2,0,.11,0h0a.93.93,0,0,1-.06,1.75h0a2.91,2.91,0,0,0-2.24,2.08.93.93,0,0,1-1.85-.06,3.06,3.06,0,0,0-1.85-2h-.06a.94.94,0,0,1-.31-1.82Z"/><path class="cls-18" d="M205.58,57.24h0l.11,0,.2,0a4.07,4.07,0,0,0,2.72-2.8,1.28,1.28,0,0,1,2.49-.22l0-.12s.61,2.53,2.75,3a1.26,1.26,0,0,1,.28.05l.15,0,0,0a1.27,1.27,0,0,1,.79,1.17,1.26,1.26,0,0,1-.86,1.22l.05,0a4,4,0,0,0-3,2.88,1.27,1.27,0,0,1-2.53-.07,4.13,4.13,0,0,0-2.56-2.67H206a1.28,1.28,0,0,1-1.3-1.27A1.27,1.27,0,0,1,205.58,57.24Z"/><path class="cls-18" d="M126.47,12.59h.07l.16,0a3.24,3.24,0,0,0,2.18-2.23,1,1,0,0,1,2-.19l0-.09a3.46,3.46,0,0,0,2.2,2.44l.23,0,.12,0h0a1,1,0,0,1,.64.94,1,1,0,0,1-.7,1l0,0a3.18,3.18,0,0,0-2.43,2.3,1,1,0,0,1-2-.05,3.3,3.3,0,0,0-2-2.14h0a1,1,0,0,1-1-1A1,1,0,0,1,126.47,12.59Z"/><path class="cls-17" d="M48.34,92.12h0l.08,0,.13,0a2.78,2.78,0,0,0,1.88-1.89.87.87,0,0,1,1.7-.14V90A3,3,0,0,0,54,92.07l.19,0,.11,0h0a.9.9,0,0,1,.54.81.88.88,0,0,1-.6.83h0a2.69,2.69,0,0,0-2.09,2,.88.88,0,0,1-1.74-.06,2.79,2.79,0,0,0-1.72-1.85h0a.88.88,0,0,1-.3-1.7Z"/><rect class="cls-13" x="172.82" y="131.87" width="7.43" height="32.49" transform="translate(353.08 296.24) rotate(180)"/><path class="cls-6" d="M177.59,134s1.37,1.59.51,6.65-1.72,6.86-.71,9.57c1.19,3.18,1,10.74-.7,13.92"/><path class="cls-6" d="M175.13,134.22a53.62,53.62,0,0,1-.25,7.26c-.41,4.06.41,9.8.41,11.75v11"/><rect class="cls-13" x="228.65" y="131.87" width="7.43" height="32.49"/><path class="cls-6" d="M231.31,134s-1.37,1.59-.51,6.65,1.73,6.86.71,9.57c-1.19,3.18-1,10.74.7,13.92"/><path class="cls-6" d="M233.77,134.22a53.62,53.62,0,0,0,.25,7.26c.42,4.06-.41,9.8-.41,11.75v11"/><rect class="cls-7" x="159.49" y="95.3" width="86.6" height="42.51" rx="1"/><rect class="cls-19" x="163.92" y="99.78" width="77.93" height="33.56" rx="1"/><rect class="cls-9" x="132.64" y="58.71" width="2.47" height="3.51"/><rect class="cls-9" x="147.27" y="58.71" width="2.47" height="3.51"/><line class="cls-6" x1="168.79" y1="164.49" x2="240.04" y2="164.49"/><rect class="cls-9" x="80.15" y="86.41" width="2.97" height="2.97"/><rect class="cls-9" x="96.16" y="86.41" width="2.97" height="2.97"/><rect class="cls-9" x="111.9" y="86.41" width="2.97" height="2.97"/><path class="cls-17" d="M160.72,17.4h.06l.14,0a2.74,2.74,0,0,0,1.87-1.88.88.88,0,0,1,1.71-.14v-.08a3,3,0,0,0,1.86,2.1l.19,0,.1,0h0a.89.89,0,0,1,.54.81.87.87,0,0,1-.6.83h0a2.71,2.71,0,0,0-2.09,2,.87.87,0,0,1-1.73-.07,2.84,2.84,0,0,0-1.73-1.84H161a.88.88,0,0,1-.29-1.7Z"/><rect class="cls-11" x="21.29" y="141.65" width="4.29" height="7.48" rx="1" transform="translate(168.83 121.96) rotate(90)"/><rect class="cls-11" x="28.78" y="141.65" width="4.29" height="7.49" rx="1" transform="translate(176.32 114.47) rotate(90)"/><rect class="cls-11" x="36.35" y="141.65" width="4.29" height="7.49" rx="1" transform="translate(183.89 106.91) rotate(90)"/><rect class="cls-11" x="43.83" y="141.65" width="4.29" height="7.48" rx="1" transform="translate(191.37 99.42) rotate(90)"/><rect class="cls-11" x="51.34" y="141.65" width="4.29" height="7.48" rx="1" transform="translate(198.88 91.91) rotate(90)"/><rect class="cls-11" x="22.87" y="137.19" width="4.29" height="7.49" rx="1" transform="translate(165.94 115.92) rotate(90)"/><rect class="cls-11" x="30.35" y="137.19" width="4.29" height="7.48" rx="1" transform="translate(173.43 108.44) rotate(90)"/><rect class="cls-11" x="37.92" y="137.19" width="4.29" height="7.48" rx="1" transform="translate(181 100.87) rotate(90)"/><rect class="cls-11" x="45.41" y="137.19" width="4.29" height="7.48" rx="1" transform="translate(188.48 93.38) rotate(90)"/><path class="cls-14" d="M174.65,115a1.31,1.31,0,0,1,.11.52,3.36,3.36,0,0,1-1.43,2.27,3.49,3.49,0,0,1-2,.65,2.83,2.83,0,0,1-1.39-.34,3.1,3.1,0,0,1-1.43-2.69c-.06-3.19,2.77-6.06,4.56-6.87a3.83,3.83,0,0,1,1.25-.26,1.61,1.61,0,0,1,1,.33,2.44,2.44,0,0,1,.95,1.71,2,2,0,0,1-.22.91,10.7,10.7,0,0,0-.6,1.43.38.38,0,0,1-.62.24,1.18,1.18,0,0,1-.54-1,1.73,1.73,0,0,1,.1-.58,5.39,5.39,0,0,1,.27-.73c.22-.55.41-1.06.22-1.27-.38-.41-2.63,1-3.94,3.09a6.69,6.69,0,0,0-1,3.37c0,1.36.6,2,1.17,2,.87,0,2-1,2.91-2.77A.35.35,0,0,1,174.65,115Z"/><path class="cls-14" d="M190.6,115.78a1.38,1.38,0,0,1-.1,1.06,3.43,3.43,0,0,1-2.67,1.7c-1.06,0-1.65-.6-1.65-1.44a2.46,2.46,0,0,1,.24-1,17.05,17.05,0,0,1,1.14-2,6.61,6.61,0,0,0,.6-1c-.08,0-.51.21-1.41,1.12a14.27,14.27,0,0,0-2.64,4.15.38.38,0,0,1-.63.13,1.16,1.16,0,0,1-.32-.86,3.43,3.43,0,0,1,.27-1.17,14.27,14.27,0,0,1,1.17-2.1c.44-.7.82-1.25.73-1.3s-.75.36-1.7,1.41a13.79,13.79,0,0,0-2.21,3.83c-.11.23-.29.28-.55.08a1,1,0,0,1-.37-.84,3,3,0,0,1,.14-.84,13.73,13.73,0,0,1,.81-1.81,2.37,2.37,0,0,1-.93.18c-.4,1.56-1.57,3.38-3.15,3.38a1.87,1.87,0,0,1-1.54-.79,2.33,2.33,0,0,1-.42-1.36,4.54,4.54,0,0,1,.68-2.23c.6-1.06,1.58-2.06,2.59-2.06a1.23,1.23,0,0,1,1.19.57,2.29,2.29,0,0,1,.77,1.9c.84-.12,1.71-1.23,2.44-2.36a.35.35,0,0,1,.62,0,1.59,1.59,0,0,1,.2.72,2.39,2.39,0,0,1,0,.44,3.91,3.91,0,0,1,2-1.27c.53,0,.84.59.84,1.24a4.29,4.29,0,0,1,2-1.13c.46,0,.69.46.69,1a2.07,2.07,0,0,1-.17.84,14.14,14.14,0,0,1-.76,1.34,7.7,7.7,0,0,0-.65,1.14,2,2,0,0,0-.22.84c0,.37.16.6.41.6.57,0,1.39-1,2-2.09C190.22,115.47,190.44,115.55,190.6,115.78ZM177,117.67c.38,0,1.07-.59,1.66-1.65a5.52,5.52,0,0,0,.52-1.26,2.17,2.17,0,0,1-.95-1.19,5.9,5.9,0,0,0-.92,1.22,4.74,4.74,0,0,0-.64,2.18C176.66,117.43,176.77,117.67,177,117.67Zm2.62-4.34c0-.24-.12-.33-.23-.33s-.24.13-.24.38a1.6,1.6,0,0,0,.25.9A2.57,2.57,0,0,0,179.61,113.33Z"/><path class="cls-14" d="M191.1,118.49a1.24,1.24,0,0,1-1.39-1.34,3.44,3.44,0,0,1,.19-1.05,20.93,20.93,0,0,1,2-3.77c.24-.31.43-.34.64-.11a1.57,1.57,0,0,1,0,1.79c-.3.68-1,1.87-1.29,2.5a2.69,2.69,0,0,0-.23.95c0,.26.07.4.24.4.63,0,1.46-1.06,2-2.14.13-.28.33-.25.47,0a1.17,1.17,0,0,1-.08,1.08A3,3,0,0,1,191.1,118.49Zm2-8.07a1.07,1.07,0,0,1,.87,1c0,.43-.24.79-.63.79a1,1,0,0,1-.94-1A.83.83,0,0,1,193.13,110.42Z"/><path class="cls-14" d="M196,112.84c0,.11,0,.22,0,.32a3.63,3.63,0,0,1,2-1.16c.46,0,.88.56.88,1.16a4.72,4.72,0,0,1-.79,1.74,6.27,6.27,0,0,0-1,2.44c0,.33.11.53.31.53.54,0,1.37-1,1.94-2.09.15-.3.38-.28.52-.06a1.31,1.31,0,0,1-.08,1.11,3.31,3.31,0,0,1-2.55,1.71c-1.06,0-1.52-.54-1.52-1.36a8,8,0,0,1,1.35-3.29c.33-.53.58-.94.47-.94a4.75,4.75,0,0,0-1.79,1.43,15,15,0,0,0-2.23,3.89c-.11.25-.31.35-.57.09a1.16,1.16,0,0,1-.35-.87,2.81,2.81,0,0,1,.15-.82,28.07,28.07,0,0,1,2.5-4.57c.2-.3.44-.29.6,0A1.42,1.42,0,0,1,196,112.84Z"/><path class="cls-14" d="M205.82,116.81a5.7,5.7,0,0,1-3,2c-.84,2.05-2,4.45-3.28,5.05a.88.88,0,0,1-1.1-.36,2.2,2.2,0,0,1-.46-1.24c0-1.42,1.53-3,3.46-3.71l.21-.53a2.12,2.12,0,0,1-1.19.4,1.41,1.41,0,0,1-1.42-1.6c0-2.26,2.67-4.87,4.22-4.87a1,1,0,0,1,1,.66l.25-.44c.19-.37.47-.35.68-.11a1.31,1.31,0,0,1,.25.8,3.79,3.79,0,0,1-.57,1.65c-.5,1-1.14,2.15-1.66,3.35a7.93,7.93,0,0,0,2.39-2.12c.21-.26.49-.26.49.08A1.68,1.68,0,0,1,205.82,116.81Zm-6.31,4.42c-.46.77-.67,1.52-.51,1.66s.54-.36,1-1.22a14,14,0,0,0,1-2A5.26,5.26,0,0,0,199.51,121.23Zm3.18-5.71a5.86,5.86,0,0,0,.9-2.27c0-.19-.05-.28-.16-.28-.54,0-3,2.48-3,4.32,0,.3.06.5.2.5C201.17,117.81,201.91,116.84,202.69,115.52Z"/><path class="cls-14" d="M206.65,116.71a2.31,2.31,0,0,1,.49,0,2,2,0,0,1,1.24.39,4.82,4.82,0,0,0,2.58,1.3,1.24,1.24,0,0,0,.84-.25.45.45,0,0,0,0-.67c-1.14-.88-3.34-1.74-3.34-3.35,0-2.15,2.47-4,3.89-4.64a2.91,2.91,0,0,1,1.22-.27,1.48,1.48,0,0,1,1,.33,3,3,0,0,1,.84,1.37,2.14,2.14,0,0,1-.48,1.63,18.43,18.43,0,0,0-1.06,1.7c-.14.26-.31.38-.62.07a1.17,1.17,0,0,1-.37-.86,3.07,3.07,0,0,1,.72-1.64c.4-.59.83-1.28.6-1.44-.58-.43-4.05,1.9-4.13,3.72,0,1,2.12,1.94,2.74,2.39a1,1,0,0,1,.48.8,2.12,2.12,0,0,1-.62,1.27,2.85,2.85,0,0,1-2.14.81,5.56,5.56,0,0,1-3.94-2.09C206.32,117,206.43,116.79,206.65,116.71Z"/><path class="cls-14" d="M223.22,112.32a1.16,1.16,0,0,1,1,.59,1.86,1.86,0,0,1,.74,2c.42,0,.45.15.32.3a.7.7,0,0,1-.41.23,4.85,4.85,0,0,1-2.55,3.27,1.67,1.67,0,0,1-.57.1,1.91,1.91,0,0,1-1.55-.81,2.25,2.25,0,0,1-.44-1.38,3.59,3.59,0,0,1,.25-1.28,3.53,3.53,0,0,1-.55.1,4.88,4.88,0,0,1-2.55,3.27,1.67,1.67,0,0,1-.57.1,1.91,1.91,0,0,1-1.55-.81,2.25,2.25,0,0,1-.44-1.38,4.74,4.74,0,0,1,.66-2.21,3.44,3.44,0,0,1,2.75-2.06,1.17,1.17,0,0,1,1,.59c.44.52.84.64.76,1.82a3.3,3.3,0,0,0,1.36-1.11A3.18,3.18,0,0,1,223.22,112.32ZM216,118c.41,0,1-.59,1.63-1.66a5.05,5.05,0,0,0,.52-1.14,2,2,0,0,1-1-1.28,4.85,4.85,0,0,0-.91,1.18,5.29,5.29,0,0,0-.66,2.23C215.62,117.78,215.76,118,216,118Zm2.63-4.35c0-.24-.13-.33-.24-.33s-.24.12-.24.37a1.64,1.64,0,0,0,.25.91A2.71,2.71,0,0,0,218.63,113.62Zm2.78,4.35c.41,0,1.05-.59,1.63-1.66a5.05,5.05,0,0,0,.52-1.14,2,2,0,0,1-1-1.28,5.09,5.09,0,0,0-.9,1.18,5.32,5.32,0,0,0-.67,2.23C221,117.78,221.17,118,221.41,118Zm2.63-4.35c0-.24-.13-.33-.24-.33s-.24.12-.24.37a1.57,1.57,0,0,0,.26.91A2.66,2.66,0,0,0,224,113.62Z"/><path class="cls-14" d="M228.15,113.13a3,3,0,0,1,0,.31,3.66,3.66,0,0,1,2-1.15c.46,0,.88.55.88,1.15a4.65,4.65,0,0,1-.79,1.74,6.33,6.33,0,0,0-1,2.44c0,.33.11.54.31.54.54,0,1.37-1,1.93-2.09.16-.3.38-.28.53-.06a1.31,1.31,0,0,1-.08,1.11,3.31,3.31,0,0,1-2.55,1.7c-1.06,0-1.52-.53-1.52-1.36a8.1,8.1,0,0,1,1.35-3.29c.33-.52.58-.93.47-.93a4.79,4.79,0,0,0-1.79,1.42,15.18,15.18,0,0,0-2.23,3.9c-.11.25-.32.34-.57.09a1.16,1.16,0,0,1-.35-.87,2.7,2.7,0,0,1,.15-.82,27.35,27.35,0,0,1,2.5-4.58c.2-.3.44-.28.6,0A1.46,1.46,0,0,1,228.15,113.13Z"/><path class="cls-14" d="M232.87,117.72a1,1,0,0,1,.78.55,1.22,1.22,0,0,1-.13,1.11.75.75,0,0,1-1.14-.24,1.28,1.28,0,0,1-.19-.57C232.19,118.16,232.49,117.72,232.87,117.72Zm3.25-7.08c.23-.34.48-.37.65,0a1.49,1.49,0,0,1,.16.62,4,4,0,0,1-.58,1.83c-.86,1.54-1.45,2.88-2.24,4.6-.15.29-.27.35-.54.08a1,1,0,0,1-.3-.8,2.93,2.93,0,0,1,.22-1A24.71,24.71,0,0,1,236.12,110.64Z"/><path class="cls-14" d="M232.54,121.9c-38.67-3-62.64,3.67-62.64,3.67s-1.33,2.36,0,2.43c0,0,25.72-8.4,61.93-5.25Z"/><rect class="cls-9" x="162.23" y="58.71" width="2.47" height="3.51"/><path class="cls-4" d="M130.7,103.43l.31-.15.43.15.08,1.52a3.51,3.51,0,0,0-1,0C130.22,105,130.7,103.43,130.7,103.43Z"/></g></g></svg>