<svg xmlns="http://www.w3.org/2000/svg" viewBox="0 0 576 384"><defs><style>.cls-1{isolation:isolate;}.cls-10,.cls-19,.cls-2,.cls-6{fill:none;}.cls-17,.cls-3{fill:#d0dbf4;}.cls-3{fill-rule:evenodd;}.cls-11,.cls-15,.cls-21,.cls-4{fill:#d1d1d1;}.cls-12,.cls-5,.cls-7{fill:#fff;}.cls-11,.cls-12,.cls-13,.cls-16,.cls-19,.cls-20,.cls-21,.cls-6,.cls-7{stroke:#586ab1;}.cls-10,.cls-11,.cls-13,.cls-16,.cls-19,.cls-21,.cls-6,.cls-7{stroke-linecap:round;stroke-linejoin:round;}.cls-11,.cls-12,.cls-13,.cls-6,.cls-7{stroke-width:2.5px;}.cls-8{fill:#eaeaea;}.cls-16,.cls-9{fill:#5cc5cd;}.cls-10{stroke:#d1d1d1;}.cls-10,.cls-15{mix-blend-mode:multiply;}.cls-12,.cls-20{stroke-miterlimit:10;}.cls-13,.cls-18,.cls-20{fill:#fcbf12;}.cls-14{fill:#586ab1;}.cls-16,.cls-19,.cls-20,.cls-21{stroke-width:2px;}</style></defs><title>coming soon-spot-hero-desktop</title><g class="cls-1"><g id="Layer_1" data-name="Layer 1"><rect class="cls-2" x="0.08" y="-1.02" width="576" height="384"/><path class="cls-3" d="M295,346.25A145.95,145.95,0,1,0,149,200.3,145.94,145.94,0,0,0,295,346.25Z"/><rect class="cls-4" x="261.28" y="236.85" width="119.11" height="75.32"/><polygon class="cls-5" points="148.83 224.44 148.83 169.26 260.74 169.26 260.74 221.72 161.13 221.72 148.83 224.44"/><polygon class="cls-4" points="123.52 311.66 123.52 238.62 261.11 238.62 261.11 311.92 250.75 311.92 250.75 257.99 137.93 257.99 137.93 312.74 123.52 311.66"/><path class="cls-4" d="M261.11,124.43l-18-25.34s-2.18-2.73,1.36-3H393.55a3.52,3.52,0,0,1,.27,3c-.54,1.9-24,32.7-24,32.7Z"/><line class="cls-6" x1="123.52" y1="311.66" x2="123.52" y2="240.64"/><rect class="cls-7" x="137.34" y="257.99" width="113.77" height="54.32"/><rect class="cls-7" x="100.7" y="232.92" width="158.45" height="6.43"/><polygon class="cls-8" points="148.96 172.49 262.94 172.49 271.64 122.7 149.24 169.26 148.96 172.49"/><line class="cls-6" x1="100.7" y1="239.35" x2="123.52" y2="243.53"/><polygon class="cls-4" points="133.57 172.12 134.93 169.67 265.74 119.53 265.74 125.52 140.11 172.67 133.57 172.12"/><polyline class="cls-6" points="100.7 232.92 161.13 222.64 260.44 222.64"/><rect class="cls-5" x="261.28" y="167.24" width="119.11" height="71.26"/><line class="cls-6" x1="148.91" y1="224.57" x2="148.91" y2="169.12"/><polyline class="cls-7" points="260.76 121.95 130.67 170.79 128.73 165.63 260.22 116.26"/><line class="cls-6" x1="130.98" y1="171.44" x2="148.7" y2="175.29"/><rect class="cls-5" x="237.12" y="136.33" width="3.45" height="35.06"/><line class="cls-6" x1="148.91" y1="172.5" x2="260.54" y2="172.5"/><line class="cls-6" x1="138.41" y1="172.72" x2="260.76" y2="127.08"/><polygon class="cls-5" points="212.6 171.4 209.15 171.4 209.15 146.5 212.6 145.23 212.6 171.4"/><polygon class="cls-5" points="187.34 171.21 183.62 171.21 183.62 156.77 187.34 155.41 187.34 171.21"/><line class="cls-6" x1="182.98" y1="156.65" x2="182.98" y2="172.07"/><line class="cls-6" x1="187.91" y1="155.49" x2="187.91" y2="172.07"/><line class="cls-6" x1="208.91" y1="146.44" x2="208.91" y2="172.07"/><line class="cls-6" x1="213.84" y1="145.29" x2="213.84" y2="172.07"/><rect class="cls-5" x="375.93" y="104.54" width="5.81" height="132.17"/><rect class="cls-7" x="198.73" y="178.61" width="21.85" height="29.89"/><line class="cls-6" x1="198.73" y1="193.23" x2="219.78" y2="193.23"/><rect class="cls-9" x="261.28" y="103.81" width="113.92" height="63.55"/><line class="cls-10" x1="265.47" y1="113.08" x2="375.02" y2="113.08"/><line class="cls-10" x1="265.47" y1="121.84" x2="375.02" y2="121.84"/><line class="cls-10" x1="265.47" y1="130.61" x2="375.02" y2="130.61"/><line class="cls-10" x1="265.47" y1="139.37" x2="375.02" y2="139.37"/><line class="cls-10" x1="265.47" y1="148.14" x2="375.02" y2="148.14"/><line class="cls-10" x1="265.47" y1="156.9" x2="375.02" y2="156.9"/><line class="cls-10" x1="265.47" y1="167.13" x2="375.02" y2="167.13"/><line class="cls-6" x1="236.12" y1="136.16" x2="236.12" y2="172.07"/><line class="cls-6" x1="241.05" y1="135.01" x2="241.05" y2="172.07"/><rect class="cls-5" x="260.83" y="103.45" width="5.18" height="122.3"/><rect class="cls-6" x="260.76" y="103.72" width="120.84" height="208.8"/><polygon class="cls-5" points="243.12 237.19 246.39 238.28 327.6 238.28 286.9 223.38 282 223.56 243.12 237.19"/><polyline class="cls-11" points="284.42 222.74 238.66 239.92 236.72 234.76 284.81 216.71"/><polyline class="cls-11" points="285.03 222.48 331.3 239.92 333.23 234.76 285.14 216.71"/><line class="cls-6" x1="266.11" y1="104.81" x2="266.11" y2="222.57"/><line class="cls-6" x1="376.09" y1="104.26" x2="376.09" y2="237.21"/><rect class="cls-7" x="164.98" y="178.61" width="21.85" height="29.89"/><line class="cls-6" x1="164.98" y1="193.23" x2="186.03" y2="193.23"/><rect class="cls-7" x="232.48" y="178.61" width="21.85" height="29.89"/><line class="cls-6" x1="232.48" y1="193.23" x2="253.53" y2="193.23"/><rect class="cls-7" x="281.62" y="120.33" width="14.89" height="28.07"/><line class="cls-6" x1="281.88" y1="134.36" x2="296.51" y2="134.36"/><rect class="cls-7" x="313.33" y="120.33" width="14.89" height="28.07"/><line class="cls-6" x1="313.6" y1="134.36" x2="328.22" y2="134.36"/><rect class="cls-7" x="345.04" y="120.33" width="14.89" height="28.07"/><line class="cls-6" x1="345.31" y1="134.36" x2="359.93" y2="134.36"/><line class="cls-6" x1="242.57" y1="238.64" x2="327.06" y2="238.64"/><rect class="cls-7" x="281.62" y="159.54" width="14.89" height="41.89"/><line class="cls-6" x1="281.88" y1="180.48" x2="296.51" y2="180.48"/><rect class="cls-7" x="313.33" y="159.54" width="14.89" height="41.89"/><line class="cls-6" x1="313.6" y1="180.48" x2="328.22" y2="180.48"/><rect class="cls-7" x="345.04" y="159.54" width="14.89" height="41.89"/><line class="cls-6" x1="345.31" y1="180.48" x2="359.93" y2="180.48"/><rect class="cls-7" x="240.67" y="89.69" width="155.07" height="6.43"/><line class="cls-6" x1="240.51" y1="96.33" x2="255.29" y2="116.9"/><line class="cls-6" x1="317.97" y1="77.15" x2="241.21" y2="89.55"/><line class="cls-6" x1="317.89" y1="77.15" x2="395.88" y2="89.15"/><line class="cls-6" x1="332.96" y1="237.09" x2="381.77" y2="237.09"/><rect class="cls-12" x="270.93" y="261.24" width="32.88" height="51.08"/><line class="cls-6" x1="29.64" y1="312.49" x2="401.26" y2="312.49"/><rect class="cls-13" x="181.38" y="312.21" width="100.71" height="6.02"/><rect class="cls-13" x="174.5" y="318.06" width="100.71" height="6.02"/><rect class="cls-13" x="177.41" y="323.88" width="100.71" height="6.02"/><rect class="cls-13" x="174.65" y="306.11" width="100.71" height="6.02"/><polygon class="cls-14" points="243.12 231.83 260.29 225.47 260.74 221.72 161.13 221.72 110.13 231.8 243.12 231.83"/><polygon class="cls-14" points="248.57 88.46 315.61 77.01 323.24 77.83 390.28 88.73 248.57 88.46"/><line class="cls-6" x1="395.53" y1="96.67" x2="381.76" y2="115.83"/><line class="cls-6" x1="260.56" y1="103.99" x2="242.21" y2="96.91"/><line class="cls-6" x1="381.15" y1="103.86" x2="394.91" y2="97.18"/><polyline class="cls-15" points="139.38 347.89 141.81 213.13 142.16 214.66 145.73 337.66 140.71 347.52"/><polyline class="cls-15" points="162.82 347.89 165.25 213.13 165.6 214.66 169.17 337.66 164.15 347.52"/><rect class="cls-16" x="137.31" y="221.9" width="24.62" height="4.24" transform="translate(1.15 -0.77) rotate(0.29)"/><rect class="cls-16" x="137.24" y="237.12" width="24.62" height="4.24" transform="translate(1.23 -0.77) rotate(0.29)"/><rect class="cls-16" x="137.16" y="252.34" width="24.62" height="4.24" transform="translate(1.31 -0.77) rotate(0.29)"/><rect class="cls-16" x="137.08" y="267.57" width="24.62" height="4.24" transform="translate(1.39 -0.76) rotate(0.29)"/><rect class="cls-16" x="137" y="282.79" width="24.62" height="4.24" transform="translate(1.47 -0.76) rotate(0.29)"/><rect class="cls-16" x="136.92" y="298.27" width="24.62" height="4.24" transform="translate(1.55 -0.76) rotate(0.29)"/><rect class="cls-16" x="136.84" y="313.49" width="24.62" height="4.24" transform="translate(1.63 -0.76) rotate(0.29)"/><rect class="cls-16" x="136.76" y="328.72" width="24.62" height="4.24" transform="translate(1.7 -0.76) rotate(0.29)"/><rect class="cls-16" x="135.97" y="210.98" width="4.5" height="136.39" rx="0.97" transform="translate(1.43 -0.7) rotate(0.29)"/><rect class="cls-16" x="159.54" y="211.1" width="4.5" height="136.39" rx="0.97" transform="translate(1.44 -0.83) rotate(0.3)"/><rect class="cls-13" x="259.36" y="238.55" width="7.36" height="13.26" rx="1"/><rect class="cls-13" x="309.5" y="238.55" width="7.36" height="13.26" rx="1"/><path class="cls-17" d="M169.41,62.05h0l.19,0a2.2,2.2,0,0,1,.37-.06c3.13-.68,4.49-3.69,4.94-5a2.3,2.3,0,0,1,4.49-.37l0-.2s1.06,4.56,4.9,5.54a2,2,0,0,1,.5.09l.28,0-.05,0a2.31,2.31,0,0,1-.16,4.32l.08,0c-3.57.41-5.06,3.78-5.51,5.12a2.3,2.3,0,0,1-4.57-.16c-.44-1.25-1.71-4-4.55-4.86h-.13a2.31,2.31,0,0,1-.78-4.49Z"/><path class="cls-18" d="M136.08,100.41l-.05,0,.27,0a2.77,2.77,0,0,1,.5-.1c4.27-1,6.09-5.1,6.68-6.88a3.15,3.15,0,0,1,6.14-.56c0-.16,0-.28,0-.28s1.52,6.22,6.78,7.51a2.63,2.63,0,0,1,.69.12,3.79,3.79,0,0,0,.38.06l-.07,0a3.15,3.15,0,0,1-.17,5.9l.12,0c-4.88.61-6.86,5.24-7.46,7.08a3.15,3.15,0,0,1-6.26-.16c-.61-1.71-2.39-5.5-6.29-6.58h-.18a3.16,3.16,0,0,1-1.12-6.12Z"/><path class="cls-17" d="M423.83,89.51h0l.16,0a1.8,1.8,0,0,1,.32-.06c2.71-.58,3.88-3.18,4.27-4.3a2,2,0,0,1,3.88-.31l0-.18s.92,3.94,4.24,4.78a3,3,0,0,1,.43.08l.24,0-.05,0a2,2,0,0,1,1.23,1.84,2,2,0,0,1-1.37,1.88l.08,0c-3.09.36-4.37,3.27-4.77,4.43a2,2,0,0,1-3.94-.14c-.38-1.09-1.47-3.49-3.93-4.2h-.11a2,2,0,0,1-.67-3.88Z"/><path class="cls-18" d="M443.53,120l0,0,.23,0a3.29,3.29,0,0,1,.43-.09c3.69-.83,5.27-4.4,5.78-5.94a2.72,2.72,0,0,1,5.3-.48l0-.24s1.31,5.37,5.86,6.48a2.91,2.91,0,0,1,.59.1c.11,0,.22,0,.33.06l-.06,0a2.72,2.72,0,0,1-.14,5.1l.1,0c-4.21.53-5.93,4.52-6.45,6.12a2.72,2.72,0,0,1-5.4-.14c-.53-1.48-2.06-4.75-5.43-5.68h-.15a2.73,2.73,0,0,1-1-5.29Z"/><path class="cls-18" d="M275.27,25.06h0l.18,0a1.37,1.37,0,0,1,.34-.07c3-.67,4.22-3.53,4.63-4.76a2.18,2.18,0,0,1,2.14-1.93,2.15,2.15,0,0,1,2.1,1.54l0-.19s1,4.3,4.7,5.19a2.43,2.43,0,0,1,.47.08l.26.05h0a2.18,2.18,0,0,1-.11,4.09l.08,0c-3.37.43-4.74,3.63-5.16,4.9a2.18,2.18,0,0,1-4.33-.11c-.42-1.18-1.65-3.8-4.35-4.55h-.12a2.19,2.19,0,0,1-.78-4.24Z"/><path class="cls-17" d="M109.11,194.21h0a.76.76,0,0,0,.16,0l.29,0c2.53-.55,3.63-3,4-4a1.85,1.85,0,0,1,3.62-.29l0-.17s.86,3.68,4,4.47a1.86,1.86,0,0,1,.41.08l.22,0h0a1.87,1.87,0,0,1-.13,3.49l.07,0c-2.89.33-4.08,3.05-4.45,4.14a1.86,1.86,0,0,1-3.69-.14,6,6,0,0,0-3.67-3.92h-.1a1.86,1.86,0,0,1-.63-3.62Z"/><rect class="cls-13" x="373.86" y="278.76" width="15.8" height="69.09" transform="translate(763.51 626.62) rotate(180)"/><path class="cls-19" d="M384,283.21s2.91,3.37,1.09,14.13-3.67,14.59-1.52,20.35c2.54,6.77,2.12,22.84-1.48,29.61"/><path class="cls-19" d="M378.76,283.76a112.14,112.14,0,0,1-.53,15.43c-.88,8.64.88,20.85.88,25v23.37"/><rect class="cls-13" x="492.58" y="278.76" width="15.8" height="69.09"/><path class="cls-19" d="M498.25,283.21s-2.91,3.37-1.09,14.13,3.67,14.59,1.52,20.35c-2.54,6.77-2.12,22.84,1.48,29.61"/><path class="cls-19" d="M503.48,283.76a112.14,112.14,0,0,0,.53,15.43c.88,8.64-.88,20.85-.88,25v23.37"/><rect class="cls-7" x="345.5" y="200.99" width="184.19" height="90.42" rx="1"/><rect class="cls-20" x="354.93" y="210.51" width="165.74" height="71.38" rx="1"/><rect class="cls-9" x="288.39" y="123.15" width="5.25" height="7.46"/><rect class="cls-9" x="319.5" y="123.15" width="5.25" height="7.46"/><line class="cls-6" x1="365.28" y1="348.12" x2="516.82" y2="348.12"/><rect class="cls-9" x="176.75" y="182.08" width="6.33" height="6.33"/><rect class="cls-9" x="210.8" y="182.08" width="6.33" height="6.33"/><rect class="cls-9" x="244.29" y="182.08" width="6.33" height="6.33"/><path class="cls-17" d="M348.11,35.29h0a.9.9,0,0,0,.16,0l.29,0c2.53-.54,3.63-3,4-4a1.85,1.85,0,0,1,3.62-.29l0-.16s.85,3.67,3.95,4.46a1.86,1.86,0,0,1,.41.08l.22,0h0a1.88,1.88,0,0,1,1.14,1.73,1.86,1.86,0,0,1-1.27,1.76l.07,0c-2.89.34-4.09,3.05-4.45,4.14a1.86,1.86,0,0,1-3.69-.13,6,6,0,0,0-3.67-3.93h-.11a1.86,1.86,0,0,1-1.86-1.86A1.88,1.88,0,0,1,348.11,35.29Z"/><rect class="cls-21" x="51.57" y="299.56" width="9.12" height="15.92" rx="1" transform="translate(363.65 251.38) rotate(90)"/><rect class="cls-21" x="67.49" y="299.56" width="9.12" height="15.92" rx="1" transform="translate(379.57 235.46) rotate(90)"/><rect class="cls-21" x="83.59" y="299.56" width="9.12" height="15.92" rx="1" transform="translate(395.67 219.37) rotate(90)"/><rect class="cls-21" x="99.51" y="299.56" width="9.12" height="15.92" rx="1" transform="translate(411.59 203.45) rotate(90)"/><rect class="cls-21" x="115.47" y="299.56" width="9.12" height="15.92" rx="1" transform="translate(427.55 187.48) rotate(90)"/><rect class="cls-21" x="54.92" y="290.07" width="9.12" height="15.92" rx="1" transform="translate(357.51 238.55) rotate(90)"/><rect class="cls-21" x="70.84" y="290.07" width="9.12" height="15.92" rx="1" transform="translate(373.43 222.63) rotate(90)"/><rect class="cls-21" x="86.94" y="290.07" width="9.12" height="15.92" rx="1" transform="translate(389.53 206.53) rotate(90)"/><rect class="cls-21" x="102.86" y="290.07" width="9.12" height="15.92" rx="1" transform="translate(405.45 190.61) rotate(90)"/><path class="cls-14" d="M377.73,242.79a2.73,2.73,0,0,1,.23,1.11c0,1.95-1.81,3.91-3,4.82a7.51,7.51,0,0,1-4.35,1.38,6,6,0,0,1-3-.71,6.6,6.6,0,0,1-3-5.72c-.13-6.8,5.89-12.89,9.7-14.61a7.57,7.57,0,0,1,2.65-.57,3.4,3.4,0,0,1,2.19.7,5.22,5.22,0,0,1,2,3.64,4.32,4.32,0,0,1-.47,1.95,24.66,24.66,0,0,0-1.28,3,.81.81,0,0,1-1.31.51,2.52,2.52,0,0,1-1.15-2.16,4,4,0,0,1,.21-1.24,13.16,13.16,0,0,1,.57-1.55c.47-1.18.87-2.26.47-2.7-.81-.87-5.59,2.06-8.38,6.57a14.34,14.34,0,0,0-2.12,7.17c0,2.89,1.28,4.17,2.49,4.17,1.85,0,4.24-2.15,6.19-5.89A.73.73,0,0,1,377.73,242.79Z"/><path class="cls-14" d="M411.66,244.54a2.93,2.93,0,0,1-.21,2.26,7.3,7.3,0,0,1-5.68,3.6c-2.26,0-3.5-1.28-3.5-3.06a5,5,0,0,1,.5-2.16,36.19,36.19,0,0,1,2.42-4.24,14.32,14.32,0,0,0,1.28-2.09c-.17,0-1.07.44-3,2.39-2.59,2.56-4.21,5.86-5.62,8.82a.8.8,0,0,1-1.35.27,2.45,2.45,0,0,1-.67-1.82,7.11,7.11,0,0,1,.57-2.49,30.36,30.36,0,0,1,2.49-4.47c.94-1.48,1.75-2.66,1.55-2.76s-1.58.77-3.6,3a29.54,29.54,0,0,0-4.72,8.15c-.23.5-.6.6-1.17.17a2.18,2.18,0,0,1-.78-1.79,6.19,6.19,0,0,1,.3-1.78,28.47,28.47,0,0,1,1.72-3.84,4.82,4.82,0,0,1-2,.37c-.85,3.33-3.34,7.2-6.7,7.2a4,4,0,0,1-3.27-1.68,5,5,0,0,1-.91-2.89,9.69,9.69,0,0,1,1.45-4.75c1.28-2.25,3.37-4.38,5.52-4.38a2.62,2.62,0,0,1,2.53,1.22,4.9,4.9,0,0,1,1.64,4c1.79-.27,3.64-2.63,5.19-5a.72.72,0,0,1,1.31,0,3.14,3.14,0,0,1,.44,1.52,5.69,5.69,0,0,1-.1.94c1.51-1.48,3.26-2.7,4.37-2.7s1.79,1.25,1.79,2.63c1.44-1.25,3.33-2.42,4.3-2.39s1.49,1,1.49,2a4.49,4.49,0,0,1-.37,1.79c-.31.7-1,1.78-1.62,2.86a15.29,15.29,0,0,0-1.38,2.42,4.23,4.23,0,0,0-.47,1.79c0,.77.34,1.27.87,1.27,1.22,0,3-2.15,4.18-4.44C410.85,243.87,411.32,244,411.66,244.54Zm-29,4c.81,0,2.29-1.25,3.53-3.5a11.51,11.51,0,0,0,1.11-2.7,4.45,4.45,0,0,1-2-2.52,12.06,12.06,0,0,0-2,2.59,10,10,0,0,0-1.38,4.65C382,248,382.24,248.55,382.71,248.55Zm5.59-9.23c0-.5-.27-.7-.51-.7s-.5.27-.5.81a3.34,3.34,0,0,0,.54,1.91A5.74,5.74,0,0,0,388.3,239.32Z"/><path class="cls-14" d="M412.73,250.3a2.63,2.63,0,0,1-3-2.86,7.63,7.63,0,0,1,.4-2.23,43.25,43.25,0,0,1,4.24-8c.51-.67.91-.74,1.35-.23.64.67.91,2.12,0,3.8-.64,1.45-2.18,4-2.76,5.32a6,6,0,0,0-.47,2c0,.54.14.84.51.84,1.34,0,3.09-2.25,4.14-4.54.27-.61.7-.54,1,.06a2.56,2.56,0,0,1-.17,2.29A6.32,6.32,0,0,1,412.73,250.3ZM417,233.13a2.28,2.28,0,0,1,1.85,2.19c0,.91-.5,1.68-1.35,1.68a2.09,2.09,0,0,1-2-2.05A1.76,1.76,0,0,1,417,233.13Z"/><path class="cls-14" d="M423.13,238.28a4.72,4.72,0,0,1,0,.67c1.45-1.34,3.06-2.45,4.27-2.45,1,0,1.89,1.18,1.89,2.45,0,.74-.61,1.82-1.69,3.71-1.07,1.71-2.22,3.93-2.22,5.18,0,.71.24,1.14.68,1.14,1.14,0,2.89-2.18,4.1-4.44.34-.64.81-.6,1.11-.13a2.66,2.66,0,0,1-.17,2.35c-.94,1.85-3.39,3.64-5.41,3.64-2.26,0-3.24-1.15-3.24-2.9s1.55-4.91,2.87-7c.7-1.11,1.24-2,1-2s-2,.94-3.81,3-3.36,5.25-4.74,8.28c-.24.53-.68.74-1.22.2a2.47,2.47,0,0,1-.74-1.85,5.88,5.88,0,0,1,.31-1.75,60.37,60.37,0,0,1,5.31-9.73c.44-.64.95-.61,1.28,0A3,3,0,0,1,423.13,238.28Z"/><path class="cls-14" d="M444,246.73c-1.28,2-3.6,3.33-6.36,4.34-1.78,4.34-4.24,9.46-7,10.74a1.9,1.9,0,0,1-2.35-.78,4.76,4.76,0,0,1-1-2.62c0-3,3.27-6.5,7.37-7.91l.44-1.11a4.58,4.58,0,0,1-2.52.84c-1.92,0-3-1.38-3-3.4,0-4.81,5.69-10.37,9-10.37a2.2,2.2,0,0,1,2.16,1.42c.13-.24.33-.57.54-.94.4-.78,1-.75,1.44-.24a2.78,2.78,0,0,1,.54,1.72,8.28,8.28,0,0,1-1.21,3.5c-1.08,2.12-2.42,4.57-3.53,7.13a17,17,0,0,0,5.08-4.51c.44-.57,1-.57,1,.17A3.61,3.61,0,0,1,444,246.73Zm-13.43,9.39c-1,1.65-1.41,3.23-1.07,3.53s1.14-.77,2.18-2.59a30.61,30.61,0,0,0,2.06-4.34A11.42,11.42,0,0,0,430.6,256.12ZM437.37,244c1.31-2.29,1.92-3.94,1.92-4.81,0-.41-.1-.61-.34-.61-1.14,0-6.33,5.28-6.33,9.19,0,.64.14,1.08.44,1.08C434.14,248.85,435.72,246.8,437.37,244Z"/><path class="cls-14" d="M445.8,246.52a4.45,4.45,0,0,1,1.05-.1,4.17,4.17,0,0,1,2.62.84C450.78,248.34,453,250,455,250a2.56,2.56,0,0,0,1.78-.54.91.91,0,0,0,0-1.41c-2.43-1.89-7.1-3.7-7.1-7.14,0-4.57,5.25-8.58,8.28-9.86a6,6,0,0,1,2.59-.57,3.12,3.12,0,0,1,2,.71,6.22,6.22,0,0,1,1.78,2.89,4.54,4.54,0,0,1-1,3.47,42.19,42.19,0,0,0-2.25,3.63c-.3.54-.67.81-1.31.14a2.5,2.5,0,0,1-.81-1.82,6.64,6.64,0,0,1,1.55-3.5c.84-1.25,1.75-2.73,1.28-3.06-1.25-.91-8.62,4-8.79,7.91-.1,2.22,4.51,4.14,5.82,5.08a2.19,2.19,0,0,1,1,1.72,4.48,4.48,0,0,1-1.31,2.69,6,6,0,0,1-4.54,1.71c-2.46,0-5.72-1.38-8.38-4.44C445.1,247.06,445.33,246.69,445.8,246.52Z"/><path class="cls-14" d="M481,237.17a2.5,2.5,0,0,1,2.22,1.25c.94,1.11,1.88,1.35,1.58,4.21.88,0,.94.3.67.64a1.44,1.44,0,0,1-.87.47c-.71,2.79-2.86,6.09-5.42,7a3.51,3.51,0,0,1-1.21.21,4.11,4.11,0,0,1-3.3-1.72,4.75,4.75,0,0,1-.94-2.93,7.44,7.44,0,0,1,.54-2.73,7,7,0,0,1-1.18.21c-.71,2.79-2.86,6.09-5.42,7a3.51,3.51,0,0,1-1.21.21,4.11,4.11,0,0,1-3.3-1.72,4.75,4.75,0,0,1-.94-2.93,10,10,0,0,1,1.41-4.71c1.51-2.69,3.64-4.38,5.86-4.38a2.5,2.5,0,0,1,2.22,1.25c.94,1.11,1.78,1.38,1.61,3.87a6.87,6.87,0,0,0,2.9-2.36C477.63,238.52,479,237.17,481,237.17Zm-15.35,12c.87,0,2.22-1.25,3.47-3.53a11.73,11.73,0,0,0,1.11-2.43,4.27,4.27,0,0,1-2.06-2.72,10.82,10.82,0,0,0-1.91,2.52,11.16,11.16,0,0,0-1.42,4.75C464.87,248.79,465.17,249.19,465.68,249.19Zm5.59-9.26c0-.5-.27-.7-.51-.7s-.5.27-.5.8a3.35,3.35,0,0,0,.54,1.92A5.74,5.74,0,0,0,471.27,239.93Zm5.92,9.26c.88,0,2.22-1.25,3.47-3.53a11.73,11.73,0,0,0,1.11-2.43,4.27,4.27,0,0,1-2.06-2.72A10.82,10.82,0,0,0,477.8,243a11.16,11.16,0,0,0-1.42,4.75C476.38,248.79,476.69,249.19,477.19,249.19Zm5.59-9.26c0-.5-.27-.7-.51-.7s-.5.27-.5.8a3.35,3.35,0,0,0,.54,1.92A5.74,5.74,0,0,0,482.78,239.93Z"/><path class="cls-14" d="M491.53,238.89a3.55,3.55,0,0,1,0,.67c1.45-1.34,3.07-2.45,4.28-2.45,1,0,1.88,1.17,1.88,2.45,0,.74-.6,1.82-1.68,3.71-1.08,1.71-2.22,3.93-2.22,5.18,0,.71.24,1.14.67,1.14,1.15,0,2.9-2.18,4.11-4.44.34-.64.81-.61,1.11-.13a2.69,2.69,0,0,1-.17,2.35c-.94,1.85-3.4,3.64-5.42,3.64-2.25,0-3.23-1.15-3.23-2.9s1.55-4.91,2.86-7c.71-1.11,1.25-2,1-2s-1.95.94-3.8,3-3.37,5.26-4.75,8.28c-.23.54-.67.74-1.21.21a2.47,2.47,0,0,1-.74-1.85,6.17,6.17,0,0,1,.3-1.75,59.77,59.77,0,0,1,5.32-9.73c.44-.64.94-.61,1.28,0A3,3,0,0,1,491.53,238.89Z"/><path class="cls-14" d="M501.56,248.66a2,2,0,0,1,1.65,1.18,2.55,2.55,0,0,1-.27,2.35,1.6,1.6,0,0,1-2.42-.5,2.69,2.69,0,0,1-.4-1.21C500.12,249.6,500.76,248.66,501.56,248.66Zm6.92-15.07c.47-.71,1-.77,1.38,0a3.13,3.13,0,0,1,.34,1.32,8.47,8.47,0,0,1-1.25,3.9c-1.81,3.27-3.08,6.12-4.76,9.78-.3.61-.57.74-1.15.17a2.3,2.3,0,0,1-.64-1.71,6.17,6.17,0,0,1,.48-2.09A51.73,51.73,0,0,1,508.48,233.59Z"/><path class="cls-14" d="M500.85,257.54c-82.23-6.33-133.21,7.81-133.21,7.81s-2.84,5-.05,5.17c0,0,54.7-17.86,131.73-11.17Z"/><rect class="cls-9" x="351.32" y="123.15" width="5.25" height="7.46"/><path class="cls-4" d="M284.26,218.26l.67-.31.9.31.18,3.25a7.1,7.1,0,0,0-2,0C283.25,221.68,284.26,218.26,284.26,218.26Z"/></g></g></svg>