<svg id="Layer_1" data-name="Layer 1" xmlns="http://www.w3.org/2000/svg" viewBox="0 0 264 176"><defs><style>.cls-1,.cls-6{fill:none;}.cls-2,.cls-4{fill:#d0dbf4;}.cls-2{fill-rule:evenodd;}.cls-12,.cls-3,.cls-5{fill:#fcbf12;}.cls-10,.cls-11,.cls-12,.cls-5,.cls-6,.cls-8,.cls-9{stroke:#586ab1;stroke-width:1.25px;}.cls-10,.cls-5,.cls-6,.cls-8,.cls-9{stroke-linecap:round;stroke-linejoin:round;}.cls-7{fill:#586ab1;}.cls-11,.cls-8{fill:#5cc5cd;}.cls-9{fill:#d1d1d1;}.cls-10{fill:#fff;}.cls-11,.cls-12{stroke-miterlimit:10;}</style></defs><title>maintenance-mode-spot-hero-mobile</title><rect class="cls-1" x="0.05" y="-0.13" width="264" height="176"/><path class="cls-2" d="M133,162.47A72.88,72.88,0,1,0,60.11,89.59,72.88,72.88,0,0,0,133,162.47Z"/><path class="cls-3" d="M224.48,95.31h0l-.12,0-.23,0A4.59,4.59,0,0,1,221,92.11a1.44,1.44,0,0,0-2.82-.23l0-.13s-.67,2.87-3.09,3.49a1.06,1.06,0,0,0-.31.05l-.18,0h0a1.44,1.44,0,0,0,.1,2.71l-.06,0c2.25.26,3.19,2.38,3.47,3.23a1.45,1.45,0,0,0,2.88-.11,4.64,4.64,0,0,1,2.86-3H224a1.46,1.46,0,0,0,.49-2.83Z"/><path class="cls-4" d="M218.14,118.24h0l-.1,0a.47.47,0,0,0-.17,0,3.45,3.45,0,0,1-2.32-2.34,1.08,1.08,0,0,0-2.11-.17l0-.1a3.67,3.67,0,0,1-2.3,2.6.86.86,0,0,0-.23,0l-.14,0h0a1.08,1.08,0,0,0,.08,2h0a3.37,3.37,0,0,1,2.59,2.41,1.08,1.08,0,0,0,2.14-.08,3.53,3.53,0,0,1,2.14-2.28h.06a1.09,1.09,0,0,0,.37-2.11Z"/><path class="cls-3" d="M198.35,27h0l-.11,0-.22,0a4.33,4.33,0,0,1-2.95-3,1.38,1.38,0,0,0-2.69-.21v-.12s-.64,2.72-2.93,3.3a1.33,1.33,0,0,0-.3.06L189,27h0a1.39,1.39,0,0,0-.84,1.28,1.36,1.36,0,0,0,.94,1.3l-.05,0a4.25,4.25,0,0,1,3.29,3.06,1.37,1.37,0,0,0,2.73-.1,4.43,4.43,0,0,1,2.72-2.9h.08a1.38,1.38,0,0,0,.46-2.68Z"/><path class="cls-3" d="M49.22,92.47h0l-.12,0-.22,0a4.4,4.4,0,0,1-3-3,1.39,1.39,0,0,0-2.72-.22l0-.12s-.64,2.76-3,3.35a1.59,1.59,0,0,0-.3.06l-.17,0h0a1.39,1.39,0,0,0,.1,2.61l0,0c2.16.25,3.06,2.29,3.34,3.11a1.39,1.39,0,0,0,2.76-.1,4.54,4.54,0,0,1,2.76-2.95h.08a1.39,1.39,0,0,0,.47-2.71Z"/><path class="cls-4" d="M54.93,114.82h0l-.1,0a.57.57,0,0,0-.18,0,3.53,3.53,0,0,1-2.38-2.41,1.12,1.12,0,0,0-1.11-1,1.11,1.11,0,0,0-1.06.8l0-.1a3.76,3.76,0,0,1-2.37,2.68,1,1,0,0,0-.24,0l-.14,0h0a1.11,1.11,0,0,0,.08,2.09h0a3.44,3.44,0,0,1,2.66,2.48,1.13,1.13,0,0,0,1.1.94,1.11,1.11,0,0,0,1.11-1,3.6,3.6,0,0,1,2.2-2.35h.06a1.12,1.12,0,0,0,.38-2.17Z"/><path class="cls-4" d="M206.89,42.78h-.07l-.17,0a3.41,3.41,0,0,1-2.33-2.34,1.07,1.07,0,0,0-1.07-.94,1.09,1.09,0,0,0-1,.77v-.09a3.66,3.66,0,0,1-2.31,2.6l-.23,0-.13,0h0a1.08,1.08,0,0,0-.66,1,1.09,1.09,0,0,0,.74,1h0a3.34,3.34,0,0,1,2.59,2.41,1.08,1.08,0,0,0,2.15-.08,3.46,3.46,0,0,1,2.14-2.28h.06a1.08,1.08,0,0,0,.36-2.11Z"/><path class="cls-5" d="M200.32,95.62a2.54,2.54,0,0,0-1.67-2.28,93,93,0,0,0-23.68,0,2.54,2.54,0,0,0-1.67,2.28l-5.48,71s0,1.83,1.52,1.83H176a2.65,2.65,0,0,0,1.67-.61l3.05-5h12.12l3,5a2.67,2.67,0,0,0,1.67.61h6.69c1.52,0,1.52-1.83,1.52-1.83Zm-6.87,7.44H180.16c-2.12-.15-1.36-5.47-1.36-5.47a68.38,68.38,0,0,1,16,0S195.58,102.91,193.45,103.06Z"/><path class="cls-6" d="M200.77,152.32H172.7a.41.41,0,0,1-.41-.41l3.27-44.18a.41.41,0,0,1,.41-.41H197.5a.42.42,0,0,1,.41.41l3.26,44.18A.4.4,0,0,1,200.77,152.32Z"/><path class="cls-7" d="M179.94,113.62a1.23,1.23,0,0,1-.17.58,1,1,0,0,1-.46.39,1.46,1.46,0,0,1-.67.14,1.25,1.25,0,0,1-1-.4,1.69,1.69,0,0,1-.36-1.15V113a2,2,0,0,1,.16-.81,1.19,1.19,0,0,1,.47-.54,1.27,1.27,0,0,1,.7-.19,1.36,1.36,0,0,1,.92.3,1.16,1.16,0,0,1,.4.83h-.76a.53.53,0,0,0-.14-.41.62.62,0,0,0-.42-.13.47.47,0,0,0-.42.22,1.38,1.38,0,0,0-.13.67v.23a1.61,1.61,0,0,0,.12.72.48.48,0,0,0,.44.22.6.6,0,0,0,.4-.13.54.54,0,0,0,.15-.39Z"/><path class="cls-7" d="M182.09,114.1h-1l-.18.59h-.81l1.15-3.16h.72l1.16,3.16h-.81Zm-.86-.59h.68l-.34-1.09Z"/><path class="cls-7" d="M185.76,111.53v2.07a1.2,1.2,0,0,1-.15.61,1,1,0,0,1-.43.39,1.47,1.47,0,0,1-.66.13,1.33,1.33,0,0,1-.91-.3,1,1,0,0,1-.33-.82v-2.08H184v2.1c0,.34.17.52.48.52a.49.49,0,0,0,.36-.13.63.63,0,0,0,.12-.43v-2.06Z"/><path class="cls-7" d="M188.71,112.12h-1v2.57H187v-2.57h-.93v-.59h2.64Z"/><path class="cls-7" d="M189.84,114.36H189v-2.83h.87Z"/><path class="cls-7" d="M193,113.18a1.89,1.89,0,0,1-.17.81,1.25,1.25,0,0,1-.49.55,1.33,1.33,0,0,1-.71.19,1.43,1.43,0,0,1-.72-.18,1.32,1.32,0,0,1-.49-.53,2,2,0,0,1-.18-.79v-.18a1.94,1.94,0,0,1,.17-.82,1.25,1.25,0,0,1,.49-.55,1.43,1.43,0,0,1,.72-.19,1.34,1.34,0,0,1,.72.19,1.26,1.26,0,0,1,.48.54,1.79,1.79,0,0,1,.18.81Zm-.77-.14a1.27,1.27,0,0,0-.16-.71.5.5,0,0,0-.45-.24c-.38,0-.58.28-.6.85v.24a1.38,1.38,0,0,0,.16.71.51.51,0,0,0,.46.25.48.48,0,0,0,.44-.25,1.32,1.32,0,0,0,.16-.7Z"/><path class="cls-7" d="M196.07,114.69h-.76l-1.12-2v2h-.76v-3.16h.76l1.12,2v-2h.76Z"/><path class="cls-7" d="M178.08,147.56l.36-2h.75l-.66,3.16h-.79l-.43-1.8-.41,1.8h-.79l-.67-3.16h.76l.36,2,.43-2h.65Z"/><path class="cls-7" d="M181.45,147.4h-1.2v.75h1.41v.59h-2.17v-3.16h2.18v.59h-1.42v.66h1.2Z"/><path class="cls-7" d="M184.49,146.17h-.94v2.57h-.76v-2.57h-.93v-.59h2.63Z"/><path class="cls-7" d="M187.77,147.48h-1.22v1.26h-.76v-3.16h2.11v.59h-1.35v.72h1.22Z"/><path class="cls-7" d="M189,148.15h1.33v.59h-2.09v-3.16H189Z"/><path class="cls-7" d="M193.15,147.22a1.94,1.94,0,0,1-.17.82,1.31,1.31,0,0,1-.49.55,1.44,1.44,0,0,1-1.43,0,1.26,1.26,0,0,1-.49-.53,2,2,0,0,1-.18-.79v-.17a1.9,1.9,0,0,1,.17-.82,1.25,1.25,0,0,1,.49-.55,1.34,1.34,0,0,1,.72-.19,1.3,1.3,0,0,1,.71.19,1.28,1.28,0,0,1,.49.54,1.79,1.79,0,0,1,.18.81Zm-.77-.13a1.36,1.36,0,0,0-.16-.71.53.53,0,0,0-.45-.25c-.38,0-.58.29-.6.86v.23a1.33,1.33,0,0,0,.16.72.5.5,0,0,0,.45.25.52.52,0,0,0,.45-.25,1.45,1.45,0,0,0,.16-.7Z"/><path class="cls-7" d="M196.21,147.22a1.94,1.94,0,0,1-.17.82,1.25,1.25,0,0,1-.49.55,1.3,1.3,0,0,1-.71.19,1.34,1.34,0,0,1-.72-.19,1.18,1.18,0,0,1-.48-.53,1.8,1.8,0,0,1-.19-.79v-.17a1.9,1.9,0,0,1,.17-.82,1.31,1.31,0,0,1,.49-.55,1.35,1.35,0,0,1,1.93.54,1.92,1.92,0,0,1,.17.81Zm-.77-.13a1.27,1.27,0,0,0-.16-.71.5.5,0,0,0-.45-.25c-.38,0-.58.29-.6.86v.23a1.43,1.43,0,0,0,.15.72.51.51,0,0,0,.46.25.5.5,0,0,0,.44-.25,1.34,1.34,0,0,0,.16-.7Z"/><path class="cls-7" d="M197.78,147.62h-.42v1.12h-.76v-3.16h1.24a1.42,1.42,0,0,1,.88.25.85.85,0,0,1,.32.7,1.12,1.12,0,0,1-.13.55,1,1,0,0,1-.42.35l.66,1.27v0h-.82Zm-.42-.58h.48a.42.42,0,0,0,.33-.12.44.44,0,0,0,.11-.32.48.48,0,0,0-.11-.32.45.45,0,0,0-.33-.11h-.48Z"/><path class="cls-6" d="M177.16,139h19.2c1-.11.56-.9.56-.9l-9.28-16.08a1.17,1.17,0,0,0-.88-.49,1,1,0,0,0-.8.41l-9.34,16.19S176.12,139,177.16,139Z"/><circle class="cls-7" cx="185.21" cy="128.95" r="1.03"/><path class="cls-7" d="M191.2,136.22l-3.67-1.89,2.09-.67.61,1.6a.32.32,0,0,0,0,.09v0h0a.52.52,0,0,0,.45.27.51.51,0,0,0,.51-.52.46.46,0,0,0-.06-.23c-.12-.3-.55-1.34-.73-1.8a.51.51,0,0,0-.51-.51.41.41,0,0,0-.19,0h0l-1.87.53-1-2.34.32-.12c.23-.05.41-.41.41-.41l1.07-2.17a.55.55,0,0,0,.14-.35.51.51,0,0,0-.51-.51.53.53,0,0,0-.45.25h0l-1,2.14c-.05.12-.3.25-.3.25l-1.53.58a.53.53,0,0,0-.49.37l-1.3,3.68h0a.34.34,0,0,0,0,.1.51.51,0,0,0,1,.23h0l.79-2.37.64,1.75a1.17,1.17,0,0,0,.67.66l4.47,2.29h0a.52.52,0,0,0,.25.07.51.51,0,0,0,.51-.52A.53.53,0,0,0,191.2,136.22Z"/><rect class="cls-8" x="131.21" y="6.36" width="3.54" height="112.96" rx="1.69" transform="translate(30.45 -42.61) rotate(20.51)"/><path class="cls-8" d="M122.36,124.89l-7-10.36-3.7-1.39L100,116.38c-1.34.33-1.34.84-1.34.84L97,121.48l-1.2,3.58,14.53,9.34,9,.88,3.06-8.19A2.53,2.53,0,0,0,122.36,124.89ZM108,124.57l-8.3-3.1.8-2.13,8.3,3.1Zm11.56,4.33-8.3-3.11.8-2.13,8.3,3.11Z"/><polygon class="cls-9" points="113.28 120.59 112.08 120.14 109.92 119.33 114.79 106.32 118.16 107.58 113.28 120.59"/><rect class="cls-6" x="107.63" y="119.8" width="6.71" height="2.97" rx="1" transform="translate(49.53 -31.2) rotate(20.51)"/><polyline class="cls-6" points="97.74 125.52 100.41 118.27 111.2 115.4"/><polyline class="cls-6" points="118.53 131.89 120.57 126.25 114.47 117.25"/><path class="cls-10" d="M102.55,114.89a2.3,2.3,0,0,0-.79.14,3.82,3.82,0,0,0-7.14-1.19,3.09,3.09,0,0,0-.91-.14A3,3,0,0,0,91,115.4a2.29,2.29,0,0,0-1.66-.73,2.26,2.26,0,1,0,1.79,3.62,3,3,0,0,0,4.75.55,3.82,3.82,0,0,0,4.52-.21,2.49,2.49,0,1,0,2.16-3.74Z"/><path class="cls-5" d="M123.31,121.89H111.86l.07-3.45a4.15,4.15,0,0,0,3.15-3.21,3.92,3.92,0,0,1,7.74.06,3.7,3.7,0,0,0,3.73,3.18Z"/><path class="cls-3" d="M131.62,107.82s-1,10.18-.6,10.1c.23,0,10.32,1.4,15,.23,2.9-.72,1.18-3.84,1.57-4.72C148.68,111.11,131.62,107.82,131.62,107.82Z"/><circle class="cls-9" cx="97.42" cy="163.74" r="5.02"/><circle class="cls-6" cx="97.42" cy="163.74" r="2.51"/><circle class="cls-9" cx="144.27" cy="163.74" r="5.02"/><circle class="cls-6" cx="144.27" cy="163.74" r="2.51"/><path class="cls-5" d="M149.63,112.3v12.87a1.6,1.6,0,0,1-.43,1H146l-1.54,16.56a37.55,37.55,0,0,1,2,10.56c.08,1.2-1.37.94-1.37.94h-38a18.9,18.9,0,0,1-8.33-2.06s-.08,1.29-.08,1.72-.86.51-.86.51H95.15c-.69-.09-.43-1-.43-1v-5.15c-2.06-2-2.91-7.46-2.91-7.46-5.15-5-6.61-18.53-6.61-18.53a.89.89,0,0,1-.86-.86l-.17-2.49c0-.86,1.29-.77,1.29-.77h61.8Z"/><path class="cls-6" d="M88.34,122.6a159.24,159.24,0,0,0,3.47,18.19"/><path class="cls-6" d="M144.4,142.42s-.77,11.31-4.2,11.75"/><line class="cls-6" x1="130.64" y1="117.92" x2="131.47" y2="110.7"/><path class="cls-9" d="M94,157.3a8.43,8.43,0,0,0,.43,2.32c.34,1,1.92,4.23,1.92,4.23a1.21,1.21,0,0,0,1.5.73s.64-.17.64-1.15v-6.14"/><path class="cls-9" d="M140.8,157.3a8.43,8.43,0,0,0,.43,2.32c.34,1,1.91,4.23,1.91,4.23a1.21,1.21,0,0,0,1.5.73s.65-.17.65-1.15v-6.14"/><path class="cls-5" d="M160.24,88.17l2.52,11.61a8.43,8.43,0,0,1-.51,4.52l-5.78,14.81s-1.43,3.66-4.29,4.23l-3.55.4s-2.51.29-2.51-.85.42-9.73.42-9.73l-16.9-3s-1.66,0-1.66-2.12l-.23-23.45-.8-.69s-.34-.74.75-.91a7.25,7.25,0,0,1,3.09.86l29.45,4.29"/><circle class="cls-6" cx="158.17" cy="101.54" r="3.99"/><rect class="cls-9" x="156.58" y="54.67" width="3.6" height="48.37" rx="1.72"/><rect class="cls-8" x="156.07" y="52.84" width="4.8" height="13.73" rx="1"/><path class="cls-6" d="M126.9,84.22s-.23,3,.68,3.89"/><rect class="cls-8" x="91.03" y="154.23" width="10.87" height="3.09" rx="1.47"/><rect class="cls-8" x="137.88" y="154.23" width="10.87" height="3.09" rx="1.47"/><path class="cls-6" d="M93.15,145.58s2.92,6.4,9.32,8"/><line class="cls-6" x1="128.29" y1="86.08" x2="156.35" y2="90.35"/><line class="cls-6" x1="84.92" y1="122.19" x2="146.14" y2="122.19"/><path class="cls-6" d="M119.31,115.6s-.79.34-.79,1v2.81s.11,3.26,1.46,4.83,17.18,12.46,27.39,13.47,1.7-10.12-1.34-11.52"/><circle class="cls-6" cx="88.18" cy="107.39" r="1.96"/><circle class="cls-6" cx="84.52" cy="112.44" r="1.33"/><circle class="cls-6" cx="88.27" cy="98.87" r="1.16"/><circle class="cls-6" cx="94.29" cy="96.28" r="1.66"/><path class="cls-10" d="M93.05,117.43v10.31s-.23,1.85,1.29,1.83c1.34,0,1.25-1.7,1.25-1.7V117.56"/><path class="cls-10" d="M97.46,117.43V123s-.22,1.85,1.3,1.83c1.34,0,1.24-1.69,1.24-1.69v-5.54"/><line class="cls-6" x1="54.6" y1="168.77" x2="216.72" y2="168.77"/><path class="cls-11" d="M68.15,136.66v1.13s.4,3.24-2,4.21v1.22a4.9,4.9,0,0,0,4-4.54v-2"/><path class="cls-10" d="M72.5,143.18l-3.83,2.94a1.74,1.74,0,0,0-.6,1.35v.75a1.07,1.07,0,0,0,.45.75c.45.38,1.28,1.28,1.28,1.28v2.47l-2.7,3a5.68,5.68,0,0,0-1.42,3.52v6.82a2.26,2.26,0,0,0,2.24,2.25H80.84a3.45,3.45,0,0,0,2.62-3.15v-9.54s.28-5.1-5.57-12.34"/><path class="cls-12" d="M66,132.91H76.54a7.67,7.67,0,0,1,5,2.85,1.38,1.38,0,0,1,.38.9v1.2l-4.65,1.87H72.42v-.9s-.15-2.4-3.3-2.4H65.9Z"/><rect class="cls-11" x="72.46" y="139.69" width="5.28" height="3.5"/><rect class="cls-11" x="64.7" y="132.89" width="3.33" height="3.67"/><circle class="cls-11" cx="74.93" cy="159.73" r="4.46"/><path class="cls-3" d="M73.77,19.32h0l.11,0,.22,0a4.34,4.34,0,0,0,3-3,1.38,1.38,0,0,1,2.69-.22v-.12s.64,2.72,2.93,3.31a.94.94,0,0,1,.3.05,1,1,0,0,0,.17,0h0A1.38,1.38,0,0,1,84,20.62a1.37,1.37,0,0,1-1,1.3l0,0A4.25,4.25,0,0,0,79.76,25,1.37,1.37,0,0,1,77,24.9,4.45,4.45,0,0,0,74.31,22h-.08a1.38,1.38,0,0,1-.46-2.68Z"/><path class="cls-4" d="M60,35.55h0l.09,0a.57.57,0,0,1,.18,0,3.43,3.43,0,0,0,2.32-2.34,1.08,1.08,0,0,1,1.07-.95,1.1,1.1,0,0,1,1,.78v-.1A3.66,3.66,0,0,0,67,35.49a.86.86,0,0,1,.23,0l.13,0h0a1.09,1.09,0,0,1,.67,1,1.1,1.1,0,0,1-.75,1h0A3.34,3.34,0,0,0,64.72,40,1.08,1.08,0,0,1,62.57,40a3.49,3.49,0,0,0-2.14-2.29h-.06A1.09,1.09,0,0,1,60,35.55Z"/><path class="cls-4" d="M94.14,11.06h.07l.18,0a3.41,3.41,0,0,0,2.32-2.34,1.08,1.08,0,0,1,2.11-.17V8.4a3.66,3.66,0,0,0,2.31,2.6l.23,0,.13,0h0a1.08,1.08,0,0,1,.66,1,1.09,1.09,0,0,1-.74,1h0a3.33,3.33,0,0,0-2.59,2.41,1.08,1.08,0,0,1-2.15-.08,3.46,3.46,0,0,0-2.14-2.28H94.5a1.09,1.09,0,0,1-.36-2.11Z"/></svg>