<svg id="Layer_1" data-name="Layer 1" xmlns="http://www.w3.org/2000/svg" viewBox="0 0 576 384"><defs><style>.cls-1,.cls-11,.cls-13,.cls-6{fill:none;}.cls-2,.cls-4{fill:#d0dbf4;}.cls-2{fill-rule:evenodd;}.cls-16,.cls-3,.cls-5{fill:#fcbf12;}.cls-10,.cls-11,.cls-12,.cls-13,.cls-14,.cls-15,.cls-16,.cls-5,.cls-6,.cls-7,.cls-9{stroke:#586ab1;}.cls-10,.cls-11,.cls-12,.cls-13,.cls-14,.cls-5,.cls-6,.cls-9{stroke-linecap:round;stroke-linejoin:round;}.cls-10,.cls-12,.cls-5,.cls-6,.cls-9{stroke-width:2.5px;}.cls-7,.cls-8{fill:#586ab1;}.cls-15,.cls-16,.cls-7{stroke-miterlimit:10;}.cls-7{stroke-width:0.25px;}.cls-15,.cls-9{fill:#5cc5cd;}.cls-10{fill:#d1d1d1;}.cls-11,.cls-14,.cls-15{stroke-width:2px;}.cls-12,.cls-14{fill:#fff;}.cls-13{stroke-width:3px;}.cls-16{stroke-width:2.25px;}</style></defs><title>maintenance mode-spot-hero-desktop</title><rect class="cls-1" x="0.17" y="-0.13" width="576" height="384"/><path class="cls-2" d="M285.35,349.1a152,152,0,1,0-152-152A152,152,0,0,0,285.35,349.1Z"/><path class="cls-3" d="M476.12,209.08l.05,0-.26-.05a3.41,3.41,0,0,0-.48-.09c-4.1-.88-5.89-4.83-6.47-6.53a3,3,0,0,0-5.9-.47l0-.27s-1.39,6-6.43,7.26a3.4,3.4,0,0,0-.65.12,2.41,2.41,0,0,1-.37.07l.07,0a3,3,0,0,0,.21,5.66l-.11,0c4.69.54,6.64,5,7.23,6.72a3,3,0,0,0,6-.21c.57-1.65,2.23-5.3,6-6.38h.17a3,3,0,0,0,1-5.88Z"/><path class="cls-4" d="M462.9,256.88h0l-.19,0a2,2,0,0,0-.35-.06c-3.07-.66-4.41-3.61-4.85-4.88a2.25,2.25,0,0,0-2.23-2,2.27,2.27,0,0,0-2.17,1.62l0-.2s-1,4.47-4.8,5.43a1.93,1.93,0,0,0-.49.09l-.28,0,.06,0a2.26,2.26,0,0,0,.16,4.23l-.09,0c3.5.41,5,3.71,5.41,5a2.25,2.25,0,0,0,4.47-.16c.43-1.23,1.67-4,4.46-4.76h.13a2.26,2.26,0,0,0,.76-4.4Z"/><path class="cls-3" d="M421.64,66.53h.05l-.25,0a2.11,2.11,0,0,0-.45-.08c-3.9-.84-5.6-4.59-6.15-6.21a2.87,2.87,0,0,0-5.6-.45l0-.25s-1.32,5.68-6.1,6.9a2.6,2.6,0,0,0-.63.11l-.34.07.06,0a2.88,2.88,0,0,0,.2,5.38l-.1,0c4.45.51,6.3,4.71,6.87,6.38a2.87,2.87,0,0,0,5.69-.2c.54-1.57,2.12-5,5.67-6.06h.16a2.88,2.88,0,0,0,1-5.59Z"/><path class="cls-3" d="M110.68,203.14h0l-.25,0A2.33,2.33,0,0,0,110,203c-4-.86-5.67-4.66-6.23-6.29a2.9,2.9,0,0,0-5.67-.46l0-.25s-1.34,5.75-6.19,7a2.6,2.6,0,0,0-.63.11l-.35.07.06,0a2.91,2.91,0,0,0,.21,5.45l-.11,0c4.51.52,6.39,4.77,7,6.47a2.91,2.91,0,0,0,5.77-.21c.55-1.58,2.15-5.1,5.74-6.14h.17a2.91,2.91,0,0,0,1-5.66Z"/><path class="cls-4" d="M122.59,249.75h0l-.2,0-.36-.07c-3.16-.68-4.53-3.71-5-5a2.32,2.32,0,0,0-4.53-.37l0-.2s-1.07,4.59-4.94,5.58a2,2,0,0,0-.5.09l-.29.05.06,0a2.32,2.32,0,0,0,.16,4.35l-.09,0c3.61.42,5.1,3.81,5.56,5.17a2.32,2.32,0,0,0,4.61-.17c.44-1.26,1.72-4.07,4.58-4.9h.13a2.32,2.32,0,0,0,.78-4.52Z"/><path class="cls-4" d="M439.45,99.54h0l-.2,0a2,2,0,0,0-.35-.06c-3.07-.67-4.41-3.62-4.84-4.88a2.26,2.26,0,0,0-4.41-.36l0-.2s-1,4.47-4.8,5.43a2,2,0,0,0-.49.09l-.27,0,0,0a2.26,2.26,0,0,0,.16,4.23l-.09,0c3.5.4,5,3.7,5.41,5a2.26,2.26,0,0,0,4.48-.16c.42-1.23,1.67-4,4.45-4.76h.13a2.26,2.26,0,0,0,.76-4.4Z"/><path class="cls-5" d="M425.74,209.71a5.32,5.32,0,0,0-3.48-4.76,194.46,194.46,0,0,0-49.37,0,5.34,5.34,0,0,0-3.49,4.76L358,357.74s0,3.8,3.17,3.8h13.95a5.56,5.56,0,0,0,3.48-1.27l6.34-10.46h25.28l6.34,10.46a5.58,5.58,0,0,0,3.49,1.27H434c3.17,0,3.17-3.8,3.17-3.8Zm-14.32,15.53h-27.7c-4.44-.32-2.85-11.41-2.85-11.41a141.91,141.91,0,0,1,33.4,0S415.86,224.92,411.42,225.24Z"/><path class="cls-6" d="M426.67,327.94H368.15a.85.85,0,0,1-.85-.85L374.12,235a.86.86,0,0,1,.85-.86h44.89a.86.86,0,0,1,.85.86l6.82,92.12A.86.86,0,0,1,426.67,327.94Z"/><path class="cls-7" d="M383.26,247.25a2.27,2.27,0,0,1-1.32,2,3.27,3.27,0,0,1-1.4.28,2.6,2.6,0,0,1-2-.84,3.48,3.48,0,0,1-.75-2.39V246a4,4,0,0,1,.34-1.69,2.54,2.54,0,0,1,1-1.12,2.73,2.73,0,0,1,1.46-.4,2.86,2.86,0,0,1,1.93.63,2.48,2.48,0,0,1,.82,1.74h-1.58a1.15,1.15,0,0,0-.3-.86,1.23,1.23,0,0,0-.87-.27.93.93,0,0,0-.86.45,2.75,2.75,0,0,0-.29,1.41v.47a3.09,3.09,0,0,0,.26,1.5,1,1,0,0,0,.91.45,1.19,1.19,0,0,0,.84-.26,1.08,1.08,0,0,0,.3-.81Z"/><path class="cls-7" d="M387.74,248.25h-2.17l-.38,1.22H383.5l2.41-6.57h1.49l2.43,6.57h-1.7ZM386,247h1.42l-.71-2.28Z"/><path class="cls-7" d="M395.39,242.9v4.3a2.47,2.47,0,0,1-.31,1.27,2,2,0,0,1-.9.81,3,3,0,0,1-1.37.28,2.74,2.74,0,0,1-1.9-.62,2.21,2.21,0,0,1-.7-1.71V242.9h1.59v4.37c0,.72.36,1.07,1,1.07a1,1,0,0,0,.74-.27,1.25,1.25,0,0,0,.26-.88V242.9Z"/><path class="cls-7" d="M401.54,244.12h-2v5.35H398v-5.35H396V242.9h5.5Z"/><path class="cls-7" d="M403.9,249.47h-1.58V242.9h1.58Z"/><path class="cls-7" d="M410.57,246.32a3.83,3.83,0,0,1-.36,1.7,2.56,2.56,0,0,1-1,1.14,3.06,3.06,0,0,1-3,0,2.65,2.65,0,0,1-1-1.11,3.6,3.6,0,0,1-.38-1.64v-.38a3.83,3.83,0,0,1,.35-1.7,2.63,2.63,0,0,1,1-1.14,2.81,2.81,0,0,1,1.5-.4,2.75,2.75,0,0,1,1.49.4,2.61,2.61,0,0,1,1,1.13,3.77,3.77,0,0,1,.37,1.68Zm-1.61-.27a2.74,2.74,0,0,0-.33-1.49,1.05,1.05,0,0,0-.94-.51c-.79,0-1.21.6-1.26,1.79v.48a2.8,2.8,0,0,0,.32,1.49,1.12,1.12,0,0,0,1.88,0,2.91,2.91,0,0,0,.33-1.47Z"/><path class="cls-7" d="M416.88,249.47H415.3L413,245.38v4.09h-1.58V242.9H413L415.3,247V242.9h1.58Z"/><path class="cls-7" d="M379.37,318l.76-4.12h1.57l-1.4,6.58h-1.64l-.88-3.75-.86,3.75h-1.64l-1.4-6.58h1.57l.76,4.12.9-4.12h1.35Z"/><path class="cls-7" d="M386.4,317.67h-2.5v1.58h3v1.22h-4.53v-6.58h4.54v1.22h-3v1.39h2.5Z"/><path class="cls-7" d="M392.74,315.11h-2v5.36h-1.58v-5.36h-1.94v-1.22h5.49Z"/><path class="cls-7" d="M399.59,317.85H397v2.62h-1.58v-6.58h4.39v1.22H397v1.52h2.56Z"/><path class="cls-7" d="M402.09,319.25h2.76v1.22H400.5v-6.58h1.59Z"/><path class="cls-7" d="M410.8,317.31a3.9,3.9,0,0,1-.36,1.71,2.69,2.69,0,0,1-1,1.14,3,3,0,0,1-3,0,2.71,2.71,0,0,1-1-1.1,3.78,3.78,0,0,1-.38-1.65v-.37a3.84,3.84,0,0,1,.36-1.71,2.61,2.61,0,0,1,1-1.14,2.84,2.84,0,0,1,1.51-.4,2.77,2.77,0,0,1,1.49.4,2.61,2.61,0,0,1,1,1.13,3.91,3.91,0,0,1,.37,1.68Zm-1.62-.27a2.84,2.84,0,0,0-.32-1.49,1.05,1.05,0,0,0-.94-.51c-.8,0-1.22.6-1.26,1.79v.48a2.89,2.89,0,0,0,.32,1.49,1.06,1.06,0,0,0,1,.52,1,1,0,0,0,.92-.51,2.71,2.71,0,0,0,.33-1.47Z"/><path class="cls-7" d="M417.18,317.31a3.9,3.9,0,0,1-.36,1.71,2.61,2.61,0,0,1-1,1.14,2.9,2.9,0,0,1-1.5.4,2.86,2.86,0,0,1-1.49-.39,2.69,2.69,0,0,1-1-1.1,3.78,3.78,0,0,1-.38-1.65v-.37a4,4,0,0,1,.35-1.71,2.69,2.69,0,0,1,1-1.14,2.81,2.81,0,0,1,1.5-.4,2.75,2.75,0,0,1,1.49.4,2.61,2.61,0,0,1,1,1.13,3.64,3.64,0,0,1,.37,1.68Zm-1.61-.27a2.74,2.74,0,0,0-.33-1.49,1.05,1.05,0,0,0-.94-.51c-.79,0-1.21.6-1.26,1.79v.48a2.89,2.89,0,0,0,.32,1.49,1,1,0,0,0,.95.52,1,1,0,0,0,.93-.51,2.71,2.71,0,0,0,.33-1.47Z"/><path class="cls-7" d="M420.44,318.14h-.86v2.33H418v-6.58h2.59a2.82,2.82,0,0,1,1.82.52,1.75,1.75,0,0,1,.67,1.46,2.19,2.19,0,0,1-.28,1.14,2,2,0,0,1-.87.73l1.37,2.66v.07h-1.7Zm-.86-1.22h1a.91.91,0,0,0,.68-.24.92.92,0,0,0,.22-.66.91.91,0,0,0-.23-.67.89.89,0,0,0-.67-.24h-1Z"/><path class="cls-6" d="M377.47,300.24h40c2-.22,1.17-1.86,1.17-1.86L399.3,264.85a2.4,2.4,0,0,0-1.82-1,2,2,0,0,0-1.67.86l-19.49,33.75S375.29,300.22,377.47,300.24Z"/><circle class="cls-8" cx="394.24" cy="279.21" r="2.15"/><path class="cls-8" d="M406.73,294.38l-7.65-3.95,4.35-1.4,1.27,3.33a.7.7,0,0,0,.08.2v0h0a1.06,1.06,0,0,0,.93.55,1.07,1.07,0,0,0,1.07-1.07,1.18,1.18,0,0,0-.12-.49c-.26-.61-1.17-2.8-1.54-3.74a1.07,1.07,0,0,0-1.07-1.07,1,1,0,0,0-.38.08h0l-3.91,1.1-2-4.86.67-.26c.48-.11.84-.85.84-.85l2.24-4.53a1.07,1.07,0,1,0-1.7-1.27h0l-2.14,4.45c-.11.26-.62.52-.62.52l-3.19,1.21a1.07,1.07,0,0,0-1,.77l-2.72,7.67h0a.78.78,0,0,0,0,.22,1.07,1.07,0,0,0,2,.46l0,0,1.65-4.94,1.33,3.65a2.49,2.49,0,0,0,1.4,1.36l9.32,4.79v0a1,1,0,0,0,.52.14,1.07,1.07,0,0,0,.3-2.09Z"/><rect class="cls-9" x="281.65" y="23.6" width="7.38" height="235.52" rx="3.16" transform="translate(67.62 -91.02) rotate(20.51)"/><path class="cls-9" d="M263.2,270.74l-14.59-21.6-7.72-2.89L216.5,253c-2.79.69-2.79,1.75-2.79,1.75l-3.33,8.89-2.5,7.46,30.3,19.48L257,292.41l6.39-17.08S264.52,272.56,263.2,270.74Zm-29.89-.65L216,263.61l1.67-4.45L235,265.64Zm24.09,9-17.31-6.47,1.66-4.45,17.32,6.48Z"/><polygon class="cls-10" points="244.28 261.79 241.77 260.85 237.26 259.16 247.41 232.03 254.43 234.65 244.28 261.79"/><rect class="cls-6" x="232.48" y="260.12" width="13.99" height="6.19" rx="1" transform="translate(107.42 -67.22) rotate(20.51)"/><polyline class="cls-11" points="211.87 272.06 217.42 256.94 239.93 250.96"/><polyline class="cls-11" points="255.2 285.35 259.47 273.58 246.75 254.82"/><path class="cls-12" d="M221.88,249.89a5.22,5.22,0,0,0-1.63.29,8,8,0,0,0-14.9-2.48,6.31,6.31,0,0,0-7.57,3.27,4.7,4.7,0,1,0,.28,6,6.29,6.29,0,0,0,9.9,1.15,7.95,7.95,0,0,0,9.43-.44,5.2,5.2,0,1,0,4.49-7.8Z"/><path class="cls-5" d="M265.18,264.49H241.3l.14-7.2A8.65,8.65,0,0,0,248,250.6a8.16,8.16,0,0,1,16.13.13s.58,6.21,7.78,6.62Z"/><path class="cls-3" d="M282.5,235.15s-2,21.23-1.25,21.07c.48-.1,21.52,2.91,31.37.47,6-1.5,2.44-8,3.27-9.83C318.08,242,282.5,235.15,282.5,235.15Z"/><circle class="cls-10" cx="211.2" cy="351.75" r="10.47"/><circle class="cls-11" cx="211.2" cy="351.75" r="5.23"/><circle class="cls-10" cx="308.88" cy="351.75" r="10.47"/><circle class="cls-11" cx="308.88" cy="351.75" r="5.23"/><path class="cls-5" d="M320.06,244.5v26.84a3.33,3.33,0,0,1-.89,2.14h-6.62L309.33,308c3.4,8.59,3.93,19.5,4.11,22s-2.86,2-2.86,2H231.33A39.4,39.4,0,0,1,214,327.69s-.18,2.68-.18,3.58-1.79,1.07-1.79,1.07h-5.55c-1.43-.18-.89-2.15-.89-2.15V319.46c-4.29-4.12-6.08-15.56-6.08-15.56-10.74-10.38-13.78-38.65-13.78-38.65a1.85,1.85,0,0,1-1.79-1.79l-.35-5.18c0-1.79,2.68-1.61,2.68-1.61H315.11Z"/><path class="cls-6" d="M192.27,266s3,22.9,7.22,37.93"/><path class="cls-6" d="M309.15,307.29s-1.61,23.59-8.77,24.51"/><line class="cls-6" x1="280.47" y1="256.22" x2="282.2" y2="241.16"/><path class="cls-10" d="M204,338.33a17.55,17.55,0,0,0,.89,4.83c.72,2,4,8.83,4,8.83a2.54,2.54,0,0,0,3.13,1.52s1.34-.36,1.34-2.42V338.3"/><path class="cls-10" d="M301.64,338.33a17.55,17.55,0,0,0,.89,4.83c.72,2,4,8.83,4,8.83a2.54,2.54,0,0,0,3.13,1.52s1.34-.36,1.34-2.42V338.3"/><path class="cls-5" d="M342.19,194.17l5.24,24.21a17.52,17.52,0,0,1-1.07,9.42c-2,5.25-12.05,30.89-12.05,30.89s-3,7.64-8.94,8.83l-7.39.83s-5.25.6-5.25-1.78.89-20.28.89-20.28l-35.24-6.2s-3.46,0-3.46-4.41l-.48-48.9-1.67-1.43s-.71-1.55,1.55-1.91,6.44,1.79,6.44,1.79l61.43,8.94"/><circle class="cls-6" cx="337.86" cy="222.05" r="8.32"/><rect class="cls-10" x="334.55" y="124.32" width="7.51" height="100.86" rx="3.76"/><rect class="cls-9" x="333.48" y="120.52" width="10.02" height="28.62" rx="1"/><path class="cls-6" d="M272.66,185.94s-.48,6.32,1.43,8.11"/><rect class="cls-9" x="197.88" y="331.92" width="22.66" height="6.44" rx="3.22"/><rect class="cls-9" x="295.55" y="331.92" width="22.66" height="6.44" rx="3.22"/><path class="cls-6" d="M202.29,313.88s6.09,13.34,19.43,16.62"/><line class="cls-6" x1="275.55" y1="189.82" x2="334.07" y2="198.72"/><line class="cls-6" x1="185.13" y1="265.12" x2="312.77" y2="265.12"/><path class="cls-13" d="M256.83,251.38s-1.64.71-1.64,2.11v5.85s.23,6.79,3,10.07,35.82,26,57.12,28.09,3.53-21.11-2.8-24"/><circle class="cls-11" cx="191.94" cy="234.26" r="4.09"/><circle class="cls-11" cx="184.3" cy="244.8" r="2.76"/><circle class="cls-11" cx="192.12" cy="216.5" r="2.42"/><circle class="cls-11" cx="204.67" cy="211.1" r="3.45"/><path class="cls-14" d="M202.08,255.19v21.49s-.47,3.86,2.69,3.81c2.81,0,2.6-3.53,2.6-3.53V255.47"/><path class="cls-14" d="M211.29,255.19v11.54s-.47,3.86,2.69,3.81c2.8,0,2.6-3.53,2.6-3.53V255.47"/><line class="cls-6" x1="121.91" y1="362.23" x2="459.95" y2="362.23"/><path class="cls-15" d="M150.16,295.28v2.36s.84,6.76-4.06,8.79V309a10.21,10.21,0,0,0,8.28-9.47v-4.22"/><path class="cls-12" d="M159.23,308.87l-8,6.15a3.63,3.63,0,0,0-1.25,2.81v1.57a2.25,2.25,0,0,0,.93,1.56c.94.78,2.66,2.66,2.66,2.66v5.15L148,335s-3.12,3.44-3,7.35v14.22s.15,4.69,4.68,4.69h26.93s5.32-1.25,5.47-6.57v-19.9s.58-10.62-11.61-25.73"/><path class="cls-16" d="M145.63,287.47h22s5.32.15,10.47,5.93a3,3,0,0,1,.78,1.88v2.5l-9.68,3.91H159.07v-1.88s-.31-5-6.88-5h-6.72Z"/><rect class="cls-15" x="159.15" y="301.61" width="11.01" height="7.29"/><rect class="cls-15" x="142.98" y="287.44" width="6.94" height="7.65"/><circle class="cls-15" cx="164.3" cy="343.39" r="9.29"/><path class="cls-3" d="M161.88,50.63l0,0,.24,0a2.39,2.39,0,0,1,.45-.09c3.91-.84,5.6-4.59,6.16-6.2a2.86,2.86,0,0,1,5.59-.45l0-.26s1.33,5.68,6.11,6.9a3.24,3.24,0,0,1,.62.12c.12,0,.23,0,.35.06l-.07,0a2.87,2.87,0,0,1-.2,5.38l.11,0c-4.45.51-6.3,4.71-6.87,6.38a2.87,2.87,0,0,1-5.7-.2c-.54-1.56-2.12-5-5.66-6.06h-.16a2.87,2.87,0,0,1-1-5.58Z"/><path class="cls-4" d="M133.19,84.47h0l.2,0a2,2,0,0,1,.35-.06c3.07-.67,4.41-3.62,4.84-4.88a2.26,2.26,0,0,1,4.41-.36l0-.2s1,4.47,4.8,5.43a2,2,0,0,1,.49.09l.27,0,0,0a2.26,2.26,0,0,1-.16,4.23l.09,0c-3.5.4-5,3.7-5.41,5a2.25,2.25,0,0,1-4.47-.16c-.43-1.23-1.68-4-4.46-4.76H134a2.26,2.26,0,0,1-.76-4.4Z"/><path class="cls-4" d="M204.35,33.4h0l.19,0a2.08,2.08,0,0,1,.36-.06c3.07-.67,4.4-3.62,4.84-4.88a2.25,2.25,0,0,1,4.4-.36l0-.2s1,4.47,4.8,5.43a1.93,1.93,0,0,1,.49.09l.28.05-.05,0a2.26,2.26,0,0,1-.16,4.23l.08,0c-3.5.4-5,3.7-5.4,5a2.26,2.26,0,0,1-4.48-.16c-.43-1.23-1.67-4-4.46-4.76h-.13a2.26,2.26,0,0,1-.76-4.4Z"/></svg>