<?xml version="1.0" encoding="utf-8"?>
<!-- Generator: Adobe Illustrator 23.0.3, SVG Export Plug-In . SVG Version: 6.00 Build 0)  -->
<svg version="1.1" id="Layer_1" xmlns="http://www.w3.org/2000/svg" xmlns:xlink="http://www.w3.org/1999/xlink" x="0px" y="0px"
	 viewBox="0 0 2297.86 467.44" style="enable-background:new 0 0 2297.86 467.44;" xml:space="preserve">
<style type="text/css">
	.st0{fill:#6D6D70;}
	.st1{opacity:0.35;fill:#6D6D70;}
	.st2{opacity:0.4;fill:#FCBF12;}
	.st3{fill:#E5E5E5;stroke:#B4B4B5;stroke-miterlimit:10;}
	.st4{fill:#B4B4B5;stroke:#B4B4B5;stroke-miterlimit:10;}
	.st5{fill:#EFEFEF;}
	.st6{fill:#E5E5E5;stroke:#E5E5E5;stroke-miterlimit:10;}
	.st7{fill:#434344;}
	.st8{fill:#FFFFFF;stroke:#E5E5E5;stroke-miterlimit:10;}
	.st9{fill:none;stroke:#B4B4B5;stroke-miterlimit:10;}
	.st10{fill:#FFFFFF;stroke:#B4B4B5;stroke-miterlimit:10;}
	.st11{fill:#CE976F;}
	.st12{opacity:0.48;fill:none;stroke:#B4B4B5;stroke-miterlimit:10;}
	.st13{opacity:0.48;}
	.st14{fill:none;stroke:#5CC5CD;stroke-miterlimit:10;}
	.st15{opacity:0.48;fill:none;stroke:#5CC5CD;stroke-miterlimit:10;}
	.st16{fill:#FFFFFF;}
	.st17{fill:#FCBF12;stroke:#D3A020;stroke-miterlimit:10;}
	.st18{opacity:0.18;fill:#586AB1;}
	.st19{fill:#6DA089;}
	.st20{fill:none;stroke:#586AB1;stroke-miterlimit:10;}
	.st21{fill:#FCBF12;}
	.st22{fill:#B4B4B5;}
	.st23{fill:#D3A020;}
	.st24{fill:#368F91;}
	.st25{fill:none;stroke:#B4B4B5;stroke-linecap:round;stroke-linejoin:round;stroke-miterlimit:10;}
	.st26{fill:none;stroke:#777777;stroke-linecap:round;stroke-linejoin:round;stroke-miterlimit:10;}
	.st27{fill:#FFFFFF;stroke:#FCBF12;stroke-miterlimit:10;}
	.st28{fill:none;stroke:#FCBF12;stroke-miterlimit:10;}
	.st29{fill:none;stroke:#D3A020;stroke-linecap:round;stroke-linejoin:round;stroke-miterlimit:10;}
	.st30{fill:#7C4C3D;}
	.st31{fill:#99604B;}
	.st32{fill:#E2AA1E;stroke:#D3A020;stroke-miterlimit:10;}
	.st33{fill:#5CC5CD;}
	.st34{fill:none;stroke:#5CC5CD;stroke-linecap:round;stroke-linejoin:round;stroke-miterlimit:10;}
	.st35{fill:#F19491;}
	.st36{fill:#586AB1;}
	.st37{fill:#423634;}
	.st38{fill:none;stroke:#844C38;stroke-width:0.75;stroke-linecap:round;stroke-linejoin:round;stroke-miterlimit:10;}
	.st39{fill:none;stroke:#774738;stroke-linecap:round;stroke-linejoin:round;stroke-miterlimit:10;}
	.st40{fill:none;stroke:#9E6E3D;stroke-linecap:round;stroke-linejoin:round;stroke-miterlimit:10;}
	.st41{fill:none;stroke:#9E6E3C;stroke-miterlimit:10;}
	.st42{fill:#666666;}
	.st43{fill:#757575;}
	.st44{fill:#FFFFFF;stroke:#586AB1;stroke-miterlimit:10;}
	.st45{fill:none;stroke:#368F91;stroke-linecap:round;stroke-linejoin:round;stroke-miterlimit:10;}
	.st46{fill:#455996;}
	.st47{fill:none;stroke:#D3A020;stroke-miterlimit:10;}
	.st48{fill:#EA42AA;}
	.st49{opacity:0.24;fill:#423634;}
	.st50{fill:none;stroke:#CE6363;stroke-linecap:round;stroke-linejoin:round;stroke-miterlimit:10;}
	.st51{fill:none;stroke:#FFFFFF;stroke-width:4;stroke-linecap:round;stroke-linejoin:round;stroke-miterlimit:10;}
	.st52{fill:#9B9B9B;stroke:#727272;stroke-miterlimit:10;}
	.st53{fill:#FFFFFF;stroke:#FFFFFF;stroke-miterlimit:10;}
	.st54{fill:none;stroke:#E5E5E5;stroke-miterlimit:10;}
	.st55{fill:#E5E5E5;}
	.st56{fill:none;stroke:#E5E5E5;stroke-width:1.5;stroke-linecap:round;stroke-linejoin:round;stroke-miterlimit:10;}
	.st57{fill:#383838;}
	.st58{fill:#4F4F51;}
	.st59{fill:#E5E5E5;stroke:#D3A020;stroke-miterlimit:10;}
	.st60{fill:none;stroke:#A3A3A3;stroke-miterlimit:10;}
	.st61{fill:none;stroke:#FFFFFF;stroke-width:1.5;stroke-linecap:round;stroke-linejoin:round;stroke-miterlimit:10;}
	.st62{fill:none;stroke:#6D6D70;stroke-miterlimit:10;}
	
		.st63{fill:none;stroke:#E5E5E5;stroke-width:2;stroke-linecap:round;stroke-linejoin:round;stroke-miterlimit:10;stroke-dasharray:0,8;}
	.st64{fill:none;stroke:#757575;stroke-miterlimit:10;}
	.st65{fill:#69AF8D;}
	.st66{fill:#EADFC5;}
	.st67{fill:#93754A;}
	.st68{fill:#4DABAD;}
	.st69{fill:#7F633D;}
	.st70{fill:none;stroke:#D3C5A9;stroke-linecap:round;stroke-linejoin:round;stroke-miterlimit:10;}
	.st71{fill:none;stroke:#586AB1;stroke-linecap:round;stroke-linejoin:round;stroke-miterlimit:10;}
</style>
<rect x="-17.81" y="275.1" class="st0" width="2345.88" height="87.63"/>
<polygon class="st1" points="1603.98,284.9 1252.73,284.9 1252.73,277.12 1603.98,277.12 1607.89,280.96 "/>
<rect x="347.8" y="289.96" class="st1" width="475.53" height="13.87"/>
<polygon class="st2" points="920.7,250.07 993.52,250.07 993.52,220.24 989.17,220.1 989.17,1.42 920.96,1.42 920.96,219.96 "/>
<polygon class="st2" points="1648.26,248.97 1574.45,248.97 1574.17,219.01 1575.7,218.87 1575.7,0.33 1638.18,0.33 1638.18,219.01 
	1648.26,219.15 "/>
<rect x="1001.94" y="-4.53" class="st3" width="560.93" height="223.05"/>
<rect x="102.78" y="1.36" class="st2" width="319.81" height="193.37"/>
<polyline class="st4" points="367.33,248.31 948.08,248.31 948.08,218.92 367.33,218.92 367.33,248.31 "/>
<polygon class="st5" points="272.73,269.24 425.1,138.63 425.1,264.22 "/>
<rect x="429.3" y="1.52" class="st6" width="524.28" height="216.45"/>
<rect x="497.15" y="216.5" class="st7" width="385.9" height="21.77"/>
<rect x="423.59" y="0.5" class="st8" width="12.55" height="193.12"/>
<polyline class="st9" points="1822.77,247.79 2320.87,247.79 2320.87,272.57 1805.7,273 "/>
<rect x="1648.26" y="218.92" class="st4" width="652.18" height="29.39"/>
<rect x="1638.47" y="-5.09" class="st10" width="667.28" height="224.37"/>
<path class="st11" d="M1916.31,224.03c0,0-11.58,0.98-17.58-4.33c0,0-5.3-3.49-1.53-9.21c0,0,1.12-1.81-0.7-5.58
	c-1.81-3.77-0.98-12.56,3.07-18.28c4.05-5.72,16.05-12.7,29.3-8.51c13.26,4.19,15.77,18.98,13.53,26.79s-6.56,10.47-6.56,10.47
	s-5.86,5.3-5.16,8.79L1916.31,224.03z"/>
<path class="st11" d="M1867.61,248.31c-0.98,0-6,1.95-14.09-8.09l-7.26-2.37c0,0-2.65-0.98-0.84-2.09c1.81-1.12,7.26,0,7.26,0
	l4.47,2.23c0,0,5.58-1.4,10.33-0.42C1872.21,238.54,1867.61,248.31,1867.61,248.31z"/>
<line class="st12" x1="1421.38" y1="140.57" x2="1313.01" y2="140.57"/>
<g class="st13">
	<line class="st14" x1="1564.54" y1="187.31" x2="1395.98" y2="187.31"/>
	<line class="st12" x1="1563.42" y1="156.33" x2="1396.26" y2="156.33"/>
	<line class="st14" x1="1562.31" y1="171.82" x2="1461.28" y2="171.82"/>
</g>
<line class="st15" x1="1562.87" y1="204.05" x2="1395.98" y2="204.05"/>
<line class="st12" x1="1563.42" y1="108.8" x2="1314.49" y2="108.8"/>
<line class="st12" x1="1379.8" y1="124.86" x2="1311.61" y2="125.3"/>
<g class="st13">
	<line class="st9" x1="1563.42" y1="93.54" x2="1402.42" y2="93.54"/>
	<line class="st9" x1="1562.31" y1="62.57" x2="1485.64" y2="62.57"/>
	<line class="st9" x1="1563.43" y1="78.05" x2="1446.76" y2="78.05"/>
	<line class="st9" x1="1473.42" y1="62.57" x2="1362.86" y2="62.57"/>
	<line class="st9" x1="1437.63" y1="78.05" x2="1315.24" y2="78.05"/>
	<line class="st9" x1="1393.42" y1="93.54" x2="1314.49" y2="93.54"/>
</g>
<g>
	<line class="st12" x1="1002.92" y1="31.31" x2="1207.05" y2="31.31"/>
	<line class="st12" x1="1002.91" y1="46.8" x2="1221.42" y2="46.8"/>
	<g class="st13">
		<line class="st9" x1="1001.94" y1="93.54" x2="1215.15" y2="93.54"/>
		<line class="st9" x1="1002.92" y1="62.57" x2="1280.26" y2="62.57"/>
		<line class="st9" x1="1002.91" y1="78.05" x2="1216.63" y2="78.05"/>
	</g>
	<line class="st12" x1="1001.94" y1="110.29" x2="1211.42" y2="110.29"/>
	<line class="st12" x1="1002.92" y1="125.08" x2="1212.17" y2="125.08"/>
	<line class="st12" x1="1003.91" y1="140.57" x2="1210.31" y2="140.57"/>
	<g class="st13">
		<line class="st9" x1="1001.94" y1="187.31" x2="1199.38" y2="187.31"/>
		<line class="st9" x1="1003.92" y1="156.33" x2="1227.71" y2="156.33"/>
		<line class="st9" x1="1003.91" y1="171.82" x2="1222.87" y2="171.82"/>
	</g>
	<line class="st12" x1="1001.94" y1="204.05" x2="1193.93" y2="204.05"/>
	<g class="st13">
		<line class="st9" x1="1001.94" y1="16.52" x2="1193.93" y2="16.52"/>
		<line class="st9" x1="1047.02" y1="1.03" x2="1177.61" y2="1.03"/>
	</g>
</g>
<rect x="1211.8" y="70.82" class="st16" width="102.7" height="160.74"/>
<polyline class="st4" points="993.56,248.31 1574.31,248.31 1574.31,218.92 993.56,218.92 993.56,248.31 "/>
<rect x="1223.8" y="83.65" class="st17" width="79.53" height="151.26"/>
<polygon class="st5" points="2310.21,270.11 264.64,270.11 290.31,248.48 2310.21,248.48 "/>
<path class="st9" d="M1827.98,270.26l-462.98,0.37l3.91-5.3l12.28-16.47c0,0,0.37,4.74,5.58,2.51c5.21-2.23,12.19-3.07,12.19-3.07
	h3.72h416.37"/>
<line class="st9" x1="1215.89" y1="247.94" x2="1055.15" y2="247.94"/>
<rect x="1723.17" y="-12.57" class="st18" width="485.54" height="176.3"/>
<path class="st16" d="M1981.84,264.5c0,0,11.72-10.42,13.95-29.4l12.65,0.74l13.54,5.69c0,0,27.95-0.48,36.32,10.31L1981.84,264.5z"
	/>
<rect x="-35.61" y="362.34" class="st5" width="2352.52" height="24.91"/>
<rect x="-126.33" y="387.08" class="st19" width="2453.88" height="81.14"/>
<g>
	<path class="st14" d="M1222.12-2.85l-9.21,18.23l5.21,6.7c0,0-4.84,1.12-0.74,7.44s5.21,4.09,11.91,5.21s-4.84,4.09-4.84,4.09
		s5.21,4.84,8.56,5.95c3.35,1.12,8.93-3.72,8.93-3.72s5.21,5.21,14.14,4.84c8.93-0.37,10.79-1.12,10.79-1.12s9.3,13.4,11.16,14.51
		s5.95,7.81,9.67,9.3c3.72,1.49,22.33-9.67,22.33-9.67s5.95,4.84,9.3,2.98c3.35-1.86,18.98-1.49,18.98-1.49l4.51-4.51"/>
	<polyline class="st20" points="1349.47,63.01 1361.38,53.33 1372.91,39.19 	"/>
	<path class="st14" d="M1358.77,10.17c0,0-9.3,3.35-3.72,8.56s7.07,6.33,7.07,7.44c0,1.12-4.09,9.67-1.49,11.53
		c2.6,1.86,7.81,1.12,7.81,1.12"/>
	<path class="st14" d="M1383.33,39.57l8.19,5.95c0,0,6.33,1.12,9.3,2.98c2.98,1.86,16.74,2.6,16.74,2.6l9.67-5.58
		c0,0,11.16,2.23,17.86-1.86c6.7-4.09,7.44-10.79,10.05-12.65c2.6-1.86,21.58-26.05,21.58-26.05"/>
</g>
<rect x="2262.21" y="312.16" class="st21" width="36.84" height="6.47"/>
<polygon class="st22" points="2304.63,276.59 264.08,276.59 268.54,270.2 2308.35,270.2 "/>
<path class="st23" d="M1338.77,187.19V50.45c0,0-15.35-24.28-16.47-37.67c0,0-13.12-8.37-20.93-19.81h4.74
	c0,0,6.7,10.05,13.67,13.12v-13.4h4.19c0,0,0.84,30.98,17.86,47.44V-4.81h8.93v48.28c0,0,0.56,13.95,1.67,16.47l8.09-6.7l16.47-18.7
	l27.91-13.95l11.72-6.7l2.79,1.67l-11.16,8.93l-29.02,15.07l-12.28,18.98l-14.51,14.51v115.53L1338.77,187.19z"/>
<path class="st21" d="M2251.74,266.19h-409.52v14.3H2270c0,0-2.83-6.51-7.83-10.64S2251.74,266.19,2251.74,266.19z"/>
<line class="st9" x1="1063.33" y1="362.17" x2="1826.86" y2="362.17"/>
<path class="st24" d="M2258.68-0.19c0,0-31.2,4.33-35.53,22.53l26.86-14.73c0,0-13,26-12.13,33.8c0.87,7.8,25.13-34.66,25.13-34.66
	s12.13,28.6,22.53,32.06c10.4,3.47-5.2-37.26-13-43.33l-6.93,4.33H2258.68z"/>
<path class="st9" d="M1713.56,248.31c0,5.02,0,21.77,0,21.77"/>
<path class="st24" d="M2282.86,32.87c0,0-18.98,8.93-18.98,13.95s3.91,3.91,3.91,3.91s-17.3,13.95-18.42,21.77
	s16.74-10.6,16.74-10.6s0,9.49,2.79,11.72s8.93-31.81,8.93-31.81s-2.79,15.07,2.79,16.19c5.58,1.12,3.91-19.53,3.91-19.53
	s6.7,9.49,10.6,8.93c3.91-0.56-1.12-16.19-1.12-16.19"/>
<ellipse class="st22" cx="1687.75" cy="339.7" rx="33.07" ry="8.79"/>
<line class="st25" x1="1537.94" y1="248.77" x2="1530.87" y2="265.43"/>
<line class="st26" x1="1530.12" y1="270.26" x2="1530.12" y2="276.33"/>
<line class="st26" x1="1713.47" y1="270.26" x2="1713.47" y2="276.33"/>
<line class="st25" x1="1438.03" y1="385.98" x2="1447.89" y2="362.17"/>
<line class="st25" x1="1196.91" y1="385.98" x2="1213.75" y2="362.17"/>
<g>
	<circle class="st21" cx="1617.28" cy="220.39" r="9.49"/>
	<rect x="1607.79" y="220.09" class="st21" width="18.98" height="64.22"/>
</g>
<g>
	<circle class="st21" cx="1671.14" cy="220.39" r="9.49"/>
	<rect x="1661.65" y="220.09" class="st21" width="18.98" height="64.22"/>
</g>
<line class="st9" x1="1563.42" y1="-0.62" x2="1563.42" y2="219.01"/>
<line class="st12" x1="1563.42" y1="31.31" x2="1456.82" y2="31.31"/>
<line class="st12" x1="1562.31" y1="46.8" x2="1450.68" y2="46.8"/>
<line class="st12" x1="1563.42" y1="125.08" x2="1389.84" y2="125.08"/>
<line class="st12" x1="1562.31" y1="140.57" x2="1435.61" y2="140.57"/>
<rect x="1231.05" y="92.4" class="st27" width="62.79" height="19.26"/>
<line class="st28" x1="1251.42" y1="92.59" x2="1251.42" y2="111.57"/>
<line class="st28" x1="1271.52" y1="92.59" x2="1271.52" y2="111.57"/>
<line class="st12" x1="1563.42" y1="1.4" x2="1456.82" y2="1.4"/>
<line class="st12" x1="1562.31" y1="16.89" x2="1478.59" y2="16.89"/>
<line class="st29" x1="1605.8" y1="284.22" x2="1630.12" y2="284.22"/>
<line class="st29" x1="1658.59" y1="284.22" x2="1683.89" y2="284.22"/>
<line class="st14" x1="1575.98" y1="-0.62" x2="1575.98" y2="219.01"/>
<line class="st9" x1="1575.98" y1="-0.62" x2="1575.98" y2="219.01"/>
<polygon class="st21" points="2272.84,285.53 1825.7,285.53 1825.7,299.83 2274.78,299.83 "/>
<polygon class="st30" points="1843.96,301.69 1874.17,301.36 1895.26,295.71 1897.76,295.49 1899.39,311.47 1854.39,313.75 "/>
<path class="st31" d="M1833.03,163.77c0.65,0.49,8.8,9.13,8.48,20.87c0,0-0.16,7.17-2.99,8.86c0,0-1.52,1.14-0.71,4.02
	c0.82,2.88,1.42,6.05,1.42,6.05s0.56,4.37-3.44,4.65l-2.88,0.23c0,0-0.94,1.08-0.36,2.93c0,0-0.45,1.52-3.11,1.69
	c0,0,1.79,2.99,0.65,3.91l-0.71,0.49c0,0-2.07,0.6-2.61,2.34c-0.54,1.74-1.09,4.02-4.24,4.08c-3.15,0.05-7.5-1.9-9.62-4.24
	c0,0-8.21-0.38-6.63,8.59c0,0-8.97-3.37-11.57-11.96c-2.61-8.59-3.37-11.74-3.37-11.74s-3.04-25.54,14.13-35.11
	C1822.65,159.85,1833.03,163.77,1833.03,163.77z"/>
<polygon class="st21" points="2275.77,304.88 1951.55,304.88 1951.55,319.17 2277.18,319.17 "/>
<polygon class="st32" points="2329.13,404.83 1789.61,404.83 1789.61,418.31 2339.13,418.31 "/>
<polygon class="st32" points="2329.13,389.18 1789.61,389.18 1789.61,400.05 2339.13,400.05 "/>
<path class="st16" d="M1790.48,344.73c0,0.98,0.65,19.89,0.65,19.89s0.98,12.72,0.82,20.54l26.25,17.93c0,0,17.12-5.38,30.32-44.02
	l3.1-7.34l10.76-19.89L1790.48,344.73z"/>
<polygon class="st21" points="2278.25,324.22 1855.92,324.22 1854.39,338.52 2281.09,338.52 "/>
<polygon class="st32" points="2306.74,379.55 1966.12,379.55 1966.12,385.23 2316.74,385.23 "/>
<path class="st33" d="M1896.56,337.44c0,0-1.3-30-1.09-36.74s0.65-10.87,0.65-10.87s22.17-6.09,54.34-0.43
	c0,0,3.04,32.61,0.43,53.04L1896.56,337.44z"/>
<path class="st16" d="M1774.83,223.11c0,0-14.56,16.74-15.65,28.69c-1.09,11.96,1.09,31.95,5.22,55.65c0,0,2.17,12.82,7.5,14.46
	c0,0,3.15,16.85,10.98,19.67l6.96,5.87l67.17-5.65l7.39-11.3l-14.56-6.09l-2.17-19.78c0,0-9.35-3.26-15.22-35.87L1774.83,223.11z"/>
<path class="st34" d="M1833.96,276.15c0,0,5.65,25.65,14.78,29.56"/>
<path class="st35" d="M1899.42,241.89l-1.12,19.91c0,0-7.81,23.07-4.46,31.72c0,0,27.35-9.21,58.88-3.07c0,0,2.23-7.53-5.02-22.6
	c0,0-0.37-3.81-0.65-8s-0.74-16.74-0.74-16.74s-4.56-14.7-5.95-17.49c0,0,1.49-3.53-33.4-0.74L1899.42,241.89z"/>
<path class="st31" d="M1780.92,231.37c-0.65-0.05-20.22,5.87-19.35,27.61c0,0-1.74,19.78,22.39,20.54l38.91,44.67l31.74,3.7
	c0,0,31.08-7.17,45.21-8.69c0,0,13.26-0.65,18.48-0.65l11.52,3.15c0,0,2.06,0.87,4.46,0.76c2.39-0.11,7.06-0.33,7.06-0.33
	s1.44-0.35,1.58-1.55c0.14-1.2-0.71-1.77-3.42-1.71c-2.72,0.05-5.16,0.16-5.16,0.16l-5.24-2.88c0,0,8.75,0.65,12.58-0.14l6.87-5.27
	c0,0,0.68-1.55-0.68-2.09c0,0-0.24-0.14-0.98,0.16s-7.23,2.96-7.23,2.96l-9.05-2.31l10.98-1.55c0,0,4.46-1.33,6.71-3.48
	c2.26-2.15,2.74-3.42,2.15-4.13c-0.6-0.71-2.26-0.24-3.7,0.82c-1.44,1.06-2.85,2.07-2.85,2.07l-6.03,0.79l-10.16-0.33l11.09-4.08
	l6.41-4.75c0,0,1.3-1.36,0.33-2.5c-0.98-1.14-2.93,0.03-2.93,0.03l-6.33,3.1l-9.92,2.39c0,0-2.45,0.71-6.49-0.35
	c-4.05-1.06-4.02-2.83-3.07-3.94s5.49-6.63,5.87-9.29c0,0,0-0.73-0.54-1.11s-2.12,0-3.34,1.11c-1.22,1.11-17.99,17.85-17.99,17.85
	s-10.6,3.99-25.02,4.4c-14.43,0.41-35.27-1.66-35.27-1.66s-5.43-3.75-9.13-12.17s-16.09-23.42-16.09-23.42l-4.89-15.16
	c0,0-4.89-13.21-17.12-18.1C1793.26,235.99,1787.17,231.8,1780.92,231.37z"/>
<path class="st34" d="M1782.16,231.28c0,0-15.59,2.26-19.72,19.65s6.17,25.02,10.22,26.95c5,2.39,10.87,1.09,10.87,1.09"/>
<polygon class="st21" points="2285.37,363.09 1963.51,363.09 1963.51,375.27 2293.7,375.27 "/>
<polygon class="st21" points="2280.64,343.57 1954.82,343.57 1954.82,357.87 2283.48,357.87 "/>
<path class="st36" d="M1829.61,394.29c0,0,9.78-9.46,21.19-40.43l12.39-23.37l87.38,7.28c0,0,17.28,2.72,21.19,10.33
	c3.91,7.61,13.37,33.8,13.37,33.8l27.5,53.36l16.85,23.58l-20.11,14.02c0,0-26.08-21.74-43.91-61.95l-27.17-35.87
	c0,0-21.3,5.65-30.43,7.61c-9.13,1.96-36.08,7.83-36.08,7.83s-25.87,6.96-41.73,6.09c0,0-1.41,0-1.09-0.82
	C1829.28,394.94,1829.61,394.29,1829.61,394.29z"/>
<path class="st37" d="M1839.72,174.53c0,0,1.47-1.47,0.16-5.71c-1.3-4.24-8.48-17.44-32.93-15.81c0,0-19.24,1.63-26.74,19.4
	c0,0-10.6-1.47-16.79,10.11c-6.2,11.57-2.93,28.53,4.56,39.94c0,0,8.15,8.48,16.47,10.27c8.31,1.79,17.44,7.83,21.36,13.53
	c3.91,5.71,7.01,17.61,15.32,19.73c8.31,2.12,9.78,9.29,13.86,11.57s8.31,4.89,9.13,9.29c0.82,4.4,6.03-5.54,4.4-13.21
	s-5.71-9.46-10.76-11.09c-5.05-1.63-10.27-5.71-11.09-10.43s-1.96-15.49-12.23-20.87c-10.27-5.38-12.72-7.5-15-14.18
	s-7.83-15.16-14.84-21.36c-7.01-6.2-5.54-11.57-3.75-15.81c0,0,0.98-0.49,1.47,0.49c0.49,0.98-2.77,11.09,2.12,22.33
	c4.89,11.25,12.13,4.02,12.46,2.23c0.33-1.79-1.86-13.77,8.28-17.67c0,0,2.79-1.72,9.77-0.84c7.12,0.9,11.07,1.61,12.21-4.91
	c0,0,3.91-0.98,4.4-4.24c0,0,5.38-1.96,7.01-4.89L1839.72,174.53z"/>
<path class="st38" d="M1806.61,177.25c0,0,2.22-2.55,8.18-1.45s19.06,4.16,23.63-3.01"/>
<path class="st38" d="M1831.78,177.24c0,0-1.64,6.65-9.3,4.93c-7.44-1.67-12.33-1.09-16.83,0.05c-4.5,1.14-17.08,1.21-21.93-4.98"/>
<path class="st38" d="M1827.24,182.08c0,0-1,5.6-7.36,4.86c-5.08-0.59-7.62-1.42-13.73-0.01c-6.11,1.41-17.61-2.95-20.23-7.67"/>
<path class="st39" d="M1812.37,219.37c-2.35-1.9-4.45-4.15-5.62-6.28"/>
<path class="st40" d="M2255,267.67"/>
<path class="st40" d="M2093.39,267.67"/>
<path class="st40" d="M2269.35,279.84"/>
<path class="st40" d="M1953.95,279.84"/>
<path class="st34" d="M1802.87,332.66c0,0,12.72-7.83,21.52-7.83s33.91,3.59,33.91,3.59l4.56,1.96c0,0-5.54,11.74-10.43,20.22
	c-4.69,8.13-15,45.65-34.24,52.49l-26.74-18.59"/>
<path class="st41" d="M1770.27,321.79c0,0,1.74,102.6-5.87,145.86"/>
<path class="st40" d="M2268.48,269.63c-0.87-7.17-5.65-13.04-11.09-12.39c-5.43,0.65-5.22,8.48-5.22,8.48"/>
<path class="st42" d="M2285.87,325.05l3.7,25.43c0,0,2.83,22.61,26.52,33.47l-21.08-7.39l-3.26-1.3c0,0-6.3-7.83-8.69-13.69
	c-1.52-3.74-6.65-37.06-10.41-62.64L2285.87,325.05z"/>
<path class="st40" d="M1772.22,327.12l0.98,37.5c0,0-1.63,16.95,2.61,25.76c4.24,8.8,6.19,12.72,6.19,12.72s2.93,13.04,2.93,22.17
	s-3.91,10.76-3.91,10.76l-0.33,98.79"/>
<line class="st40" x1="1779.56" y1="340.16" x2="1780.87" y2="374.4"/>
<path class="st43" d="M1782.01,341.9c0,0,0.49,17.82,0.82,29.24s-1.79,26.41-1.79,26.41h9.13c2.28-8.64,1.47-25.27,1.47-25.27
	l-0.98-22.66C1790.65,349.62,1786.68,343.64,1782.01,341.9z"/>
<path class="st40" d="M1770.76,377.82c0,0,1.79,20.87,4.08,26.08l6.85,13.37"/>
<path class="st40" d="M1789.61,398.09c0,0,9.56,20.87,1.52,38.91l-1.09,1.96l0.22,98.47"/>
<line class="st40" x1="1777.44" y1="410.26" x2="1777.01" y2="439.83"/>
<path class="st34" d="M1996.22,234.52l13.21,1.3l12.55,5.71c0,0,22.89,0.02,35.11,8.17"/>
<path class="st40" d="M1989.28,221.7c0,0,2.38,1.82,5.46-0.98c3.08-2.8,4.34-7.83,3.64-10.49"/>
<path class="st39" d="M1807.4,201.91c-3.04,0.43-6.6-3.27-5.3-9.79c1.3-6.52,7.17-5.65,7.17-5.65s2.89,0.17,3.45,4.17"/>
<path class="st35" d="M1906.96,224.59c-5.02,2.23-13.95,6.7-17.79,8.3c-1.62,0.68-3.48,3.26-3.48,3.26
	c-2.61-0.65-18.69,0.22-18.69,0.22s-3.8,2.07-4.02,4.67s2.93,9.24,2.93,9.24l9.35,1.96c0,0,11.09,4.56,16.09,1.96
	c5-2.61,13.48-5.65,13.48-5.65s6.04-4.7,5.21-12.51"/>
<path class="st44" d="M1906.68,224.31"/>
<path class="st40" d="M1967.86,247.4c0,0,3.42,7.01,2.93,14.67"/>
<path class="st40" d="M1954.65,236.64c0,0-4.89,0.98-7.01,2.93"/>
<path class="st40" d="M1913.57,204.69c0,0,2.77-1.79,4.89-0.98c2.12,0.82,3.59,8.48,1.79,11.09s-5.38,1.96-6.68,0.98"/>
<path class="st40" d="M1864.93,248.32c0,0-2.83,0.33-6.09-2.39c-3.26-2.72-5.98-6.09-5.98-6.09s-3.59-1.41-5.87-1.74
	s-2.5-0.98-2.39-1.96c0.11-0.98,2.93-0.76,2.93-0.76l3.59-0.11l3.64,1.12"/>
<path class="st40" d="M1956.55,239.19v4.35c0,0-0.22,4.35,4.56,4.78c4.78,0.43,9.56-1.52,11.52-3.04c1.96-1.52,9.78-7.61,9.78-7.61
	s4.56-2.61,3.91-7.83"/>
<path class="st34" d="M1996.22,234.52c0,0-3.86,21.84-13.64,28.58"/>
<path class="st45" d="M1920.04,334.84c0.65-0.43,9.78-8.26,9.78-8.26"/>
<line class="st9" x1="2282.17" y1="247.35" x2="2300" y2="273.87"/>
<path class="st38" d="M1832.65,264.19c0,0-8.04-2.39-12.61-11.52c-4.56-9.13-3.91-13.91-11.09-19.13
	c-7.17-5.22-8.48-11.74-11.09-19.13s-8.91-14.35-19.24-19.89c-11.71-6.29-4.02-15.32-4.02-15.32s2.61-3.04,6.3-3.26"/>
<path class="st34" d="M1779.4,279.52c0,0,1.96,20.54,8.15,28.37"/>
<line class="st34" x1="1790.92" y1="307.88" x2="1788.09" y2="312.01"/>
<line class="st34" x1="1793.09" y1="311.14" x2="1790.27" y2="315.27"/>
<path class="st34" d="M1794.83,317.45c0,0,10,10.43,14.35,11.3"/>
<path class="st46" d="M1857.43,393.53l82.82-19.24c0,0,25.43,9.13,30.87,17.28c0,0,2.93,4.02,0.22,17.72
	c-2.72,13.69-18.48,63.58-18.48,63.58s-12.28,40.65-10.87,53.26c0,0-16.41,2.61-30-3.48l7.83-45.65c0,0,0.11-27.82,9.03-43.86
	c0.07-0.13,0.14-0.25,0.21-0.38c9.13-15.98,7.61-16.19,7.61-16.19L1857.43,393.53z"/>
<path class="st38" d="M1779.18,175.07c-0.87,0.22-13.69,3.04-12.17,18.04c1.52,15,16.14,21.36,16.14,21.36s12.23,5.22,15,16.47
	c0,0,2.77,11.57,12.34,17.61c5.92,3.73,9.78,16.52,19.13,17.82c0,0,15.87,2.61,16.3,15.65"/>
<line class="st26" x1="2299.67" y1="273" x2="2299.67" y2="280.09"/>
<path class="st34" d="M1771.9,227.02c0,0-8.15,8.15-12.06,22.17c-3.91,14.02,4.24,55.43,4.24,55.43s1.3,15.98,7.83,17.28
	c0,0,2.93,16.3,9.78,19.24c6.85,2.93,14.35,13.69,14.67,16.63"/>
<path class="st43" d="M2255,257.24c0,0,2.39-1.96,5.22-2.17c2.83-0.22,8.48,0,8.48,0s6.96,1.52,8.48,10.87
	c1.52,9.35,4.56,33.47,4.56,33.47s1.41,20.05,16.9,25.6c0,0,19.83,6.79,34.62,9.4c14.78,2.61,23.91,6.96,27.17,28.69l-6.74,2.83
	c-1.3-20.87-19.35-23.8-19.35-23.8s-23.97-4.89-41.73-11.85c-16.2-6.34-19.35-29.13-19.35-29.13s-3.15-19.24-4.78-31.52
	s-8.8-12.12-8.8-12.12s-4.56-0.49-6.2,1.96L2255,257.24z"/>
<g>
	<g>
		<path class="st21" d="M2119.19,256.83c0,0-0.13-4.11,0-3.98c0.13,0.13,2.7,0,2.7,0v-17.2c0,0,0-3.08,3.08-3.21v-8.6h-4.11v-3.72
			c0,0-0.13,1.54-1.93,1.41c-1.8-0.13-1.93-2.44-1.93-2.44v-5.13c0,0,0.77-1.93,2.31-1.67c1.54,0.26,1.8,1.8,1.8,1.8v-3.98h3.47
			v-3.34h-1.8c0,0-1.16-0.64-0.9-3.08l-0.77-0.77c0,0-1.28-0.51-1.67-1.67c-0.39-1.16,1.54-2.05,1.54-2.05s1.28-13.22,11.94-15.4
			c0,0-0.51-2.57,2.57-2.57s2.31,2.44,2.31,2.44s9.5-0.9,12.71,15.02c0,0,2.44,1.03,2.18,2.7c-0.26,1.67-2.31,1.93-2.31,1.93
			s0.39,2.82-1.28,3.21c-1.67,0.39-2.31,0.39-2.31,0.39v3.08h3.47v3.85c0,0,0.9-1.8,2.44-1.16c1.54,0.64,1.67,3.34,1.67,3.34v3.98
			c0,0,0.13,1.41-1.67,1.28c-1.8-0.13-1.8-0.64-1.8-0.64v3.08h-4.11v7.96c0,0,2.82,0.64,2.95,3.85c0.13,3.21,0,17.2,0,17.2h3.85
			v4.36L2119.19,256.83z"/>
		<g>
			<rect x="2119.07" y="253.23" class="st47" width="34.4" height="4.11"/>
			<path class="st47" d="M2122.23,252.98v-17.74c0-1.47,1.2-2.68,2.68-2.68h22.03c1.47,0,2.68,1.2,2.68,2.68v17.74"/>
			<line class="st47" x1="2110.34" y1="257.6" x2="2161.68" y2="257.6"/>
			<line class="st47" x1="2124.97" y1="206.54" x2="2124.97" y2="232.95"/>
			<line class="st47" x1="2146.79" y1="206.73" x2="2146.79" y2="232.95"/>
			<path class="st47" d="M2149.13,206.77h-26.24c-0.55,0-1-0.45-1-1v-1.85c0-0.55,0.45-1,1-1h26.24c0.55,0,1,0.45,1,1v1.85
				C2150.13,206.32,2149.68,206.77,2149.13,206.77z"/>
			<path class="st47" d="M2151.57,203.05h-31.12c-0.55,0-1-0.45-1-1v-1.59c0-0.55,0.45-1,1-1h31.12c0.55,0,1,0.45,1,1v1.59
				C2152.57,202.6,2152.12,203.05,2151.57,203.05z"/>
			<path class="st47" d="M2121.63,198.94c1.8-17.33,14.5-15.15,14.5-15.15s12.96-1.28,14.25,15.53"/>
			<path class="st47" d="M2134.61,183.77c-1.55,0.84-6.15,4.29-6.04,15.81"/>
			<path class="st47" d="M2137.38,183.82c1.64,0.93,6.05,4.47,5.94,15.76"/>
			<circle class="st47" cx="2135.96" cy="218.53" r="8.16"/>
			<circle class="st47" cx="2136.07" cy="218.64" r="2.71"/>
			<line class="st47" x1="2127.54" y1="236.55" x2="2127.54" y2="252.98"/>
			<line class="st47" x1="2133.19" y1="236.55" x2="2133.19" y2="252.98"/>
			<line class="st47" x1="2138.96" y1="236.55" x2="2138.96" y2="252.98"/>
			<line class="st47" x1="2144.35" y1="236.55" x2="2144.35" y2="252.98"/>
			<rect x="2121.12" y="210.2" class="st47" width="3.72" height="13.73"/>
			<path class="st47" d="M2119.68,221.43h-1.1c-0.79,0-1.44-0.65-1.44-1.44v-5.84c0-0.79,0.65-1.44,1.44-1.44h1.1
				c0.79,0,1.44,0.65,1.44,1.44v5.84C2121.12,220.79,2120.47,221.43,2119.68,221.43z"/>
			<g>
				
					<rect x="2146.79" y="210.2" transform="matrix(-1 -4.495794e-11 4.495794e-11 -1 4297.3042 434.1396)" class="st47" width="3.72" height="13.73"/>
				<path class="st47" d="M2151.96,221.43h1.1c0.79,0,1.44-0.65,1.44-1.44v-5.84c0-0.79-0.65-1.44-1.44-1.44h-1.1
					c-0.79,0-1.44,0.65-1.44,1.44v5.84C2150.51,220.79,2151.16,221.43,2151.96,221.43z"/>
			</g>
		</g>
	</g>
	<path class="st47" d="M2133.07,183.63v-1.37c0-0.55,0.45-1,1-1h2.74c0.55,0,1,0.45,1,1v1.37"/>
</g>
<path class="st48" d="M1780.4,171.57c0,0-0.56-0.56-1.53,0.28c-0.98,0.84-0.28,2.93-0.28,2.93l1.81,5.72c0,0,1.12,0.84,1.81-0.7
	C1782.91,178.26,1780.4,171.57,1780.4,171.57z"/>
<path class="st39" d="M1811.38,193.8c0,0-0.56-1.26-1.26-3.35s-4.47-2.09-5.16,1.95"/>
<path class="st49" d="M1901.47,184.68c0,0-2.79,5.67,5.58,7.35c8.1,1.62,6.33,6.51,6.47,10.37c0,0,3.77-2.09,6.56-0.56
	c3.6,1.98,4.19,6.28,2.79,11.02c-0.63,2.15,2.79,6.79,8.37,6.79l0.74,0.19c0,0,2.98-3.91,5.02-5.58c2.05-1.67,8.56-10.79,4.84-23.07
	c-3.72-12.28-15.26-14.51-23.26-14.33C1910.59,177.05,1903.7,182.08,1901.47,184.68z"/>
<path class="st37" d="M1828.73,193.48c0.79-0.29,3.64-2.25,6.92-1.82s4.03,1,4.03,1s1.42-0.22,1.06-2.29c0,0-2.8-1.5-6.63-0.61
	S1828.73,193.48,1828.73,193.48z"/>
<path class="st40" d="M1953.84,212.88c0,0,0.82,1.96,0.33,3.26c-0.49,1.3-2.93,7.5-2.93,7.5s-1.92,3.88,2.12,3.75
	c3.11-0.1,6.03,0,6.03,0s2.28-1.79,1.96-3.59s-2.28-1.47-2.28-1.47"/>
<polyline class="st9" points="988.54,-0.62 988.54,219.01 993.56,219.01 "/>
<line class="st9" x1="1001.94" y1="-0.62" x2="1001.94" y2="219.01"/>
<path class="st50" d="M1907.24,225.01c0,0,5.72,8.51,1.95,16.88"/>
<path class="st50" d="M1905.28,247.29c0,0-1.81,2.14-6,3.26"/>
<path class="st50" d="M1946.86,266.45c-1.4-0.28-26.51-5.58-26.51-5.58"/>
<path class="st50" d="M1947.14,263.94c-0.84,0-15.91-4.74-15.91-4.74"/>
<path class="st0" d="M358.96,194.73c-3.35,2.51-94.88,81.86-94.88,81.86H0.64l106.33-81.86H358.96z"/>
<line class="st51" x1="1945.19" y1="104.31" x2="2050.12" y2="-2.85"/>
<line class="st51" x1="1994.31" y1="87.57" x2="2099.24" y2="-19.6"/>
<line class="st51" x1="1941.84" y1="70.82" x2="2046.77" y2="-36.34"/>
<path class="st33" d="M1999.14,234.91c0,0-2.98,22.33-14.88,28.65l-2.42,0.93c0,0,11.91-8.56,13.95-29.4L1999.14,234.91z"/>
<path class="st11" d="M1976.17,266.17c0,0,1.91-1.33,8.43-4.15s16.09-8.91,26.08-10.22l22.17,1.09l11.96-1.74
	c0,0,22.39-4.13,31.95-2.39c0,0,8.04,3.59,11.41,8.75l0.54,1.03c0,0,4.13,0.87,4.56,5.43s0.65,10.43-4.78,12.17
	c0,0-13.91,5.43-20.43,5.43c-6.52,0-47.42-11.56-55.9-15.69h-8.65L1976.17,266.17z"/>
<path class="st40" d="M2083.77,256.53c0,0,7.32,1.24,8.64,5.22c1.63,4.89,0.49,12.06-1.47,13.21c-1.96,1.14-7.83,2.28-11.41,1.3"/>
<g>
	<path class="st52" d="M1464.01,254.27h93.08c0,0,1.11-52.95-46.26-52.95C1463.45,201.32,1464.01,254.27,1464.01,254.27z"/>
	<path class="st52" d="M1207.07,254.27h93.08c0,0,1.11-52.95-46.26-52.95C1206.52,201.32,1207.07,254.27,1207.07,254.27z"/>
	<path class="st53" d="M1203.17,258.72l-24.45-18.39c0,0-5.23-5.23-5.23-7.52s-0.21-10.24-0.21-10.24l3.34-7.32l26.75-10.24
		l9.41-10.03c0,0,2.93-3.55-1.67-3.14c-4.6,0.42-26.75,7.32-26.75,7.32s1.67-4.81,12.54-9.41s36.99-11.29,60.4-13.79l13.59-0.84
		l56.85-29.89c0,0,21.11-10.45,45.35-12.33l30.31-1.88c0,0,65.42-2.93,104.5,5.23l37.52,3.14c0,0,4.18,0.52,0.84,2.3
		c-3.34,1.78-23.62,5.96-23.62,5.96s33.13,17.66,53.82,24.56l2.51,2.09c0,0,0.84,0.84-2.09,0.84s-28.71-1.62-26.54,2.72
		c0.21,0.42,16.3,12.12,29.05,13.17l2.09,1.88l0.46,11.75c0,0,2.67,7.27,9.78,12.7c0,0,1.88,13.17-6.69,25.5l-19.86,12.12
		c0,0-3.55,0.84-7.73,1.25c-4.18,0.42-9.87-0.09-9.87-0.09s4.64-44.85-42.39-46.31c0,0-35.53-3.34-39.92,40.13h-171.8
		c0,0-3.44-40.92-43.27-39.2c0,0-28.26-3.21-37.2,33.35l-0.91,17.39C1212.09,261.48,1209.02,261.86,1203.17,258.72z"/>
	<path class="st22" d="M1408,173.45l2.09-35.32c0,0,33.86-1.46,56.85,4.39c22.99,5.85,53.71,21.53,53.71,21.53s3.97,2.72-2.93,5.02
		c-6.9,2.3-22.36,3.34-22.36,3.34L1408,173.45z"/>
	<path class="st22" d="M1399.92,138.34l-6.27,35.95l-100.74,4.88c0,0-2.65-1.39,1.25-4.46c3.9-3.07,51-31.91,71.9-34.42
		C1386.96,137.78,1399.92,138.34,1399.92,138.34z"/>
	<line class="st54" x1="1398.8" y1="138.34" x2="1409.67" y2="138.06"/>
	<path class="st54" d="M1300.99,179.86c0,0-5.02,11.15-4.46,37.9s6.69,40.13,6.69,40.13"/>
	<polyline class="st54" points="1405.21,137.78 1400.75,174.84 1400.75,257.89 	"/>
	<path class="st54" d="M1473.76,144.47l21.46,32.33c0,0,6.13,8.08,5.02,12.26c-1.54,5.76-5.02,21.46-5.02,21.46"/>
	<path class="st54" d="M1528.11,214.14c0,0,7.25-4.18,10.03-5.02c2.79-0.84,43.75-3.9,43.75-3.9"/>
	<path class="st22" d="M1465.13,249.18h-171.94h-0.98l1.05,6.85h173.06c0,0,0-4.99,0-7.01L1465.13,249.18z"/>
	<path class="st55" d="M1575.76,172.06c-18.88-3.15-53.51-24.24-53.51-24.24s11.84-2.51,11.84-2.23l9.06-1.39
		c0,0,24.11,17.97,32.19,26.06C1575.34,170.25,1576.6,172.2,1575.76,172.06z"/>
	<circle class="st54" cx="1528.87" cy="192.76" r="6.61"/>
	<path class="st16" d="M1579.1,175.68c0,0-13.66-3.07-26.75,0c0,0-4.74,1.67,0.56,4.74s19.51,8.92,19.51,8.92s6.41,2.51,8.64,1.95
		L1579.1,175.68z"/>
	<circle class="st43" cx="1252.25" cy="251.77" r="32.71"/>
	<circle class="st43" cx="1506.75" cy="251.61" r="32.71"/>
	<circle class="st22" cx="1506.75" cy="251.61" r="21.26"/>
	<circle class="st22" cx="1252.25" cy="251.77" r="21.26"/>
	<path class="st22" d="M1371.77,197.42h14.91c0.77,0,1.4-0.63,1.4-1.4v-2.28c0-0.77-0.63-1.4-1.4-1.4h-14.91
		c-0.77,0-1.4,0.63-1.4,1.4v2.28C1370.38,196.79,1371,197.42,1371.77,197.42z"/>
	<path class="st22" d="M1469.31,197.42h14.91c0.77,0,1.4-0.63,1.4-1.4v-2.28c0-0.77-0.63-1.4-1.4-1.4h-14.91
		c-0.77,0-1.4,0.63-1.4,1.4v2.28C1467.91,196.79,1468.54,197.42,1469.31,197.42z"/>
</g>
<line class="st54" x1="1202.75" y1="206.5" x2="1223.52" y2="221.52"/>
<polygon class="st33" points="104.45,128.87 -6.06,208.12 -4.95,-16.25 103.61,-19.6 "/>
<line class="st47" x1="615.75" y1="35.38" x2="615.75" y2="218.73"/>
<g>
	<line class="st56" x1="1356.26" y1="155.07" x2="1365.74" y2="145.6"/>
	<line class="st56" x1="1353.22" y1="168.95" x2="1375.55" y2="146.44"/>
	<line class="st56" x1="1378.12" y1="153.43" x2="1361.79" y2="170.36"/>
</g>
<rect x="308.73" y="77.52" class="st22" width="8.93" height="185.3"/>
<g>
	<polygon class="st16" points="884.06,212.59 512.25,212.59 514.5,36.59 516.36,35.84 515.98,21.9 525.66,21.9 884.06,21.9 	"/>
	<rect x="513.13" y="208.87" class="st5" width="374.47" height="10.87"/>
	<rect x="876.67" y="20.59" class="st5" width="10.66" height="187.16"/>
	<rect x="521.19" y="12.4" class="st5" width="366.88" height="9.81"/>
	<rect x="496.26" y="36.22" class="st5" width="18.23" height="184.19"/>
	<path class="st57" d="M309.29,252.22h101.02c0,0-2.23-56.93-56.37-55.81C299.8,197.52,309.29,252.22,309.29,252.22z"/>
	<path class="st22" d="M302.4,228.59l-9.67,4.84c0,0-2.98,1.86-2.98,3.72v11.16c0,0-1.12,5.58,3.72,6.33c4.84,0.74,20.47,0,20.47,0
		l1.77-20.56"/>
	<rect x="408.82" y="225.24" class="st22" width="83.72" height="46.88"/>
	<circle class="st58" cx="358.17" cy="264.17" r="41.58"/>
	<path class="st9" d="M495.89,220.77v-192c0,0,0.37-14.88,17.12-16.37h375.07v206.88L495.89,220.77z"/>
	<path class="st9" d="M496.26,36.5c0.57,0,9.58,0,15.26,0c2.64,0,4.56,0,4.56,0V22.45h4.74V12.22"/>
	<line class="st9" x1="520.82" y1="22.45" x2="887.7" y2="22.45"/>
	<line class="st9" x1="876.63" y1="22.36" x2="876.63" y2="209.15"/>
	<path class="st17" d="M384.08,169.33c0,0-49.4,8.09-74.51,22.05c0,0-3.91,1.95-3.91,5.86v16.74c0,0-3.91,6.98-3.07,16.74
		c0,0,1.12,2.79,13.12,3.35c0,0,10.33-25.4,37.4-25.67c0,0,39.07-3.07,48.28,45.21c0,0,2.23,13.12,2.51,21.49c0,0,0,1.95,3.07,1.95
		s6.14-2.79,6.14-2.79v-42.98h65.86c0,0,1.12-3.07,4.74-3.63h4.47c0,0,2.79,0,2.79-2.51V114.64c0,0-1.4-6.14-11.16-5.86v-2.23
		h-51.07c0,0-14.51-0.56-22.05,12S384.08,169.33,384.08,169.33z"/>
	<path class="st29" d="M305.66,213.98c0,0,10.51-15.91,31.72-18.51"/>
	<path class="st29" d="M342.5,194.73c0,0,27.63-3.63,48,19.26"/>
	<path class="st29" d="M393.57,218.17c0,0,15.91,16.74,17.02,46.33"/>
	<line class="st29" x1="479.8" y1="108.77" x2="479.8" y2="231.01"/>
	<path class="st59" d="M425.38,117.89c1.12-0.13,34.42,0,34.42,0s9.12,0.37,9.12,10.98l-1.86,20.28c0,0-0.56,13.58-12.47,15.81
		l-43.35,6.14c0,0-6.88,1.12-7.26-5.95l6.7-34.6C410.68,130.54,412.91,119.38,425.38,117.89z"/>
	<path class="st29" d="M393.75,208.31c-0.19-0.56,0.19-39.07,0.19-39.07s0.19-6.88,2.98-14.14l13.4-31.26"/>
	<path class="st29" d="M310.22,209.05c0,0,3.53-0.74,4.65,1.3c1.12,2.05-1.49,9.49-3.16,11.35c-1.67,1.86-5.95,1.67-8.74,0.19"/>
	<polygon class="st7" points="887.8,203.38 894.77,203.38 894.77,209.52 918.22,209.52 918.22,218.17 888.08,218.17 	"/>
	<circle class="st16" cx="358.17" cy="264.17" r="24.69"/>
	<circle class="st58" cx="745.52" cy="264.17" r="41.58"/>
	<circle class="st16" cx="745.52" cy="264.17" r="24.69"/>
	<path class="st47" d="M468.75,206.45h-11.4c-0.55,0-1-0.45-1-1V186.8c0-0.55,0.45-1,1-1h11.4c0.55,0,1,0.45,1,1v18.65
		C469.75,206,469.3,206.45,468.75,206.45z"/>
	<path class="st9" d="M555.15,238.26v19.26c0,0,0.56,4.74-2.51,5.02h-56.37"/>
	<path class="st20" d="M712.54,238.26"/>
	<path class="st60" d="M413.38,273.15c0.84,0,79.81,0,79.81,0l6.7-5.3v-5.02"/>
	<path class="st9" d="M493.19,273.15v-27.91c0,0-2.23-7.26,4.74-10.05"/>
	<path class="st60" d="M413.38,268.96c0.84-0.56,4.74-2.79,4.74-2.79v-2.51h70.05v6.79l-2.7,2.42"/>
	<path class="st60" d="M418.12,266.17c1.12-0.28,69.49,0,69.49,0"/>
	<path class="st60" d="M413.47,269.89c1.3-0.19,71.26,0,71.26,0l2.98-2.6"/>
	<line class="st20" x1="484.73" y1="269.89" x2="484.73" y2="272.68"/>
	<path class="st20" d="M424.54,106.26c0,0,1.67-4.47,5.58-4.47c3.91,0,12.56,4.19,12.56,4.19"/>
	<line class="st9" x1="514.4" y1="208.4" x2="886.96" y2="208.4"/>
	<path class="st59" d="M409.01,140.03c0,0,1.12-4.84,5.4-5.58s47.07-3.91,47.07-3.91s7.26-0.37,6.7,5.58"/>
	<path class="st23" d="M409.94,137.98c0,0,0.93-3.53,5.4-3.91c4.47-0.37,45.4-3.53,45.4-3.53s6.88-0.56,7.26,3.53
		c0,0,2.23-5.77-0.56-11.91c0,0-2.23-3.91-8.56-4.09h-34.23c0,0-11.16,1.67-13.95,12.47L409.94,137.98z"/>
	<g>
		<line class="st61" x1="432.26" y1="147.77" x2="441.74" y2="138.3"/>
		<line class="st61" x1="429.22" y1="161.64" x2="451.55" y2="139.14"/>
		<line class="st61" x1="456.45" y1="143.75" x2="440.45" y2="160.12"/>
	</g>
</g>
<rect x="942.43" y="0.5" class="st8" width="12.55" height="217.67"/>
<line class="st25" x1="1100.73" y1="271.38" x2="1121.63" y2="247.56"/>
<line class="st25" x1="874.84" y1="271.01" x2="906.68" y2="247.57"/>
<line class="st62" x1="875.98" y1="270.26" x2="875.98" y2="277.33"/>
<line class="st62" x1="1101.84" y1="270.26" x2="1101.84" y2="277.33"/>
<line class="st62" x1="1365.28" y1="270.26" x2="1365.28" y2="277.33"/>
<line class="st9" x1="515.12" y1="36.22" x2="515.12" y2="220.4"/>
<line class="st63" x1="552.61" y1="25.7" x2="552.61" y2="208.77"/>
<line class="st63" x1="592.96" y1="25.7" x2="592.96" y2="208.77"/>
<line class="st63" x1="634.15" y1="25.7" x2="634.15" y2="208.77"/>
<line class="st63" x1="674.49" y1="25.7" x2="674.49" y2="208.77"/>
<line class="st63" x1="714.84" y1="25.7" x2="714.84" y2="208.77"/>
<line class="st63" x1="755.19" y1="25.7" x2="755.19" y2="208.77"/>
<line class="st63" x1="799.73" y1="25.7" x2="799.73" y2="208.77"/>
<line class="st63" x1="840.08" y1="25.7" x2="840.08" y2="208.77"/>
<circle class="st64" cx="1251.98" cy="251.66" r="10.05"/>
<circle class="st64" cx="1506.49" cy="251.66" r="10.05"/>
<g>
	<path class="st19" d="M817.62,92.64l-8.25,8.25c0,0-28.59-0.68-34.71,2.72c-6.13,3.4-17.02-5.45-17.02-5.45
		s-34.03,20.42-40.84,17.7s-14.29-14.97-17.7-17.02c-3.4-2.04-20.42-26.55-20.42-26.55s-3.4,1.36-19.74,2.04
		c-16.34,0.68-25.86-8.85-25.86-8.85s-10.21,8.85-16.34,6.81c-6.13-2.04-15.66-10.89-15.66-10.89s21.1-5.45,8.85-7.49
		s-14.29,2.04-21.78-9.53s1.36-13.61,1.36-13.61l-9.53-12.25l16.85-33.35l-7.64-23.2c1.05-0.21,1.04-9.81,15.07-11.72
		c1.67-0.84-31.9-37.82,16.74-41.86c46.06-3.83,204.56,21.77,204.56,21.77L821.1,94.26"/>
	<polyline class="st20" points="829.78,105.66 851.57,87.96 872.67,62.09 	"/>
</g>
<path class="st65" d="M826.68,65.24c0,0,13.4,17.86,17.86,17.86c4.47,0,16.74-3.35,16.74-3.35l4.47,7.81
	c0,0,14.51,26.79,21.21,27.91c6.7,1.12,14.51-4.47,14.51-4.47l21.21-8.93c0,0,35.72-1.12,40.19-1.12s15.63-11.16,15.63-11.16
	l34.6-68.09l23.44-10.05l-4.47-53.58L786.49-56.43L826.68,65.24z"/>
<path class="st23" d="M810.22,478.5V153.01c0,0-28.08-44.41-30.12-68.92c0,0-23.99-15.31-38.29-36.25h8.68
	c0,0,12.25,18.38,25.01,23.99v-24.5h7.66c0,0,1.53,56.66,32.67,86.78V-9.55h16.34v149.8c0,0,1.02,25.52,3.06,30.12l14.8-12.25
	l30.12-34.2l51.05-25.52l21.44-12.25l5.1,3.06l-20.42,16.34l-53.09,27.57l-22.46,34.71l-26.55,26.55v286.69L810.22,478.5z"/>
<path class="st5" d="M1185.84,199.19c0,0-10.89,16.49-9.21,16.06c1.68-0.43,26.75-10.24,26.75-10.24l9.41-10.03l-1.67-3.14
	L1185.84,199.19z"/>
<circle class="st9" cx="745.47" cy="264.77" r="13.67"/>
<circle class="st9" cx="358.12" cy="264.77" r="13.67"/>
<path class="st66" d="M554.75,108.73c1.24,0.33,5.14-4.42,5.7-8.88l5.3-16.19l25.4-2.51l3.07,6.42l-0.09,1.58l0.28,4.56
	c0,0,0.09,1.3-0.65,2.14c-0.74,0.84-1.02,2.14-0.56,3.16c0.47,1.02,2.51,4.56,2.51,4.56s0.65,1.95-0.56,2.79
	c-1.21,0.84-3.63,0.65-3.63,0.65l-9.67,2.51l-4.37,4.47c0,0-3.63,4.56-3.91,7.44c0,0-5.02-5.58-10.6-9.02
	C557.38,108.96,554.75,108.73,554.75,108.73z"/>
<path class="st22" d="M567.98,94.54c0,0-2.51,8.37-6.98,9.21l-2.79-0.28c0,0-5.3-13.4,0-20.93l9.49,3.91c0,0-2.23,2.79-1.12,4.74
	C567.7,93.15,567.98,94.54,567.98,94.54z"/>
<line class="st60" x1="413.38" y1="248.31" x2="558.5" y2="248.31"/>
<path class="st66" d="M597.98,208.96l7.4,4.88l5.17,3.03l6.55,7.3c0,0,1.12,0.84,0.56,3.91s-2.51,10.88-2.51,10.88
	s-2.09,0.56-2.65-0.56c-0.56-1.12-0.42-4.88-0.42-4.88l0.56-4.47c0,0-5.18-7.18-6.71-7.85s-6.65,4.34-6.65,4.34s-2.83-0.12-5.34-7.1
	l-2.09-1.95L597.98,208.96z"/>
<g>
	<path class="st44" d="M581.64,211.96c0,0,6.94,5.78,7.81,6.07c0.87,0.29,9.83-10.99,9.83-10.99s-12.14-10.99-13.3-11.28l-4.32-5.5
		L581.64,211.96z"/>
	<path class="st36" d="M573.54,126.08c0,0,11.86,25.74,11.57,29.78c-0.29,4.05,3.25,31.06,3.25,31.06s10.05,23.81-10.19,28.51
		c-1.52,0.35-3.49,1.91-3.49,1.91l-4.74,0.84c-6.42,1.12-25.95-1.95-25.95-1.95s-8.9-2.24-12.08-6.57
		c-3.18-4.34,4.63-32.39,4.92-33.54l1.58-1.19c0,0-1.4-8.65-1.87-9.8c0,0-2.25-23.15-1.45-30.36c1.16-10.41,14.75-21.69,14.75-21.69
		"/>
	<path class="st20" d="M554.75,108.73l-5.2,3.76c0,0,18.8,12.43,25.73,14.17l-2.02-6.07C573.25,120.58,563.42,111.04,554.75,108.73z
		"/>
	<path class="st67" d="M577.88,376.49c0,0-2.31,6.94-1.45,13.59h50.6c0,0,4.92-3.18,0.58-7.23c-4.34-4.05-14.17-1.45-24-11.57"/>
	<path class="st68" d="M538.26,240.29c-1.45,4.63-6.07,29.49-5.49,39.61s-4.05,10.12-13.59,15.61c-9.54,5.49-18.8,15.33-23.42,20.24
		s-19.37,13.88-19.37,13.88c0.87,12.14,9.54,25.16,9.54,25.16s59.57-49.74,64.19-52.05s8.1-7.81,8.1-7.81l8.96-17.35l3.24-8.45
		L538.26,240.29z"/>
	<path class="st33" d="M578.17,215.43c0,0,9.83,14.17,15.61,21.98c5.78,7.81,9.83,41.64,9.83,41.64s2.89,5.78,4.05,12.43
		c1.16,6.65-2.02,13.88-2.02,13.88l-2.02,65.93c0,0-0.29,4.34-10.12,8.39c-9.83,4.05-16.19-4.05-16.19-4.05s1.45-26.02,0.58-39.04
		c-0.87-13.01,1.45-29.49,1.73-35.28c0.29-5.78-2.89-12.43-2.89-12.43s-31.23-34.7-37.3-45.69c-6.07-10.99-4.92-28.63-4.92-30.36
		L578.17,215.43z"/>
	<path class="st67" d="M476.1,331.96l-3.76,0.29c0,0-9.25-0.58-14.75,4.63c0,0-1.16,8.67,2.6,16.77c0,0,2.31,5.78,2.89,9.25
		c0.58,3.47,3.18,17.06,10.99,19.37c0,0,6.07,1.16,4.34-6.07s1.45-17.35,5.2-25.16"/>
	<path class="st69" d="M597.54,86.17c0,0,3.76,6.07,0.29,6.07c-3.47,0-13.01-3.47-14.75-3.76c0,0-2.82-1.2-1.98-1.2
		C581.94,87.29,597.54,86.17,597.54,86.17z"/>
	<path class="st67" d="M556.19,85.3c0.26,1.53,36.43,4.34,40.19,2.31c3.76-2.02-0.05-15.41-14.75-19.08
		C561.98,63.62,554.75,76.92,556.19,85.3z"/>
	<path class="st66" d="M571.24,90.36c0.84-0.74,2.88-3.16,2.88-3.16s-1.27-1.99-3.47-1.6c-2.2,0.39-3.32,2.53-3.5,3.18
		S571.24,90.36,571.24,90.36z"/>
	<path class="st70" d="M574.77,88.31c0,0-1.23-2.72-4.12-2.72c-2.89,0-5.2,4.34-3.18,7.52c2.02,3.18,2.6,4.92,3.18,5.78
		c0.58,0.87,2.02,3.76,6.07,1.73"/>
	<path class="st71" d="M601.88,216.58c0,0,0.29,2.31,4.05,4.63s5.49,7.52,5.49,7.52"/>
	<path class="st71" d="M601.88,211.67l8.67,5.2l7.52,8.39c0,0-0.58,8.1-1.73,10.12"/>
	<path class="st71" d="M594.94,219.18c0.58,1.16,0.58,3.76,4.34,6.36s6.94,7.23,7.23,10.41"/>
	<path class="st44" d="M568.34,137.35c0.46,5.76-4.34,11.57-4.92,17.06c-0.58,5.49-3.47,18.22-4.05,21.4
		c-0.58,3.18-2.31,6.65,0,16.48c2.31,9.83-1.45,17.93-2.02,24.58c-0.58,6.65,0.87,18.51,0.87,18.51h-13.3c0,0-2.89-11.28-4.34-17.64
		c-1.45-6.36-2.02-26.6-2.02-26.6l-0.58-7.81c-1.45-4.34-1.45-29.2,0-44.24s15.33-15.9,15.33-15.9S567.29,124.26,568.34,137.35z"/>
</g>
<path class="st45" d="M566.96,220.4c0,0,6.14,9.12,2.42,18.23l16.74,30.51"/>
<path class="st45" d="M590.59,282.17c0,0,3.35,10.79,3.35,15.63c0,4.84-5.58,51.35-1.86,68.84"/>
<line class="st45" x1="589.84" y1="269.89" x2="585.75" y2="275.47"/>
<line class="st45" x1="591.7" y1="273.61" x2="587.61" y2="279.19"/>
<path class="st44" d="M557.1,225.98c-1.12,0.37-13.4,1.86-13.4,1.86"/>
<path class="st45" d="M558.4,219.29c0.93,0,21.02,1.49,21.02,1.49"/>
<line class="st45" x1="566.03" y1="232.68" x2="560.82" y2="218.91"/>
<line class="st45" x1="532.54" y1="285.98" x2="531.8" y2="297.43"/>
<line class="st44" x1="591.98" y1="200.59" x2="584.73" y2="214.26"/>
<path class="st22" d="M576.45,102.45c0,0-5.58,3.91-5.21,6.88s5.02,7.81,6.14,8.93c1.12,1.12,5.58,3.35,7.81,3.16
	c2.23-0.19,4.28-7.63,4.28-7.63l2.09-6.84c0,0-5.86,0-5.07-3.02c0.43-1.63-8-8-7.63-15.81l-2.98-0.37c0,0,0.19,9.3,1.12,10.79
	C577.94,100.03,576.45,102.45,576.45,102.45z"/>
<path class="st70" d="M589.94,101.7c0,0-1.02-0.47-1.95,0.19s-1.86,2.7-0.37,4c1.49,1.3,3.95,1.07,3.95,1.07"/>
<path class="st66" d="M558.08,236.17l1.53,9.77c0,0,0.56,7.95,0.14,10.19c-0.42,2.23-2.37,8.23-2.37,8.23s-1.81,4.19-4.47,5.72
	c-2.65,1.53-4.47,2.37-4.47,2.37s-1.81-1.26,0.42-3.49c2.23-2.23,3.07-3.35,3.07-3.35l1.95-5.44c0,0-6.7-4.47-6.14-10.19
	c0.56-5.72,0.7-8.37,0.42-9.77c-0.28-1.4-1.4-4.33-1.4-4.33L558.08,236.17z"/>
</svg>
